G04 EAGLE Gerber X2 export*
%TF.Part,Single*%
%TF.FileFunction,Copper,L1,Top,Mixed*%
%TF.FilePolarity,Positive*%
%TF.GenerationSoftware,Autodesk,EAGLE,9.2.2*%
%TF.CreationDate,2019-11-14T03:52:34Z*%
G75*
%MOIN*%
%FSLAX36Y36*%
%LPD*%
%INTop Copper Layer*%
%AMOC8*
5,1,8,0,0,1.08239X$1,22.5*%
G01*
%ADD10P,0.068191X8X22.500000*%
%ADD11C,0.067307*%
%ADD12C,0.056000*%
%ADD13C,0.056000*%
%ADD14C,0.074000*%
%ADD15C,0.064000*%
%ADD16P,0.060614X8X202.500000*%
%ADD17P,0.060614X8X22.500000*%
%ADD18P,0.060614X8X112.500000*%
%ADD19P,0.060614X8X292.500000*%
%ADD20R,0.059433X0.059433*%
%ADD21C,0.059433*%
%ADD22R,0.057087X0.017717*%
%ADD23R,0.054709X0.054709*%
%ADD24C,0.054709*%
%ADD25R,0.071244X0.071244*%
%ADD26C,0.071244*%
%ADD27C,0.008000*%

G36*
X2480464Y15059D02*
X2480464Y15059D01*
X2480931Y15088D01*
X2481084Y15137D01*
X2481242Y15157D01*
X2481677Y15329D01*
X2482123Y15474D01*
X2482258Y15559D01*
X2482407Y15618D01*
X2482785Y15892D01*
X2483181Y16143D01*
X2483291Y16260D01*
X2483421Y16354D01*
X2483719Y16714D01*
X2484040Y17055D01*
X2484117Y17195D01*
X2484219Y17318D01*
X2484419Y17742D01*
X2484645Y18151D01*
X2484685Y18306D01*
X2484753Y18451D01*
X2484841Y18910D01*
X2484959Y19364D01*
X2484974Y19602D01*
X2484989Y19681D01*
X2484984Y19762D01*
X2484999Y20000D01*
X2484999Y3180000D01*
X2484941Y3180464D01*
X2484912Y3180931D01*
X2484862Y3181084D01*
X2484842Y3181242D01*
X2484670Y3181677D01*
X2484526Y3182123D01*
X2484440Y3182258D01*
X2484382Y3182407D01*
X2484107Y3182785D01*
X2483857Y3183181D01*
X2483740Y3183291D01*
X2483646Y3183421D01*
X2483286Y3183719D01*
X2482945Y3184040D01*
X2482805Y3184117D01*
X2482681Y3184219D01*
X2482258Y3184419D01*
X2481849Y3184645D01*
X2481694Y3184685D01*
X2481549Y3184753D01*
X2481090Y3184841D01*
X2480636Y3184959D01*
X2480398Y3184974D01*
X2480319Y3184989D01*
X2480238Y3184984D01*
X2480000Y3184999D01*
X20000Y3184999D01*
X19536Y3184941D01*
X19069Y3184912D01*
X18916Y3184862D01*
X18757Y3184842D01*
X18323Y3184670D01*
X17877Y3184526D01*
X17742Y3184440D01*
X17593Y3184382D01*
X17215Y3184107D01*
X16819Y3183857D01*
X16709Y3183740D01*
X16579Y3183646D01*
X16281Y3183286D01*
X15960Y3182945D01*
X15883Y3182805D01*
X15781Y3182681D01*
X15581Y3182258D01*
X15355Y3181849D01*
X15315Y3181694D01*
X15247Y3181549D01*
X15159Y3181090D01*
X15041Y3180636D01*
X15026Y3180398D01*
X15011Y3180319D01*
X15016Y3180238D01*
X15001Y3180000D01*
X15001Y1921698D01*
X15069Y1921155D01*
X15120Y1920611D01*
X15147Y1920535D01*
X15157Y1920456D01*
X15359Y1919947D01*
X15544Y1919432D01*
X15589Y1919366D01*
X15618Y1919291D01*
X15940Y1918848D01*
X16247Y1918396D01*
X16307Y1918343D01*
X16354Y1918278D01*
X16775Y1917929D01*
X17185Y1917567D01*
X17257Y1917530D01*
X17318Y1917479D01*
X17812Y1917246D01*
X18300Y1916997D01*
X18379Y1916979D01*
X18451Y1916945D01*
X18988Y1916842D01*
X19522Y1916722D01*
X19602Y1916724D01*
X19681Y1916709D01*
X20227Y1916743D01*
X20774Y1916759D01*
X20851Y1916781D01*
X20931Y1916786D01*
X21451Y1916955D01*
X21977Y1917107D01*
X22046Y1917147D01*
X22123Y1917172D01*
X22586Y1917465D01*
X23056Y1917742D01*
X23140Y1917815D01*
X23181Y1917842D01*
X23237Y1917901D01*
X23535Y1918163D01*
X56866Y1951494D01*
X57153Y1951865D01*
X57463Y1952215D01*
X57535Y1952357D01*
X57634Y1952484D01*
X57820Y1952914D01*
X58032Y1953330D01*
X58068Y1953486D01*
X58131Y1953633D01*
X58205Y1954095D01*
X58307Y1954552D01*
X58303Y1954712D01*
X58328Y1954870D01*
X58284Y1955335D01*
X58270Y1955804D01*
X58226Y1955958D01*
X58211Y1956117D01*
X58052Y1956557D01*
X57922Y1957007D01*
X57841Y1957145D01*
X57787Y1957295D01*
X57524Y1957683D01*
X57287Y1958086D01*
X57130Y1958265D01*
X57084Y1958332D01*
X57023Y1958386D01*
X56866Y1958564D01*
X53089Y1962341D01*
X46999Y1977043D01*
X46999Y1992957D01*
X53089Y2007658D01*
X64342Y2018911D01*
X79043Y2025001D01*
X140302Y2025001D01*
X140845Y2025069D01*
X141389Y2025120D01*
X141465Y2025147D01*
X141544Y2025157D01*
X142053Y2025359D01*
X142568Y2025544D01*
X142634Y2025589D01*
X142709Y2025618D01*
X143151Y2025940D01*
X143604Y2026247D01*
X143657Y2026307D01*
X143722Y2026354D01*
X144071Y2026776D01*
X144433Y2027185D01*
X144470Y2027257D01*
X144521Y2027318D01*
X144754Y2027813D01*
X145003Y2028300D01*
X145021Y2028379D01*
X145055Y2028451D01*
X145158Y2028988D01*
X145278Y2029522D01*
X145276Y2029602D01*
X145291Y2029681D01*
X145257Y2030227D01*
X145241Y2030774D01*
X145218Y2030851D01*
X145213Y2030931D01*
X145045Y2031451D01*
X144893Y2031977D01*
X144852Y2032047D01*
X144828Y2032123D01*
X144535Y2032585D01*
X144258Y2033056D01*
X144185Y2033140D01*
X144158Y2033181D01*
X144098Y2033237D01*
X143837Y2033535D01*
X133836Y2043535D01*
X133530Y2043773D01*
X133246Y2044040D01*
X133036Y2044156D01*
X132847Y2044303D01*
X132490Y2044457D01*
X132150Y2044645D01*
X131918Y2044705D01*
X131698Y2044800D01*
X131314Y2044861D01*
X130938Y2044959D01*
X130541Y2044984D01*
X130461Y2044997D01*
X130413Y2044992D01*
X130301Y2044999D01*
X79043Y2044999D01*
X64342Y2051089D01*
X53089Y2062342D01*
X46999Y2077043D01*
X46999Y2092957D01*
X53089Y2107658D01*
X64342Y2118911D01*
X79043Y2125001D01*
X150957Y2125001D01*
X165658Y2118911D01*
X176911Y2107658D01*
X183001Y2092957D01*
X183001Y2077043D01*
X176911Y2062342D01*
X172134Y2057564D01*
X171847Y2057194D01*
X171537Y2056844D01*
X171464Y2056701D01*
X171366Y2056575D01*
X171181Y2056146D01*
X170967Y2055729D01*
X170932Y2055572D01*
X170869Y2055426D01*
X170795Y2054964D01*
X170693Y2054507D01*
X170697Y2054347D01*
X170672Y2054189D01*
X170716Y2053723D01*
X170730Y2053255D01*
X170774Y2053101D01*
X170789Y2052942D01*
X170947Y2052502D01*
X171077Y2052052D01*
X171159Y2051914D01*
X171213Y2051763D01*
X171475Y2051376D01*
X171713Y2050973D01*
X171870Y2050794D01*
X171916Y2050727D01*
X171976Y2050673D01*
X172134Y2050494D01*
X263465Y1959163D01*
X263898Y1958827D01*
X264319Y1958479D01*
X264391Y1958445D01*
X264454Y1958396D01*
X264957Y1958178D01*
X265451Y1957945D01*
X265530Y1957930D01*
X265604Y1957898D01*
X266144Y1957812D01*
X266681Y1957709D01*
X266761Y1957714D01*
X266841Y1957702D01*
X267384Y1957753D01*
X267931Y1957786D01*
X268008Y1957811D01*
X268087Y1957819D01*
X268601Y1958003D01*
X269123Y1958172D01*
X269191Y1958215D01*
X269266Y1958242D01*
X269717Y1958548D01*
X270181Y1958842D01*
X270236Y1958900D01*
X270302Y1958945D01*
X270664Y1959355D01*
X271040Y1959753D01*
X271078Y1959823D01*
X271132Y1959883D01*
X271381Y1960372D01*
X271645Y1960850D01*
X271665Y1960927D01*
X271702Y1960999D01*
X271821Y1961532D01*
X271959Y1962062D01*
X271966Y1962173D01*
X271976Y1962220D01*
X271974Y1962302D01*
X271999Y1962698D01*
X271999Y2207301D01*
X271951Y2207687D01*
X271939Y2208076D01*
X271872Y2208306D01*
X271842Y2208544D01*
X271700Y2208905D01*
X271592Y2209279D01*
X271470Y2209485D01*
X271382Y2209708D01*
X271153Y2210023D01*
X270956Y2210358D01*
X270694Y2210656D01*
X270646Y2210722D01*
X270609Y2210753D01*
X270535Y2210836D01*
X47999Y2433372D01*
X47999Y2494628D01*
X76038Y2522666D01*
X76325Y2523036D01*
X76634Y2523386D01*
X76707Y2523529D01*
X76805Y2523655D01*
X76991Y2524084D01*
X77204Y2524501D01*
X77239Y2524658D01*
X77303Y2524805D01*
X77376Y2525266D01*
X77479Y2525723D01*
X77474Y2525883D01*
X77499Y2526041D01*
X77456Y2526507D01*
X77442Y2526975D01*
X77397Y2527129D01*
X77382Y2527288D01*
X77224Y2527728D01*
X77094Y2528178D01*
X77013Y2528316D01*
X76959Y2528467D01*
X76696Y2528854D01*
X76459Y2529257D01*
X76301Y2529436D01*
X76256Y2529503D01*
X76195Y2529557D01*
X76038Y2529736D01*
X70698Y2535076D01*
X63999Y2551248D01*
X63999Y2568752D01*
X70698Y2584924D01*
X83076Y2597302D01*
X99248Y2604001D01*
X180752Y2604001D01*
X196924Y2597302D01*
X209302Y2584924D01*
X216001Y2568752D01*
X216001Y2551248D01*
X209302Y2535076D01*
X196924Y2522698D01*
X180752Y2515999D01*
X116698Y2515999D01*
X116313Y2515951D01*
X115924Y2515939D01*
X115694Y2515872D01*
X115456Y2515842D01*
X115095Y2515700D01*
X114721Y2515592D01*
X114514Y2515470D01*
X114291Y2515382D01*
X113977Y2515153D01*
X113642Y2514956D01*
X113343Y2514694D01*
X113278Y2514646D01*
X113247Y2514609D01*
X113163Y2514535D01*
X111163Y2512535D01*
X110827Y2512102D01*
X110479Y2511681D01*
X110445Y2511609D01*
X110396Y2511545D01*
X110178Y2511043D01*
X109945Y2510549D01*
X109930Y2510470D01*
X109898Y2510396D01*
X109812Y2509856D01*
X109709Y2509319D01*
X109714Y2509239D01*
X109702Y2509159D01*
X109753Y2508615D01*
X109786Y2508069D01*
X109811Y2507992D01*
X109819Y2507913D01*
X110003Y2507399D01*
X110172Y2506877D01*
X110215Y2506809D01*
X110242Y2506734D01*
X110548Y2506283D01*
X110842Y2505819D01*
X110900Y2505764D01*
X110945Y2505697D01*
X111355Y2505336D01*
X111753Y2504960D01*
X111823Y2504922D01*
X111883Y2504868D01*
X112373Y2504618D01*
X112850Y2504355D01*
X112927Y2504335D01*
X112999Y2504298D01*
X113532Y2504178D01*
X114062Y2504041D01*
X114173Y2504034D01*
X114220Y2504023D01*
X114302Y2504026D01*
X114698Y2504001D01*
X180752Y2504001D01*
X196924Y2497302D01*
X209302Y2484924D01*
X216001Y2468752D01*
X216001Y2451248D01*
X209302Y2435076D01*
X201962Y2427736D01*
X201675Y2427366D01*
X201366Y2427016D01*
X201293Y2426873D01*
X201195Y2426746D01*
X201009Y2426318D01*
X200796Y2425900D01*
X200761Y2425744D01*
X200697Y2425597D01*
X200624Y2425135D01*
X200521Y2424679D01*
X200526Y2424518D01*
X200501Y2424360D01*
X200544Y2423895D01*
X200558Y2423427D01*
X200603Y2423273D01*
X200618Y2423114D01*
X200776Y2422674D01*
X200906Y2422224D01*
X200987Y2422086D01*
X201041Y2421935D01*
X201304Y2421548D01*
X201541Y2421144D01*
X201699Y2420965D01*
X201744Y2420898D01*
X201805Y2420845D01*
X201962Y2420666D01*
X424001Y2198628D01*
X424001Y2130000D01*
X424059Y2129536D01*
X424088Y2129069D01*
X424137Y2128916D01*
X424157Y2128757D01*
X424329Y2128323D01*
X424474Y2127877D01*
X424559Y2127742D01*
X424618Y2127593D01*
X424892Y2127215D01*
X425143Y2126819D01*
X425260Y2126709D01*
X425354Y2126579D01*
X425714Y2126281D01*
X426055Y2125960D01*
X426195Y2125883D01*
X426318Y2125781D01*
X426742Y2125581D01*
X427151Y2125355D01*
X427306Y2125315D01*
X427451Y2125247D01*
X427910Y2125159D01*
X428364Y2125041D01*
X428602Y2125026D01*
X428681Y2125011D01*
X428762Y2125016D01*
X429000Y2125001D01*
X450957Y2125001D01*
X465658Y2118911D01*
X476911Y2107658D01*
X483001Y2092957D01*
X483001Y2077043D01*
X476911Y2062342D01*
X465658Y2051089D01*
X450957Y2044999D01*
X379043Y2044999D01*
X364342Y2051089D01*
X353089Y2062342D01*
X346999Y2077043D01*
X346999Y2092957D01*
X353089Y2107658D01*
X364342Y2118911D01*
X379043Y2125001D01*
X387000Y2125001D01*
X387464Y2125059D01*
X387931Y2125088D01*
X388084Y2125137D01*
X388242Y2125157D01*
X388677Y2125329D01*
X389123Y2125474D01*
X389258Y2125559D01*
X389407Y2125618D01*
X389785Y2125892D01*
X390181Y2126143D01*
X390291Y2126260D01*
X390421Y2126354D01*
X390719Y2126714D01*
X391040Y2127055D01*
X391117Y2127195D01*
X391219Y2127318D01*
X391419Y2127742D01*
X391645Y2128151D01*
X391685Y2128306D01*
X391753Y2128451D01*
X391841Y2128910D01*
X391959Y2129364D01*
X391974Y2129602D01*
X391989Y2129681D01*
X391984Y2129762D01*
X391999Y2130000D01*
X391999Y2183301D01*
X391951Y2183687D01*
X391939Y2184076D01*
X391872Y2184306D01*
X391842Y2184544D01*
X391700Y2184905D01*
X391592Y2185279D01*
X391470Y2185485D01*
X391382Y2185708D01*
X391153Y2186023D01*
X390956Y2186358D01*
X390694Y2186656D01*
X390646Y2186722D01*
X390609Y2186753D01*
X390535Y2186836D01*
X162837Y2414535D01*
X162529Y2414773D01*
X162247Y2415040D01*
X162037Y2415156D01*
X161847Y2415303D01*
X161490Y2415457D01*
X161150Y2415645D01*
X160918Y2415705D01*
X160698Y2415800D01*
X160314Y2415861D01*
X159938Y2415959D01*
X159541Y2415984D01*
X159461Y2415997D01*
X159413Y2415992D01*
X159302Y2415999D01*
X122698Y2415999D01*
X122155Y2415931D01*
X121611Y2415880D01*
X121535Y2415852D01*
X121456Y2415842D01*
X120947Y2415641D01*
X120432Y2415456D01*
X120366Y2415411D01*
X120291Y2415382D01*
X119848Y2415060D01*
X119396Y2414753D01*
X119343Y2414693D01*
X119278Y2414646D01*
X118929Y2414225D01*
X118567Y2413815D01*
X118530Y2413743D01*
X118479Y2413681D01*
X118246Y2413188D01*
X117997Y2412700D01*
X117979Y2412621D01*
X117945Y2412549D01*
X117842Y2412012D01*
X117722Y2411478D01*
X117724Y2411397D01*
X117709Y2411319D01*
X117743Y2410773D01*
X117759Y2410226D01*
X117781Y2410149D01*
X117786Y2410069D01*
X117955Y2409548D01*
X118107Y2409023D01*
X118147Y2408954D01*
X118172Y2408877D01*
X118465Y2408414D01*
X118742Y2407944D01*
X118815Y2407860D01*
X118842Y2407819D01*
X118901Y2407762D01*
X119163Y2407465D01*
X304001Y2222628D01*
X304001Y1528698D01*
X304049Y1528313D01*
X304061Y1527924D01*
X304127Y1527694D01*
X304157Y1527456D01*
X304300Y1527095D01*
X304408Y1526721D01*
X304530Y1526514D01*
X304618Y1526291D01*
X304846Y1525977D01*
X305044Y1525642D01*
X305306Y1525344D01*
X305354Y1525278D01*
X305391Y1525247D01*
X305465Y1525163D01*
X338977Y1491651D01*
X339131Y1491531D01*
X339262Y1491388D01*
X339623Y1491150D01*
X339966Y1490884D01*
X340146Y1490806D01*
X340308Y1490699D01*
X340717Y1490559D01*
X341116Y1490386D01*
X341308Y1490355D01*
X341492Y1490292D01*
X341924Y1490258D01*
X342352Y1490190D01*
X342547Y1490208D01*
X342741Y1490192D01*
X343168Y1490266D01*
X343599Y1490307D01*
X343783Y1490373D01*
X343975Y1490406D01*
X344370Y1490584D01*
X344778Y1490730D01*
X344939Y1490840D01*
X345117Y1490920D01*
X345456Y1491190D01*
X345814Y1491433D01*
X345943Y1491579D01*
X346096Y1491701D01*
X346356Y1492047D01*
X346643Y1492372D01*
X346732Y1492546D01*
X346850Y1492701D01*
X347131Y1493273D01*
X353089Y1507658D01*
X364342Y1518911D01*
X379043Y1525001D01*
X450957Y1525001D01*
X465658Y1518911D01*
X476911Y1507658D01*
X483001Y1492957D01*
X483001Y1477043D01*
X481521Y1473472D01*
X481491Y1473360D01*
X481438Y1473258D01*
X481326Y1472759D01*
X481190Y1472264D01*
X481189Y1472148D01*
X481163Y1472036D01*
X481179Y1471524D01*
X481171Y1471012D01*
X481197Y1470900D01*
X481201Y1470784D01*
X481343Y1470291D01*
X481462Y1469794D01*
X481516Y1469692D01*
X481548Y1469581D01*
X481809Y1469139D01*
X482048Y1468687D01*
X482125Y1468602D01*
X482184Y1468502D01*
X482605Y1468023D01*
X653163Y1297465D01*
X664001Y1286628D01*
X664001Y949761D01*
X664069Y949218D01*
X664073Y949179D01*
X664088Y948931D01*
X664099Y948897D01*
X664120Y948673D01*
X664148Y948597D01*
X664157Y948518D01*
X664359Y948009D01*
X664544Y947494D01*
X664589Y947428D01*
X664618Y947354D01*
X664940Y946910D01*
X665247Y946458D01*
X665307Y946405D01*
X665354Y946340D01*
X665775Y945991D01*
X666185Y945629D01*
X666257Y945592D01*
X666318Y945541D01*
X666813Y945308D01*
X667301Y945059D01*
X667378Y945042D01*
X667451Y945007D01*
X667989Y944904D01*
X668522Y944784D01*
X668602Y944787D01*
X668681Y944772D01*
X669227Y944805D01*
X669774Y944822D01*
X669851Y944844D01*
X669931Y944849D01*
X670452Y945017D01*
X670977Y945169D01*
X671046Y945210D01*
X671123Y945234D01*
X671586Y945528D01*
X672056Y945805D01*
X672140Y945878D01*
X672181Y945904D01*
X672237Y945964D01*
X672535Y946226D01*
X672810Y946501D01*
X682000Y946501D01*
X682000Y908001D01*
X682059Y907537D01*
X682088Y907070D01*
X682137Y906917D01*
X682157Y906758D01*
X682329Y906323D01*
X682474Y905878D01*
X682559Y905742D01*
X682618Y905594D01*
X682892Y905216D01*
X683143Y904820D01*
X683260Y904710D01*
X683354Y904580D01*
X683714Y904282D01*
X684055Y903961D01*
X684195Y903884D01*
X684318Y903781D01*
X684741Y903582D01*
X685151Y903356D01*
X685306Y903316D01*
X685451Y903247D01*
X685910Y903159D01*
X686364Y903042D01*
X686602Y903027D01*
X686681Y903012D01*
X686762Y903017D01*
X687000Y903001D01*
X688001Y903001D01*
X688001Y902000D01*
X688060Y901536D01*
X688089Y901069D01*
X688138Y900916D01*
X688158Y900757D01*
X688330Y900322D01*
X688475Y899877D01*
X688560Y899742D01*
X688619Y899593D01*
X688893Y899215D01*
X689144Y898819D01*
X689261Y898709D01*
X689355Y898579D01*
X689715Y898281D01*
X690056Y897960D01*
X690196Y897883D01*
X690319Y897781D01*
X690742Y897581D01*
X691152Y897355D01*
X691307Y897315D01*
X691452Y897246D01*
X691911Y897158D01*
X692365Y897041D01*
X692603Y897026D01*
X692682Y897011D01*
X692763Y897016D01*
X693001Y897000D01*
X731501Y897000D01*
X731501Y887810D01*
X707190Y863499D01*
X699198Y863499D01*
X698655Y863431D01*
X698111Y863380D01*
X698035Y863352D01*
X697956Y863342D01*
X697447Y863141D01*
X696932Y862956D01*
X696866Y862911D01*
X696791Y862882D01*
X696348Y862560D01*
X695896Y862253D01*
X695843Y862193D01*
X695778Y862146D01*
X695429Y861725D01*
X695067Y861315D01*
X695030Y861243D01*
X694979Y861181D01*
X694746Y860688D01*
X694497Y860200D01*
X694479Y860121D01*
X694445Y860049D01*
X694342Y859512D01*
X694222Y858978D01*
X694224Y858897D01*
X694209Y858819D01*
X694243Y858273D01*
X694259Y857726D01*
X694281Y857649D01*
X694286Y857569D01*
X694455Y857048D01*
X694607Y856523D01*
X694647Y856454D01*
X694672Y856377D01*
X694965Y855914D01*
X695242Y855444D01*
X695315Y855360D01*
X695342Y855319D01*
X695401Y855263D01*
X695663Y854965D01*
X901465Y649163D01*
X901898Y648827D01*
X902319Y648479D01*
X902391Y648445D01*
X902454Y648396D01*
X902957Y648178D01*
X903451Y647945D01*
X903530Y647930D01*
X903604Y647898D01*
X904144Y647812D01*
X904681Y647709D01*
X904761Y647714D01*
X904841Y647702D01*
X905384Y647753D01*
X905931Y647786D01*
X906008Y647811D01*
X906087Y647819D01*
X906601Y648003D01*
X907123Y648172D01*
X907191Y648215D01*
X907266Y648242D01*
X907717Y648548D01*
X908181Y648842D01*
X908236Y648900D01*
X908302Y648945D01*
X908664Y649355D01*
X909040Y649753D01*
X909078Y649823D01*
X909132Y649883D01*
X909381Y650372D01*
X909645Y650850D01*
X909665Y650927D01*
X909702Y650999D01*
X909821Y651532D01*
X909959Y652062D01*
X909966Y652173D01*
X909976Y652220D01*
X909974Y652302D01*
X909999Y652698D01*
X909999Y666569D01*
X926535Y683104D01*
X926773Y683412D01*
X927040Y683695D01*
X927156Y683904D01*
X927303Y684094D01*
X927457Y684451D01*
X927645Y684791D01*
X927705Y685023D01*
X927800Y685243D01*
X927861Y685627D01*
X927959Y686003D01*
X927984Y686400D01*
X927997Y686480D01*
X927992Y686528D01*
X927999Y686640D01*
X927999Y743301D01*
X927951Y743687D01*
X927939Y744076D01*
X927872Y744306D01*
X927842Y744544D01*
X927700Y744905D01*
X927592Y745279D01*
X927470Y745485D01*
X927382Y745708D01*
X927153Y746023D01*
X926956Y746358D01*
X926694Y746656D01*
X926646Y746722D01*
X926609Y746753D01*
X926535Y746836D01*
X813337Y860035D01*
X813029Y860273D01*
X812747Y860540D01*
X812537Y860656D01*
X812347Y860803D01*
X811990Y860957D01*
X811650Y861145D01*
X811418Y861205D01*
X811198Y861300D01*
X810814Y861361D01*
X810438Y861459D01*
X810041Y861484D01*
X809961Y861497D01*
X809913Y861492D01*
X809802Y861499D01*
X771982Y861499D01*
X746499Y886982D01*
X746499Y923018D01*
X771982Y948501D01*
X808018Y948501D01*
X833501Y923018D01*
X833501Y887198D01*
X833549Y886813D01*
X833561Y886424D01*
X833627Y886194D01*
X833657Y885956D01*
X833800Y885595D01*
X833908Y885221D01*
X834030Y885014D01*
X834118Y884791D01*
X834346Y884477D01*
X834544Y884142D01*
X834806Y883843D01*
X834854Y883778D01*
X834891Y883747D01*
X834965Y883663D01*
X960001Y758628D01*
X960001Y695000D01*
X960059Y694536D01*
X960088Y694069D01*
X960137Y693916D01*
X960157Y693757D01*
X960329Y693323D01*
X960474Y692877D01*
X960559Y692742D01*
X960618Y692593D01*
X960892Y692215D01*
X961143Y691819D01*
X961260Y691709D01*
X961354Y691579D01*
X961714Y691281D01*
X962055Y690960D01*
X962195Y690883D01*
X962318Y690781D01*
X962742Y690581D01*
X963151Y690355D01*
X963306Y690315D01*
X963451Y690247D01*
X963910Y690159D01*
X964364Y690041D01*
X964602Y690026D01*
X964681Y690011D01*
X964762Y690016D01*
X965000Y690001D01*
X966569Y690001D01*
X990001Y666569D01*
X990001Y633431D01*
X966569Y609999D01*
X952698Y609999D01*
X952155Y609931D01*
X951611Y609880D01*
X951535Y609852D01*
X951456Y609842D01*
X950947Y609641D01*
X950432Y609456D01*
X950366Y609411D01*
X950291Y609382D01*
X949848Y609060D01*
X949396Y608753D01*
X949343Y608693D01*
X949278Y608646D01*
X948929Y608225D01*
X948567Y607815D01*
X948530Y607743D01*
X948479Y607681D01*
X948246Y607188D01*
X947997Y606700D01*
X947979Y606621D01*
X947945Y606549D01*
X947842Y606012D01*
X947722Y605478D01*
X947724Y605397D01*
X947709Y605319D01*
X947743Y604773D01*
X947759Y604226D01*
X947781Y604149D01*
X947786Y604069D01*
X947955Y603548D01*
X948107Y603023D01*
X948147Y602954D01*
X948172Y602877D01*
X948465Y602414D01*
X948742Y601944D01*
X948815Y601860D01*
X948842Y601819D01*
X948901Y601763D01*
X949163Y601465D01*
X1245163Y305465D01*
X1245471Y305226D01*
X1245753Y304960D01*
X1245963Y304844D01*
X1246153Y304697D01*
X1246510Y304543D01*
X1246850Y304355D01*
X1247082Y304295D01*
X1247302Y304200D01*
X1247686Y304139D01*
X1248062Y304041D01*
X1248459Y304016D01*
X1248539Y304003D01*
X1248587Y304008D01*
X1248698Y304001D01*
X1266233Y304001D01*
X1266348Y304015D01*
X1266462Y304006D01*
X1266967Y304093D01*
X1267476Y304157D01*
X1267583Y304200D01*
X1267696Y304219D01*
X1268164Y304430D01*
X1268640Y304618D01*
X1268734Y304686D01*
X1268839Y304733D01*
X1269239Y305053D01*
X1269654Y305354D01*
X1269727Y305443D01*
X1269817Y305515D01*
X1270125Y305923D01*
X1270453Y306318D01*
X1270502Y306423D01*
X1270571Y306515D01*
X1270852Y307087D01*
X1271089Y307658D01*
X1282342Y318911D01*
X1297043Y325001D01*
X1312957Y325001D01*
X1327658Y318911D01*
X1338911Y307658D01*
X1345001Y292957D01*
X1345001Y277043D01*
X1338911Y262342D01*
X1327658Y251089D01*
X1312957Y244999D01*
X1297043Y244999D01*
X1282342Y251089D01*
X1271089Y262341D01*
X1268367Y268913D01*
X1268310Y269013D01*
X1268274Y269123D01*
X1268000Y269556D01*
X1267747Y270001D01*
X1267666Y270084D01*
X1267605Y270181D01*
X1267232Y270532D01*
X1266875Y270901D01*
X1266777Y270961D01*
X1266693Y271040D01*
X1266246Y271287D01*
X1265808Y271555D01*
X1265697Y271589D01*
X1265597Y271645D01*
X1265100Y271773D01*
X1264611Y271924D01*
X1264496Y271930D01*
X1264384Y271959D01*
X1263748Y271999D01*
X1233372Y271999D01*
X623999Y881372D01*
X623999Y926628D01*
X630535Y933163D01*
X630773Y933471D01*
X631040Y933753D01*
X631156Y933963D01*
X631303Y934153D01*
X631457Y934510D01*
X631645Y934850D01*
X631705Y935082D01*
X631800Y935302D01*
X631861Y935686D01*
X631959Y936062D01*
X631984Y936459D01*
X631997Y936539D01*
X631992Y936587D01*
X631999Y936698D01*
X631999Y1218361D01*
X631931Y1218904D01*
X631880Y1219448D01*
X631852Y1219524D01*
X631842Y1219603D01*
X631641Y1220111D01*
X631456Y1220627D01*
X631411Y1220693D01*
X631382Y1220768D01*
X631062Y1221209D01*
X630753Y1221663D01*
X630693Y1221716D01*
X630646Y1221781D01*
X630225Y1222130D01*
X629815Y1222492D01*
X629743Y1222529D01*
X629681Y1222580D01*
X629187Y1222813D01*
X628699Y1223062D01*
X628621Y1223080D01*
X628549Y1223114D01*
X628011Y1223217D01*
X627478Y1223337D01*
X627397Y1223335D01*
X627319Y1223350D01*
X626773Y1223316D01*
X626226Y1223300D01*
X626149Y1223277D01*
X626069Y1223272D01*
X625547Y1223104D01*
X625023Y1222952D01*
X624954Y1222912D01*
X624877Y1222887D01*
X624413Y1222593D01*
X623944Y1222317D01*
X623860Y1222243D01*
X623819Y1222217D01*
X623762Y1222157D01*
X623465Y1221896D01*
X621569Y1219999D01*
X588431Y1219999D01*
X564999Y1243431D01*
X564999Y1276569D01*
X573366Y1284935D01*
X573652Y1285305D01*
X573963Y1285656D01*
X574036Y1285799D01*
X574134Y1285925D01*
X574319Y1286354D01*
X574533Y1286771D01*
X574568Y1286927D01*
X574631Y1287074D01*
X574705Y1287536D01*
X574807Y1287993D01*
X574803Y1288153D01*
X574828Y1288311D01*
X574784Y1288776D01*
X574770Y1289245D01*
X574726Y1289399D01*
X574711Y1289558D01*
X574553Y1289998D01*
X574423Y1290448D01*
X574341Y1290586D01*
X574287Y1290736D01*
X574025Y1291124D01*
X573787Y1291527D01*
X573630Y1291706D01*
X573584Y1291773D01*
X573524Y1291826D01*
X573366Y1292006D01*
X489852Y1375520D01*
X489697Y1375640D01*
X489566Y1375784D01*
X489205Y1376022D01*
X488862Y1376288D01*
X488683Y1376365D01*
X488520Y1376472D01*
X488111Y1376613D01*
X487713Y1376785D01*
X487520Y1376816D01*
X487336Y1376879D01*
X486904Y1376914D01*
X486476Y1376982D01*
X486282Y1376963D01*
X486087Y1376979D01*
X485660Y1376905D01*
X485229Y1376865D01*
X485046Y1376799D01*
X484853Y1376765D01*
X484458Y1376588D01*
X484051Y1376441D01*
X483889Y1376332D01*
X483711Y1376252D01*
X483373Y1375982D01*
X483014Y1375738D01*
X482885Y1375592D01*
X482733Y1375470D01*
X482472Y1375125D01*
X482185Y1374800D01*
X482096Y1374626D01*
X481979Y1374470D01*
X481698Y1373898D01*
X476911Y1362342D01*
X465658Y1351089D01*
X450957Y1344999D01*
X379043Y1344999D01*
X364342Y1351089D01*
X353089Y1362342D01*
X346999Y1377043D01*
X346999Y1392957D01*
X353089Y1407658D01*
X361866Y1416436D01*
X362153Y1416805D01*
X362463Y1417156D01*
X362536Y1417299D01*
X362634Y1417425D01*
X362819Y1417854D01*
X363032Y1418271D01*
X363068Y1418427D01*
X363131Y1418574D01*
X363205Y1419036D01*
X363307Y1419493D01*
X363303Y1419653D01*
X363328Y1419811D01*
X363284Y1420276D01*
X363270Y1420745D01*
X363226Y1420899D01*
X363211Y1421058D01*
X363053Y1421498D01*
X362923Y1421948D01*
X362841Y1422086D01*
X362787Y1422237D01*
X362525Y1422624D01*
X362287Y1423027D01*
X362130Y1423206D01*
X362084Y1423273D01*
X362024Y1423326D01*
X361866Y1423506D01*
X296535Y1488837D01*
X296102Y1489173D01*
X295681Y1489521D01*
X295609Y1489555D01*
X295545Y1489604D01*
X295043Y1489822D01*
X294549Y1490055D01*
X294470Y1490070D01*
X294396Y1490102D01*
X293856Y1490188D01*
X293319Y1490291D01*
X293239Y1490286D01*
X293159Y1490298D01*
X292615Y1490247D01*
X292069Y1490213D01*
X291992Y1490189D01*
X291913Y1490181D01*
X291399Y1489997D01*
X290877Y1489828D01*
X290809Y1489785D01*
X290734Y1489758D01*
X290283Y1489452D01*
X289819Y1489158D01*
X289764Y1489100D01*
X289697Y1489055D01*
X289336Y1488645D01*
X288960Y1488247D01*
X288922Y1488177D01*
X288868Y1488116D01*
X288619Y1487628D01*
X288355Y1487150D01*
X288335Y1487073D01*
X288298Y1487001D01*
X288178Y1486468D01*
X288041Y1485938D01*
X288034Y1485827D01*
X288023Y1485779D01*
X288026Y1485698D01*
X288001Y1485302D01*
X288001Y1288698D01*
X288049Y1288313D01*
X288061Y1287924D01*
X288127Y1287694D01*
X288157Y1287456D01*
X288300Y1287095D01*
X288408Y1286721D01*
X288530Y1286514D01*
X288618Y1286291D01*
X288846Y1285977D01*
X289044Y1285642D01*
X289306Y1285344D01*
X289354Y1285278D01*
X289391Y1285247D01*
X289465Y1285163D01*
X483163Y1091465D01*
X483471Y1091226D01*
X483753Y1090960D01*
X483963Y1090844D01*
X484153Y1090697D01*
X484510Y1090543D01*
X484850Y1090355D01*
X485082Y1090295D01*
X485302Y1090200D01*
X485686Y1090139D01*
X486062Y1090041D01*
X486459Y1090016D01*
X486539Y1090003D01*
X486587Y1090008D01*
X486698Y1090001D01*
X516569Y1090001D01*
X540001Y1066569D01*
X540001Y1033431D01*
X516569Y1009999D01*
X483431Y1009999D01*
X459999Y1033431D01*
X459999Y1067301D01*
X459951Y1067687D01*
X459939Y1068076D01*
X459872Y1068306D01*
X459842Y1068544D01*
X459700Y1068905D01*
X459592Y1069279D01*
X459470Y1069485D01*
X459382Y1069708D01*
X459153Y1070023D01*
X458956Y1070358D01*
X458694Y1070656D01*
X458646Y1070722D01*
X458609Y1070753D01*
X458535Y1070836D01*
X255999Y1273372D01*
X255999Y1919301D01*
X255951Y1919687D01*
X255939Y1920076D01*
X255872Y1920306D01*
X255842Y1920544D01*
X255700Y1920905D01*
X255592Y1921279D01*
X255470Y1921485D01*
X255382Y1921708D01*
X255153Y1922023D01*
X254956Y1922358D01*
X254694Y1922656D01*
X254646Y1922722D01*
X254609Y1922753D01*
X254535Y1922836D01*
X191535Y1985837D01*
X191102Y1986173D01*
X190681Y1986521D01*
X190609Y1986555D01*
X190545Y1986604D01*
X190043Y1986822D01*
X189549Y1987055D01*
X189470Y1987070D01*
X189396Y1987102D01*
X188856Y1987188D01*
X188319Y1987291D01*
X188239Y1987286D01*
X188159Y1987298D01*
X187615Y1987247D01*
X187069Y1987213D01*
X186992Y1987189D01*
X186913Y1987181D01*
X186399Y1986997D01*
X185877Y1986828D01*
X185809Y1986785D01*
X185734Y1986758D01*
X185283Y1986452D01*
X184819Y1986158D01*
X184764Y1986100D01*
X184697Y1986055D01*
X184336Y1985645D01*
X183960Y1985247D01*
X183922Y1985177D01*
X183868Y1985116D01*
X183619Y1984628D01*
X183355Y1984150D01*
X183335Y1984073D01*
X183298Y1984001D01*
X183178Y1983468D01*
X183041Y1982938D01*
X183034Y1982827D01*
X183023Y1982779D01*
X183026Y1982698D01*
X183001Y1982302D01*
X183001Y1977043D01*
X176911Y1962342D01*
X165658Y1951089D01*
X150957Y1944999D01*
X97698Y1944999D01*
X97313Y1944951D01*
X96924Y1944939D01*
X96694Y1944872D01*
X96456Y1944842D01*
X96095Y1944699D01*
X95721Y1944592D01*
X95514Y1944470D01*
X95291Y1944382D01*
X94977Y1944154D01*
X94642Y1943956D01*
X94344Y1943694D01*
X94278Y1943646D01*
X94247Y1943608D01*
X94164Y1943535D01*
X84163Y1933535D01*
X83828Y1933103D01*
X83479Y1932681D01*
X83445Y1932609D01*
X83396Y1932545D01*
X83178Y1932043D01*
X82945Y1931549D01*
X82930Y1931470D01*
X82898Y1931396D01*
X82812Y1930856D01*
X82709Y1930319D01*
X82714Y1930239D01*
X82702Y1930159D01*
X82753Y1929615D01*
X82786Y1929069D01*
X82811Y1928992D01*
X82819Y1928913D01*
X83003Y1928399D01*
X83172Y1927877D01*
X83215Y1927809D01*
X83242Y1927734D01*
X83548Y1927283D01*
X83842Y1926819D01*
X83900Y1926764D01*
X83945Y1926697D01*
X84355Y1926336D01*
X84753Y1925960D01*
X84823Y1925922D01*
X84883Y1925868D01*
X85373Y1925618D01*
X85850Y1925355D01*
X85927Y1925335D01*
X85999Y1925298D01*
X86532Y1925178D01*
X87062Y1925041D01*
X87173Y1925034D01*
X87220Y1925023D01*
X87302Y1925026D01*
X87698Y1925001D01*
X150957Y1925001D01*
X165658Y1918911D01*
X176911Y1907658D01*
X183001Y1892957D01*
X183001Y1877043D01*
X176911Y1862342D01*
X172134Y1857564D01*
X171847Y1857194D01*
X171537Y1856844D01*
X171464Y1856701D01*
X171366Y1856575D01*
X171181Y1856146D01*
X170967Y1855729D01*
X170932Y1855572D01*
X170869Y1855426D01*
X170795Y1854964D01*
X170693Y1854507D01*
X170697Y1854347D01*
X170672Y1854189D01*
X170716Y1853723D01*
X170730Y1853255D01*
X170774Y1853101D01*
X170789Y1852942D01*
X170947Y1852502D01*
X171077Y1852052D01*
X171159Y1851914D01*
X171213Y1851763D01*
X171475Y1851376D01*
X171713Y1850973D01*
X171870Y1850794D01*
X171916Y1850727D01*
X171976Y1850673D01*
X172134Y1850494D01*
X205163Y1817465D01*
X216001Y1806628D01*
X216001Y1305000D01*
X216059Y1304535D01*
X216088Y1304069D01*
X216137Y1303916D01*
X216157Y1303757D01*
X216329Y1303323D01*
X216474Y1302877D01*
X216559Y1302742D01*
X216618Y1302593D01*
X216892Y1302215D01*
X217143Y1301819D01*
X217260Y1301709D01*
X217354Y1301579D01*
X217714Y1301281D01*
X218055Y1300960D01*
X218195Y1300883D01*
X218318Y1300781D01*
X218742Y1300581D01*
X219151Y1300355D01*
X219306Y1300315D01*
X219451Y1300247D01*
X219910Y1300159D01*
X220364Y1300041D01*
X220602Y1300026D01*
X220681Y1300011D01*
X220762Y1300016D01*
X221000Y1300001D01*
X221569Y1300001D01*
X245001Y1276569D01*
X245001Y1243431D01*
X225465Y1223895D01*
X225226Y1223588D01*
X224960Y1223305D01*
X224844Y1223095D01*
X224697Y1222906D01*
X224543Y1222549D01*
X224355Y1222209D01*
X224295Y1221977D01*
X224200Y1221757D01*
X224139Y1221373D01*
X224041Y1220997D01*
X224016Y1220600D01*
X224003Y1220520D01*
X224008Y1220472D01*
X224001Y1220360D01*
X224001Y1024698D01*
X224049Y1024313D01*
X224061Y1023924D01*
X224127Y1023694D01*
X224157Y1023456D01*
X224300Y1023095D01*
X224408Y1022721D01*
X224530Y1022514D01*
X224618Y1022291D01*
X224846Y1021977D01*
X225044Y1021642D01*
X225306Y1021344D01*
X225354Y1021278D01*
X225391Y1021247D01*
X225465Y1021163D01*
X431494Y815134D01*
X431864Y814847D01*
X432215Y814537D01*
X432358Y814464D01*
X432484Y814366D01*
X432913Y814180D01*
X433330Y813967D01*
X433486Y813932D01*
X433633Y813868D01*
X434095Y813795D01*
X434552Y813692D01*
X434712Y813697D01*
X434870Y813672D01*
X435335Y813716D01*
X435804Y813730D01*
X435958Y813774D01*
X436117Y813789D01*
X436557Y813947D01*
X437007Y814077D01*
X437145Y814159D01*
X437295Y814213D01*
X437683Y814475D01*
X438086Y814713D01*
X438265Y814870D01*
X438332Y814916D01*
X438386Y814977D01*
X438413Y815001D01*
X471569Y815001D01*
X495001Y791569D01*
X495001Y758431D01*
X471569Y734999D01*
X439698Y734999D01*
X439313Y734951D01*
X438924Y734939D01*
X438694Y734872D01*
X438456Y734842D01*
X438095Y734700D01*
X437721Y734592D01*
X437514Y734470D01*
X437291Y734382D01*
X436977Y734153D01*
X436642Y733956D01*
X436344Y733694D01*
X436278Y733646D01*
X436247Y733609D01*
X436163Y733535D01*
X396465Y693836D01*
X396226Y693529D01*
X395960Y693246D01*
X395844Y693037D01*
X395697Y692847D01*
X395543Y692490D01*
X395355Y692150D01*
X395295Y691918D01*
X395200Y691698D01*
X395139Y691314D01*
X395041Y690938D01*
X395016Y690541D01*
X395003Y690461D01*
X395008Y690413D01*
X395001Y690301D01*
X395001Y658431D01*
X371569Y634999D01*
X339698Y634999D01*
X339313Y634951D01*
X338924Y634939D01*
X338694Y634872D01*
X338456Y634842D01*
X338095Y634700D01*
X337721Y634592D01*
X337514Y634470D01*
X337291Y634382D01*
X336977Y634153D01*
X336642Y633956D01*
X336343Y633694D01*
X336278Y633646D01*
X336247Y633609D01*
X336163Y633535D01*
X201465Y498837D01*
X201464Y498836D01*
X190628Y487999D01*
X150000Y487999D01*
X149536Y487941D01*
X149069Y487912D01*
X148916Y487862D01*
X148757Y487842D01*
X148323Y487670D01*
X147877Y487526D01*
X147742Y487440D01*
X147593Y487382D01*
X147215Y487107D01*
X146819Y486857D01*
X146709Y486740D01*
X146579Y486646D01*
X146281Y486286D01*
X145960Y485945D01*
X145883Y485805D01*
X145781Y485681D01*
X145581Y485258D01*
X145355Y484849D01*
X145315Y484694D01*
X145247Y484549D01*
X145159Y484090D01*
X145041Y483636D01*
X145030Y483461D01*
X121569Y459999D01*
X88431Y459999D01*
X64999Y483431D01*
X64999Y516569D01*
X88431Y540001D01*
X121569Y540001D01*
X140104Y521465D01*
X140412Y521226D01*
X140695Y520960D01*
X140904Y520844D01*
X141094Y520697D01*
X141451Y520543D01*
X141791Y520355D01*
X142023Y520295D01*
X142243Y520200D01*
X142627Y520139D01*
X143003Y520041D01*
X143400Y520016D01*
X143480Y520003D01*
X143528Y520008D01*
X143640Y520001D01*
X175302Y520001D01*
X175687Y520049D01*
X176076Y520061D01*
X176306Y520127D01*
X176544Y520157D01*
X176905Y520300D01*
X177279Y520408D01*
X177486Y520530D01*
X177709Y520618D01*
X178023Y520846D01*
X178358Y521044D01*
X178656Y521306D01*
X178722Y521354D01*
X178753Y521391D01*
X178837Y521465D01*
X313535Y656163D01*
X313773Y656471D01*
X314040Y656753D01*
X314156Y656963D01*
X314303Y657153D01*
X314457Y657510D01*
X314645Y657850D01*
X314705Y658082D01*
X314800Y658302D01*
X314861Y658686D01*
X314959Y659062D01*
X314984Y659459D01*
X314997Y659539D01*
X314992Y659587D01*
X314999Y659698D01*
X314999Y691569D01*
X338431Y715001D01*
X370301Y715001D01*
X370687Y715049D01*
X371076Y715061D01*
X371306Y715127D01*
X371544Y715157D01*
X371905Y715300D01*
X372279Y715408D01*
X372485Y715530D01*
X372708Y715618D01*
X373023Y715846D01*
X373358Y716044D01*
X373656Y716306D01*
X373722Y716354D01*
X373753Y716391D01*
X373836Y716465D01*
X413535Y756163D01*
X413773Y756471D01*
X414040Y756753D01*
X414156Y756963D01*
X414303Y757153D01*
X414457Y757510D01*
X414645Y757850D01*
X414705Y758082D01*
X414800Y758302D01*
X414861Y758686D01*
X414959Y759062D01*
X414984Y759459D01*
X414997Y759539D01*
X414992Y759587D01*
X414999Y759698D01*
X414999Y784302D01*
X414951Y784687D01*
X414939Y785076D01*
X414872Y785306D01*
X414842Y785544D01*
X414700Y785905D01*
X414592Y786279D01*
X414470Y786486D01*
X414382Y786709D01*
X414153Y787023D01*
X413956Y787358D01*
X413694Y787656D01*
X413646Y787722D01*
X413609Y787753D01*
X413535Y787837D01*
X191999Y1009372D01*
X191999Y1215000D01*
X191941Y1215464D01*
X191912Y1215931D01*
X191862Y1216084D01*
X191842Y1216242D01*
X191670Y1216677D01*
X191526Y1217123D01*
X191440Y1217258D01*
X191382Y1217407D01*
X191107Y1217785D01*
X190857Y1218181D01*
X190740Y1218291D01*
X190646Y1218421D01*
X190286Y1218719D01*
X189945Y1219040D01*
X189805Y1219117D01*
X189681Y1219219D01*
X189258Y1219419D01*
X188849Y1219645D01*
X188764Y1219667D01*
X164999Y1243431D01*
X164999Y1276569D01*
X182535Y1294104D01*
X182773Y1294412D01*
X183040Y1294695D01*
X183156Y1294904D01*
X183303Y1295094D01*
X183457Y1295451D01*
X183645Y1295791D01*
X183705Y1296023D01*
X183800Y1296243D01*
X183861Y1296627D01*
X183959Y1297003D01*
X183984Y1297400D01*
X183997Y1297480D01*
X183992Y1297528D01*
X183999Y1297640D01*
X183999Y1357360D01*
X183931Y1357904D01*
X183880Y1358448D01*
X183852Y1358523D01*
X183842Y1358603D01*
X183641Y1359111D01*
X183456Y1359626D01*
X183411Y1359693D01*
X183382Y1359767D01*
X183060Y1360210D01*
X182753Y1360663D01*
X182693Y1360716D01*
X182646Y1360781D01*
X182224Y1361130D01*
X181815Y1361492D01*
X181743Y1361529D01*
X181681Y1361580D01*
X181187Y1361813D01*
X180699Y1362062D01*
X180621Y1362080D01*
X180549Y1362114D01*
X180012Y1362217D01*
X179478Y1362337D01*
X179397Y1362334D01*
X179319Y1362350D01*
X178773Y1362316D01*
X178226Y1362299D01*
X178149Y1362277D01*
X178069Y1362272D01*
X177549Y1362104D01*
X177023Y1361952D01*
X176953Y1361911D01*
X176877Y1361887D01*
X176414Y1361594D01*
X175944Y1361317D01*
X175860Y1361243D01*
X175819Y1361217D01*
X175762Y1361157D01*
X175465Y1360895D01*
X165659Y1351089D01*
X150957Y1344999D01*
X79043Y1344999D01*
X64221Y1351139D01*
X64103Y1351231D01*
X63681Y1351580D01*
X63609Y1351614D01*
X63546Y1351663D01*
X63042Y1351881D01*
X62549Y1352114D01*
X62470Y1352129D01*
X62397Y1352161D01*
X61855Y1352247D01*
X61319Y1352350D01*
X61239Y1352345D01*
X61160Y1352357D01*
X60615Y1352306D01*
X60069Y1352272D01*
X59992Y1352248D01*
X59913Y1352240D01*
X59399Y1352055D01*
X58877Y1351887D01*
X58809Y1351844D01*
X58734Y1351817D01*
X58283Y1351511D01*
X57819Y1351217D01*
X57764Y1351159D01*
X57698Y1351114D01*
X57336Y1350704D01*
X56960Y1350305D01*
X56922Y1350236D01*
X56869Y1350176D01*
X56619Y1349688D01*
X56355Y1349209D01*
X56335Y1349132D01*
X56299Y1349061D01*
X56179Y1348527D01*
X56041Y1347997D01*
X56034Y1347886D01*
X56023Y1347839D01*
X56026Y1347757D01*
X56001Y1347360D01*
X56001Y1074639D01*
X56069Y1074096D01*
X56120Y1073552D01*
X56147Y1073476D01*
X56157Y1073397D01*
X56359Y1072888D01*
X56544Y1072373D01*
X56589Y1072307D01*
X56618Y1072232D01*
X56940Y1071789D01*
X57247Y1071337D01*
X57307Y1071284D01*
X57354Y1071219D01*
X57775Y1070870D01*
X58185Y1070508D01*
X58257Y1070471D01*
X58318Y1070420D01*
X58812Y1070188D01*
X59300Y1069938D01*
X59379Y1069920D01*
X59451Y1069886D01*
X59988Y1069783D01*
X60522Y1069663D01*
X60602Y1069665D01*
X60681Y1069650D01*
X61227Y1069684D01*
X61774Y1069700D01*
X61851Y1069723D01*
X61931Y1069727D01*
X62451Y1069896D01*
X62977Y1070048D01*
X63047Y1070088D01*
X63123Y1070113D01*
X63585Y1070406D01*
X64056Y1070683D01*
X64140Y1070756D01*
X64181Y1070783D01*
X64237Y1070843D01*
X64535Y1071104D01*
X83431Y1090001D01*
X116569Y1090001D01*
X140001Y1066569D01*
X140001Y1033431D01*
X121465Y1014896D01*
X121227Y1014589D01*
X120960Y1014305D01*
X120844Y1014095D01*
X120697Y1013906D01*
X120543Y1013549D01*
X120355Y1013209D01*
X120295Y1012977D01*
X120200Y1012757D01*
X120139Y1012373D01*
X120041Y1011997D01*
X120016Y1011600D01*
X120003Y1011520D01*
X120008Y1011472D01*
X120001Y1011360D01*
X120001Y968698D01*
X120049Y968313D01*
X120061Y967924D01*
X120127Y967694D01*
X120157Y967456D01*
X120300Y967095D01*
X120408Y966721D01*
X120530Y966514D01*
X120618Y966291D01*
X120846Y965977D01*
X121044Y965642D01*
X121306Y965344D01*
X121354Y965278D01*
X121391Y965247D01*
X121465Y965163D01*
X264001Y822628D01*
X264001Y820000D01*
X264059Y819536D01*
X264088Y819069D01*
X264137Y818916D01*
X264157Y818757D01*
X264329Y818323D01*
X264474Y817877D01*
X264559Y817742D01*
X264618Y817593D01*
X264892Y817215D01*
X265143Y816819D01*
X265260Y816709D01*
X265354Y816579D01*
X265714Y816281D01*
X266055Y815960D01*
X266195Y815883D01*
X266318Y815781D01*
X266742Y815581D01*
X267151Y815355D01*
X267306Y815315D01*
X267451Y815247D01*
X267910Y815159D01*
X268364Y815041D01*
X268602Y815026D01*
X268681Y815011D01*
X268762Y815016D01*
X269000Y815001D01*
X271569Y815001D01*
X295001Y791569D01*
X295001Y758431D01*
X271569Y734999D01*
X238431Y734999D01*
X214999Y758431D01*
X214999Y791569D01*
X228866Y805435D01*
X229152Y805805D01*
X229463Y806156D01*
X229536Y806299D01*
X229634Y806425D01*
X229819Y806854D01*
X230033Y807271D01*
X230068Y807427D01*
X230131Y807574D01*
X230205Y808036D01*
X230307Y808493D01*
X230303Y808653D01*
X230328Y808811D01*
X230284Y809276D01*
X230270Y809745D01*
X230226Y809899D01*
X230211Y810058D01*
X230053Y810498D01*
X229923Y810948D01*
X229841Y811086D01*
X229787Y811236D01*
X229525Y811624D01*
X229287Y812027D01*
X229130Y812206D01*
X229084Y812273D01*
X229024Y812326D01*
X228866Y812506D01*
X153535Y887837D01*
X153102Y888173D01*
X152681Y888521D01*
X152609Y888555D01*
X152545Y888604D01*
X152043Y888822D01*
X151549Y889055D01*
X151470Y889070D01*
X151396Y889102D01*
X150856Y889188D01*
X150319Y889291D01*
X150239Y889286D01*
X150159Y889298D01*
X149615Y889247D01*
X149069Y889213D01*
X148992Y889189D01*
X148913Y889181D01*
X148399Y888997D01*
X147877Y888828D01*
X147809Y888785D01*
X147734Y888758D01*
X147283Y888452D01*
X146819Y888158D01*
X146764Y888100D01*
X146697Y888055D01*
X146336Y887645D01*
X145960Y887247D01*
X145922Y887177D01*
X145868Y887116D01*
X145619Y886628D01*
X145355Y886150D01*
X145335Y886073D01*
X145298Y886001D01*
X145178Y885468D01*
X145041Y884938D01*
X145034Y884827D01*
X145023Y884779D01*
X145026Y884698D01*
X145001Y884302D01*
X145001Y883431D01*
X121569Y859999D01*
X88431Y859999D01*
X64999Y883431D01*
X64999Y916569D01*
X79366Y930935D01*
X79652Y931305D01*
X79963Y931656D01*
X80036Y931799D01*
X80134Y931925D01*
X80319Y932354D01*
X80533Y932771D01*
X80568Y932927D01*
X80631Y933074D01*
X80705Y933536D01*
X80807Y933993D01*
X80803Y934153D01*
X80828Y934311D01*
X80784Y934776D01*
X80770Y935245D01*
X80726Y935399D01*
X80711Y935558D01*
X80553Y935998D01*
X80423Y936448D01*
X80341Y936586D01*
X80287Y936736D01*
X80025Y937124D01*
X79787Y937527D01*
X79630Y937706D01*
X79584Y937773D01*
X79524Y937826D01*
X79366Y938006D01*
X34836Y982535D01*
X23535Y993837D01*
X23103Y994172D01*
X22681Y994521D01*
X22609Y994555D01*
X22545Y994604D01*
X22043Y994822D01*
X21549Y995055D01*
X21470Y995070D01*
X21396Y995102D01*
X20856Y995188D01*
X20319Y995291D01*
X20239Y995286D01*
X20159Y995298D01*
X19615Y995247D01*
X19069Y995213D01*
X18992Y995189D01*
X18913Y995181D01*
X18399Y994997D01*
X17877Y994828D01*
X17809Y994785D01*
X17734Y994758D01*
X17283Y994452D01*
X16819Y994158D01*
X16764Y994100D01*
X16697Y994055D01*
X16336Y993645D01*
X15960Y993247D01*
X15922Y993177D01*
X15868Y993116D01*
X15619Y992628D01*
X15355Y992150D01*
X15335Y992073D01*
X15298Y992001D01*
X15178Y991468D01*
X15041Y990938D01*
X15034Y990827D01*
X15023Y990779D01*
X15026Y990698D01*
X15001Y990302D01*
X15001Y20000D01*
X15059Y19536D01*
X15088Y19069D01*
X15137Y18916D01*
X15157Y18757D01*
X15329Y18323D01*
X15474Y17877D01*
X15559Y17742D01*
X15618Y17593D01*
X15892Y17215D01*
X16143Y16819D01*
X16260Y16709D01*
X16354Y16579D01*
X16714Y16281D01*
X17055Y15960D01*
X17195Y15883D01*
X17318Y15781D01*
X17742Y15581D01*
X18151Y15355D01*
X18306Y15315D01*
X18451Y15247D01*
X18910Y15159D01*
X19364Y15041D01*
X19602Y15026D01*
X19681Y15011D01*
X19762Y15016D01*
X20000Y15001D01*
X2480000Y15001D01*
X2480464Y15059D01*
G37*
%LPC*%
G36*
X1763431Y1164999D02*
X1763431Y1164999D01*
X1739999Y1188431D01*
X1739999Y1221569D01*
X1763431Y1245001D01*
X1795000Y1245001D01*
X1795464Y1245059D01*
X1795931Y1245088D01*
X1796084Y1245137D01*
X1796242Y1245157D01*
X1796677Y1245329D01*
X1797123Y1245474D01*
X1797258Y1245559D01*
X1797407Y1245618D01*
X1797785Y1245892D01*
X1798181Y1246143D01*
X1798291Y1246260D01*
X1798421Y1246354D01*
X1798719Y1246714D01*
X1799040Y1247055D01*
X1799117Y1247195D01*
X1799219Y1247318D01*
X1799419Y1247742D01*
X1799645Y1248151D01*
X1799685Y1248306D01*
X1799753Y1248451D01*
X1799841Y1248910D01*
X1799959Y1249364D01*
X1799974Y1249602D01*
X1799989Y1249681D01*
X1799984Y1249762D01*
X1799999Y1250000D01*
X1799999Y1522764D01*
X1799941Y1523228D01*
X1799912Y1523695D01*
X1799862Y1523847D01*
X1799842Y1524006D01*
X1799670Y1524441D01*
X1799526Y1524887D01*
X1799440Y1525022D01*
X1799382Y1525171D01*
X1799107Y1525549D01*
X1798857Y1525945D01*
X1798740Y1526055D01*
X1798646Y1526184D01*
X1798286Y1526483D01*
X1797945Y1526804D01*
X1797805Y1526881D01*
X1797681Y1526983D01*
X1797258Y1527182D01*
X1796849Y1527409D01*
X1796694Y1527449D01*
X1796549Y1527517D01*
X1796090Y1527605D01*
X1795636Y1527722D01*
X1795398Y1527738D01*
X1795319Y1527753D01*
X1795238Y1527748D01*
X1795000Y1527763D01*
X1750453Y1527763D01*
X1750259Y1527739D01*
X1750065Y1527748D01*
X1749640Y1527660D01*
X1749211Y1527606D01*
X1749030Y1527535D01*
X1748838Y1527495D01*
X1748448Y1527305D01*
X1748046Y1527145D01*
X1747889Y1527031D01*
X1747713Y1526945D01*
X1747383Y1526664D01*
X1747033Y1526410D01*
X1746908Y1526260D01*
X1746760Y1526133D01*
X1746510Y1525779D01*
X1746234Y1525445D01*
X1746151Y1525269D01*
X1746038Y1525109D01*
X1745884Y1524704D01*
X1745700Y1524313D01*
X1745663Y1524121D01*
X1745594Y1523938D01*
X1745546Y1523508D01*
X1745464Y1523083D01*
X1745476Y1522888D01*
X1745454Y1522694D01*
X1745515Y1522265D01*
X1745541Y1521833D01*
X1745602Y1521647D01*
X1745629Y1521454D01*
X1745654Y1521379D01*
X1745654Y1503124D01*
X1738704Y1486344D01*
X1725861Y1473501D01*
X1709081Y1466550D01*
X1690919Y1466550D01*
X1674139Y1473501D01*
X1661296Y1486344D01*
X1654346Y1503124D01*
X1654346Y1521453D01*
X1654382Y1521640D01*
X1654496Y1522058D01*
X1654499Y1522254D01*
X1654536Y1522445D01*
X1654509Y1522877D01*
X1654516Y1523311D01*
X1654471Y1523500D01*
X1654459Y1523695D01*
X1654325Y1524108D01*
X1654224Y1524529D01*
X1654133Y1524701D01*
X1654073Y1524887D01*
X1653841Y1525254D01*
X1653639Y1525636D01*
X1653508Y1525780D01*
X1653403Y1525945D01*
X1653088Y1526242D01*
X1652797Y1526563D01*
X1652634Y1526670D01*
X1652492Y1526804D01*
X1652113Y1527013D01*
X1651751Y1527251D01*
X1651566Y1527315D01*
X1651395Y1527409D01*
X1650976Y1527517D01*
X1650566Y1527658D01*
X1650372Y1527673D01*
X1650183Y1527722D01*
X1649547Y1527763D01*
X1584793Y1527763D01*
X1577763Y1534793D01*
X1577763Y1765207D01*
X1584793Y1772237D01*
X1795000Y1772237D01*
X1795464Y1772295D01*
X1795931Y1772324D01*
X1796084Y1772374D01*
X1796242Y1772394D01*
X1796677Y1772566D01*
X1797123Y1772710D01*
X1797258Y1772796D01*
X1797407Y1772854D01*
X1797785Y1773129D01*
X1798181Y1773379D01*
X1798291Y1773496D01*
X1798421Y1773590D01*
X1798719Y1773950D01*
X1799040Y1774291D01*
X1799117Y1774431D01*
X1799219Y1774555D01*
X1799419Y1774978D01*
X1799645Y1775388D01*
X1799685Y1775543D01*
X1799753Y1775687D01*
X1799841Y1776146D01*
X1799959Y1776600D01*
X1799974Y1776838D01*
X1799989Y1776917D01*
X1799984Y1776998D01*
X1799999Y1777236D01*
X1799999Y1854628D01*
X1993819Y2048447D01*
X1994057Y2048754D01*
X1994323Y2049037D01*
X1994439Y2049247D01*
X1994586Y2049436D01*
X1994741Y2049793D01*
X1994928Y2050133D01*
X1994988Y2050366D01*
X1995084Y2050586D01*
X1995145Y2050969D01*
X1995242Y2051346D01*
X1995267Y2051742D01*
X1995280Y2051822D01*
X1995276Y2051871D01*
X1995283Y2051982D01*
X1995283Y2077805D01*
X1995819Y2078341D01*
X1996057Y2078648D01*
X1996323Y2078931D01*
X1996439Y2079141D01*
X1996586Y2079331D01*
X1996741Y2079688D01*
X1996928Y2080028D01*
X1996988Y2080260D01*
X1997084Y2080480D01*
X1997145Y2080863D01*
X1997242Y2081240D01*
X1997267Y2081637D01*
X1997280Y2081717D01*
X1997276Y2081765D01*
X1997283Y2081876D01*
X1997283Y2084567D01*
X1999973Y2084567D01*
X2000174Y2084592D01*
X2000367Y2084583D01*
X2000552Y2084621D01*
X2000748Y2084627D01*
X2000978Y2084694D01*
X2001216Y2084724D01*
X2001402Y2084798D01*
X2001594Y2084837D01*
X2001764Y2084921D01*
X2001951Y2084975D01*
X2002157Y2085096D01*
X2002380Y2085185D01*
X2002542Y2085302D01*
X2002718Y2085388D01*
X2002864Y2085512D01*
X2003030Y2085610D01*
X2003328Y2085873D01*
X2003394Y2085920D01*
X2003425Y2085957D01*
X2003508Y2086031D01*
X2003509Y2086032D01*
X2003582Y2086125D01*
X2003671Y2086201D01*
X2003920Y2086555D01*
X2004193Y2086885D01*
X2004227Y2086957D01*
X2004277Y2087021D01*
X2004324Y2087129D01*
X2004391Y2087226D01*
X2004546Y2087633D01*
X2004727Y2088017D01*
X2004742Y2088094D01*
X2004774Y2088171D01*
X2004793Y2088287D01*
X2004835Y2088397D01*
X2004883Y2088833D01*
X2004962Y2089247D01*
X2004962Y2089248D01*
X2004963Y2089249D01*
X2004958Y2089326D01*
X2004971Y2089407D01*
X2004960Y2089525D01*
X2004973Y2089642D01*
X2004912Y2090075D01*
X2004885Y2090499D01*
X2004861Y2090573D01*
X2004854Y2090654D01*
X2004814Y2090765D01*
X2004797Y2090882D01*
X2004631Y2091285D01*
X2004500Y2091690D01*
X2004458Y2091757D01*
X2004430Y2091833D01*
X2004364Y2091930D01*
X2004319Y2092039D01*
X2004060Y2092386D01*
X2003830Y2092749D01*
X2003772Y2092803D01*
X2003727Y2092869D01*
X2003639Y2092947D01*
X2003569Y2093042D01*
X2003097Y2093471D01*
X2003000Y2093530D01*
X2002919Y2093607D01*
X2002849Y2093646D01*
X2002789Y2093699D01*
X2002401Y2093897D01*
X2002028Y2094125D01*
X2001921Y2094158D01*
X2001822Y2094212D01*
X2001744Y2094233D01*
X2001674Y2094268D01*
X2001252Y2094363D01*
X2000831Y2094493D01*
X2000719Y2094498D01*
X2000610Y2094526D01*
X2000496Y2094533D01*
X2000452Y2094543D01*
X2000376Y2094541D01*
X1999974Y2094567D01*
X1997283Y2094567D01*
X1997283Y2097258D01*
X1997234Y2097643D01*
X1997222Y2098032D01*
X1997156Y2098262D01*
X1997126Y2098500D01*
X1996983Y2098861D01*
X1996875Y2099235D01*
X1996753Y2099442D01*
X1996665Y2099664D01*
X1996437Y2099979D01*
X1996240Y2100314D01*
X1995977Y2100612D01*
X1995929Y2100678D01*
X1995892Y2100709D01*
X1995819Y2100793D01*
X1995283Y2101328D01*
X1995283Y2128986D01*
X2002313Y2136016D01*
X2011000Y2136016D01*
X2011464Y2136075D01*
X2011931Y2136104D01*
X2012084Y2136153D01*
X2012242Y2136173D01*
X2012677Y2136345D01*
X2013123Y2136489D01*
X2013258Y2136575D01*
X2013407Y2136634D01*
X2013785Y2136908D01*
X2014181Y2137159D01*
X2014291Y2137276D01*
X2014421Y2137370D01*
X2014719Y2137730D01*
X2015040Y2138071D01*
X2015117Y2138211D01*
X2015219Y2138334D01*
X2015419Y2138757D01*
X2015645Y2139167D01*
X2015685Y2139322D01*
X2015753Y2139467D01*
X2015841Y2139926D01*
X2015959Y2140379D01*
X2015974Y2140618D01*
X2015989Y2140697D01*
X2015984Y2140778D01*
X2015999Y2141016D01*
X2015999Y2263301D01*
X2015951Y2263687D01*
X2015939Y2264076D01*
X2015872Y2264306D01*
X2015842Y2264544D01*
X2015700Y2264905D01*
X2015592Y2265279D01*
X2015470Y2265485D01*
X2015382Y2265708D01*
X2015153Y2266023D01*
X2014956Y2266358D01*
X2014694Y2266656D01*
X2014646Y2266722D01*
X2014609Y2266753D01*
X2014535Y2266836D01*
X1858836Y2422535D01*
X1855881Y2425490D01*
X1855448Y2425826D01*
X1855028Y2426174D01*
X1854956Y2426209D01*
X1854892Y2426258D01*
X1854388Y2426476D01*
X1853895Y2426709D01*
X1853817Y2426724D01*
X1853743Y2426756D01*
X1853202Y2426841D01*
X1852665Y2426944D01*
X1852585Y2426939D01*
X1852506Y2426952D01*
X1851962Y2426901D01*
X1851415Y2426867D01*
X1851339Y2426842D01*
X1851259Y2426835D01*
X1850746Y2426650D01*
X1850224Y2426481D01*
X1850156Y2426438D01*
X1850080Y2426411D01*
X1849629Y2426105D01*
X1849165Y2425812D01*
X1849110Y2425754D01*
X1849044Y2425709D01*
X1848682Y2425299D01*
X1848307Y2424900D01*
X1848268Y2424830D01*
X1848215Y2424770D01*
X1847966Y2424283D01*
X1847701Y2423804D01*
X1847681Y2423726D01*
X1847645Y2423655D01*
X1847525Y2423121D01*
X1847388Y2422591D01*
X1847381Y2422480D01*
X1847370Y2422433D01*
X1847372Y2422352D01*
X1847347Y2421955D01*
X1847347Y2402102D01*
X1840097Y2384599D01*
X1826700Y2371202D01*
X1809197Y2363952D01*
X1790252Y2363952D01*
X1772748Y2371202D01*
X1759352Y2384599D01*
X1754251Y2396913D01*
X1754194Y2397013D01*
X1754158Y2397123D01*
X1753884Y2397557D01*
X1753631Y2398001D01*
X1753551Y2398083D01*
X1753489Y2398181D01*
X1753116Y2398533D01*
X1752759Y2398901D01*
X1752661Y2398961D01*
X1752577Y2399040D01*
X1752130Y2399287D01*
X1751692Y2399555D01*
X1751581Y2399589D01*
X1751481Y2399645D01*
X1750984Y2399773D01*
X1750495Y2399924D01*
X1750380Y2399930D01*
X1750268Y2399959D01*
X1749632Y2399999D01*
X1641372Y2399999D01*
X1632872Y2408499D01*
X1632718Y2408619D01*
X1632587Y2408763D01*
X1632225Y2409001D01*
X1631883Y2409267D01*
X1631704Y2409344D01*
X1631541Y2409452D01*
X1631132Y2409592D01*
X1630734Y2409765D01*
X1630541Y2409795D01*
X1630357Y2409858D01*
X1629925Y2409893D01*
X1629497Y2409961D01*
X1629303Y2409943D01*
X1629108Y2409958D01*
X1628681Y2409884D01*
X1628250Y2409844D01*
X1628067Y2409778D01*
X1627874Y2409745D01*
X1627479Y2409567D01*
X1627071Y2409420D01*
X1626910Y2409311D01*
X1626732Y2409231D01*
X1626394Y2408961D01*
X1626035Y2408717D01*
X1625906Y2408571D01*
X1625753Y2408450D01*
X1625493Y2408104D01*
X1625206Y2407779D01*
X1625117Y2407605D01*
X1625000Y2407450D01*
X1624719Y2406877D01*
X1620366Y2396369D01*
X1608631Y2384634D01*
X1593298Y2378283D01*
X1576702Y2378283D01*
X1561369Y2384634D01*
X1549634Y2396369D01*
X1543283Y2411702D01*
X1543283Y2428298D01*
X1549634Y2443631D01*
X1553468Y2447465D01*
X1553804Y2447898D01*
X1554152Y2448319D01*
X1554186Y2448391D01*
X1554236Y2448454D01*
X1554454Y2448958D01*
X1554686Y2449451D01*
X1554701Y2449530D01*
X1554733Y2449604D01*
X1554819Y2450145D01*
X1554922Y2450681D01*
X1554917Y2450761D01*
X1554930Y2450840D01*
X1554879Y2451384D01*
X1554845Y2451931D01*
X1554820Y2452008D01*
X1554813Y2452087D01*
X1554628Y2452601D01*
X1554459Y2453123D01*
X1554416Y2453191D01*
X1554389Y2453266D01*
X1554083Y2453717D01*
X1553790Y2454181D01*
X1553731Y2454236D01*
X1553686Y2454302D01*
X1553278Y2454664D01*
X1552878Y2455040D01*
X1552808Y2455079D01*
X1552748Y2455132D01*
X1552261Y2455380D01*
X1551782Y2455645D01*
X1551704Y2455665D01*
X1551633Y2455702D01*
X1551099Y2455821D01*
X1550569Y2455959D01*
X1550458Y2455966D01*
X1550411Y2455976D01*
X1550330Y2455974D01*
X1549933Y2455999D01*
X1329372Y2455999D01*
X1305412Y2479960D01*
X1305320Y2480031D01*
X1305246Y2480118D01*
X1304828Y2480413D01*
X1304422Y2480728D01*
X1304316Y2480773D01*
X1304222Y2480840D01*
X1303743Y2481022D01*
X1303273Y2481225D01*
X1303159Y2481243D01*
X1303052Y2481284D01*
X1302542Y2481341D01*
X1302036Y2481422D01*
X1301922Y2481411D01*
X1301807Y2481424D01*
X1301298Y2481352D01*
X1300789Y2481305D01*
X1300681Y2481266D01*
X1300567Y2481250D01*
X1299963Y2481044D01*
X1293298Y2478283D01*
X1276702Y2478283D01*
X1268622Y2481629D01*
X1268511Y2481660D01*
X1268409Y2481712D01*
X1267909Y2481825D01*
X1267414Y2481960D01*
X1267299Y2481962D01*
X1267187Y2481987D01*
X1266675Y2481972D01*
X1266162Y2481980D01*
X1266050Y2481953D01*
X1265935Y2481950D01*
X1265443Y2481808D01*
X1264944Y2481688D01*
X1264842Y2481634D01*
X1264732Y2481602D01*
X1264291Y2481343D01*
X1263837Y2481103D01*
X1263752Y2481025D01*
X1263653Y2480967D01*
X1263174Y2480546D01*
X1170634Y2388006D01*
X1170347Y2387636D01*
X1170037Y2387285D01*
X1169964Y2387142D01*
X1169866Y2387016D01*
X1169680Y2386587D01*
X1169467Y2386170D01*
X1169432Y2386014D01*
X1169368Y2385867D01*
X1169295Y2385405D01*
X1169192Y2384948D01*
X1169197Y2384788D01*
X1169172Y2384630D01*
X1169216Y2384165D01*
X1169230Y2383696D01*
X1169274Y2383542D01*
X1169289Y2383383D01*
X1169447Y2382944D01*
X1169577Y2382493D01*
X1169659Y2382355D01*
X1169713Y2382204D01*
X1169975Y2381818D01*
X1170213Y2381414D01*
X1170370Y2381235D01*
X1170416Y2381168D01*
X1170476Y2381114D01*
X1170634Y2380935D01*
X1190001Y2361569D01*
X1190001Y2328431D01*
X1166569Y2304999D01*
X1133431Y2304999D01*
X1109999Y2328431D01*
X1109999Y2361569D01*
X1134535Y2386104D01*
X1134773Y2386412D01*
X1135040Y2386694D01*
X1135135Y2386866D01*
X1135219Y2386969D01*
X1135241Y2387014D01*
X1135303Y2387094D01*
X1135457Y2387451D01*
X1135645Y2387791D01*
X1135691Y2387969D01*
X1135753Y2388101D01*
X1135765Y2388161D01*
X1135800Y2388243D01*
X1135861Y2388627D01*
X1135959Y2389003D01*
X1135975Y2389257D01*
X1135989Y2389331D01*
X1135985Y2389404D01*
X1135997Y2389480D01*
X1135992Y2389528D01*
X1135999Y2389639D01*
X1135999Y2398628D01*
X1242617Y2505245D01*
X1242688Y2505337D01*
X1242775Y2505411D01*
X1243070Y2505829D01*
X1243384Y2506235D01*
X1243430Y2506340D01*
X1243497Y2506435D01*
X1243679Y2506914D01*
X1243882Y2507384D01*
X1243900Y2507498D01*
X1243941Y2507605D01*
X1243998Y2508115D01*
X1244078Y2508621D01*
X1244068Y2508735D01*
X1244081Y2508850D01*
X1244009Y2509358D01*
X1243961Y2509867D01*
X1243922Y2509976D01*
X1243906Y2510090D01*
X1243701Y2510693D01*
X1243283Y2511702D01*
X1243283Y2528298D01*
X1249634Y2543631D01*
X1261369Y2555366D01*
X1276702Y2561717D01*
X1293298Y2561717D01*
X1308631Y2555366D01*
X1320366Y2543631D01*
X1326717Y2528298D01*
X1326717Y2511702D01*
X1325714Y2509279D01*
X1325683Y2509168D01*
X1325631Y2509065D01*
X1325518Y2508566D01*
X1325383Y2508071D01*
X1325381Y2507956D01*
X1325356Y2507844D01*
X1325371Y2507332D01*
X1325363Y2506819D01*
X1325390Y2506707D01*
X1325393Y2506592D01*
X1325536Y2506099D01*
X1325655Y2505601D01*
X1325709Y2505499D01*
X1325741Y2505389D01*
X1326001Y2504947D01*
X1326240Y2504494D01*
X1326318Y2504409D01*
X1326376Y2504309D01*
X1326797Y2503831D01*
X1341164Y2489465D01*
X1341470Y2489227D01*
X1341753Y2488960D01*
X1341963Y2488844D01*
X1342153Y2488697D01*
X1342510Y2488543D01*
X1342850Y2488355D01*
X1343082Y2488295D01*
X1343302Y2488200D01*
X1343686Y2488139D01*
X1344062Y2488041D01*
X1344459Y2488016D01*
X1344539Y2488003D01*
X1344587Y2488008D01*
X1344698Y2488001D01*
X1545933Y2488001D01*
X1546477Y2488069D01*
X1547021Y2488120D01*
X1547096Y2488148D01*
X1547176Y2488157D01*
X1547684Y2488359D01*
X1548200Y2488544D01*
X1548266Y2488589D01*
X1548340Y2488618D01*
X1548782Y2488939D01*
X1549236Y2489247D01*
X1549289Y2489307D01*
X1549354Y2489354D01*
X1549703Y2489775D01*
X1550065Y2490186D01*
X1550101Y2490257D01*
X1550152Y2490318D01*
X1550385Y2490813D01*
X1550635Y2491301D01*
X1550652Y2491379D01*
X1550686Y2491451D01*
X1550789Y2491987D01*
X1550910Y2492523D01*
X1550907Y2492603D01*
X1550922Y2492681D01*
X1550888Y2493227D01*
X1550872Y2493774D01*
X1550850Y2493851D01*
X1550845Y2493931D01*
X1550676Y2494452D01*
X1550524Y2494978D01*
X1550484Y2495047D01*
X1550459Y2495123D01*
X1550167Y2495585D01*
X1549889Y2496057D01*
X1549816Y2496140D01*
X1549790Y2496181D01*
X1549730Y2496237D01*
X1549651Y2496326D01*
X1543283Y2511702D01*
X1543283Y2528298D01*
X1549634Y2543631D01*
X1557468Y2551465D01*
X1557803Y2551897D01*
X1558152Y2552319D01*
X1558187Y2552391D01*
X1558236Y2552454D01*
X1558453Y2552957D01*
X1558686Y2553451D01*
X1558702Y2553530D01*
X1558733Y2553604D01*
X1558819Y2554144D01*
X1558922Y2554681D01*
X1558917Y2554761D01*
X1558930Y2554841D01*
X1558879Y2555384D01*
X1558845Y2555931D01*
X1558820Y2556008D01*
X1558813Y2556087D01*
X1558628Y2556601D01*
X1558459Y2557123D01*
X1558416Y2557191D01*
X1558389Y2557266D01*
X1558083Y2557717D01*
X1557790Y2558181D01*
X1557731Y2558236D01*
X1557686Y2558302D01*
X1557277Y2558664D01*
X1556878Y2559040D01*
X1556808Y2559078D01*
X1556748Y2559132D01*
X1556259Y2559381D01*
X1555782Y2559645D01*
X1555704Y2559665D01*
X1555633Y2559702D01*
X1555099Y2559821D01*
X1554569Y2559959D01*
X1554458Y2559966D01*
X1554411Y2559976D01*
X1554330Y2559974D01*
X1553933Y2559999D01*
X1321372Y2559999D01*
X1304553Y2576818D01*
X1304246Y2577056D01*
X1303963Y2577323D01*
X1303753Y2577439D01*
X1303564Y2577586D01*
X1303207Y2577741D01*
X1302867Y2577928D01*
X1302634Y2577988D01*
X1302414Y2578084D01*
X1302031Y2578145D01*
X1301654Y2578242D01*
X1301258Y2578267D01*
X1301178Y2578280D01*
X1301129Y2578276D01*
X1301018Y2578283D01*
X1250313Y2578283D01*
X1243283Y2585313D01*
X1243283Y2603000D01*
X1243224Y2603464D01*
X1243195Y2603931D01*
X1243146Y2604084D01*
X1243126Y2604242D01*
X1242954Y2604677D01*
X1242810Y2605123D01*
X1242724Y2605258D01*
X1242665Y2605407D01*
X1242391Y2605785D01*
X1242140Y2606181D01*
X1242023Y2606291D01*
X1241929Y2606421D01*
X1241569Y2606719D01*
X1241228Y2607040D01*
X1241088Y2607117D01*
X1240965Y2607219D01*
X1240542Y2607419D01*
X1240132Y2607645D01*
X1239977Y2607685D01*
X1239832Y2607753D01*
X1239373Y2607841D01*
X1238920Y2607959D01*
X1238681Y2607974D01*
X1238602Y2607989D01*
X1238522Y2607984D01*
X1238283Y2607999D01*
X1025372Y2607999D01*
X928506Y2704866D01*
X928135Y2705153D01*
X927785Y2705463D01*
X927642Y2705536D01*
X927516Y2705634D01*
X927087Y2705820D01*
X926670Y2706033D01*
X926513Y2706068D01*
X926367Y2706131D01*
X925905Y2706205D01*
X925448Y2706307D01*
X925288Y2706303D01*
X925130Y2706328D01*
X924665Y2706284D01*
X924196Y2706270D01*
X924042Y2706226D01*
X923883Y2706211D01*
X923443Y2706053D01*
X922993Y2705923D01*
X922855Y2705841D01*
X922704Y2705787D01*
X922317Y2705525D01*
X921914Y2705287D01*
X921735Y2705130D01*
X921668Y2705084D01*
X921614Y2705023D01*
X921587Y2704999D01*
X888431Y2704999D01*
X864999Y2728431D01*
X864999Y2731000D01*
X864941Y2731464D01*
X864912Y2731931D01*
X864862Y2732084D01*
X864842Y2732242D01*
X864670Y2732677D01*
X864526Y2733123D01*
X864440Y2733258D01*
X864382Y2733407D01*
X864107Y2733785D01*
X863857Y2734181D01*
X863740Y2734291D01*
X863646Y2734421D01*
X863286Y2734719D01*
X862945Y2735040D01*
X862805Y2735117D01*
X862681Y2735219D01*
X862258Y2735419D01*
X861849Y2735645D01*
X861694Y2735685D01*
X861549Y2735753D01*
X861090Y2735841D01*
X860636Y2735959D01*
X860398Y2735974D01*
X860319Y2735989D01*
X860238Y2735984D01*
X860000Y2735999D01*
X847650Y2735999D01*
X847536Y2735985D01*
X847421Y2735994D01*
X846916Y2735907D01*
X846408Y2735842D01*
X846301Y2735800D01*
X846187Y2735780D01*
X845720Y2735570D01*
X845243Y2735382D01*
X845150Y2735314D01*
X845045Y2735267D01*
X844645Y2734948D01*
X844230Y2734646D01*
X844156Y2734557D01*
X844066Y2734485D01*
X843758Y2734076D01*
X843431Y2733681D01*
X843382Y2733578D01*
X843312Y2733485D01*
X843031Y2732913D01*
X836541Y2717243D01*
X822756Y2703459D01*
X804747Y2695999D01*
X785253Y2695999D01*
X767243Y2703459D01*
X753459Y2717243D01*
X745999Y2735253D01*
X745999Y2754747D01*
X753459Y2772756D01*
X767243Y2786541D01*
X785253Y2794001D01*
X804747Y2794001D01*
X822756Y2786541D01*
X836541Y2772756D01*
X837232Y2771087D01*
X837289Y2770987D01*
X837325Y2770877D01*
X837600Y2770443D01*
X837853Y2769999D01*
X837933Y2769917D01*
X837994Y2769819D01*
X838369Y2769466D01*
X838724Y2769099D01*
X838822Y2769039D01*
X838906Y2768960D01*
X839354Y2768713D01*
X839792Y2768445D01*
X839902Y2768411D01*
X840003Y2768355D01*
X840499Y2768226D01*
X840988Y2768076D01*
X841103Y2768070D01*
X841215Y2768041D01*
X841851Y2768001D01*
X869360Y2768001D01*
X869746Y2768049D01*
X870135Y2768061D01*
X870365Y2768127D01*
X870603Y2768157D01*
X870964Y2768300D01*
X871338Y2768408D01*
X871545Y2768530D01*
X871767Y2768618D01*
X872082Y2768846D01*
X872417Y2769044D01*
X872715Y2769306D01*
X872781Y2769354D01*
X872812Y2769391D01*
X872896Y2769465D01*
X888431Y2785001D01*
X921569Y2785001D01*
X945001Y2761569D01*
X945001Y2735698D01*
X945049Y2735313D01*
X945061Y2734924D01*
X945127Y2734694D01*
X945157Y2734456D01*
X945300Y2734095D01*
X945408Y2733721D01*
X945530Y2733514D01*
X945618Y2733291D01*
X945846Y2732977D01*
X946044Y2732642D01*
X946306Y2732344D01*
X946354Y2732278D01*
X946391Y2732247D01*
X946465Y2732163D01*
X1037163Y2641465D01*
X1037471Y2641226D01*
X1037753Y2640960D01*
X1037963Y2640844D01*
X1038153Y2640697D01*
X1038510Y2640543D01*
X1038850Y2640355D01*
X1039082Y2640295D01*
X1039302Y2640200D01*
X1039686Y2640139D01*
X1040062Y2640041D01*
X1040459Y2640016D01*
X1040539Y2640003D01*
X1040587Y2640008D01*
X1040698Y2640001D01*
X1238283Y2640001D01*
X1238748Y2640059D01*
X1239215Y2640088D01*
X1239367Y2640137D01*
X1239526Y2640157D01*
X1239961Y2640329D01*
X1240406Y2640474D01*
X1240542Y2640559D01*
X1240690Y2640618D01*
X1241068Y2640892D01*
X1241465Y2641143D01*
X1241575Y2641260D01*
X1241704Y2641354D01*
X1242002Y2641714D01*
X1242323Y2642055D01*
X1242401Y2642195D01*
X1242503Y2642318D01*
X1242702Y2642742D01*
X1242928Y2643151D01*
X1242969Y2643306D01*
X1243037Y2643451D01*
X1243125Y2643910D01*
X1243242Y2644364D01*
X1243257Y2644602D01*
X1243273Y2644681D01*
X1243267Y2644762D01*
X1243283Y2645000D01*
X1243283Y2654687D01*
X1250313Y2661717D01*
X1287585Y2661717D01*
X1288129Y2661786D01*
X1288672Y2661837D01*
X1288748Y2661864D01*
X1288828Y2661874D01*
X1289337Y2662075D01*
X1289851Y2662260D01*
X1289918Y2662305D01*
X1289992Y2662335D01*
X1290435Y2662656D01*
X1290888Y2662963D01*
X1290941Y2663023D01*
X1291006Y2663070D01*
X1291354Y2663491D01*
X1291717Y2663902D01*
X1291753Y2663973D01*
X1291804Y2664035D01*
X1292037Y2664528D01*
X1292287Y2665017D01*
X1292304Y2665095D01*
X1292338Y2665168D01*
X1292441Y2665704D01*
X1292562Y2666239D01*
X1292559Y2666319D01*
X1292574Y2666398D01*
X1292540Y2666943D01*
X1292524Y2667491D01*
X1292502Y2667568D01*
X1292497Y2667648D01*
X1292329Y2668168D01*
X1292177Y2668694D01*
X1292136Y2668763D01*
X1292111Y2668839D01*
X1291818Y2669303D01*
X1291541Y2669773D01*
X1291468Y2669856D01*
X1291442Y2669898D01*
X1291382Y2669954D01*
X1291120Y2670251D01*
X1234836Y2726535D01*
X1234529Y2726773D01*
X1234246Y2727040D01*
X1234037Y2727156D01*
X1233847Y2727303D01*
X1233490Y2727457D01*
X1233150Y2727645D01*
X1232918Y2727705D01*
X1232698Y2727800D01*
X1232314Y2727861D01*
X1231938Y2727959D01*
X1231541Y2727984D01*
X1231461Y2727997D01*
X1231413Y2727992D01*
X1231301Y2727999D01*
X1191639Y2727999D01*
X1191254Y2727951D01*
X1190865Y2727939D01*
X1190635Y2727872D01*
X1190397Y2727842D01*
X1190036Y2727700D01*
X1189662Y2727592D01*
X1189455Y2727470D01*
X1189232Y2727382D01*
X1188918Y2727154D01*
X1188583Y2726956D01*
X1188284Y2726694D01*
X1188219Y2726646D01*
X1188188Y2726609D01*
X1188104Y2726535D01*
X1166569Y2704999D01*
X1133431Y2704999D01*
X1109999Y2728431D01*
X1109999Y2761569D01*
X1133431Y2785001D01*
X1166569Y2785001D01*
X1190104Y2761465D01*
X1190412Y2761226D01*
X1190694Y2760960D01*
X1190904Y2760844D01*
X1191094Y2760697D01*
X1191451Y2760543D01*
X1191791Y2760355D01*
X1192023Y2760295D01*
X1192243Y2760200D01*
X1192627Y2760139D01*
X1193003Y2760041D01*
X1193400Y2760016D01*
X1193480Y2760003D01*
X1193528Y2760008D01*
X1193639Y2760001D01*
X1246628Y2760001D01*
X1365163Y2641465D01*
X1365471Y2641226D01*
X1365753Y2640960D01*
X1365963Y2640844D01*
X1366153Y2640697D01*
X1366510Y2640543D01*
X1366850Y2640355D01*
X1367082Y2640295D01*
X1367302Y2640200D01*
X1367686Y2640139D01*
X1368062Y2640041D01*
X1368459Y2640016D01*
X1368539Y2640003D01*
X1368587Y2640008D01*
X1368698Y2640001D01*
X1544790Y2640001D01*
X1544904Y2640015D01*
X1545019Y2640006D01*
X1545523Y2640093D01*
X1546032Y2640157D01*
X1546139Y2640200D01*
X1546253Y2640219D01*
X1546720Y2640430D01*
X1547197Y2640618D01*
X1547290Y2640686D01*
X1547395Y2640733D01*
X1547795Y2641053D01*
X1548210Y2641354D01*
X1548284Y2641443D01*
X1548374Y2641514D01*
X1548683Y2641924D01*
X1549009Y2642318D01*
X1549058Y2642422D01*
X1549127Y2642515D01*
X1549408Y2643087D01*
X1549634Y2643631D01*
X1561369Y2655366D01*
X1576702Y2661717D01*
X1593298Y2661717D01*
X1599963Y2658956D01*
X1600074Y2658926D01*
X1600177Y2658873D01*
X1600677Y2658761D01*
X1601171Y2658626D01*
X1601287Y2658624D01*
X1601399Y2658599D01*
X1601911Y2658614D01*
X1602423Y2658606D01*
X1602535Y2658633D01*
X1602651Y2658636D01*
X1603143Y2658778D01*
X1603641Y2658898D01*
X1603743Y2658951D01*
X1603854Y2658983D01*
X1604295Y2659243D01*
X1604748Y2659483D01*
X1604834Y2659560D01*
X1604933Y2659619D01*
X1605412Y2660040D01*
X1625372Y2680001D01*
X1822628Y2680001D01*
X1880001Y2622628D01*
X1880001Y2448698D01*
X1880049Y2448313D01*
X1880061Y2447924D01*
X1880127Y2447694D01*
X1880157Y2447456D01*
X1880300Y2447095D01*
X1880408Y2446721D01*
X1880530Y2446514D01*
X1880618Y2446291D01*
X1880846Y2445977D01*
X1881044Y2445642D01*
X1881306Y2445344D01*
X1881354Y2445278D01*
X1881391Y2445247D01*
X1881465Y2445163D01*
X2024394Y2302234D01*
X2024548Y2302115D01*
X2024679Y2301970D01*
X2025041Y2301732D01*
X2025383Y2301467D01*
X2025562Y2301389D01*
X2025725Y2301282D01*
X2026135Y2301141D01*
X2026533Y2300969D01*
X2026725Y2300938D01*
X2026910Y2300875D01*
X2027341Y2300841D01*
X2027769Y2300773D01*
X2027964Y2300791D01*
X2028158Y2300775D01*
X2028585Y2300849D01*
X2029016Y2300890D01*
X2029200Y2300956D01*
X2029392Y2300989D01*
X2029787Y2301167D01*
X2030195Y2301313D01*
X2030356Y2301423D01*
X2030534Y2301503D01*
X2030872Y2301773D01*
X2031231Y2302016D01*
X2031361Y2302162D01*
X2031513Y2302284D01*
X2031773Y2302629D01*
X2032061Y2302955D01*
X2032149Y2303128D01*
X2032267Y2303284D01*
X2032548Y2303856D01*
X2041437Y2325317D01*
X2059211Y2343091D01*
X2082432Y2352709D01*
X2107568Y2352709D01*
X2130789Y2343091D01*
X2148563Y2325317D01*
X2158182Y2302095D01*
X2158182Y2276960D01*
X2148563Y2253738D01*
X2130789Y2235964D01*
X2107568Y2226346D01*
X2082432Y2226346D01*
X2059210Y2235965D01*
X2056535Y2238640D01*
X2056102Y2238976D01*
X2055681Y2239324D01*
X2055609Y2239358D01*
X2055546Y2239408D01*
X2055042Y2239626D01*
X2054549Y2239858D01*
X2054470Y2239873D01*
X2054396Y2239905D01*
X2053855Y2239991D01*
X2053319Y2240094D01*
X2053239Y2240089D01*
X2053159Y2240102D01*
X2052616Y2240051D01*
X2052069Y2240017D01*
X2051992Y2239992D01*
X2051913Y2239985D01*
X2051399Y2239800D01*
X2050877Y2239631D01*
X2050809Y2239588D01*
X2050734Y2239561D01*
X2050282Y2239255D01*
X2049819Y2238962D01*
X2049764Y2238903D01*
X2049697Y2238858D01*
X2049335Y2238449D01*
X2048960Y2238050D01*
X2048921Y2237980D01*
X2048868Y2237920D01*
X2048619Y2237433D01*
X2048355Y2236954D01*
X2048335Y2236876D01*
X2048298Y2236805D01*
X2048178Y2236271D01*
X2048041Y2235741D01*
X2048034Y2235630D01*
X2048023Y2235583D01*
X2048026Y2235502D01*
X2048001Y2235105D01*
X2048001Y2141016D01*
X2048059Y2140551D01*
X2048088Y2140084D01*
X2048137Y2139932D01*
X2048157Y2139773D01*
X2048329Y2139338D01*
X2048474Y2138893D01*
X2048559Y2138757D01*
X2048618Y2138609D01*
X2048892Y2138231D01*
X2049143Y2137835D01*
X2049260Y2137725D01*
X2049354Y2137595D01*
X2049714Y2137297D01*
X2050055Y2136976D01*
X2050195Y2136898D01*
X2050318Y2136796D01*
X2050742Y2136597D01*
X2051151Y2136371D01*
X2051306Y2136331D01*
X2051451Y2136262D01*
X2051910Y2136174D01*
X2052364Y2136057D01*
X2052602Y2136042D01*
X2052681Y2136027D01*
X2052762Y2136032D01*
X2053000Y2136016D01*
X2069341Y2136016D01*
X2075892Y2129465D01*
X2076199Y2129227D01*
X2076482Y2128960D01*
X2076692Y2128844D01*
X2076882Y2128697D01*
X2077239Y2128543D01*
X2077579Y2128355D01*
X2077811Y2128295D01*
X2078031Y2128200D01*
X2078414Y2128139D01*
X2078791Y2128041D01*
X2079188Y2128016D01*
X2079268Y2128003D01*
X2079316Y2128008D01*
X2079427Y2128001D01*
X2220572Y2128001D01*
X2220958Y2128049D01*
X2221347Y2128061D01*
X2221577Y2128127D01*
X2221815Y2128157D01*
X2222176Y2128300D01*
X2222550Y2128408D01*
X2222757Y2128530D01*
X2222979Y2128618D01*
X2223294Y2128846D01*
X2223629Y2129044D01*
X2223927Y2129306D01*
X2223993Y2129354D01*
X2224024Y2129391D01*
X2224108Y2129465D01*
X2230659Y2136016D01*
X2297687Y2136016D01*
X2304239Y2129465D01*
X2304546Y2129227D01*
X2304829Y2128960D01*
X2305039Y2128844D01*
X2305228Y2128697D01*
X2305585Y2128543D01*
X2305925Y2128355D01*
X2306157Y2128295D01*
X2306377Y2128200D01*
X2306761Y2128139D01*
X2307138Y2128041D01*
X2307534Y2128016D01*
X2307614Y2128003D01*
X2307662Y2128008D01*
X2307774Y2128001D01*
X2310628Y2128001D01*
X2456001Y1982628D01*
X2456001Y1625372D01*
X2422628Y1591999D01*
X2377372Y1591999D01*
X2343999Y1625372D01*
X2343999Y1943301D01*
X2343951Y1943687D01*
X2343939Y1944076D01*
X2343872Y1944306D01*
X2343842Y1944544D01*
X2343700Y1944905D01*
X2343592Y1945279D01*
X2343470Y1945485D01*
X2343382Y1945708D01*
X2343153Y1946023D01*
X2342956Y1946358D01*
X2342694Y1946656D01*
X2342646Y1946722D01*
X2342609Y1946753D01*
X2342535Y1946836D01*
X2313251Y1976120D01*
X2312818Y1976456D01*
X2312398Y1976804D01*
X2312325Y1976839D01*
X2312262Y1976888D01*
X2311760Y1977105D01*
X2311265Y1977338D01*
X2311186Y1977354D01*
X2311113Y1977385D01*
X2310572Y1977471D01*
X2310035Y1977574D01*
X2309955Y1977569D01*
X2309876Y1977582D01*
X2309332Y1977531D01*
X2308785Y1977497D01*
X2308709Y1977472D01*
X2308629Y1977465D01*
X2308115Y1977280D01*
X2307594Y1977111D01*
X2307526Y1977068D01*
X2307450Y1977041D01*
X2306999Y1976735D01*
X2306535Y1976442D01*
X2306480Y1976383D01*
X2306414Y1976338D01*
X2306052Y1975929D01*
X2305677Y1975530D01*
X2305638Y1975460D01*
X2305585Y1975400D01*
X2305335Y1974911D01*
X2305071Y1974434D01*
X2305051Y1974356D01*
X2305015Y1974285D01*
X2304895Y1973751D01*
X2304758Y1973221D01*
X2304751Y1973110D01*
X2304740Y1973063D01*
X2304742Y1972982D01*
X2304717Y1972585D01*
X2304717Y1871013D01*
X2297687Y1863984D01*
X2237000Y1863984D01*
X2236536Y1863925D01*
X2236069Y1863896D01*
X2235916Y1863847D01*
X2235757Y1863827D01*
X2235323Y1863655D01*
X2234877Y1863510D01*
X2234742Y1863425D01*
X2234593Y1863366D01*
X2234215Y1863092D01*
X2233819Y1862841D01*
X2233709Y1862724D01*
X2233579Y1862630D01*
X2233281Y1862270D01*
X2232960Y1861929D01*
X2232883Y1861789D01*
X2232781Y1861666D01*
X2232581Y1861243D01*
X2232355Y1860833D01*
X2232315Y1860678D01*
X2232247Y1860533D01*
X2232159Y1860074D01*
X2232041Y1859620D01*
X2232026Y1859382D01*
X2232011Y1859303D01*
X2232016Y1859222D01*
X2232001Y1858984D01*
X2232001Y1456698D01*
X2232049Y1456313D01*
X2232061Y1455924D01*
X2232127Y1455694D01*
X2232157Y1455456D01*
X2232300Y1455095D01*
X2232408Y1454721D01*
X2232530Y1454514D01*
X2232618Y1454291D01*
X2232846Y1453977D01*
X2233044Y1453642D01*
X2233306Y1453344D01*
X2233354Y1453278D01*
X2233391Y1453247D01*
X2233465Y1453163D01*
X2366494Y1320134D01*
X2366864Y1319847D01*
X2367215Y1319537D01*
X2367358Y1319464D01*
X2367484Y1319366D01*
X2367913Y1319180D01*
X2368330Y1318967D01*
X2368486Y1318932D01*
X2368633Y1318868D01*
X2369095Y1318795D01*
X2369552Y1318692D01*
X2369712Y1318697D01*
X2369870Y1318672D01*
X2370335Y1318716D01*
X2370804Y1318730D01*
X2370958Y1318774D01*
X2371117Y1318789D01*
X2371557Y1318947D01*
X2372007Y1319077D01*
X2372145Y1319159D01*
X2372295Y1319213D01*
X2372683Y1319475D01*
X2373086Y1319713D01*
X2373265Y1319870D01*
X2373332Y1319916D01*
X2373386Y1319977D01*
X2373413Y1320001D01*
X2406569Y1320001D01*
X2430001Y1296569D01*
X2430001Y1263431D01*
X2406569Y1239999D01*
X2373431Y1239999D01*
X2349999Y1263431D01*
X2349999Y1289301D01*
X2349951Y1289687D01*
X2349939Y1290076D01*
X2349872Y1290306D01*
X2349842Y1290544D01*
X2349700Y1290905D01*
X2349592Y1291279D01*
X2349470Y1291485D01*
X2349382Y1291708D01*
X2349153Y1292023D01*
X2348956Y1292358D01*
X2348694Y1292656D01*
X2348646Y1292722D01*
X2348609Y1292753D01*
X2348535Y1292836D01*
X2199999Y1441372D01*
X2199999Y2054628D01*
X2222165Y2076793D01*
X2222403Y2077101D01*
X2222670Y2077383D01*
X2222786Y2077593D01*
X2222933Y2077783D01*
X2223087Y2078140D01*
X2223275Y2078480D01*
X2223335Y2078712D01*
X2223430Y2078932D01*
X2223491Y2079316D01*
X2223589Y2079692D01*
X2223614Y2080089D01*
X2223627Y2080169D01*
X2223622Y2080217D01*
X2223629Y2080328D01*
X2223629Y2091000D01*
X2223571Y2091464D01*
X2223542Y2091931D01*
X2223492Y2092084D01*
X2223472Y2092242D01*
X2223300Y2092677D01*
X2223156Y2093123D01*
X2223070Y2093258D01*
X2223012Y2093407D01*
X2222737Y2093785D01*
X2222487Y2094181D01*
X2222370Y2094291D01*
X2222276Y2094421D01*
X2221916Y2094719D01*
X2221575Y2095040D01*
X2221435Y2095117D01*
X2221311Y2095219D01*
X2220888Y2095419D01*
X2220478Y2095645D01*
X2220323Y2095685D01*
X2220179Y2095753D01*
X2219720Y2095841D01*
X2219266Y2095959D01*
X2219028Y2095974D01*
X2218949Y2095989D01*
X2218868Y2095984D01*
X2218630Y2095999D01*
X2101000Y2095999D01*
X2100536Y2095941D01*
X2100069Y2095912D01*
X2099916Y2095862D01*
X2099757Y2095842D01*
X2099323Y2095670D01*
X2098877Y2095526D01*
X2098742Y2095440D01*
X2098593Y2095382D01*
X2098215Y2095107D01*
X2097819Y2094857D01*
X2097709Y2094740D01*
X2097579Y2094646D01*
X2097281Y2094286D01*
X2096960Y2093945D01*
X2096883Y2093805D01*
X2096781Y2093681D01*
X2096581Y2093258D01*
X2096355Y2092849D01*
X2096315Y2092694D01*
X2096247Y2092549D01*
X2096159Y2092090D01*
X2096041Y2091636D01*
X2096026Y2091398D01*
X2096011Y2091319D01*
X2096016Y2091238D01*
X2096001Y2091000D01*
X2096001Y2017372D01*
X2077835Y1999207D01*
X2077596Y1998899D01*
X2077330Y1998617D01*
X2077214Y1998407D01*
X2077067Y1998217D01*
X2076913Y1997860D01*
X2076725Y1997520D01*
X2076665Y1997288D01*
X2076570Y1997068D01*
X2076509Y1996684D01*
X2076411Y1996308D01*
X2076386Y1995911D01*
X2076373Y1995831D01*
X2076378Y1995783D01*
X2076371Y1995672D01*
X2076371Y1922195D01*
X2075835Y1921659D01*
X2075596Y1921351D01*
X2075330Y1921069D01*
X2075214Y1920859D01*
X2075067Y1920669D01*
X2074913Y1920312D01*
X2074725Y1919972D01*
X2074665Y1919740D01*
X2074570Y1919520D01*
X2074509Y1919136D01*
X2074411Y1918760D01*
X2074386Y1918363D01*
X2074373Y1918283D01*
X2074378Y1918235D01*
X2074371Y1918124D01*
X2074371Y1915433D01*
X2071680Y1915433D01*
X2071568Y1915419D01*
X2071456Y1915428D01*
X2071021Y1915353D01*
X2070592Y1915313D01*
X2070518Y1915286D01*
X2070437Y1915276D01*
X2070333Y1915234D01*
X2070222Y1915215D01*
X2069821Y1915036D01*
X2069413Y1914889D01*
X2069348Y1914845D01*
X2069273Y1914815D01*
X2069182Y1914749D01*
X2069079Y1914703D01*
X2068557Y1914337D01*
X2068556Y1914337D01*
X2068474Y1914252D01*
X2068377Y1914186D01*
X2068324Y1914126D01*
X2068259Y1914079D01*
X2067986Y1913749D01*
X2067684Y1913438D01*
X2067626Y1913336D01*
X2067548Y1913248D01*
X2067511Y1913175D01*
X2067461Y1913115D01*
X2067279Y1912729D01*
X2067063Y1912351D01*
X2067031Y1912238D01*
X2066978Y1912133D01*
X2066960Y1912053D01*
X2066927Y1911982D01*
X2066847Y1911565D01*
X2066731Y1911143D01*
X2066729Y1911025D01*
X2066703Y1910911D01*
X2066705Y1910828D01*
X2066691Y1910752D01*
X2066717Y1910331D01*
X2066709Y1909891D01*
X2066737Y1909776D01*
X2066740Y1909659D01*
X2066763Y1909579D01*
X2066768Y1909502D01*
X2066768Y1909501D01*
X2066899Y1909098D01*
X2067000Y1908673D01*
X2067055Y1908569D01*
X2067088Y1908456D01*
X2067129Y1908385D01*
X2067154Y1908310D01*
X2067382Y1907949D01*
X2067584Y1907565D01*
X2067664Y1907478D01*
X2067723Y1907377D01*
X2067797Y1907292D01*
X2067823Y1907251D01*
X2067883Y1907195D01*
X2068144Y1906898D01*
X2068145Y1906897D01*
X2068297Y1906779D01*
X2068426Y1906638D01*
X2068590Y1906529D01*
X2068735Y1906393D01*
X2068945Y1906277D01*
X2069134Y1906130D01*
X2069312Y1906053D01*
X2069471Y1905948D01*
X2069656Y1905884D01*
X2069831Y1905787D01*
X2070064Y1905727D01*
X2070284Y1905632D01*
X2070476Y1905602D01*
X2070655Y1905540D01*
X2070849Y1905524D01*
X2071044Y1905474D01*
X2071441Y1905448D01*
X2071521Y1905436D01*
X2071569Y1905440D01*
X2071680Y1905433D01*
X2074371Y1905433D01*
X2074371Y1902742D01*
X2074419Y1902357D01*
X2074431Y1901968D01*
X2074498Y1901738D01*
X2074528Y1901500D01*
X2074670Y1901139D01*
X2074778Y1900765D01*
X2074900Y1900558D01*
X2074988Y1900335D01*
X2075217Y1900021D01*
X2075414Y1899686D01*
X2075676Y1899387D01*
X2075724Y1899322D01*
X2075761Y1899291D01*
X2075835Y1899207D01*
X2076371Y1898672D01*
X2076371Y1871013D01*
X2069341Y1863984D01*
X2002313Y1863984D01*
X1995283Y1871013D01*
X1995283Y1898672D01*
X1995819Y1899207D01*
X1996057Y1899515D01*
X1996323Y1899797D01*
X1996439Y1900007D01*
X1996586Y1900197D01*
X1996741Y1900554D01*
X1996928Y1900894D01*
X1996988Y1901126D01*
X1997084Y1901346D01*
X1997145Y1901730D01*
X1997242Y1902106D01*
X1997267Y1902503D01*
X1997280Y1902583D01*
X1997276Y1902631D01*
X1997283Y1902742D01*
X1997283Y1905433D01*
X1999973Y1905433D01*
X2000174Y1905458D01*
X2000367Y1905449D01*
X2000552Y1905487D01*
X2000748Y1905493D01*
X2000978Y1905560D01*
X2001216Y1905590D01*
X2001402Y1905664D01*
X2001594Y1905703D01*
X2001764Y1905787D01*
X2001951Y1905841D01*
X2002157Y1905962D01*
X2002380Y1906051D01*
X2002542Y1906168D01*
X2002718Y1906254D01*
X2002864Y1906378D01*
X2003030Y1906476D01*
X2003328Y1906739D01*
X2003394Y1906786D01*
X2003425Y1906824D01*
X2003508Y1906897D01*
X2003509Y1906898D01*
X2003582Y1906991D01*
X2003671Y1907068D01*
X2003920Y1907421D01*
X2004193Y1907751D01*
X2004227Y1907823D01*
X2004277Y1907888D01*
X2004324Y1907996D01*
X2004391Y1908092D01*
X2004546Y1908499D01*
X2004727Y1908884D01*
X2004742Y1908961D01*
X2004774Y1909037D01*
X2004793Y1909153D01*
X2004835Y1909263D01*
X2004883Y1909699D01*
X2004962Y1910114D01*
X2004963Y1910115D01*
X2004958Y1910192D01*
X2004971Y1910274D01*
X2004960Y1910391D01*
X2004973Y1910508D01*
X2004912Y1910941D01*
X2004885Y1911365D01*
X2004861Y1911439D01*
X2004854Y1911520D01*
X2004814Y1911631D01*
X2004797Y1911748D01*
X2004631Y1912151D01*
X2004500Y1912556D01*
X2004458Y1912623D01*
X2004430Y1912699D01*
X2004364Y1912796D01*
X2004319Y1912905D01*
X2004060Y1913252D01*
X2003830Y1913615D01*
X2003772Y1913669D01*
X2003727Y1913735D01*
X2003639Y1913813D01*
X2003569Y1913908D01*
X2003097Y1914337D01*
X2003000Y1914396D01*
X2002919Y1914473D01*
X2002849Y1914512D01*
X2002789Y1914565D01*
X2002401Y1914763D01*
X2002028Y1914991D01*
X2001921Y1915024D01*
X2001822Y1915078D01*
X2001744Y1915099D01*
X2001674Y1915135D01*
X2001252Y1915229D01*
X2000831Y1915359D01*
X2000719Y1915364D01*
X2000610Y1915392D01*
X2000496Y1915399D01*
X2000452Y1915409D01*
X2000376Y1915407D01*
X1999974Y1915433D01*
X1997283Y1915433D01*
X1997283Y1918124D01*
X1997234Y1918509D01*
X1997222Y1918898D01*
X1997156Y1919128D01*
X1997126Y1919366D01*
X1996983Y1919727D01*
X1996875Y1920101D01*
X1996753Y1920308D01*
X1996665Y1920531D01*
X1996437Y1920845D01*
X1996240Y1921180D01*
X1995977Y1921479D01*
X1995929Y1921544D01*
X1995892Y1921575D01*
X1995819Y1921659D01*
X1995283Y1922195D01*
X1995283Y1992585D01*
X1995214Y1993129D01*
X1995163Y1993672D01*
X1995136Y1993748D01*
X1995126Y1993828D01*
X1994924Y1994337D01*
X1994740Y1994851D01*
X1994695Y1994918D01*
X1994665Y1994992D01*
X1994344Y1995435D01*
X1994037Y1995888D01*
X1993977Y1995941D01*
X1993929Y1996006D01*
X1993509Y1996354D01*
X1993098Y1996717D01*
X1993026Y1996753D01*
X1992965Y1996804D01*
X1992472Y1997037D01*
X1991983Y1997287D01*
X1991905Y1997304D01*
X1991832Y1997338D01*
X1991296Y1997441D01*
X1990761Y1997562D01*
X1990681Y1997559D01*
X1990602Y1997574D01*
X1990057Y1997540D01*
X1989509Y1997524D01*
X1989432Y1997502D01*
X1989352Y1997497D01*
X1988832Y1997329D01*
X1988306Y1997177D01*
X1988237Y1997136D01*
X1988161Y1997111D01*
X1987697Y1996818D01*
X1987227Y1996541D01*
X1987144Y1996468D01*
X1987102Y1996442D01*
X1987046Y1996382D01*
X1986748Y1996120D01*
X1833465Y1842836D01*
X1833226Y1842529D01*
X1832960Y1842246D01*
X1832844Y1842037D01*
X1832697Y1841847D01*
X1832543Y1841490D01*
X1832355Y1841150D01*
X1832295Y1840918D01*
X1832200Y1840698D01*
X1832139Y1840314D01*
X1832041Y1839938D01*
X1832016Y1839541D01*
X1832003Y1839461D01*
X1832008Y1839412D01*
X1832001Y1839301D01*
X1832001Y1233372D01*
X1821465Y1222836D01*
X1821226Y1222529D01*
X1820960Y1222246D01*
X1820844Y1222037D01*
X1820697Y1221847D01*
X1820543Y1221490D01*
X1820355Y1221150D01*
X1820295Y1220918D01*
X1820200Y1220698D01*
X1820139Y1220314D01*
X1820041Y1219938D01*
X1820016Y1219541D01*
X1820003Y1219461D01*
X1820008Y1219413D01*
X1820001Y1219301D01*
X1820001Y1188431D01*
X1796569Y1164999D01*
X1763431Y1164999D01*
G37*
%LPD*%
%LPC*%
G36*
X1297043Y544999D02*
X1297043Y544999D01*
X1282342Y551089D01*
X1271089Y562342D01*
X1264999Y577043D01*
X1264999Y592957D01*
X1271089Y607658D01*
X1282342Y618911D01*
X1284913Y619976D01*
X1285013Y620033D01*
X1285123Y620069D01*
X1285556Y620343D01*
X1286001Y620596D01*
X1286084Y620677D01*
X1286181Y620738D01*
X1286533Y621112D01*
X1286900Y621468D01*
X1286961Y621566D01*
X1287040Y621650D01*
X1287287Y622098D01*
X1287555Y622535D01*
X1287589Y622646D01*
X1287645Y622746D01*
X1287773Y623243D01*
X1287924Y623732D01*
X1287930Y623847D01*
X1287959Y623959D01*
X1287999Y624595D01*
X1287999Y703301D01*
X1287951Y703687D01*
X1287939Y704076D01*
X1287872Y704306D01*
X1287842Y704544D01*
X1287700Y704905D01*
X1287592Y705279D01*
X1287470Y705485D01*
X1287382Y705708D01*
X1287153Y706023D01*
X1286956Y706358D01*
X1286694Y706656D01*
X1286646Y706722D01*
X1286609Y706753D01*
X1286535Y706836D01*
X1103999Y889372D01*
X1103999Y942628D01*
X1182837Y1021465D01*
X1183173Y1021898D01*
X1183521Y1022319D01*
X1183555Y1022391D01*
X1183604Y1022454D01*
X1183822Y1022957D01*
X1184055Y1023451D01*
X1184070Y1023530D01*
X1184102Y1023604D01*
X1184188Y1024144D01*
X1184291Y1024681D01*
X1184286Y1024761D01*
X1184298Y1024841D01*
X1184247Y1025384D01*
X1184213Y1025931D01*
X1184189Y1026008D01*
X1184181Y1026087D01*
X1183997Y1026601D01*
X1183828Y1027123D01*
X1183785Y1027191D01*
X1183758Y1027266D01*
X1183452Y1027717D01*
X1183158Y1028181D01*
X1183100Y1028236D01*
X1183055Y1028302D01*
X1182645Y1028664D01*
X1182247Y1029040D01*
X1182177Y1029078D01*
X1182116Y1029132D01*
X1181628Y1029381D01*
X1181150Y1029645D01*
X1181073Y1029665D01*
X1181001Y1029702D01*
X1180468Y1029821D01*
X1179938Y1029959D01*
X1179827Y1029966D01*
X1179779Y1029976D01*
X1179698Y1029974D01*
X1179302Y1029999D01*
X1173431Y1029999D01*
X1149999Y1053431D01*
X1149999Y1086569D01*
X1166535Y1103104D01*
X1166773Y1103412D01*
X1167040Y1103695D01*
X1167156Y1103904D01*
X1167303Y1104094D01*
X1167457Y1104451D01*
X1167645Y1104791D01*
X1167705Y1105023D01*
X1167800Y1105243D01*
X1167861Y1105627D01*
X1167959Y1106003D01*
X1167984Y1106400D01*
X1167997Y1106480D01*
X1167992Y1106528D01*
X1167999Y1106640D01*
X1167999Y1407301D01*
X1167951Y1407687D01*
X1167939Y1408076D01*
X1167872Y1408306D01*
X1167842Y1408544D01*
X1167700Y1408905D01*
X1167592Y1409279D01*
X1167470Y1409485D01*
X1167382Y1409708D01*
X1167153Y1410023D01*
X1166956Y1410358D01*
X1166694Y1410656D01*
X1166646Y1410722D01*
X1166609Y1410753D01*
X1166535Y1410836D01*
X1024535Y1552837D01*
X1024102Y1553173D01*
X1023681Y1553521D01*
X1023609Y1553555D01*
X1023545Y1553604D01*
X1023043Y1553822D01*
X1022549Y1554055D01*
X1022470Y1554070D01*
X1022396Y1554102D01*
X1021856Y1554188D01*
X1021319Y1554291D01*
X1021239Y1554286D01*
X1021159Y1554298D01*
X1020615Y1554247D01*
X1020069Y1554213D01*
X1019992Y1554189D01*
X1019913Y1554181D01*
X1019399Y1553997D01*
X1018877Y1553828D01*
X1018809Y1553785D01*
X1018734Y1553758D01*
X1018283Y1553452D01*
X1017819Y1553158D01*
X1017764Y1553100D01*
X1017697Y1553055D01*
X1017335Y1552645D01*
X1016960Y1552247D01*
X1016922Y1552177D01*
X1016868Y1552116D01*
X1016619Y1551628D01*
X1016355Y1551150D01*
X1016335Y1551073D01*
X1016298Y1551001D01*
X1016178Y1550468D01*
X1016041Y1549938D01*
X1016034Y1549827D01*
X1016023Y1549779D01*
X1016026Y1549698D01*
X1016001Y1549302D01*
X1016001Y1432640D01*
X1016049Y1432254D01*
X1016061Y1431865D01*
X1016127Y1431635D01*
X1016157Y1431397D01*
X1016300Y1431036D01*
X1016408Y1430662D01*
X1016530Y1430455D01*
X1016618Y1430233D01*
X1016846Y1429918D01*
X1017044Y1429583D01*
X1017306Y1429285D01*
X1017354Y1429219D01*
X1017391Y1429188D01*
X1017465Y1429104D01*
X1040001Y1406569D01*
X1040001Y1373431D01*
X1016569Y1349999D01*
X1004698Y1349999D01*
X1004155Y1349931D01*
X1003611Y1349880D01*
X1003535Y1349852D01*
X1003456Y1349842D01*
X1002947Y1349641D01*
X1002432Y1349456D01*
X1002366Y1349411D01*
X1002291Y1349382D01*
X1001848Y1349060D01*
X1001396Y1348753D01*
X1001343Y1348693D01*
X1001278Y1348646D01*
X1000929Y1348225D01*
X1000567Y1347815D01*
X1000530Y1347743D01*
X1000479Y1347681D01*
X1000246Y1347188D01*
X999997Y1346700D01*
X999979Y1346621D01*
X999945Y1346549D01*
X999842Y1346012D01*
X999722Y1345478D01*
X999724Y1345397D01*
X999709Y1345319D01*
X999743Y1344773D01*
X999759Y1344226D01*
X999781Y1344149D01*
X999786Y1344069D01*
X999955Y1343548D01*
X1000107Y1343023D01*
X1000147Y1342953D01*
X1000172Y1342877D01*
X1000465Y1342414D01*
X1000742Y1341944D01*
X1000815Y1341860D01*
X1000842Y1341819D01*
X1000901Y1341762D01*
X1001163Y1341465D01*
X1016001Y1326628D01*
X1016001Y1032640D01*
X1016049Y1032254D01*
X1016061Y1031865D01*
X1016127Y1031635D01*
X1016157Y1031397D01*
X1016300Y1031036D01*
X1016408Y1030662D01*
X1016530Y1030455D01*
X1016618Y1030233D01*
X1016846Y1029918D01*
X1017044Y1029583D01*
X1017306Y1029285D01*
X1017354Y1029219D01*
X1017391Y1029188D01*
X1017465Y1029104D01*
X1040001Y1006569D01*
X1040001Y973431D01*
X1016569Y949999D01*
X983431Y949999D01*
X959999Y973431D01*
X959999Y1006569D01*
X982535Y1029104D01*
X982773Y1029412D01*
X983040Y1029695D01*
X983156Y1029904D01*
X983303Y1030094D01*
X983457Y1030451D01*
X983645Y1030791D01*
X983705Y1031023D01*
X983800Y1031243D01*
X983861Y1031627D01*
X983959Y1032003D01*
X983984Y1032400D01*
X983997Y1032480D01*
X983992Y1032528D01*
X983999Y1032640D01*
X983999Y1311301D01*
X983951Y1311687D01*
X983939Y1312076D01*
X983872Y1312306D01*
X983842Y1312544D01*
X983700Y1312905D01*
X983592Y1313279D01*
X983470Y1313485D01*
X983382Y1313708D01*
X983153Y1314023D01*
X982956Y1314358D01*
X982694Y1314656D01*
X982646Y1314722D01*
X982609Y1314753D01*
X982535Y1314836D01*
X858837Y1438535D01*
X858529Y1438773D01*
X858247Y1439040D01*
X858037Y1439156D01*
X857847Y1439303D01*
X857491Y1439457D01*
X857150Y1439645D01*
X856918Y1439705D01*
X856698Y1439800D01*
X856314Y1439861D01*
X855938Y1439959D01*
X855541Y1439984D01*
X855461Y1439997D01*
X855413Y1439992D01*
X855302Y1439999D01*
X823431Y1439999D01*
X799999Y1463431D01*
X799999Y1495302D01*
X799951Y1495687D01*
X799939Y1496076D01*
X799872Y1496306D01*
X799842Y1496544D01*
X799700Y1496905D01*
X799592Y1497279D01*
X799470Y1497486D01*
X799382Y1497709D01*
X799153Y1498023D01*
X798956Y1498358D01*
X798694Y1498656D01*
X798646Y1498722D01*
X798609Y1498753D01*
X798535Y1498837D01*
X530836Y1766535D01*
X530529Y1766773D01*
X530246Y1767040D01*
X530037Y1767156D01*
X529847Y1767303D01*
X529490Y1767457D01*
X529150Y1767645D01*
X528918Y1767705D01*
X528698Y1767800D01*
X528314Y1767861D01*
X527938Y1767959D01*
X527541Y1767984D01*
X527461Y1767997D01*
X527413Y1767992D01*
X527301Y1767999D01*
X482595Y1767999D01*
X482480Y1767985D01*
X482366Y1767994D01*
X481861Y1767907D01*
X481352Y1767842D01*
X481245Y1767800D01*
X481132Y1767780D01*
X480664Y1767570D01*
X480188Y1767382D01*
X480095Y1767314D01*
X479990Y1767267D01*
X479589Y1766947D01*
X479174Y1766646D01*
X479101Y1766557D01*
X479011Y1766485D01*
X478702Y1766076D01*
X478376Y1765681D01*
X478327Y1765577D01*
X478257Y1765485D01*
X477976Y1764913D01*
X476911Y1762342D01*
X465658Y1751089D01*
X450957Y1744999D01*
X379043Y1744999D01*
X364342Y1751089D01*
X353089Y1762342D01*
X346999Y1777043D01*
X346999Y1792957D01*
X353089Y1807658D01*
X364342Y1818911D01*
X379043Y1825001D01*
X450957Y1825001D01*
X465658Y1818911D01*
X476911Y1807658D01*
X478805Y1803087D01*
X478861Y1802987D01*
X478897Y1802877D01*
X479171Y1802444D01*
X479425Y1801999D01*
X479505Y1801916D01*
X479567Y1801819D01*
X479940Y1801467D01*
X480296Y1801099D01*
X480394Y1801039D01*
X480478Y1800960D01*
X480928Y1800712D01*
X481364Y1800445D01*
X481474Y1800411D01*
X481575Y1800355D01*
X482072Y1800226D01*
X482560Y1800076D01*
X482675Y1800070D01*
X482787Y1800041D01*
X483423Y1800001D01*
X542628Y1800001D01*
X821163Y1521465D01*
X821471Y1521226D01*
X821753Y1520960D01*
X821963Y1520844D01*
X822153Y1520697D01*
X822510Y1520543D01*
X822850Y1520355D01*
X823082Y1520295D01*
X823302Y1520200D01*
X823686Y1520139D01*
X824062Y1520041D01*
X824459Y1520016D01*
X824539Y1520003D01*
X824587Y1520008D01*
X824698Y1520001D01*
X856569Y1520001D01*
X880001Y1496569D01*
X880001Y1464698D01*
X880049Y1464313D01*
X880061Y1463924D01*
X880127Y1463694D01*
X880157Y1463456D01*
X880300Y1463095D01*
X880408Y1462721D01*
X880530Y1462514D01*
X880618Y1462291D01*
X880846Y1461977D01*
X881044Y1461642D01*
X881306Y1461343D01*
X881354Y1461278D01*
X881391Y1461247D01*
X881465Y1461163D01*
X951465Y1391163D01*
X951807Y1390898D01*
X951956Y1390757D01*
X952035Y1390714D01*
X952319Y1390479D01*
X952391Y1390445D01*
X952454Y1390396D01*
X952957Y1390178D01*
X953451Y1389945D01*
X953530Y1389930D01*
X953604Y1389898D01*
X954144Y1389812D01*
X954681Y1389709D01*
X954761Y1389714D01*
X954841Y1389702D01*
X955384Y1389753D01*
X955931Y1389786D01*
X956008Y1389811D01*
X956087Y1389819D01*
X956601Y1390003D01*
X957123Y1390172D01*
X957191Y1390215D01*
X957266Y1390242D01*
X957717Y1390548D01*
X958181Y1390842D01*
X958236Y1390900D01*
X958302Y1390945D01*
X958664Y1391355D01*
X959040Y1391753D01*
X959078Y1391823D01*
X959132Y1391883D01*
X959381Y1392372D01*
X959645Y1392850D01*
X959665Y1392927D01*
X959702Y1392999D01*
X959821Y1393532D01*
X959959Y1394062D01*
X959966Y1394173D01*
X959976Y1394220D01*
X959974Y1394302D01*
X959983Y1394448D01*
X959989Y1394478D01*
X959987Y1394509D01*
X959999Y1394698D01*
X959999Y1406569D01*
X982535Y1429104D01*
X982773Y1429412D01*
X983040Y1429695D01*
X983156Y1429904D01*
X983303Y1430094D01*
X983457Y1430451D01*
X983645Y1430791D01*
X983705Y1431023D01*
X983800Y1431243D01*
X983861Y1431627D01*
X983959Y1432003D01*
X983984Y1432400D01*
X983997Y1432480D01*
X983992Y1432528D01*
X983999Y1432640D01*
X983999Y1535301D01*
X983951Y1535687D01*
X983939Y1536076D01*
X983872Y1536306D01*
X983842Y1536544D01*
X983700Y1536905D01*
X983592Y1537279D01*
X983470Y1537485D01*
X983382Y1537708D01*
X983153Y1538023D01*
X982956Y1538358D01*
X982694Y1538656D01*
X982646Y1538722D01*
X982609Y1538753D01*
X982535Y1538836D01*
X905146Y1616226D01*
X904991Y1616346D01*
X904860Y1616490D01*
X904499Y1616727D01*
X904156Y1616993D01*
X903977Y1617071D01*
X903814Y1617178D01*
X903405Y1617319D01*
X903007Y1617491D01*
X902814Y1617522D01*
X902630Y1617585D01*
X902198Y1617619D01*
X901770Y1617688D01*
X901576Y1617669D01*
X901382Y1617685D01*
X900955Y1617611D01*
X900523Y1617570D01*
X900340Y1617505D01*
X900148Y1617471D01*
X899752Y1617293D01*
X899345Y1617147D01*
X899183Y1617038D01*
X899006Y1616958D01*
X898667Y1616688D01*
X898308Y1616444D01*
X898179Y1616298D01*
X898027Y1616176D01*
X897766Y1615831D01*
X897479Y1615506D01*
X897390Y1615332D01*
X897273Y1615176D01*
X896992Y1614604D01*
X892064Y1602707D01*
X880993Y1591636D01*
X866529Y1585645D01*
X850873Y1585645D01*
X836408Y1591636D01*
X825337Y1602707D01*
X819346Y1617172D01*
X819346Y1632828D01*
X825337Y1647293D01*
X836408Y1658364D01*
X848305Y1663291D01*
X848474Y1663388D01*
X848658Y1663454D01*
X849017Y1663697D01*
X849393Y1663912D01*
X849532Y1664047D01*
X849694Y1664157D01*
X849981Y1664482D01*
X850292Y1664783D01*
X850394Y1664949D01*
X850523Y1665095D01*
X850720Y1665481D01*
X850947Y1665850D01*
X851005Y1666037D01*
X851093Y1666211D01*
X851188Y1666633D01*
X851316Y1667047D01*
X851325Y1667242D01*
X851368Y1667432D01*
X851355Y1667866D01*
X851376Y1668298D01*
X851336Y1668489D01*
X851331Y1668684D01*
X851210Y1669100D01*
X851123Y1669525D01*
X851037Y1669700D01*
X850983Y1669887D01*
X850764Y1670260D01*
X850573Y1670650D01*
X850447Y1670798D01*
X850348Y1670966D01*
X849927Y1671445D01*
X847999Y1673372D01*
X847999Y1683495D01*
X847985Y1683609D01*
X847994Y1683724D01*
X847907Y1684228D01*
X847842Y1684737D01*
X847800Y1684844D01*
X847780Y1684958D01*
X847570Y1685425D01*
X847382Y1685902D01*
X847314Y1685995D01*
X847267Y1686100D01*
X846947Y1686500D01*
X846646Y1686915D01*
X846557Y1686989D01*
X846485Y1687079D01*
X846076Y1687388D01*
X845681Y1687714D01*
X845578Y1687763D01*
X845485Y1687832D01*
X844913Y1688113D01*
X836408Y1691636D01*
X825337Y1702707D01*
X819346Y1717172D01*
X819346Y1732828D01*
X825337Y1747293D01*
X836408Y1758364D01*
X850873Y1764355D01*
X866529Y1764355D01*
X881087Y1758325D01*
X881275Y1758273D01*
X881451Y1758190D01*
X881876Y1758109D01*
X882295Y1757994D01*
X882490Y1757991D01*
X882681Y1757954D01*
X883113Y1757981D01*
X883547Y1757974D01*
X883737Y1758020D01*
X883931Y1758032D01*
X884344Y1758165D01*
X884765Y1758266D01*
X884937Y1758357D01*
X885123Y1758417D01*
X885489Y1758649D01*
X885872Y1758851D01*
X886016Y1758982D01*
X886181Y1759087D01*
X886478Y1759402D01*
X886799Y1759694D01*
X886906Y1759857D01*
X887040Y1759998D01*
X887249Y1760378D01*
X887487Y1760740D01*
X887551Y1760924D01*
X887645Y1761095D01*
X887754Y1761515D01*
X887894Y1761924D01*
X887910Y1762118D01*
X887959Y1762307D01*
X887999Y1762943D01*
X887999Y1775301D01*
X887951Y1775687D01*
X887939Y1776076D01*
X887872Y1776306D01*
X887842Y1776544D01*
X887700Y1776905D01*
X887592Y1777279D01*
X887470Y1777485D01*
X887382Y1777708D01*
X887153Y1778023D01*
X886956Y1778358D01*
X886694Y1778656D01*
X886646Y1778722D01*
X886609Y1778753D01*
X886535Y1778836D01*
X878223Y1787148D01*
X878132Y1787219D01*
X878057Y1787307D01*
X877639Y1787602D01*
X877234Y1787916D01*
X877128Y1787962D01*
X877034Y1788028D01*
X876555Y1788210D01*
X876084Y1788414D01*
X875970Y1788432D01*
X875863Y1788473D01*
X875353Y1788530D01*
X874847Y1788610D01*
X874733Y1788599D01*
X874618Y1788612D01*
X874111Y1788541D01*
X873601Y1788493D01*
X873492Y1788454D01*
X873378Y1788438D01*
X872775Y1788232D01*
X866529Y1785645D01*
X850873Y1785645D01*
X836408Y1791636D01*
X825337Y1802707D01*
X821110Y1812913D01*
X821053Y1813013D01*
X821017Y1813123D01*
X820742Y1813557D01*
X820489Y1814001D01*
X820410Y1814083D01*
X820348Y1814181D01*
X819974Y1814533D01*
X819618Y1814901D01*
X819520Y1814961D01*
X819436Y1815040D01*
X818987Y1815287D01*
X818550Y1815555D01*
X818440Y1815589D01*
X818340Y1815645D01*
X817843Y1815773D01*
X817354Y1815924D01*
X817239Y1815930D01*
X817127Y1815959D01*
X816491Y1815999D01*
X769372Y1815999D01*
X666836Y1918535D01*
X666529Y1918773D01*
X666246Y1919040D01*
X666037Y1919156D01*
X665847Y1919303D01*
X665490Y1919457D01*
X665150Y1919645D01*
X664918Y1919705D01*
X664698Y1919800D01*
X664314Y1919861D01*
X663938Y1919959D01*
X663541Y1919984D01*
X663461Y1919997D01*
X663413Y1919992D01*
X663301Y1919999D01*
X628431Y1919999D01*
X604999Y1943431D01*
X604999Y1976569D01*
X628431Y2000001D01*
X661569Y2000001D01*
X685001Y1976569D01*
X685001Y1947698D01*
X685049Y1947313D01*
X685061Y1946924D01*
X685127Y1946694D01*
X685157Y1946456D01*
X685300Y1946095D01*
X685408Y1945721D01*
X685530Y1945514D01*
X685618Y1945291D01*
X685846Y1944977D01*
X686044Y1944642D01*
X686306Y1944344D01*
X686354Y1944278D01*
X686391Y1944247D01*
X686465Y1944163D01*
X781163Y1849465D01*
X781471Y1849226D01*
X781753Y1848960D01*
X781963Y1848844D01*
X782153Y1848697D01*
X782510Y1848543D01*
X782850Y1848355D01*
X783082Y1848295D01*
X783302Y1848200D01*
X783686Y1848139D01*
X784062Y1848041D01*
X784459Y1848016D01*
X784539Y1848003D01*
X784587Y1848008D01*
X784698Y1848001D01*
X823974Y1848001D01*
X824360Y1848049D01*
X824749Y1848061D01*
X824979Y1848127D01*
X825217Y1848157D01*
X825578Y1848300D01*
X825952Y1848408D01*
X826159Y1848530D01*
X826381Y1848618D01*
X826696Y1848846D01*
X827031Y1849044D01*
X827329Y1849306D01*
X827395Y1849354D01*
X827426Y1849391D01*
X827509Y1849465D01*
X836408Y1858363D01*
X850873Y1864355D01*
X866529Y1864355D01*
X880993Y1858364D01*
X892064Y1847293D01*
X898056Y1832828D01*
X898056Y1817172D01*
X897987Y1817006D01*
X897957Y1816895D01*
X897904Y1816792D01*
X897792Y1816292D01*
X897656Y1815798D01*
X897655Y1815683D01*
X897629Y1815570D01*
X897645Y1815058D01*
X897636Y1814546D01*
X897663Y1814434D01*
X897667Y1814319D01*
X897809Y1813826D01*
X897928Y1813328D01*
X897982Y1813226D01*
X898014Y1813115D01*
X898274Y1812673D01*
X898514Y1812221D01*
X898591Y1812136D01*
X898650Y1812036D01*
X899071Y1811558D01*
X920001Y1790628D01*
X920001Y1704698D01*
X920049Y1704313D01*
X920061Y1703924D01*
X920087Y1703833D01*
X920088Y1703820D01*
X920116Y1703735D01*
X920127Y1703694D01*
X920157Y1703456D01*
X920300Y1703095D01*
X920408Y1702721D01*
X920530Y1702514D01*
X920618Y1702291D01*
X920846Y1701977D01*
X921044Y1701642D01*
X921306Y1701344D01*
X921354Y1701278D01*
X921391Y1701247D01*
X921465Y1701163D01*
X1141465Y1481163D01*
X1141803Y1480901D01*
X1141970Y1480744D01*
X1142056Y1480696D01*
X1142319Y1480479D01*
X1142391Y1480445D01*
X1142454Y1480396D01*
X1142957Y1480178D01*
X1143451Y1479945D01*
X1143530Y1479930D01*
X1143604Y1479898D01*
X1144144Y1479812D01*
X1144681Y1479709D01*
X1144761Y1479714D01*
X1144841Y1479702D01*
X1145384Y1479753D01*
X1145931Y1479786D01*
X1146008Y1479811D01*
X1146087Y1479819D01*
X1146601Y1480003D01*
X1147123Y1480172D01*
X1147191Y1480215D01*
X1147266Y1480242D01*
X1147717Y1480548D01*
X1148181Y1480842D01*
X1148236Y1480900D01*
X1148302Y1480945D01*
X1148664Y1481355D01*
X1149040Y1481753D01*
X1149078Y1481823D01*
X1149132Y1481883D01*
X1149381Y1482372D01*
X1149645Y1482850D01*
X1149665Y1482927D01*
X1149702Y1482999D01*
X1149821Y1483532D01*
X1149959Y1484062D01*
X1149966Y1484173D01*
X1149976Y1484220D01*
X1149974Y1484302D01*
X1149982Y1484428D01*
X1149989Y1484465D01*
X1149987Y1484502D01*
X1149999Y1484698D01*
X1149999Y1486569D01*
X1173431Y1510001D01*
X1195000Y1510001D01*
X1195464Y1510059D01*
X1195931Y1510088D01*
X1196084Y1510137D01*
X1196242Y1510157D01*
X1196677Y1510329D01*
X1197123Y1510474D01*
X1197258Y1510559D01*
X1197407Y1510618D01*
X1197785Y1510892D01*
X1198181Y1511143D01*
X1198291Y1511260D01*
X1198421Y1511354D01*
X1198719Y1511714D01*
X1199040Y1512055D01*
X1199117Y1512195D01*
X1199219Y1512318D01*
X1199419Y1512742D01*
X1199645Y1513151D01*
X1199685Y1513306D01*
X1199753Y1513451D01*
X1199841Y1513910D01*
X1199959Y1514364D01*
X1199974Y1514602D01*
X1199989Y1514681D01*
X1199984Y1514762D01*
X1199999Y1515000D01*
X1199999Y1580646D01*
X1199941Y1581110D01*
X1199912Y1581577D01*
X1199862Y1581729D01*
X1199842Y1581888D01*
X1199670Y1582323D01*
X1199526Y1582768D01*
X1199440Y1582904D01*
X1199382Y1583053D01*
X1199107Y1583430D01*
X1198857Y1583827D01*
X1198740Y1583937D01*
X1198646Y1584066D01*
X1198286Y1584364D01*
X1197945Y1584685D01*
X1197805Y1584763D01*
X1197681Y1584865D01*
X1197258Y1585064D01*
X1196849Y1585291D01*
X1196694Y1585331D01*
X1196549Y1585399D01*
X1196090Y1585487D01*
X1195636Y1585604D01*
X1195398Y1585620D01*
X1195319Y1585635D01*
X1195238Y1585630D01*
X1195000Y1585645D01*
X1138974Y1585645D01*
X1131944Y1592675D01*
X1131944Y1657325D01*
X1138974Y1664355D01*
X1172947Y1664355D01*
X1173491Y1664424D01*
X1174035Y1664475D01*
X1174110Y1664502D01*
X1174190Y1664512D01*
X1174699Y1664713D01*
X1175213Y1664898D01*
X1175280Y1664943D01*
X1175354Y1664973D01*
X1175797Y1665294D01*
X1176250Y1665601D01*
X1176303Y1665661D01*
X1176368Y1665708D01*
X1176716Y1666129D01*
X1177079Y1666539D01*
X1177116Y1666611D01*
X1177167Y1666673D01*
X1177399Y1667166D01*
X1177649Y1667655D01*
X1177666Y1667733D01*
X1177701Y1667805D01*
X1177804Y1668342D01*
X1177924Y1668876D01*
X1177921Y1668957D01*
X1177936Y1669035D01*
X1177903Y1669581D01*
X1177886Y1670128D01*
X1177864Y1670205D01*
X1177859Y1670285D01*
X1177691Y1670806D01*
X1177539Y1671331D01*
X1177498Y1671401D01*
X1177474Y1671477D01*
X1177180Y1671940D01*
X1176903Y1672411D01*
X1176830Y1672494D01*
X1176804Y1672535D01*
X1176744Y1672592D01*
X1176482Y1672889D01*
X1170837Y1678535D01*
X1170836Y1678536D01*
X1164610Y1684761D01*
X1164583Y1684783D01*
X1164561Y1684810D01*
X1164088Y1685166D01*
X1163621Y1685529D01*
X1163589Y1685543D01*
X1163561Y1685564D01*
X1162989Y1685845D01*
X1149007Y1691636D01*
X1137936Y1702707D01*
X1131944Y1717172D01*
X1131944Y1732828D01*
X1133185Y1735823D01*
X1133215Y1735934D01*
X1133267Y1736036D01*
X1133380Y1736536D01*
X1133515Y1737031D01*
X1133517Y1737146D01*
X1133542Y1737258D01*
X1133527Y1737770D01*
X1133535Y1738283D01*
X1133508Y1738395D01*
X1133505Y1738510D01*
X1133362Y1739003D01*
X1133243Y1739500D01*
X1133189Y1739602D01*
X1133157Y1739713D01*
X1132897Y1740155D01*
X1132658Y1740608D01*
X1132580Y1740693D01*
X1132522Y1740792D01*
X1132101Y1741271D01*
X466836Y2406535D01*
X466529Y2406773D01*
X466246Y2407040D01*
X466037Y2407156D01*
X465847Y2407303D01*
X465490Y2407457D01*
X465150Y2407645D01*
X464918Y2407705D01*
X464698Y2407800D01*
X464314Y2407861D01*
X463938Y2407959D01*
X463541Y2407984D01*
X463461Y2407997D01*
X463413Y2407992D01*
X463301Y2407999D01*
X311640Y2407999D01*
X311254Y2407951D01*
X310865Y2407939D01*
X310635Y2407872D01*
X310397Y2407842D01*
X310036Y2407700D01*
X309662Y2407592D01*
X309455Y2407470D01*
X309233Y2407382D01*
X308918Y2407153D01*
X308583Y2406956D01*
X308285Y2406694D01*
X308219Y2406646D01*
X308188Y2406609D01*
X308104Y2406535D01*
X286569Y2384999D01*
X253431Y2384999D01*
X229999Y2408431D01*
X229999Y2441569D01*
X253431Y2465001D01*
X286569Y2465001D01*
X310104Y2441465D01*
X310412Y2441226D01*
X310695Y2440960D01*
X310904Y2440844D01*
X311094Y2440697D01*
X311451Y2440543D01*
X311791Y2440355D01*
X312023Y2440295D01*
X312243Y2440200D01*
X312627Y2440139D01*
X313003Y2440041D01*
X313400Y2440016D01*
X313480Y2440003D01*
X313528Y2440008D01*
X313640Y2440001D01*
X478628Y2440001D01*
X1151465Y1767163D01*
X1151898Y1766827D01*
X1152319Y1766479D01*
X1152391Y1766445D01*
X1152454Y1766396D01*
X1152957Y1766178D01*
X1153451Y1765945D01*
X1153530Y1765930D01*
X1153604Y1765898D01*
X1154144Y1765812D01*
X1154681Y1765709D01*
X1154761Y1765714D01*
X1154841Y1765702D01*
X1155384Y1765753D01*
X1155931Y1765786D01*
X1156008Y1765811D01*
X1156087Y1765819D01*
X1156601Y1766003D01*
X1157123Y1766172D01*
X1157191Y1766215D01*
X1157266Y1766242D01*
X1157717Y1766548D01*
X1158181Y1766842D01*
X1158236Y1766900D01*
X1158302Y1766945D01*
X1158664Y1767355D01*
X1159040Y1767753D01*
X1159078Y1767823D01*
X1159132Y1767883D01*
X1159381Y1768372D01*
X1159645Y1768850D01*
X1159665Y1768927D01*
X1159702Y1768999D01*
X1159821Y1769532D01*
X1159959Y1770062D01*
X1159966Y1770173D01*
X1159976Y1770220D01*
X1159974Y1770302D01*
X1159999Y1770698D01*
X1159999Y1783743D01*
X1159985Y1783857D01*
X1159994Y1783972D01*
X1159907Y1784476D01*
X1159842Y1784985D01*
X1159800Y1785092D01*
X1159780Y1785206D01*
X1159570Y1785673D01*
X1159382Y1786150D01*
X1159314Y1786243D01*
X1159267Y1786348D01*
X1158948Y1786748D01*
X1158646Y1787163D01*
X1158557Y1787237D01*
X1158485Y1787327D01*
X1158076Y1787635D01*
X1157681Y1787962D01*
X1157578Y1788011D01*
X1157485Y1788080D01*
X1156913Y1788361D01*
X1149007Y1791636D01*
X1137936Y1802707D01*
X1131944Y1817172D01*
X1131944Y1832828D01*
X1137936Y1847293D01*
X1149007Y1858364D01*
X1163471Y1864355D01*
X1179127Y1864355D01*
X1193592Y1858364D01*
X1204663Y1847293D01*
X1210654Y1832828D01*
X1210654Y1817172D01*
X1204663Y1802707D01*
X1193465Y1791509D01*
X1193227Y1791203D01*
X1192960Y1790919D01*
X1192844Y1790709D01*
X1192697Y1790520D01*
X1192543Y1790163D01*
X1192355Y1789823D01*
X1192295Y1789591D01*
X1192200Y1789371D01*
X1192139Y1788987D01*
X1192041Y1788611D01*
X1192016Y1788214D01*
X1192003Y1788134D01*
X1192008Y1788086D01*
X1192001Y1787974D01*
X1192001Y1784698D01*
X1192049Y1784313D01*
X1192061Y1783924D01*
X1192086Y1783836D01*
X1192088Y1783808D01*
X1192129Y1783682D01*
X1192157Y1783456D01*
X1192300Y1783095D01*
X1192408Y1782721D01*
X1192530Y1782514D01*
X1192618Y1782291D01*
X1192846Y1781977D01*
X1193044Y1781642D01*
X1193306Y1781344D01*
X1193354Y1781278D01*
X1193391Y1781247D01*
X1193465Y1781163D01*
X1320001Y1654628D01*
X1320001Y1488639D01*
X1320069Y1488096D01*
X1320120Y1487552D01*
X1320147Y1487476D01*
X1320157Y1487397D01*
X1320358Y1486889D01*
X1320544Y1486373D01*
X1320589Y1486307D01*
X1320618Y1486232D01*
X1320939Y1485790D01*
X1321247Y1485337D01*
X1321307Y1485284D01*
X1321354Y1485219D01*
X1321776Y1484869D01*
X1322185Y1484508D01*
X1322257Y1484471D01*
X1322318Y1484420D01*
X1322813Y1484187D01*
X1323300Y1483938D01*
X1323379Y1483920D01*
X1323451Y1483886D01*
X1323989Y1483783D01*
X1324522Y1483663D01*
X1324602Y1483665D01*
X1324681Y1483650D01*
X1325227Y1483684D01*
X1325774Y1483700D01*
X1325851Y1483723D01*
X1325931Y1483727D01*
X1326451Y1483896D01*
X1326977Y1484048D01*
X1327047Y1484088D01*
X1327123Y1484113D01*
X1327585Y1484406D01*
X1328056Y1484683D01*
X1328140Y1484756D01*
X1328181Y1484783D01*
X1328237Y1484843D01*
X1328535Y1485104D01*
X1333431Y1490001D01*
X1366569Y1490001D01*
X1390001Y1466569D01*
X1390001Y1433431D01*
X1366569Y1409999D01*
X1333431Y1409999D01*
X1328535Y1414896D01*
X1328103Y1415231D01*
X1327681Y1415580D01*
X1327609Y1415614D01*
X1327545Y1415663D01*
X1327042Y1415881D01*
X1326549Y1416114D01*
X1326470Y1416129D01*
X1326396Y1416161D01*
X1325855Y1416247D01*
X1325319Y1416350D01*
X1325239Y1416345D01*
X1325159Y1416357D01*
X1324615Y1416306D01*
X1324069Y1416272D01*
X1323992Y1416248D01*
X1323913Y1416240D01*
X1323399Y1416056D01*
X1322877Y1415887D01*
X1322809Y1415844D01*
X1322734Y1415817D01*
X1322283Y1415511D01*
X1321819Y1415217D01*
X1321764Y1415159D01*
X1321697Y1415114D01*
X1321336Y1414704D01*
X1320960Y1414306D01*
X1320922Y1414236D01*
X1320868Y1414175D01*
X1320619Y1413687D01*
X1320355Y1413209D01*
X1320335Y1413132D01*
X1320298Y1413060D01*
X1320178Y1412527D01*
X1320041Y1411997D01*
X1320034Y1411886D01*
X1320023Y1411838D01*
X1320026Y1411757D01*
X1320001Y1411361D01*
X1320001Y1288698D01*
X1320049Y1288313D01*
X1320061Y1287924D01*
X1320127Y1287694D01*
X1320157Y1287456D01*
X1320300Y1287095D01*
X1320408Y1286721D01*
X1320530Y1286514D01*
X1320618Y1286291D01*
X1320846Y1285977D01*
X1321044Y1285642D01*
X1321306Y1285344D01*
X1321354Y1285278D01*
X1321391Y1285247D01*
X1321465Y1285163D01*
X1360163Y1246465D01*
X1360471Y1246226D01*
X1360753Y1245960D01*
X1360963Y1245844D01*
X1361153Y1245697D01*
X1361510Y1245543D01*
X1361850Y1245355D01*
X1362082Y1245295D01*
X1362302Y1245200D01*
X1362686Y1245139D01*
X1363062Y1245041D01*
X1363459Y1245016D01*
X1363539Y1245003D01*
X1363587Y1245008D01*
X1363698Y1245001D01*
X1396569Y1245001D01*
X1399465Y1242104D01*
X1399898Y1241768D01*
X1400319Y1241420D01*
X1400391Y1241386D01*
X1400454Y1241337D01*
X1400958Y1241118D01*
X1401451Y1240886D01*
X1401530Y1240871D01*
X1401604Y1240839D01*
X1402145Y1240753D01*
X1402681Y1240650D01*
X1402761Y1240655D01*
X1402840Y1240643D01*
X1403384Y1240694D01*
X1403931Y1240727D01*
X1404008Y1240752D01*
X1404087Y1240760D01*
X1404601Y1240944D01*
X1405123Y1241113D01*
X1405191Y1241156D01*
X1405266Y1241183D01*
X1405717Y1241489D01*
X1406181Y1241783D01*
X1406236Y1241841D01*
X1406302Y1241886D01*
X1406664Y1242295D01*
X1407040Y1242694D01*
X1407079Y1242765D01*
X1407132Y1242825D01*
X1407380Y1243311D01*
X1407645Y1243791D01*
X1407665Y1243868D01*
X1407702Y1243940D01*
X1407821Y1244473D01*
X1407959Y1245003D01*
X1407966Y1245114D01*
X1407976Y1245162D01*
X1407974Y1245243D01*
X1407999Y1245639D01*
X1407999Y1663301D01*
X1407951Y1663687D01*
X1407939Y1664076D01*
X1407872Y1664306D01*
X1407842Y1664544D01*
X1407700Y1664905D01*
X1407592Y1665279D01*
X1407470Y1665485D01*
X1407382Y1665708D01*
X1407153Y1666023D01*
X1406956Y1666358D01*
X1406694Y1666656D01*
X1406646Y1666722D01*
X1406609Y1666753D01*
X1406535Y1666836D01*
X1187570Y1885802D01*
X1187479Y1885872D01*
X1187404Y1885960D01*
X1186985Y1886255D01*
X1186580Y1886569D01*
X1186475Y1886615D01*
X1186381Y1886681D01*
X1185901Y1886864D01*
X1185431Y1887067D01*
X1185317Y1887085D01*
X1185210Y1887126D01*
X1184700Y1887183D01*
X1184194Y1887263D01*
X1184080Y1887253D01*
X1183965Y1887265D01*
X1183458Y1887194D01*
X1182948Y1887146D01*
X1182839Y1887107D01*
X1182725Y1887091D01*
X1182122Y1886885D01*
X1179127Y1885645D01*
X1163471Y1885645D01*
X1149007Y1891636D01*
X1137936Y1902707D01*
X1131944Y1917172D01*
X1131944Y1932828D01*
X1137936Y1947293D01*
X1149007Y1958364D01*
X1163471Y1964355D01*
X1179127Y1964355D01*
X1193592Y1958364D01*
X1204663Y1947293D01*
X1210654Y1932828D01*
X1210654Y1917172D01*
X1209238Y1913754D01*
X1209208Y1913643D01*
X1209156Y1913541D01*
X1209043Y1913042D01*
X1208908Y1912546D01*
X1208906Y1912431D01*
X1208881Y1912319D01*
X1208896Y1911807D01*
X1208888Y1911294D01*
X1208915Y1911182D01*
X1208918Y1911067D01*
X1209061Y1910574D01*
X1209180Y1910076D01*
X1209234Y1909975D01*
X1209266Y1909864D01*
X1209526Y1909422D01*
X1209765Y1908969D01*
X1209842Y1908884D01*
X1209901Y1908785D01*
X1210322Y1908306D01*
X1440001Y1678628D01*
X1440001Y1185372D01*
X1398628Y1143999D01*
X1352698Y1143999D01*
X1352313Y1143951D01*
X1351924Y1143939D01*
X1351694Y1143872D01*
X1351456Y1143842D01*
X1351095Y1143700D01*
X1350721Y1143592D01*
X1350514Y1143470D01*
X1350291Y1143382D01*
X1349977Y1143153D01*
X1349642Y1142956D01*
X1349344Y1142694D01*
X1349278Y1142646D01*
X1349247Y1142609D01*
X1349163Y1142535D01*
X1171663Y965035D01*
X1171327Y964602D01*
X1170979Y964181D01*
X1170945Y964109D01*
X1170896Y964045D01*
X1170678Y963543D01*
X1170445Y963049D01*
X1170430Y962970D01*
X1170398Y962896D01*
X1170312Y962356D01*
X1170209Y961819D01*
X1170214Y961739D01*
X1170202Y961659D01*
X1170253Y961115D01*
X1170286Y960569D01*
X1170311Y960492D01*
X1170319Y960413D01*
X1170503Y959899D01*
X1170672Y959377D01*
X1170715Y959309D01*
X1170742Y959234D01*
X1171048Y958783D01*
X1171342Y958319D01*
X1171400Y958264D01*
X1171445Y958197D01*
X1171855Y957836D01*
X1172253Y957460D01*
X1172323Y957422D01*
X1172383Y957368D01*
X1172873Y957118D01*
X1173350Y956855D01*
X1173427Y956835D01*
X1173499Y956798D01*
X1174032Y956678D01*
X1174562Y956541D01*
X1174673Y956534D01*
X1174720Y956523D01*
X1174802Y956526D01*
X1175198Y956501D01*
X1182190Y956501D01*
X1206501Y932190D01*
X1206501Y922999D01*
X1172999Y922999D01*
X1172999Y954302D01*
X1172931Y954845D01*
X1172880Y955389D01*
X1172852Y955465D01*
X1172842Y955544D01*
X1172641Y956052D01*
X1172456Y956568D01*
X1172411Y956634D01*
X1172382Y956709D01*
X1172062Y957150D01*
X1171753Y957604D01*
X1171693Y957657D01*
X1171646Y957722D01*
X1171225Y958071D01*
X1170815Y958433D01*
X1170743Y958470D01*
X1170681Y958521D01*
X1170187Y958754D01*
X1169699Y959003D01*
X1169621Y959021D01*
X1169549Y959055D01*
X1169011Y959158D01*
X1168478Y959278D01*
X1168397Y959276D01*
X1168319Y959291D01*
X1167773Y959257D01*
X1167226Y959241D01*
X1167149Y959218D01*
X1167069Y959213D01*
X1166547Y959045D01*
X1166023Y958893D01*
X1165954Y958853D01*
X1165877Y958828D01*
X1165413Y958534D01*
X1164944Y958258D01*
X1164860Y958185D01*
X1164819Y958158D01*
X1164762Y958098D01*
X1164465Y957837D01*
X1158465Y951836D01*
X1158227Y951529D01*
X1157960Y951246D01*
X1157844Y951036D01*
X1157697Y950847D01*
X1157543Y950490D01*
X1157355Y950150D01*
X1157295Y949918D01*
X1157199Y949698D01*
X1157139Y949314D01*
X1157041Y948938D01*
X1157016Y948541D01*
X1157003Y948461D01*
X1157008Y948413D01*
X1157000Y948301D01*
X1157000Y918001D01*
X1157059Y917537D01*
X1157088Y917070D01*
X1157137Y916917D01*
X1157157Y916758D01*
X1157329Y916323D01*
X1157474Y915878D01*
X1157559Y915742D01*
X1157618Y915594D01*
X1157892Y915216D01*
X1158143Y914820D01*
X1158260Y914710D01*
X1158354Y914580D01*
X1158714Y914282D01*
X1159055Y913961D01*
X1159195Y913884D01*
X1159318Y913781D01*
X1159741Y913582D01*
X1160151Y913356D01*
X1160306Y913316D01*
X1160451Y913247D01*
X1160910Y913159D01*
X1161364Y913042D01*
X1161602Y913027D01*
X1161681Y913012D01*
X1161762Y913017D01*
X1162000Y913001D01*
X1163001Y913001D01*
X1163001Y912000D01*
X1163060Y911536D01*
X1163089Y911069D01*
X1163138Y910916D01*
X1163158Y910757D01*
X1163330Y910322D01*
X1163475Y909877D01*
X1163560Y909742D01*
X1163619Y909593D01*
X1163893Y909215D01*
X1164144Y908819D01*
X1164261Y908709D01*
X1164355Y908579D01*
X1164715Y908281D01*
X1165056Y907960D01*
X1165196Y907883D01*
X1165319Y907781D01*
X1165742Y907581D01*
X1166152Y907355D01*
X1166307Y907315D01*
X1166452Y907246D01*
X1166911Y907158D01*
X1167365Y907041D01*
X1167603Y907026D01*
X1167682Y907011D01*
X1167763Y907016D01*
X1168001Y907000D01*
X1206501Y907000D01*
X1206501Y897810D01*
X1182190Y873499D01*
X1177198Y873499D01*
X1176655Y873431D01*
X1176111Y873380D01*
X1176035Y873352D01*
X1175956Y873342D01*
X1175447Y873141D01*
X1174932Y872956D01*
X1174866Y872911D01*
X1174791Y872882D01*
X1174348Y872560D01*
X1173896Y872253D01*
X1173843Y872193D01*
X1173778Y872146D01*
X1173429Y871725D01*
X1173067Y871315D01*
X1173030Y871243D01*
X1172979Y871181D01*
X1172746Y870688D01*
X1172497Y870200D01*
X1172479Y870121D01*
X1172445Y870049D01*
X1172342Y869512D01*
X1172222Y868978D01*
X1172224Y868897D01*
X1172209Y868819D01*
X1172243Y868273D01*
X1172259Y867726D01*
X1172281Y867649D01*
X1172286Y867569D01*
X1172455Y867048D01*
X1172607Y866523D01*
X1172647Y866454D01*
X1172672Y866377D01*
X1172965Y865914D01*
X1173242Y865444D01*
X1173315Y865360D01*
X1173342Y865319D01*
X1173401Y865263D01*
X1173663Y864965D01*
X1320001Y718628D01*
X1320001Y625423D01*
X1320015Y625309D01*
X1320006Y625194D01*
X1320093Y624690D01*
X1320157Y624181D01*
X1320200Y624074D01*
X1320219Y623960D01*
X1320430Y623493D01*
X1320618Y623016D01*
X1320686Y622923D01*
X1320733Y622818D01*
X1321052Y622418D01*
X1321354Y622003D01*
X1321443Y621929D01*
X1321515Y621839D01*
X1321924Y621531D01*
X1322318Y621204D01*
X1322422Y621155D01*
X1322515Y621086D01*
X1323087Y620805D01*
X1327658Y618911D01*
X1338911Y607658D01*
X1345001Y592957D01*
X1345001Y577043D01*
X1338911Y562342D01*
X1327658Y551089D01*
X1312957Y544999D01*
X1297043Y544999D01*
G37*
%LPD*%
%LPC*%
G36*
X2385253Y930999D02*
X2385253Y930999D01*
X2367243Y938459D01*
X2353459Y952243D01*
X2345999Y970253D01*
X2345999Y989747D01*
X2349883Y999124D01*
X2349914Y999235D01*
X2349966Y999337D01*
X2350079Y999837D01*
X2350214Y1000332D01*
X2350216Y1000447D01*
X2350241Y1000559D01*
X2350226Y1001071D01*
X2350234Y1001584D01*
X2350207Y1001696D01*
X2350204Y1001811D01*
X2350062Y1002303D01*
X2349942Y1002802D01*
X2349888Y1002904D01*
X2349856Y1003014D01*
X2349596Y1003455D01*
X2349357Y1003909D01*
X2349279Y1003994D01*
X2349221Y1004093D01*
X2348800Y1004572D01*
X2090836Y1262535D01*
X2090529Y1262773D01*
X2090246Y1263040D01*
X2090037Y1263156D01*
X2089847Y1263303D01*
X2089490Y1263457D01*
X2089150Y1263645D01*
X2088918Y1263705D01*
X2088698Y1263800D01*
X2088314Y1263861D01*
X2087938Y1263959D01*
X2087541Y1263984D01*
X2087461Y1263997D01*
X2087413Y1263992D01*
X2087301Y1263999D01*
X2032640Y1263999D01*
X2032254Y1263951D01*
X2031865Y1263939D01*
X2031635Y1263872D01*
X2031397Y1263842D01*
X2031036Y1263700D01*
X2030662Y1263592D01*
X2030455Y1263470D01*
X2030233Y1263382D01*
X2029918Y1263153D01*
X2029583Y1262956D01*
X2029285Y1262694D01*
X2029219Y1262646D01*
X2029188Y1262609D01*
X2029104Y1262535D01*
X2006569Y1239999D01*
X1973431Y1239999D01*
X1949999Y1263431D01*
X1949999Y1296569D01*
X1973431Y1320001D01*
X2006569Y1320001D01*
X2029104Y1297465D01*
X2029412Y1297226D01*
X2029695Y1296960D01*
X2029904Y1296844D01*
X2030094Y1296697D01*
X2030451Y1296543D01*
X2030791Y1296355D01*
X2031023Y1296295D01*
X2031243Y1296200D01*
X2031627Y1296139D01*
X2032003Y1296041D01*
X2032400Y1296016D01*
X2032480Y1296003D01*
X2032528Y1296008D01*
X2032640Y1296001D01*
X2102628Y1296001D01*
X2340690Y1057938D01*
X2340907Y1057770D01*
X2341098Y1057573D01*
X2341399Y1057388D01*
X2341679Y1057171D01*
X2341931Y1057062D01*
X2342165Y1056918D01*
X2342503Y1056814D01*
X2342828Y1056673D01*
X2343100Y1056630D01*
X2343362Y1056549D01*
X2343716Y1056532D01*
X2344065Y1056477D01*
X2344339Y1056503D01*
X2344613Y1056489D01*
X2344960Y1056561D01*
X2345312Y1056594D01*
X2345570Y1056687D01*
X2345840Y1056742D01*
X2346158Y1056898D01*
X2346491Y1057017D01*
X2346718Y1057172D01*
X2346965Y1057292D01*
X2347234Y1057522D01*
X2347527Y1057720D01*
X2347709Y1057926D01*
X2347918Y1058104D01*
X2348122Y1058393D01*
X2348356Y1058659D01*
X2348482Y1058904D01*
X2348640Y1059128D01*
X2348765Y1059458D01*
X2348926Y1059774D01*
X2348987Y1060042D01*
X2349084Y1060299D01*
X2349123Y1060650D01*
X2349201Y1060996D01*
X2349193Y1061270D01*
X2349224Y1061543D01*
X2349174Y1061894D01*
X2349164Y1062248D01*
X2349087Y1062512D01*
X2349049Y1062783D01*
X2348844Y1063387D01*
X2345999Y1070253D01*
X2345999Y1089747D01*
X2353459Y1107756D01*
X2367243Y1121541D01*
X2372913Y1123889D01*
X2373013Y1123946D01*
X2373123Y1123982D01*
X2373557Y1124257D01*
X2374001Y1124510D01*
X2374083Y1124589D01*
X2374181Y1124651D01*
X2374533Y1125025D01*
X2374901Y1125381D01*
X2374961Y1125479D01*
X2375040Y1125563D01*
X2375287Y1126012D01*
X2375555Y1126449D01*
X2375589Y1126559D01*
X2375645Y1126659D01*
X2375773Y1127155D01*
X2375924Y1127645D01*
X2375930Y1127760D01*
X2375959Y1127872D01*
X2375999Y1128508D01*
X2375999Y1151301D01*
X2375951Y1151687D01*
X2375939Y1152076D01*
X2375872Y1152306D01*
X2375842Y1152544D01*
X2375700Y1152905D01*
X2375592Y1153279D01*
X2375470Y1153485D01*
X2375382Y1153708D01*
X2375153Y1154023D01*
X2374956Y1154358D01*
X2374694Y1154656D01*
X2374646Y1154722D01*
X2374609Y1154753D01*
X2374535Y1154836D01*
X2038535Y1490837D01*
X2038102Y1491173D01*
X2037681Y1491521D01*
X2037609Y1491555D01*
X2037545Y1491604D01*
X2037043Y1491822D01*
X2036549Y1492055D01*
X2036470Y1492070D01*
X2036396Y1492102D01*
X2035856Y1492188D01*
X2035319Y1492291D01*
X2035239Y1492286D01*
X2035159Y1492298D01*
X2034615Y1492247D01*
X2034069Y1492213D01*
X2033992Y1492189D01*
X2033913Y1492181D01*
X2033399Y1491997D01*
X2032877Y1491828D01*
X2032809Y1491785D01*
X2032734Y1491758D01*
X2032283Y1491452D01*
X2031819Y1491158D01*
X2031764Y1491100D01*
X2031697Y1491055D01*
X2031336Y1490645D01*
X2030960Y1490247D01*
X2030922Y1490177D01*
X2030868Y1490116D01*
X2030619Y1489628D01*
X2030355Y1489150D01*
X2030335Y1489073D01*
X2030298Y1489001D01*
X2030219Y1488650D01*
X2006569Y1464999D01*
X1973431Y1464999D01*
X1949999Y1488431D01*
X1949999Y1521569D01*
X1973431Y1545001D01*
X1979000Y1545001D01*
X1979464Y1545059D01*
X1979931Y1545088D01*
X1980084Y1545137D01*
X1980242Y1545157D01*
X1980677Y1545329D01*
X1981123Y1545474D01*
X1981258Y1545559D01*
X1981407Y1545618D01*
X1981785Y1545892D01*
X1982181Y1546143D01*
X1982291Y1546260D01*
X1982421Y1546354D01*
X1982719Y1546714D01*
X1983040Y1547055D01*
X1983117Y1547195D01*
X1983219Y1547318D01*
X1983419Y1547742D01*
X1983645Y1548151D01*
X1983685Y1548306D01*
X1983753Y1548451D01*
X1983841Y1548910D01*
X1983959Y1549364D01*
X1983974Y1549602D01*
X1983989Y1549681D01*
X1983984Y1549762D01*
X1983999Y1550000D01*
X1983999Y1607360D01*
X1983951Y1607746D01*
X1983939Y1608134D01*
X1983872Y1608365D01*
X1983842Y1608603D01*
X1983700Y1608964D01*
X1983592Y1609338D01*
X1983470Y1609544D01*
X1983382Y1609767D01*
X1983153Y1610082D01*
X1982956Y1610417D01*
X1982694Y1610715D01*
X1982646Y1610781D01*
X1982609Y1610812D01*
X1982535Y1610895D01*
X1959999Y1633431D01*
X1959999Y1666569D01*
X1983431Y1690001D01*
X2016569Y1690001D01*
X2040001Y1666569D01*
X2040001Y1633431D01*
X2017465Y1610895D01*
X2017226Y1610588D01*
X2016960Y1610305D01*
X2016844Y1610095D01*
X2016697Y1609906D01*
X2016543Y1609549D01*
X2016355Y1609209D01*
X2016295Y1608977D01*
X2016200Y1608757D01*
X2016139Y1608373D01*
X2016041Y1607997D01*
X2016016Y1607600D01*
X2016003Y1607520D01*
X2016008Y1607472D01*
X2016001Y1607360D01*
X2016001Y1560698D01*
X2016049Y1560313D01*
X2016061Y1559924D01*
X2016127Y1559694D01*
X2016157Y1559456D01*
X2016300Y1559095D01*
X2016408Y1558721D01*
X2016530Y1558514D01*
X2016618Y1558291D01*
X2016846Y1557977D01*
X2017044Y1557642D01*
X2017306Y1557344D01*
X2017354Y1557278D01*
X2017391Y1557247D01*
X2017465Y1557163D01*
X2408001Y1166628D01*
X2408001Y1130993D01*
X2408015Y1130879D01*
X2408006Y1130764D01*
X2408093Y1130259D01*
X2408157Y1129751D01*
X2408200Y1129644D01*
X2408219Y1129530D01*
X2408430Y1129063D01*
X2408618Y1128586D01*
X2408686Y1128493D01*
X2408733Y1128388D01*
X2409052Y1127988D01*
X2409354Y1127573D01*
X2409443Y1127499D01*
X2409515Y1127409D01*
X2409924Y1127101D01*
X2410318Y1126774D01*
X2410422Y1126725D01*
X2410515Y1126656D01*
X2411087Y1126375D01*
X2422756Y1121541D01*
X2436541Y1107756D01*
X2444001Y1089747D01*
X2444001Y1070253D01*
X2436541Y1052243D01*
X2422756Y1038459D01*
X2413485Y1034619D01*
X2413011Y1034349D01*
X2412526Y1034092D01*
X2412466Y1034038D01*
X2412397Y1033998D01*
X2412005Y1033618D01*
X2411599Y1033250D01*
X2411555Y1033183D01*
X2411497Y1033127D01*
X2411211Y1032660D01*
X2410911Y1032204D01*
X2410884Y1032128D01*
X2410843Y1032059D01*
X2410681Y1031536D01*
X2410504Y1031019D01*
X2410497Y1030939D01*
X2410474Y1030863D01*
X2410447Y1030316D01*
X2410404Y1029771D01*
X2410418Y1029692D01*
X2410414Y1029612D01*
X2410524Y1029076D01*
X2410617Y1028537D01*
X2410650Y1028464D01*
X2410667Y1028385D01*
X2410907Y1027894D01*
X2411131Y1027395D01*
X2411181Y1027332D01*
X2411216Y1027260D01*
X2411572Y1026843D01*
X2411913Y1026416D01*
X2411976Y1026368D01*
X2412029Y1026307D01*
X2412476Y1025991D01*
X2412913Y1025662D01*
X2413013Y1025613D01*
X2413052Y1025585D01*
X2413128Y1025556D01*
X2413485Y1025381D01*
X2422757Y1021541D01*
X2436541Y1007756D01*
X2444001Y989747D01*
X2444001Y970253D01*
X2436541Y952243D01*
X2422756Y938459D01*
X2404747Y930999D01*
X2385253Y930999D01*
G37*
%LPD*%
%LPC*%
G36*
X2019793Y487763D02*
X2019793Y487763D01*
X2012763Y494793D01*
X2012763Y725207D01*
X2019793Y732237D01*
X2250207Y732237D01*
X2257237Y725207D01*
X2257237Y660453D01*
X2257261Y660259D01*
X2257252Y660065D01*
X2257339Y659640D01*
X2257394Y659211D01*
X2257465Y659030D01*
X2257505Y658838D01*
X2257695Y658448D01*
X2257854Y658046D01*
X2257969Y657889D01*
X2258055Y657713D01*
X2258336Y657383D01*
X2258590Y657033D01*
X2258740Y656908D01*
X2258867Y656760D01*
X2259221Y656510D01*
X2259555Y656234D01*
X2259731Y656151D01*
X2259891Y656038D01*
X2260296Y655884D01*
X2260687Y655700D01*
X2260879Y655663D01*
X2261061Y655594D01*
X2261492Y655546D01*
X2261917Y655464D01*
X2262112Y655476D01*
X2262306Y655454D01*
X2262735Y655515D01*
X2263167Y655541D01*
X2263353Y655602D01*
X2263546Y655629D01*
X2263621Y655654D01*
X2281876Y655654D01*
X2298656Y648704D01*
X2311499Y635861D01*
X2318449Y619081D01*
X2318449Y600919D01*
X2311499Y584139D01*
X2298656Y571296D01*
X2281876Y564346D01*
X2263547Y564346D01*
X2263360Y564382D01*
X2262941Y564496D01*
X2262746Y564499D01*
X2262555Y564536D01*
X2262123Y564509D01*
X2261689Y564516D01*
X2261500Y564471D01*
X2261305Y564459D01*
X2260892Y564325D01*
X2260471Y564224D01*
X2260299Y564133D01*
X2260113Y564073D01*
X2259746Y563841D01*
X2259364Y563639D01*
X2259220Y563508D01*
X2259055Y563403D01*
X2258758Y563088D01*
X2258437Y562797D01*
X2258330Y562634D01*
X2258196Y562492D01*
X2257987Y562113D01*
X2257749Y561751D01*
X2257685Y561566D01*
X2257591Y561395D01*
X2257483Y560976D01*
X2257342Y560566D01*
X2257326Y560372D01*
X2257277Y560183D01*
X2257237Y559547D01*
X2257237Y494793D01*
X2250207Y487763D01*
X2019793Y487763D01*
G37*
%LPD*%
%LPC*%
G36*
X1519793Y737763D02*
X1519793Y737763D01*
X1512763Y744793D01*
X1512763Y975207D01*
X1519793Y982237D01*
X1750207Y982237D01*
X1757237Y975207D01*
X1757237Y910453D01*
X1757261Y910259D01*
X1757252Y910065D01*
X1757339Y909640D01*
X1757394Y909211D01*
X1757465Y909030D01*
X1757505Y908838D01*
X1757695Y908448D01*
X1757854Y908046D01*
X1757969Y907889D01*
X1758055Y907713D01*
X1758336Y907383D01*
X1758590Y907033D01*
X1758740Y906908D01*
X1758867Y906760D01*
X1759221Y906510D01*
X1759555Y906234D01*
X1759731Y906151D01*
X1759891Y906038D01*
X1760296Y905884D01*
X1760687Y905700D01*
X1760879Y905663D01*
X1761061Y905594D01*
X1761492Y905546D01*
X1761917Y905464D01*
X1762112Y905476D01*
X1762306Y905454D01*
X1762735Y905515D01*
X1763167Y905541D01*
X1763353Y905602D01*
X1763546Y905629D01*
X1763621Y905654D01*
X1781876Y905654D01*
X1798656Y898704D01*
X1811499Y885861D01*
X1818449Y869081D01*
X1818449Y850919D01*
X1811499Y834139D01*
X1798656Y821296D01*
X1781876Y814346D01*
X1763547Y814346D01*
X1763360Y814382D01*
X1762941Y814496D01*
X1762746Y814499D01*
X1762555Y814536D01*
X1762123Y814509D01*
X1761689Y814516D01*
X1761500Y814471D01*
X1761305Y814459D01*
X1760892Y814325D01*
X1760471Y814224D01*
X1760299Y814133D01*
X1760113Y814073D01*
X1759746Y813841D01*
X1759364Y813639D01*
X1759220Y813508D01*
X1759055Y813403D01*
X1758758Y813088D01*
X1758437Y812797D01*
X1758330Y812634D01*
X1758196Y812492D01*
X1757987Y812113D01*
X1757749Y811751D01*
X1757685Y811566D01*
X1757591Y811395D01*
X1757483Y810976D01*
X1757342Y810566D01*
X1757326Y810372D01*
X1757277Y810183D01*
X1757237Y809547D01*
X1757237Y744793D01*
X1750207Y737763D01*
X1519793Y737763D01*
G37*
%LPD*%
%LPC*%
G36*
X1397043Y244999D02*
X1397043Y244999D01*
X1382342Y251089D01*
X1371089Y262342D01*
X1364999Y277043D01*
X1364999Y292957D01*
X1371089Y307658D01*
X1382342Y318911D01*
X1397043Y325001D01*
X1412957Y325001D01*
X1425087Y319976D01*
X1425275Y319924D01*
X1425451Y319841D01*
X1425876Y319760D01*
X1426295Y319645D01*
X1426490Y319642D01*
X1426681Y319606D01*
X1427113Y319632D01*
X1427547Y319625D01*
X1427737Y319671D01*
X1427931Y319683D01*
X1428344Y319816D01*
X1428765Y319917D01*
X1428937Y320008D01*
X1429123Y320069D01*
X1429489Y320300D01*
X1429872Y320503D01*
X1430016Y320634D01*
X1430181Y320738D01*
X1430478Y321054D01*
X1430799Y321345D01*
X1430906Y321508D01*
X1431040Y321650D01*
X1431249Y322029D01*
X1431487Y322391D01*
X1431551Y322575D01*
X1431645Y322746D01*
X1431754Y323166D01*
X1431894Y323575D01*
X1431910Y323769D01*
X1431959Y323959D01*
X1431999Y324595D01*
X1431999Y545405D01*
X1431975Y545599D01*
X1431984Y545793D01*
X1431897Y546218D01*
X1431842Y546648D01*
X1431771Y546829D01*
X1431731Y547020D01*
X1431541Y547409D01*
X1431382Y547812D01*
X1431267Y547970D01*
X1431181Y548145D01*
X1430900Y548475D01*
X1430646Y548826D01*
X1430496Y548950D01*
X1430369Y549098D01*
X1430015Y549348D01*
X1429681Y549624D01*
X1429505Y549708D01*
X1429346Y549820D01*
X1428941Y549974D01*
X1428549Y550158D01*
X1428357Y550195D01*
X1428175Y550264D01*
X1427744Y550313D01*
X1427319Y550394D01*
X1427124Y550382D01*
X1426930Y550404D01*
X1426502Y550344D01*
X1426069Y550317D01*
X1425883Y550257D01*
X1425690Y550230D01*
X1425087Y550024D01*
X1412957Y544999D01*
X1397043Y544999D01*
X1382342Y551089D01*
X1371089Y562342D01*
X1364999Y577043D01*
X1364999Y592957D01*
X1371089Y607658D01*
X1382342Y618911D01*
X1397043Y625001D01*
X1412957Y625001D01*
X1417087Y623290D01*
X1417275Y623238D01*
X1417451Y623155D01*
X1417876Y623074D01*
X1418295Y622959D01*
X1418490Y622956D01*
X1418681Y622919D01*
X1419113Y622946D01*
X1419547Y622939D01*
X1419736Y622985D01*
X1419931Y622997D01*
X1420344Y623130D01*
X1420765Y623231D01*
X1420937Y623322D01*
X1421123Y623382D01*
X1421489Y623614D01*
X1421872Y623816D01*
X1422016Y623947D01*
X1422181Y624052D01*
X1422478Y624367D01*
X1422799Y624659D01*
X1422906Y624822D01*
X1423040Y624963D01*
X1423249Y625343D01*
X1423487Y625705D01*
X1423551Y625889D01*
X1423645Y626060D01*
X1423754Y626480D01*
X1423894Y626889D01*
X1423910Y627083D01*
X1423959Y627272D01*
X1423999Y627908D01*
X1423999Y813105D01*
X1423985Y813219D01*
X1423994Y813334D01*
X1423907Y813839D01*
X1423842Y814347D01*
X1423800Y814454D01*
X1423780Y814568D01*
X1423570Y815035D01*
X1423382Y815512D01*
X1423314Y815605D01*
X1423267Y815710D01*
X1422948Y816110D01*
X1422646Y816525D01*
X1422557Y816599D01*
X1422485Y816689D01*
X1422076Y816997D01*
X1421681Y817324D01*
X1421578Y817373D01*
X1421485Y817443D01*
X1420913Y817724D01*
X1412289Y821296D01*
X1399446Y834139D01*
X1392495Y850919D01*
X1392495Y869081D01*
X1399446Y885861D01*
X1412289Y898704D01*
X1429068Y905654D01*
X1447231Y905654D01*
X1464010Y898704D01*
X1476853Y885861D01*
X1483804Y869081D01*
X1483804Y850919D01*
X1476853Y834139D01*
X1464011Y821296D01*
X1459087Y819257D01*
X1458987Y819200D01*
X1458877Y819164D01*
X1458444Y818890D01*
X1457999Y818636D01*
X1457916Y818556D01*
X1457819Y818495D01*
X1457468Y818122D01*
X1457099Y817765D01*
X1457039Y817667D01*
X1456960Y817583D01*
X1456713Y817136D01*
X1456445Y816697D01*
X1456411Y816587D01*
X1456355Y816486D01*
X1456226Y815990D01*
X1456076Y815501D01*
X1456070Y815386D01*
X1456041Y815274D01*
X1456001Y814638D01*
X1456001Y616698D01*
X1456049Y616313D01*
X1456061Y615924D01*
X1456127Y615694D01*
X1456157Y615456D01*
X1456300Y615095D01*
X1456408Y614721D01*
X1456530Y614514D01*
X1456618Y614291D01*
X1456846Y613977D01*
X1457044Y613642D01*
X1457306Y613344D01*
X1457354Y613278D01*
X1457391Y613247D01*
X1457465Y613163D01*
X1463494Y607134D01*
X1463864Y606847D01*
X1464215Y606537D01*
X1464358Y606464D01*
X1464484Y606366D01*
X1464913Y606180D01*
X1465330Y605967D01*
X1465486Y605932D01*
X1465633Y605869D01*
X1466095Y605795D01*
X1466552Y605693D01*
X1466712Y605697D01*
X1466870Y605672D01*
X1467335Y605716D01*
X1467804Y605730D01*
X1467958Y605774D01*
X1468117Y605789D01*
X1468556Y605947D01*
X1469007Y606077D01*
X1469145Y606159D01*
X1469295Y606213D01*
X1469682Y606475D01*
X1470086Y606713D01*
X1470265Y606870D01*
X1470332Y606916D01*
X1470386Y606977D01*
X1470564Y607134D01*
X1482341Y618911D01*
X1497043Y625001D01*
X1512957Y625001D01*
X1527658Y618911D01*
X1537105Y609465D01*
X1537412Y609226D01*
X1537695Y608960D01*
X1537905Y608844D01*
X1538094Y608697D01*
X1538451Y608543D01*
X1538791Y608355D01*
X1539023Y608295D01*
X1539243Y608200D01*
X1539627Y608139D01*
X1540003Y608041D01*
X1540400Y608016D01*
X1540480Y608003D01*
X1540528Y608008D01*
X1540640Y608001D01*
X1569360Y608001D01*
X1569746Y608049D01*
X1570134Y608061D01*
X1570365Y608127D01*
X1570603Y608157D01*
X1570964Y608300D01*
X1571337Y608408D01*
X1571544Y608530D01*
X1571767Y608618D01*
X1572082Y608846D01*
X1572417Y609044D01*
X1572715Y609306D01*
X1572781Y609354D01*
X1572812Y609391D01*
X1572895Y609465D01*
X1582342Y618911D01*
X1597043Y625001D01*
X1612957Y625001D01*
X1614452Y624381D01*
X1614486Y624372D01*
X1614517Y624355D01*
X1615089Y624207D01*
X1615660Y624051D01*
X1615695Y624050D01*
X1615729Y624041D01*
X1616365Y624001D01*
X1891193Y624001D01*
X1891307Y624015D01*
X1891422Y624006D01*
X1891926Y624093D01*
X1892435Y624157D01*
X1892542Y624200D01*
X1892656Y624219D01*
X1893124Y624430D01*
X1893600Y624618D01*
X1893693Y624686D01*
X1893798Y624733D01*
X1894198Y625053D01*
X1894613Y625354D01*
X1894687Y625443D01*
X1894777Y625515D01*
X1895085Y625924D01*
X1895412Y626318D01*
X1895461Y626422D01*
X1895530Y626515D01*
X1895811Y627087D01*
X1899446Y635861D01*
X1912289Y648704D01*
X1929068Y655654D01*
X1947231Y655654D01*
X1964010Y648704D01*
X1976853Y635861D01*
X1983804Y619081D01*
X1983804Y600919D01*
X1976853Y584139D01*
X1964010Y571296D01*
X1947231Y564346D01*
X1929068Y564346D01*
X1912289Y571296D01*
X1899446Y584139D01*
X1897468Y588913D01*
X1897411Y589013D01*
X1897376Y589123D01*
X1897102Y589556D01*
X1896848Y590001D01*
X1896768Y590084D01*
X1896706Y590181D01*
X1896333Y590533D01*
X1895977Y590900D01*
X1895878Y590961D01*
X1895795Y591040D01*
X1895346Y591287D01*
X1894909Y591555D01*
X1894799Y591589D01*
X1894698Y591645D01*
X1894202Y591773D01*
X1893712Y591924D01*
X1893598Y591930D01*
X1893486Y591959D01*
X1892850Y591999D01*
X1650000Y591999D01*
X1649536Y591941D01*
X1649069Y591912D01*
X1648916Y591862D01*
X1648757Y591842D01*
X1648323Y591670D01*
X1647877Y591526D01*
X1647742Y591440D01*
X1647593Y591382D01*
X1647215Y591107D01*
X1646819Y590857D01*
X1646709Y590740D01*
X1646579Y590646D01*
X1646281Y590286D01*
X1645960Y589945D01*
X1645883Y589805D01*
X1645781Y589681D01*
X1645581Y589258D01*
X1645355Y588849D01*
X1645315Y588694D01*
X1645247Y588549D01*
X1645159Y588090D01*
X1645041Y587636D01*
X1645026Y587398D01*
X1645011Y587319D01*
X1645016Y587238D01*
X1645001Y587000D01*
X1645001Y577043D01*
X1638911Y562342D01*
X1627658Y551089D01*
X1612957Y544999D01*
X1597043Y544999D01*
X1582342Y551089D01*
X1571089Y562342D01*
X1566710Y572913D01*
X1566653Y573013D01*
X1566617Y573123D01*
X1566343Y573557D01*
X1566090Y574001D01*
X1566010Y574083D01*
X1565948Y574181D01*
X1565574Y574533D01*
X1565218Y574901D01*
X1565120Y574961D01*
X1565036Y575040D01*
X1564588Y575287D01*
X1564151Y575555D01*
X1564040Y575589D01*
X1563940Y575645D01*
X1563443Y575773D01*
X1562954Y575924D01*
X1562839Y575930D01*
X1562727Y575959D01*
X1562091Y575999D01*
X1547909Y575999D01*
X1547794Y575985D01*
X1547680Y575994D01*
X1547175Y575907D01*
X1546666Y575842D01*
X1546559Y575800D01*
X1546445Y575780D01*
X1545978Y575570D01*
X1545502Y575382D01*
X1545408Y575314D01*
X1545303Y575267D01*
X1544904Y574948D01*
X1544488Y574646D01*
X1544414Y574557D01*
X1544325Y574485D01*
X1544016Y574076D01*
X1543689Y573681D01*
X1543640Y573578D01*
X1543571Y573485D01*
X1543290Y572913D01*
X1538911Y562342D01*
X1527658Y551089D01*
X1512957Y544999D01*
X1497043Y544999D01*
X1482341Y551089D01*
X1472535Y560895D01*
X1472103Y561231D01*
X1471681Y561580D01*
X1471609Y561614D01*
X1471545Y561663D01*
X1471043Y561881D01*
X1470549Y562114D01*
X1470470Y562129D01*
X1470396Y562161D01*
X1469856Y562247D01*
X1469319Y562350D01*
X1469239Y562345D01*
X1469159Y562357D01*
X1468615Y562306D01*
X1468069Y562272D01*
X1467992Y562248D01*
X1467913Y562240D01*
X1467399Y562055D01*
X1466877Y561887D01*
X1466809Y561844D01*
X1466734Y561817D01*
X1466283Y561511D01*
X1465819Y561217D01*
X1465764Y561158D01*
X1465697Y561114D01*
X1465336Y560704D01*
X1464960Y560305D01*
X1464922Y560235D01*
X1464868Y560175D01*
X1464619Y559687D01*
X1464355Y559209D01*
X1464335Y559132D01*
X1464298Y559060D01*
X1464178Y558527D01*
X1464041Y557997D01*
X1464034Y557885D01*
X1464023Y557838D01*
X1464026Y557757D01*
X1464001Y557360D01*
X1464001Y312639D01*
X1464069Y312096D01*
X1464120Y311552D01*
X1464147Y311477D01*
X1464157Y311397D01*
X1464359Y310888D01*
X1464544Y310373D01*
X1464589Y310307D01*
X1464618Y310232D01*
X1464940Y309790D01*
X1465247Y309337D01*
X1465307Y309284D01*
X1465354Y309219D01*
X1465776Y308870D01*
X1466185Y308508D01*
X1466257Y308471D01*
X1466318Y308420D01*
X1466813Y308187D01*
X1467300Y307938D01*
X1467379Y307920D01*
X1467451Y307886D01*
X1467988Y307783D01*
X1468522Y307663D01*
X1468602Y307665D01*
X1468681Y307650D01*
X1469227Y307684D01*
X1469774Y307700D01*
X1469851Y307723D01*
X1469931Y307728D01*
X1470451Y307896D01*
X1470977Y308048D01*
X1471047Y308089D01*
X1471123Y308113D01*
X1471585Y308406D01*
X1472056Y308683D01*
X1472140Y308757D01*
X1472181Y308783D01*
X1472237Y308843D01*
X1472535Y309104D01*
X1482341Y318911D01*
X1497043Y325001D01*
X1512957Y325001D01*
X1527658Y318911D01*
X1538911Y307658D01*
X1545001Y292957D01*
X1545001Y277043D01*
X1538911Y262342D01*
X1527658Y251089D01*
X1512957Y244999D01*
X1497043Y244999D01*
X1482342Y251089D01*
X1471089Y262341D01*
X1468367Y268913D01*
X1468310Y269013D01*
X1468274Y269123D01*
X1468000Y269556D01*
X1467747Y270001D01*
X1467666Y270084D01*
X1467605Y270181D01*
X1467232Y270532D01*
X1466875Y270901D01*
X1466777Y270961D01*
X1466693Y271040D01*
X1466246Y271287D01*
X1465808Y271555D01*
X1465697Y271589D01*
X1465597Y271645D01*
X1465100Y271773D01*
X1464611Y271924D01*
X1464496Y271930D01*
X1464384Y271959D01*
X1463748Y271999D01*
X1446252Y271999D01*
X1446137Y271985D01*
X1446023Y271994D01*
X1445518Y271907D01*
X1445009Y271842D01*
X1444902Y271800D01*
X1444789Y271780D01*
X1444321Y271570D01*
X1443845Y271382D01*
X1443751Y271314D01*
X1443647Y271267D01*
X1443247Y270948D01*
X1442831Y270646D01*
X1442758Y270557D01*
X1442668Y270485D01*
X1442359Y270076D01*
X1442032Y269681D01*
X1441984Y269578D01*
X1441914Y269485D01*
X1441633Y268913D01*
X1438911Y262341D01*
X1427658Y251089D01*
X1412957Y244999D01*
X1397043Y244999D01*
G37*
%LPD*%
%LPC*%
G36*
X2251634Y55499D02*
X2251634Y55499D01*
X2216155Y65006D01*
X2184345Y83371D01*
X2158371Y109345D01*
X2140006Y141155D01*
X2130499Y176634D01*
X2130499Y213366D01*
X2140006Y248845D01*
X2158371Y280655D01*
X2184345Y306628D01*
X2216155Y324994D01*
X2251634Y334501D01*
X2288366Y334501D01*
X2323845Y324994D01*
X2355655Y306628D01*
X2381628Y280655D01*
X2399994Y248845D01*
X2409501Y213366D01*
X2409501Y176634D01*
X2399994Y141155D01*
X2381628Y109345D01*
X2355655Y83371D01*
X2323845Y65006D01*
X2288366Y55499D01*
X2251634Y55499D01*
G37*
%LPD*%
%LPC*%
G36*
X176634Y2875499D02*
X176634Y2875499D01*
X141155Y2885006D01*
X109345Y2903371D01*
X83371Y2929345D01*
X65006Y2961155D01*
X55499Y2996634D01*
X55499Y3033366D01*
X65006Y3068845D01*
X83371Y3100655D01*
X109345Y3126628D01*
X141155Y3144994D01*
X176634Y3154501D01*
X213366Y3154501D01*
X248845Y3144994D01*
X280655Y3126628D01*
X306628Y3100655D01*
X324994Y3068845D01*
X334501Y3033366D01*
X334501Y2996634D01*
X324994Y2961155D01*
X306628Y2929345D01*
X280655Y2903371D01*
X248845Y2885006D01*
X213366Y2875499D01*
X176634Y2875499D01*
G37*
%LPD*%
%LPC*%
G36*
X2251634Y2875499D02*
X2251634Y2875499D01*
X2216155Y2885006D01*
X2184345Y2903371D01*
X2158371Y2929345D01*
X2140006Y2961155D01*
X2130499Y2996634D01*
X2130499Y3033366D01*
X2140006Y3068845D01*
X2158371Y3100655D01*
X2184345Y3126628D01*
X2216155Y3144994D01*
X2251634Y3154501D01*
X2288366Y3154501D01*
X2323845Y3144994D01*
X2355655Y3126628D01*
X2381628Y3100655D01*
X2399994Y3068845D01*
X2409501Y3033366D01*
X2409501Y2996634D01*
X2399994Y2961155D01*
X2381628Y2929345D01*
X2355655Y2903371D01*
X2323845Y2885006D01*
X2288366Y2875499D01*
X2251634Y2875499D01*
G37*
%LPD*%
%LPC*%
G36*
X176634Y55499D02*
X176634Y55499D01*
X141155Y65006D01*
X109345Y83371D01*
X83371Y109345D01*
X65006Y141155D01*
X55499Y176634D01*
X55499Y213366D01*
X65006Y248845D01*
X83371Y280655D01*
X109345Y306628D01*
X141155Y324994D01*
X176634Y334501D01*
X213366Y334501D01*
X248845Y324994D01*
X280655Y306628D01*
X306628Y280655D01*
X324994Y248845D01*
X334501Y213366D01*
X334501Y176634D01*
X324994Y141155D01*
X306628Y109345D01*
X280655Y83371D01*
X248845Y65006D01*
X213366Y55499D01*
X176634Y55499D01*
G37*
%LPD*%
%LPC*%
G36*
X379043Y1844999D02*
X379043Y1844999D01*
X364342Y1851089D01*
X353089Y1862342D01*
X346999Y1877043D01*
X346999Y1892957D01*
X353089Y1907658D01*
X364342Y1918911D01*
X379043Y1925001D01*
X428301Y1925001D01*
X428687Y1925049D01*
X429075Y1925061D01*
X429306Y1925127D01*
X429544Y1925157D01*
X429905Y1925300D01*
X430279Y1925408D01*
X430486Y1925530D01*
X430708Y1925618D01*
X431023Y1925846D01*
X431358Y1926044D01*
X431656Y1926306D01*
X431722Y1926354D01*
X431753Y1926391D01*
X431836Y1926465D01*
X441837Y1936465D01*
X442172Y1936897D01*
X442521Y1937319D01*
X442555Y1937391D01*
X442604Y1937454D01*
X442822Y1937957D01*
X443055Y1938451D01*
X443070Y1938530D01*
X443102Y1938604D01*
X443188Y1939144D01*
X443291Y1939681D01*
X443286Y1939761D01*
X443298Y1939841D01*
X443247Y1940384D01*
X443213Y1940931D01*
X443189Y1941008D01*
X443181Y1941087D01*
X442997Y1941601D01*
X442828Y1942123D01*
X442785Y1942191D01*
X442758Y1942266D01*
X442452Y1942717D01*
X442158Y1943181D01*
X442100Y1943236D01*
X442055Y1943302D01*
X441645Y1943664D01*
X441247Y1944040D01*
X441177Y1944078D01*
X441116Y1944132D01*
X440628Y1944381D01*
X440150Y1944645D01*
X440073Y1944665D01*
X440001Y1944702D01*
X439468Y1944821D01*
X438938Y1944959D01*
X438827Y1944966D01*
X438779Y1944976D01*
X438698Y1944974D01*
X438302Y1944999D01*
X379043Y1944999D01*
X364342Y1951089D01*
X353089Y1962342D01*
X346999Y1977043D01*
X346999Y1992957D01*
X353089Y2007658D01*
X364342Y2018911D01*
X379043Y2025001D01*
X450957Y2025001D01*
X465658Y2018911D01*
X476911Y2007658D01*
X483001Y1992957D01*
X483001Y1989698D01*
X483061Y1989224D01*
X483088Y1988778D01*
X483111Y1988706D01*
X483120Y1988611D01*
X483147Y1988535D01*
X483157Y1988456D01*
X483349Y1987972D01*
X483474Y1987586D01*
X483508Y1987533D01*
X483544Y1987432D01*
X483589Y1987366D01*
X483618Y1987291D01*
X483940Y1986848D01*
X483951Y1986831D01*
X484143Y1986528D01*
X484182Y1986492D01*
X484247Y1986396D01*
X484307Y1986343D01*
X484354Y1986278D01*
X484775Y1985929D01*
X484842Y1985870D01*
X485055Y1985669D01*
X485092Y1985649D01*
X485185Y1985567D01*
X485257Y1985530D01*
X485318Y1985479D01*
X485812Y1985246D01*
X485938Y1985182D01*
X486151Y1985064D01*
X486186Y1985055D01*
X486300Y1984997D01*
X486379Y1984979D01*
X486451Y1984945D01*
X486988Y1984842D01*
X487154Y1984805D01*
X487364Y1984750D01*
X487408Y1984748D01*
X487522Y1984722D01*
X487602Y1984724D01*
X487681Y1984709D01*
X487848Y1984719D01*
X488000Y1984710D01*
X488011Y1984710D01*
X488287Y1984745D01*
X488774Y1984759D01*
X488851Y1984781D01*
X488931Y1984786D01*
X489132Y1984851D01*
X489253Y1984867D01*
X489542Y1984981D01*
X489977Y1985107D01*
X490046Y1985147D01*
X490123Y1985172D01*
X490286Y1985275D01*
X490418Y1985327D01*
X490700Y1985532D01*
X491056Y1985742D01*
X491140Y1985815D01*
X491181Y1985842D01*
X491237Y1985901D01*
X491374Y1986022D01*
X491431Y1986063D01*
X491458Y1986095D01*
X491535Y1986163D01*
X526535Y2021163D01*
X526773Y2021471D01*
X527040Y2021753D01*
X527126Y2021910D01*
X527219Y2022022D01*
X527247Y2022081D01*
X527303Y2022153D01*
X527457Y2022510D01*
X527645Y2022850D01*
X527688Y2023017D01*
X527753Y2023155D01*
X527767Y2023224D01*
X527800Y2023302D01*
X527861Y2023686D01*
X527959Y2024062D01*
X527974Y2024309D01*
X527989Y2024385D01*
X527984Y2024461D01*
X527997Y2024539D01*
X527992Y2024587D01*
X527999Y2024698D01*
X527999Y2143360D01*
X527951Y2143746D01*
X527939Y2144134D01*
X527872Y2144365D01*
X527842Y2144603D01*
X527700Y2144964D01*
X527592Y2145338D01*
X527470Y2145544D01*
X527382Y2145767D01*
X527153Y2146082D01*
X526956Y2146417D01*
X526694Y2146715D01*
X526646Y2146781D01*
X526609Y2146812D01*
X526535Y2146895D01*
X509999Y2163431D01*
X509999Y2196569D01*
X533431Y2220001D01*
X566569Y2220001D01*
X590001Y2196569D01*
X590001Y2163431D01*
X566569Y2139999D01*
X565000Y2139999D01*
X564536Y2139941D01*
X564069Y2139912D01*
X563916Y2139862D01*
X563757Y2139842D01*
X563323Y2139670D01*
X562877Y2139526D01*
X562742Y2139440D01*
X562593Y2139382D01*
X562215Y2139107D01*
X561819Y2138857D01*
X561709Y2138740D01*
X561579Y2138646D01*
X561281Y2138286D01*
X560960Y2137945D01*
X560883Y2137805D01*
X560781Y2137681D01*
X560581Y2137258D01*
X560355Y2136849D01*
X560315Y2136694D01*
X560247Y2136549D01*
X560159Y2136090D01*
X560041Y2135636D01*
X560026Y2135398D01*
X560011Y2135319D01*
X560016Y2135238D01*
X560001Y2135000D01*
X560001Y2009372D01*
X471134Y1920506D01*
X470846Y1920135D01*
X470537Y1919785D01*
X470464Y1919643D01*
X470366Y1919516D01*
X470180Y1919086D01*
X469967Y1918670D01*
X469932Y1918514D01*
X469869Y1918367D01*
X469795Y1917905D01*
X469693Y1917448D01*
X469697Y1917288D01*
X469672Y1917130D01*
X469716Y1916665D01*
X469730Y1916196D01*
X469774Y1916042D01*
X469789Y1915883D01*
X469947Y1915444D01*
X470077Y1914993D01*
X470159Y1914855D01*
X470213Y1914704D01*
X470475Y1914318D01*
X470713Y1913914D01*
X470870Y1913735D01*
X470916Y1913668D01*
X470977Y1913614D01*
X471134Y1913435D01*
X476911Y1907659D01*
X483001Y1892957D01*
X483001Y1877043D01*
X476911Y1862342D01*
X465658Y1851089D01*
X450957Y1844999D01*
X379043Y1844999D01*
G37*
%LPD*%
G36*
X1753413Y2432015D02*
X1753413Y2432015D01*
X1753527Y2432006D01*
X1754032Y2432093D01*
X1754541Y2432157D01*
X1754648Y2432200D01*
X1754761Y2432219D01*
X1755229Y2432430D01*
X1755705Y2432618D01*
X1755798Y2432686D01*
X1755903Y2432733D01*
X1756304Y2433053D01*
X1756719Y2433354D01*
X1756792Y2433443D01*
X1756882Y2433514D01*
X1757191Y2433924D01*
X1757517Y2434318D01*
X1757566Y2434422D01*
X1757636Y2434515D01*
X1757917Y2435087D01*
X1759352Y2438551D01*
X1772748Y2451947D01*
X1785728Y2457324D01*
X1785829Y2457382D01*
X1785941Y2457418D01*
X1786372Y2457691D01*
X1786815Y2457944D01*
X1786899Y2458025D01*
X1786999Y2458088D01*
X1787349Y2458460D01*
X1787715Y2458815D01*
X1787776Y2458915D01*
X1787857Y2459001D01*
X1788102Y2459447D01*
X1788370Y2459883D01*
X1788404Y2459995D01*
X1788461Y2460097D01*
X1788589Y2460592D01*
X1788739Y2461080D01*
X1788744Y2461196D01*
X1788774Y2461310D01*
X1788774Y2461822D01*
X1788799Y2462330D01*
X1788775Y2462445D01*
X1788775Y2462563D01*
X1788649Y2463057D01*
X1788546Y2463557D01*
X1788494Y2463662D01*
X1788465Y2463776D01*
X1788220Y2464223D01*
X1787996Y2464682D01*
X1787920Y2464772D01*
X1787864Y2464874D01*
X1787515Y2465247D01*
X1787184Y2465636D01*
X1787088Y2465703D01*
X1787008Y2465789D01*
X1786577Y2466063D01*
X1786160Y2466357D01*
X1786051Y2466399D01*
X1785952Y2466462D01*
X1785359Y2466697D01*
X1782211Y2467720D01*
X1775813Y2470980D01*
X1770003Y2475201D01*
X1764925Y2480279D01*
X1760704Y2486089D01*
X1757444Y2492487D01*
X1755225Y2499316D01*
X1755117Y2500001D01*
X1789725Y2500001D01*
X1789725Y2464197D01*
X1789784Y2463733D01*
X1789813Y2463266D01*
X1789862Y2463113D01*
X1789882Y2462954D01*
X1790054Y2462519D01*
X1790198Y2462074D01*
X1790284Y2461938D01*
X1790343Y2461790D01*
X1790617Y2461412D01*
X1790868Y2461016D01*
X1790985Y2460906D01*
X1791078Y2460776D01*
X1791438Y2460478D01*
X1791779Y2460157D01*
X1791920Y2460080D01*
X1792043Y2459977D01*
X1792466Y2459778D01*
X1792876Y2459552D01*
X1793031Y2459512D01*
X1793176Y2459443D01*
X1793635Y2459355D01*
X1794088Y2459238D01*
X1794326Y2459223D01*
X1794406Y2459208D01*
X1794486Y2459213D01*
X1794724Y2459197D01*
X1804724Y2459197D01*
X1805188Y2459256D01*
X1805655Y2459285D01*
X1805808Y2459334D01*
X1805967Y2459354D01*
X1806401Y2459526D01*
X1806847Y2459671D01*
X1806982Y2459756D01*
X1807131Y2459815D01*
X1807509Y2460089D01*
X1807905Y2460340D01*
X1808015Y2460457D01*
X1808145Y2460551D01*
X1808443Y2460911D01*
X1808764Y2461252D01*
X1808841Y2461392D01*
X1808943Y2461515D01*
X1809143Y2461938D01*
X1809369Y2462348D01*
X1809409Y2462503D01*
X1809477Y2462648D01*
X1809565Y2463107D01*
X1809683Y2463561D01*
X1809698Y2463799D01*
X1809713Y2463878D01*
X1809708Y2463959D01*
X1809723Y2464197D01*
X1809723Y2504999D01*
X1809665Y2505464D01*
X1809636Y2505931D01*
X1809587Y2506083D01*
X1809567Y2506242D01*
X1809395Y2506677D01*
X1809250Y2507122D01*
X1809165Y2507258D01*
X1809106Y2507406D01*
X1808832Y2507784D01*
X1808581Y2508180D01*
X1808464Y2508290D01*
X1808370Y2508420D01*
X1808010Y2508718D01*
X1807669Y2509039D01*
X1807529Y2509117D01*
X1807406Y2509219D01*
X1806983Y2509418D01*
X1806573Y2509644D01*
X1806418Y2509684D01*
X1806273Y2509753D01*
X1805814Y2509841D01*
X1805360Y2509958D01*
X1805122Y2509973D01*
X1805043Y2509988D01*
X1804962Y2509983D01*
X1804724Y2509999D01*
X1799723Y2509999D01*
X1799723Y2515000D01*
X1799664Y2515464D01*
X1799636Y2515931D01*
X1799586Y2516083D01*
X1799566Y2516242D01*
X1799394Y2516677D01*
X1799250Y2517123D01*
X1799164Y2517258D01*
X1799105Y2517407D01*
X1798831Y2517785D01*
X1798580Y2518181D01*
X1798464Y2518291D01*
X1798370Y2518420D01*
X1798010Y2518719D01*
X1797669Y2519039D01*
X1797529Y2519117D01*
X1797405Y2519219D01*
X1796982Y2519418D01*
X1796572Y2519645D01*
X1796417Y2519685D01*
X1796273Y2519753D01*
X1795814Y2519841D01*
X1795360Y2519958D01*
X1795122Y2519974D01*
X1795043Y2519989D01*
X1794962Y2519984D01*
X1794724Y2519999D01*
X1755117Y2519999D01*
X1755225Y2520684D01*
X1757444Y2527513D01*
X1760704Y2533911D01*
X1764925Y2539721D01*
X1770003Y2544799D01*
X1775813Y2549020D01*
X1782211Y2552280D01*
X1785359Y2553303D01*
X1785465Y2553353D01*
X1785579Y2553380D01*
X1786032Y2553619D01*
X1786493Y2553836D01*
X1786583Y2553911D01*
X1786687Y2553966D01*
X1787063Y2554308D01*
X1787458Y2554634D01*
X1787527Y2554729D01*
X1787613Y2554808D01*
X1787894Y2555234D01*
X1788194Y2555647D01*
X1788237Y2555756D01*
X1788302Y2555854D01*
X1788468Y2556336D01*
X1788656Y2556811D01*
X1788671Y2556928D01*
X1788709Y2557038D01*
X1788749Y2557546D01*
X1788814Y2558054D01*
X1788799Y2558170D01*
X1788809Y2558287D01*
X1788721Y2558790D01*
X1788658Y2559296D01*
X1788615Y2559405D01*
X1788595Y2559521D01*
X1788386Y2559986D01*
X1788198Y2560461D01*
X1788129Y2560556D01*
X1788081Y2560663D01*
X1787763Y2561061D01*
X1787463Y2561475D01*
X1787373Y2561550D01*
X1787300Y2561641D01*
X1786892Y2561949D01*
X1786500Y2562275D01*
X1786394Y2562325D01*
X1786300Y2562395D01*
X1785728Y2562676D01*
X1772748Y2568052D01*
X1759352Y2581449D01*
X1756260Y2588913D01*
X1756203Y2589013D01*
X1756168Y2589123D01*
X1755894Y2589556D01*
X1755640Y2590001D01*
X1755560Y2590084D01*
X1755498Y2590181D01*
X1755125Y2590532D01*
X1754768Y2590901D01*
X1754670Y2590961D01*
X1754586Y2591040D01*
X1754139Y2591287D01*
X1753701Y2591555D01*
X1753591Y2591589D01*
X1753490Y2591645D01*
X1752993Y2591773D01*
X1752504Y2591924D01*
X1752390Y2591930D01*
X1752278Y2591959D01*
X1751641Y2591999D01*
X1640698Y2591999D01*
X1640313Y2591951D01*
X1639924Y2591939D01*
X1639694Y2591872D01*
X1639456Y2591842D01*
X1639095Y2591700D01*
X1638721Y2591592D01*
X1638514Y2591470D01*
X1638291Y2591382D01*
X1637977Y2591153D01*
X1637642Y2590956D01*
X1637344Y2590694D01*
X1637278Y2590646D01*
X1637247Y2590609D01*
X1637163Y2590535D01*
X1617465Y2570836D01*
X1617464Y2570836D01*
X1608848Y2562219D01*
X1608561Y2561850D01*
X1608251Y2561499D01*
X1608178Y2561356D01*
X1608080Y2561230D01*
X1607894Y2560801D01*
X1607681Y2560384D01*
X1607646Y2560227D01*
X1607582Y2560081D01*
X1607509Y2559619D01*
X1607406Y2559162D01*
X1607411Y2559002D01*
X1607386Y2558844D01*
X1607430Y2558378D01*
X1607444Y2557910D01*
X1607488Y2557756D01*
X1607503Y2557597D01*
X1607661Y2557157D01*
X1607791Y2556707D01*
X1607872Y2556569D01*
X1607926Y2556418D01*
X1608189Y2556031D01*
X1608427Y2555628D01*
X1608584Y2555449D01*
X1608629Y2555382D01*
X1608690Y2555328D01*
X1608848Y2555149D01*
X1620366Y2543631D01*
X1626717Y2528298D01*
X1626717Y2511702D01*
X1620366Y2496369D01*
X1608848Y2484851D01*
X1608561Y2484482D01*
X1608251Y2484130D01*
X1608178Y2483988D01*
X1608080Y2483861D01*
X1607894Y2483432D01*
X1607681Y2483015D01*
X1607646Y2482859D01*
X1607582Y2482712D01*
X1607509Y2482250D01*
X1607406Y2481793D01*
X1607411Y2481633D01*
X1607386Y2481475D01*
X1607430Y2481010D01*
X1607444Y2480542D01*
X1607488Y2480388D01*
X1607503Y2480228D01*
X1607661Y2479789D01*
X1607791Y2479338D01*
X1607872Y2479200D01*
X1607926Y2479050D01*
X1608189Y2478663D01*
X1608427Y2478259D01*
X1608584Y2478080D01*
X1608629Y2478013D01*
X1608690Y2477960D01*
X1608848Y2477781D01*
X1653163Y2433465D01*
X1653471Y2433226D01*
X1653753Y2432960D01*
X1653963Y2432844D01*
X1654153Y2432697D01*
X1654510Y2432543D01*
X1654850Y2432355D01*
X1655082Y2432295D01*
X1655302Y2432200D01*
X1655686Y2432139D01*
X1656062Y2432041D01*
X1656459Y2432016D01*
X1656539Y2432003D01*
X1656587Y2432008D01*
X1656698Y2432001D01*
X1753298Y2432001D01*
X1753413Y2432015D01*
G37*
%LPC*%
G36*
X1150253Y2170999D02*
X1150253Y2170999D01*
X1132243Y2178459D01*
X1118459Y2192243D01*
X1110999Y2210253D01*
X1110999Y2229747D01*
X1118459Y2247756D01*
X1132243Y2261541D01*
X1149538Y2268704D01*
X1149568Y2268722D01*
X1149602Y2268731D01*
X1150113Y2269032D01*
X1150626Y2269325D01*
X1150651Y2269349D01*
X1150681Y2269367D01*
X1151160Y2269788D01*
X1154836Y2273465D01*
X1260152Y2378781D01*
X1260439Y2379150D01*
X1260749Y2379501D01*
X1260822Y2379644D01*
X1260920Y2379770D01*
X1261106Y2380199D01*
X1261319Y2380616D01*
X1261354Y2380772D01*
X1261418Y2380919D01*
X1261491Y2381381D01*
X1261594Y2381838D01*
X1261589Y2381998D01*
X1261614Y2382156D01*
X1261570Y2382621D01*
X1261556Y2383090D01*
X1261512Y2383244D01*
X1261497Y2383403D01*
X1261339Y2383843D01*
X1261209Y2384293D01*
X1261128Y2384431D01*
X1261073Y2384582D01*
X1260811Y2384969D01*
X1260573Y2385372D01*
X1260416Y2385551D01*
X1260370Y2385618D01*
X1260310Y2385671D01*
X1260152Y2385851D01*
X1249634Y2396369D01*
X1243283Y2411702D01*
X1243283Y2428298D01*
X1249634Y2443631D01*
X1261369Y2455366D01*
X1276702Y2461717D01*
X1293298Y2461717D01*
X1308631Y2455366D01*
X1320366Y2443631D01*
X1326717Y2428298D01*
X1326717Y2411702D01*
X1320366Y2396369D01*
X1308631Y2384634D01*
X1299087Y2380680D01*
X1298987Y2380623D01*
X1298877Y2380588D01*
X1298443Y2380313D01*
X1297999Y2380060D01*
X1297917Y2379980D01*
X1297819Y2379918D01*
X1297466Y2379544D01*
X1297099Y2379189D01*
X1297039Y2379091D01*
X1296960Y2379007D01*
X1296712Y2378558D01*
X1296445Y2378121D01*
X1296411Y2378011D01*
X1296355Y2377910D01*
X1296226Y2377413D01*
X1296076Y2376924D01*
X1296070Y2376810D01*
X1296041Y2376698D01*
X1296001Y2376062D01*
X1296001Y2369372D01*
X1295087Y2368458D01*
X1294967Y2368304D01*
X1294823Y2368173D01*
X1294585Y2367811D01*
X1294319Y2367469D01*
X1294241Y2367290D01*
X1294134Y2367127D01*
X1293994Y2366718D01*
X1293821Y2366320D01*
X1293791Y2366127D01*
X1293727Y2365943D01*
X1293693Y2365511D01*
X1293625Y2365083D01*
X1293643Y2364889D01*
X1293628Y2364694D01*
X1293702Y2364267D01*
X1293742Y2363836D01*
X1293808Y2363653D01*
X1293841Y2363460D01*
X1294019Y2363066D01*
X1294165Y2362657D01*
X1294275Y2362495D01*
X1294355Y2362318D01*
X1294625Y2361980D01*
X1294868Y2361621D01*
X1295014Y2361492D01*
X1295136Y2361339D01*
X1295482Y2361078D01*
X1295807Y2360792D01*
X1295980Y2360703D01*
X1296136Y2360586D01*
X1296708Y2360305D01*
X1308631Y2355366D01*
X1320366Y2343631D01*
X1326717Y2328298D01*
X1326717Y2311702D01*
X1320366Y2296369D01*
X1308631Y2284634D01*
X1293298Y2278283D01*
X1276702Y2278283D01*
X1261369Y2284634D01*
X1249634Y2296369D01*
X1244695Y2308291D01*
X1244599Y2308461D01*
X1244533Y2308644D01*
X1244289Y2309003D01*
X1244075Y2309379D01*
X1243939Y2309519D01*
X1243830Y2309681D01*
X1243505Y2309968D01*
X1243204Y2310279D01*
X1243038Y2310381D01*
X1242891Y2310510D01*
X1242505Y2310707D01*
X1242136Y2310934D01*
X1241950Y2310991D01*
X1241776Y2311080D01*
X1241353Y2311175D01*
X1240939Y2311303D01*
X1240745Y2311312D01*
X1240554Y2311355D01*
X1240121Y2311342D01*
X1239688Y2311362D01*
X1239498Y2311323D01*
X1239303Y2311317D01*
X1238886Y2311197D01*
X1238462Y2311110D01*
X1238287Y2311024D01*
X1238099Y2310970D01*
X1237726Y2310750D01*
X1237337Y2310560D01*
X1237188Y2310433D01*
X1237020Y2310334D01*
X1236542Y2309913D01*
X1191498Y2264870D01*
X1191211Y2264500D01*
X1190901Y2264149D01*
X1190828Y2264006D01*
X1190730Y2263880D01*
X1190545Y2263451D01*
X1190331Y2263034D01*
X1190296Y2262878D01*
X1190233Y2262731D01*
X1190159Y2262269D01*
X1190056Y2261812D01*
X1190061Y2261652D01*
X1190036Y2261494D01*
X1190080Y2261029D01*
X1190094Y2260560D01*
X1190138Y2260406D01*
X1190153Y2260247D01*
X1190311Y2259807D01*
X1190441Y2259357D01*
X1190523Y2259219D01*
X1190577Y2259069D01*
X1190839Y2258681D01*
X1191077Y2258278D01*
X1191234Y2258099D01*
X1191280Y2258032D01*
X1191340Y2257979D01*
X1191498Y2257799D01*
X1201541Y2247756D01*
X1209001Y2229747D01*
X1209001Y2210253D01*
X1201541Y2192243D01*
X1187756Y2178459D01*
X1169747Y2170999D01*
X1150253Y2170999D01*
G37*
%LPD*%
%LPC*%
G36*
X653431Y2384999D02*
X653431Y2384999D01*
X629999Y2408431D01*
X629999Y2441569D01*
X654535Y2466104D01*
X654773Y2466412D01*
X655040Y2466695D01*
X655118Y2466836D01*
X655218Y2466957D01*
X655252Y2467028D01*
X655303Y2467094D01*
X655457Y2467451D01*
X655645Y2467791D01*
X655686Y2467949D01*
X655752Y2468089D01*
X655766Y2468165D01*
X655800Y2468243D01*
X655861Y2468627D01*
X655959Y2469003D01*
X655974Y2469250D01*
X655988Y2469319D01*
X655983Y2469390D01*
X655984Y2469400D01*
X655997Y2469480D01*
X655992Y2469528D01*
X655999Y2469640D01*
X655999Y2545360D01*
X655951Y2545746D01*
X655939Y2546134D01*
X655872Y2546365D01*
X655842Y2546603D01*
X655700Y2546964D01*
X655592Y2547338D01*
X655470Y2547544D01*
X655382Y2547767D01*
X655153Y2548082D01*
X654956Y2548417D01*
X654694Y2548715D01*
X654646Y2548781D01*
X654609Y2548812D01*
X654535Y2548895D01*
X629999Y2573431D01*
X629999Y2606569D01*
X654535Y2631104D01*
X654773Y2631412D01*
X655040Y2631695D01*
X655126Y2631851D01*
X655194Y2631932D01*
X655219Y2631986D01*
X655303Y2632094D01*
X655457Y2632451D01*
X655645Y2632791D01*
X655702Y2633010D01*
X655728Y2633065D01*
X655731Y2633083D01*
X655800Y2633243D01*
X655861Y2633627D01*
X655959Y2634003D01*
X655984Y2634400D01*
X655997Y2634480D01*
X655992Y2634528D01*
X655999Y2634640D01*
X655999Y2720360D01*
X655951Y2720746D01*
X655939Y2721134D01*
X655872Y2721365D01*
X655842Y2721603D01*
X655700Y2721964D01*
X655592Y2722338D01*
X655470Y2722544D01*
X655382Y2722767D01*
X655153Y2723082D01*
X654956Y2723417D01*
X654694Y2723715D01*
X654646Y2723781D01*
X654609Y2723812D01*
X654535Y2723895D01*
X629999Y2748431D01*
X629999Y2781569D01*
X653431Y2805001D01*
X686569Y2805001D01*
X710001Y2781569D01*
X710001Y2748431D01*
X689465Y2727895D01*
X689226Y2727588D01*
X688960Y2727305D01*
X688844Y2727095D01*
X688697Y2726906D01*
X688543Y2726549D01*
X688355Y2726209D01*
X688295Y2725977D01*
X688200Y2725757D01*
X688139Y2725373D01*
X688041Y2724997D01*
X688016Y2724600D01*
X688003Y2724520D01*
X688008Y2724472D01*
X688001Y2724360D01*
X688001Y2630640D01*
X688049Y2630254D01*
X688061Y2629865D01*
X688127Y2629635D01*
X688157Y2629397D01*
X688300Y2629036D01*
X688408Y2628662D01*
X688530Y2628455D01*
X688618Y2628233D01*
X688846Y2627918D01*
X689044Y2627583D01*
X689306Y2627285D01*
X689354Y2627219D01*
X689391Y2627188D01*
X689465Y2627104D01*
X710001Y2606569D01*
X710001Y2573431D01*
X689465Y2552895D01*
X689226Y2552588D01*
X688960Y2552305D01*
X688844Y2552095D01*
X688697Y2551906D01*
X688543Y2551549D01*
X688355Y2551209D01*
X688295Y2550977D01*
X688200Y2550757D01*
X688139Y2550373D01*
X688041Y2549997D01*
X688016Y2549600D01*
X688003Y2549520D01*
X688008Y2549472D01*
X688001Y2549360D01*
X688001Y2465640D01*
X688049Y2465253D01*
X688061Y2464865D01*
X688127Y2464635D01*
X688157Y2464397D01*
X688301Y2464035D01*
X688408Y2463662D01*
X688530Y2463455D01*
X688618Y2463233D01*
X688846Y2462918D01*
X689044Y2462583D01*
X689306Y2462285D01*
X689354Y2462219D01*
X689391Y2462188D01*
X689465Y2462104D01*
X710001Y2441569D01*
X710001Y2408431D01*
X686569Y2384999D01*
X653431Y2384999D01*
G37*
%LPD*%
%LPC*%
G36*
X1690919Y1801196D02*
X1690919Y1801196D01*
X1674139Y1808146D01*
X1661296Y1820989D01*
X1658014Y1828913D01*
X1657957Y1829013D01*
X1657922Y1829123D01*
X1657648Y1829556D01*
X1657394Y1830001D01*
X1657314Y1830084D01*
X1657252Y1830181D01*
X1656879Y1830532D01*
X1656522Y1830901D01*
X1656424Y1830961D01*
X1656340Y1831040D01*
X1655893Y1831287D01*
X1655455Y1831555D01*
X1655344Y1831589D01*
X1655244Y1831645D01*
X1654747Y1831773D01*
X1654258Y1831924D01*
X1654143Y1831930D01*
X1654031Y1831959D01*
X1653395Y1831999D01*
X1390639Y1831999D01*
X1390254Y1831951D01*
X1389865Y1831939D01*
X1389635Y1831872D01*
X1389397Y1831842D01*
X1389036Y1831700D01*
X1388662Y1831592D01*
X1388455Y1831470D01*
X1388232Y1831382D01*
X1387918Y1831154D01*
X1387583Y1830956D01*
X1387285Y1830694D01*
X1387219Y1830646D01*
X1387188Y1830608D01*
X1387104Y1830535D01*
X1366569Y1809999D01*
X1333431Y1809999D01*
X1309999Y1833431D01*
X1309999Y1866569D01*
X1333431Y1890001D01*
X1366569Y1890001D01*
X1391104Y1865465D01*
X1391412Y1865226D01*
X1391694Y1864960D01*
X1391904Y1864844D01*
X1392094Y1864697D01*
X1392451Y1864543D01*
X1392791Y1864355D01*
X1393023Y1864295D01*
X1393243Y1864200D01*
X1393627Y1864139D01*
X1394003Y1864041D01*
X1394400Y1864016D01*
X1394480Y1864003D01*
X1394528Y1864008D01*
X1394639Y1864001D01*
X1654348Y1864001D01*
X1654462Y1864015D01*
X1654577Y1864006D01*
X1655081Y1864093D01*
X1655590Y1864157D01*
X1655697Y1864200D01*
X1655811Y1864219D01*
X1656279Y1864430D01*
X1656755Y1864618D01*
X1656848Y1864686D01*
X1656953Y1864733D01*
X1657353Y1865053D01*
X1657768Y1865354D01*
X1657842Y1865443D01*
X1657932Y1865515D01*
X1658240Y1865923D01*
X1658567Y1866318D01*
X1658616Y1866423D01*
X1658685Y1866515D01*
X1658966Y1867087D01*
X1661296Y1872711D01*
X1674139Y1885554D01*
X1690919Y1892505D01*
X1709081Y1892505D01*
X1725861Y1885554D01*
X1738704Y1872711D01*
X1745654Y1855931D01*
X1745654Y1837769D01*
X1738704Y1820989D01*
X1725861Y1808146D01*
X1709081Y1801196D01*
X1690919Y1801196D01*
G37*
%LPD*%
%LPC*%
G36*
X99248Y2715999D02*
X99248Y2715999D01*
X83076Y2722698D01*
X70698Y2735076D01*
X63999Y2751248D01*
X63999Y2768752D01*
X70698Y2784924D01*
X83076Y2797302D01*
X99248Y2804001D01*
X180752Y2804001D01*
X196924Y2797302D01*
X209302Y2784924D01*
X211720Y2779087D01*
X211777Y2778987D01*
X211812Y2778877D01*
X212086Y2778444D01*
X212340Y2777999D01*
X212420Y2777916D01*
X212482Y2777819D01*
X212855Y2777468D01*
X213211Y2777099D01*
X213310Y2777039D01*
X213394Y2776960D01*
X213841Y2776713D01*
X214279Y2776445D01*
X214389Y2776411D01*
X214490Y2776355D01*
X214987Y2776226D01*
X215476Y2776076D01*
X215590Y2776070D01*
X215702Y2776041D01*
X216339Y2776001D01*
X225000Y2776001D01*
X225464Y2776059D01*
X225931Y2776088D01*
X226084Y2776137D01*
X226242Y2776157D01*
X226677Y2776329D01*
X227123Y2776474D01*
X227258Y2776559D01*
X227407Y2776618D01*
X227785Y2776892D01*
X228181Y2777143D01*
X228291Y2777260D01*
X228421Y2777354D01*
X228719Y2777714D01*
X229040Y2778055D01*
X229117Y2778195D01*
X229219Y2778318D01*
X229419Y2778742D01*
X229645Y2779151D01*
X229685Y2779306D01*
X229753Y2779451D01*
X229841Y2779910D01*
X229959Y2780364D01*
X229974Y2780602D01*
X229989Y2780681D01*
X229984Y2780762D01*
X229999Y2781000D01*
X229999Y2781569D01*
X253431Y2805001D01*
X286569Y2805001D01*
X310001Y2781569D01*
X310001Y2748431D01*
X286569Y2724999D01*
X253431Y2724999D01*
X235895Y2742535D01*
X235588Y2742773D01*
X235305Y2743040D01*
X235095Y2743156D01*
X234906Y2743303D01*
X234549Y2743457D01*
X234209Y2743645D01*
X233977Y2743705D01*
X233757Y2743800D01*
X233373Y2743861D01*
X232997Y2743959D01*
X232600Y2743984D01*
X232520Y2743997D01*
X232472Y2743992D01*
X232360Y2743999D01*
X216339Y2743999D01*
X216224Y2743985D01*
X216109Y2743994D01*
X215605Y2743907D01*
X215096Y2743842D01*
X214989Y2743800D01*
X214875Y2743780D01*
X214408Y2743570D01*
X213932Y2743382D01*
X213838Y2743314D01*
X213733Y2743267D01*
X213334Y2742948D01*
X212918Y2742646D01*
X212844Y2742557D01*
X212755Y2742485D01*
X212446Y2742076D01*
X212119Y2741681D01*
X212070Y2741578D01*
X212001Y2741485D01*
X211720Y2740913D01*
X209302Y2735076D01*
X196924Y2722698D01*
X180752Y2715999D01*
X99248Y2715999D01*
G37*
%LPD*%
%LPC*%
G36*
X2082432Y2667291D02*
X2082432Y2667291D01*
X2059211Y2676909D01*
X2041437Y2694683D01*
X2031818Y2717905D01*
X2031818Y2743040D01*
X2041437Y2766262D01*
X2059211Y2784035D01*
X2082432Y2793654D01*
X2107568Y2793654D01*
X2130789Y2784035D01*
X2148563Y2766262D01*
X2158182Y2743040D01*
X2158182Y2717905D01*
X2148563Y2694683D01*
X2130789Y2676909D01*
X2107568Y2667291D01*
X2082432Y2667291D01*
G37*
%LPD*%
%LPC*%
G36*
X379043Y1544999D02*
X379043Y1544999D01*
X364342Y1551089D01*
X353089Y1562342D01*
X346999Y1577043D01*
X346999Y1592957D01*
X353089Y1607658D01*
X364342Y1618911D01*
X379043Y1625001D01*
X450957Y1625001D01*
X465658Y1618911D01*
X476911Y1607658D01*
X483001Y1592957D01*
X483001Y1577043D01*
X476911Y1562342D01*
X465658Y1551089D01*
X450957Y1544999D01*
X379043Y1544999D01*
G37*
%LPD*%
%LPC*%
G36*
X2329998Y2560802D02*
X2329998Y2560802D01*
X2322968Y2567832D01*
X2322968Y2649018D01*
X2329998Y2656048D01*
X2411183Y2656048D01*
X2418213Y2649018D01*
X2418213Y2567832D01*
X2411183Y2560802D01*
X2329998Y2560802D01*
G37*
%LPD*%
%LPC*%
G36*
X2361118Y2363952D02*
X2361118Y2363952D01*
X2343615Y2371202D01*
X2330218Y2384599D01*
X2322968Y2402102D01*
X2322968Y2421047D01*
X2330218Y2438551D01*
X2343615Y2451947D01*
X2361118Y2459197D01*
X2380063Y2459197D01*
X2397566Y2451947D01*
X2410963Y2438551D01*
X2418213Y2421047D01*
X2418213Y2402102D01*
X2410963Y2384599D01*
X2397566Y2371202D01*
X2380063Y2363952D01*
X2361118Y2363952D01*
G37*
%LPD*%
%LPC*%
G36*
X1246982Y871499D02*
X1246982Y871499D01*
X1221499Y896982D01*
X1221499Y933018D01*
X1246982Y958501D01*
X1283018Y958501D01*
X1308501Y933018D01*
X1308501Y896982D01*
X1283018Y871499D01*
X1246982Y871499D01*
G37*
%LPD*%
%LPC*%
G36*
X1576702Y2278283D02*
X1576702Y2278283D01*
X1561369Y2284634D01*
X1549634Y2296369D01*
X1543283Y2311702D01*
X1543283Y2328298D01*
X1549634Y2343631D01*
X1561369Y2355366D01*
X1576702Y2361717D01*
X1593298Y2361717D01*
X1608631Y2355366D01*
X1620366Y2343631D01*
X1626717Y2328298D01*
X1626717Y2311702D01*
X1620366Y2296369D01*
X1608631Y2284634D01*
X1593298Y2278283D01*
X1576702Y2278283D01*
G37*
%LPD*%
%LPC*%
G36*
X1276702Y2178283D02*
X1276702Y2178283D01*
X1261369Y2184634D01*
X1249634Y2196369D01*
X1243283Y2211702D01*
X1243283Y2228298D01*
X1249634Y2243631D01*
X1261369Y2255366D01*
X1276702Y2261717D01*
X1293298Y2261717D01*
X1308631Y2255366D01*
X1320366Y2243631D01*
X1326717Y2228298D01*
X1326717Y2211702D01*
X1320366Y2196369D01*
X1308631Y2184634D01*
X1293298Y2178283D01*
X1276702Y2178283D01*
G37*
%LPD*%
%LPC*%
G36*
X1576702Y2178283D02*
X1576702Y2178283D01*
X1561369Y2184634D01*
X1549634Y2196369D01*
X1543283Y2211702D01*
X1543283Y2228298D01*
X1549634Y2243631D01*
X1561369Y2255366D01*
X1576702Y2261717D01*
X1593298Y2261717D01*
X1608631Y2255366D01*
X1620366Y2243631D01*
X1626717Y2228298D01*
X1626717Y2211702D01*
X1620366Y2196369D01*
X1608631Y2184634D01*
X1593298Y2178283D01*
X1576702Y2178283D01*
G37*
%LPD*%
%LPC*%
G36*
X1576702Y2078283D02*
X1576702Y2078283D01*
X1561369Y2084634D01*
X1549634Y2096369D01*
X1543283Y2111702D01*
X1543283Y2128298D01*
X1549634Y2143631D01*
X1561369Y2155366D01*
X1576702Y2161717D01*
X1593298Y2161717D01*
X1608631Y2155366D01*
X1620366Y2143631D01*
X1626717Y2128298D01*
X1626717Y2111702D01*
X1620366Y2096369D01*
X1608631Y2084634D01*
X1593298Y2078283D01*
X1576702Y2078283D01*
G37*
%LPD*%
%LPC*%
G36*
X1576702Y1978283D02*
X1576702Y1978283D01*
X1561369Y1984634D01*
X1549634Y1996369D01*
X1543283Y2011702D01*
X1543283Y2028298D01*
X1549634Y2043631D01*
X1561369Y2055366D01*
X1576702Y2061717D01*
X1593298Y2061717D01*
X1608631Y2055366D01*
X1620366Y2043631D01*
X1626717Y2028298D01*
X1626717Y2011702D01*
X1620366Y1996369D01*
X1608631Y1984634D01*
X1593298Y1978283D01*
X1576702Y1978283D01*
G37*
%LPD*%
%LPC*%
G36*
X1276702Y2078283D02*
X1276702Y2078283D01*
X1261369Y2084634D01*
X1249634Y2096369D01*
X1243283Y2111702D01*
X1243283Y2128298D01*
X1249634Y2143631D01*
X1261369Y2155366D01*
X1276702Y2161717D01*
X1293298Y2161717D01*
X1308631Y2155366D01*
X1320366Y2143631D01*
X1326717Y2128298D01*
X1326717Y2111702D01*
X1320366Y2096369D01*
X1308631Y2084634D01*
X1293298Y2078283D01*
X1276702Y2078283D01*
G37*
%LPD*%
%LPC*%
G36*
X628431Y1519999D02*
X628431Y1519999D01*
X604999Y1543431D01*
X604999Y1576569D01*
X628431Y1600001D01*
X661569Y1600001D01*
X685001Y1576569D01*
X685001Y1543431D01*
X661569Y1519999D01*
X628431Y1519999D01*
G37*
%LPD*%
%LPC*%
G36*
X888431Y2304999D02*
X888431Y2304999D01*
X864999Y2328431D01*
X864999Y2361569D01*
X888431Y2385001D01*
X921569Y2385001D01*
X945001Y2361569D01*
X945001Y2328431D01*
X921569Y2304999D01*
X888431Y2304999D01*
G37*
%LPD*%
%LPC*%
G36*
X533431Y609999D02*
X533431Y609999D01*
X509999Y633431D01*
X509999Y666569D01*
X533431Y690001D01*
X566569Y690001D01*
X590001Y666569D01*
X590001Y633431D01*
X566569Y609999D01*
X533431Y609999D01*
G37*
%LPD*%
%LPC*%
G36*
X1597043Y244999D02*
X1597043Y244999D01*
X1582342Y251089D01*
X1571089Y262342D01*
X1564999Y277043D01*
X1564999Y292957D01*
X1571089Y307658D01*
X1582342Y318911D01*
X1597043Y325001D01*
X1612957Y325001D01*
X1627658Y318911D01*
X1638911Y307658D01*
X1645001Y292957D01*
X1645001Y277043D01*
X1638911Y262342D01*
X1627658Y251089D01*
X1612957Y244999D01*
X1597043Y244999D01*
G37*
%LPD*%
%LPC*%
G36*
X850873Y1885645D02*
X850873Y1885645D01*
X836408Y1891636D01*
X825337Y1902707D01*
X819346Y1917172D01*
X819346Y1932828D01*
X825337Y1947293D01*
X836408Y1958364D01*
X850873Y1964355D01*
X866529Y1964355D01*
X880993Y1958364D01*
X892064Y1947293D01*
X898056Y1932828D01*
X898056Y1917172D01*
X892064Y1902707D01*
X880993Y1891636D01*
X866529Y1885645D01*
X850873Y1885645D01*
G37*
%LPD*%
%LPC*%
G36*
X149999Y2669999D02*
X149999Y2669999D01*
X149999Y2702001D01*
X175305Y2702001D01*
X181835Y2700966D01*
X188123Y2698923D01*
X194013Y2695922D01*
X199361Y2692036D01*
X204036Y2687361D01*
X207922Y2682013D01*
X210923Y2676123D01*
X212913Y2669999D01*
X149999Y2669999D01*
G37*
%LPD*%
%LPC*%
G36*
X67087Y2669999D02*
X67087Y2669999D01*
X68081Y2673058D01*
X68081Y2673059D01*
X69076Y2676123D01*
X72077Y2682013D01*
X75963Y2687361D01*
X80639Y2692036D01*
X85987Y2695922D01*
X91877Y2698923D01*
X98164Y2700966D01*
X104695Y2702001D01*
X130001Y2702001D01*
X130001Y2669999D01*
X67087Y2669999D01*
G37*
%LPD*%
%LPC*%
G36*
X149999Y2617999D02*
X149999Y2617999D01*
X149999Y2650001D01*
X212913Y2650001D01*
X211666Y2646162D01*
X211665Y2646161D01*
X211665Y2646160D01*
X210923Y2643877D01*
X207922Y2637987D01*
X204036Y2632639D01*
X199361Y2627963D01*
X194013Y2624077D01*
X188123Y2621076D01*
X181835Y2619033D01*
X175305Y2617999D01*
X149999Y2617999D01*
G37*
%LPD*%
%LPC*%
G36*
X104695Y2617999D02*
X104695Y2617999D01*
X98164Y2619033D01*
X91877Y2621076D01*
X85987Y2624077D01*
X80639Y2627963D01*
X75963Y2632639D01*
X72077Y2637987D01*
X69076Y2643877D01*
X67087Y2650001D01*
X130001Y2650001D01*
X130001Y2617999D01*
X104695Y2617999D01*
G37*
%LPD*%
%LPC*%
G36*
X422999Y1692999D02*
X422999Y1692999D01*
X422999Y1723000D01*
X445990Y1723001D01*
X451899Y1722065D01*
X457587Y1720217D01*
X462916Y1717501D01*
X467756Y1713985D01*
X471985Y1709756D01*
X475501Y1704916D01*
X478217Y1699587D01*
X480065Y1693899D01*
X480207Y1692999D01*
X422999Y1692999D01*
G37*
%LPD*%
%LPC*%
G36*
X349793Y1692999D02*
X349793Y1692999D01*
X349935Y1693899D01*
X351783Y1699587D01*
X354499Y1704916D01*
X358015Y1709756D01*
X362244Y1713985D01*
X367083Y1717501D01*
X372413Y1720217D01*
X378101Y1722065D01*
X384009Y1723001D01*
X407000Y1723001D01*
X407000Y1692999D01*
X349793Y1692999D01*
G37*
%LPD*%
%LPC*%
G36*
X422999Y1646999D02*
X422999Y1646999D01*
X422999Y1677000D01*
X480207Y1677000D01*
X480065Y1676101D01*
X478507Y1671306D01*
X478506Y1671305D01*
X478506Y1671304D01*
X478217Y1670413D01*
X475501Y1665083D01*
X471985Y1660244D01*
X467756Y1656015D01*
X462916Y1652499D01*
X457587Y1649783D01*
X451899Y1647935D01*
X445990Y1646999D01*
X422999Y1646999D01*
G37*
%LPD*%
%LPC*%
G36*
X384009Y1646999D02*
X384009Y1646999D01*
X378101Y1647935D01*
X372413Y1649783D01*
X367083Y1652499D01*
X362244Y1656015D01*
X358015Y1660244D01*
X354499Y1665083D01*
X351783Y1670413D01*
X349935Y1676101D01*
X349793Y1677000D01*
X407000Y1677000D01*
X407000Y1646999D01*
X384009Y1646999D01*
G37*
%LPD*%
%LPC*%
G36*
X697999Y912999D02*
X697999Y912999D01*
X697999Y946501D01*
X707190Y946501D01*
X731501Y922190D01*
X731501Y912999D01*
X697999Y912999D01*
G37*
%LPD*%
%LPC*%
G36*
X2400905Y619999D02*
X2400905Y619999D01*
X2400905Y652615D01*
X2401128Y652579D01*
X2407663Y650456D01*
X2413785Y647336D01*
X2419344Y643298D01*
X2424203Y638438D01*
X2428242Y632880D01*
X2431362Y626757D01*
X2433485Y620223D01*
X2433520Y619999D01*
X2400905Y619999D01*
G37*
%LPD*%
%LPC*%
G36*
X1900905Y869999D02*
X1900905Y869999D01*
X1900905Y902615D01*
X1901128Y902579D01*
X1907663Y900456D01*
X1913785Y897336D01*
X1919344Y893298D01*
X1924203Y888438D01*
X1928242Y882880D01*
X1931362Y876757D01*
X1933485Y870223D01*
X1933520Y869999D01*
X1900905Y869999D01*
G37*
%LPD*%
%LPC*%
G36*
X1709999Y1404094D02*
X1709999Y1404094D01*
X1709999Y1436709D01*
X1710223Y1436674D01*
X1716757Y1434551D01*
X1722880Y1431431D01*
X1728439Y1427392D01*
X1733298Y1422533D01*
X1737336Y1416974D01*
X1740456Y1410852D01*
X1742579Y1404317D01*
X1742615Y1404094D01*
X1709999Y1404094D01*
G37*
%LPD*%
%LPC*%
G36*
X1657385Y1404094D02*
X1657385Y1404094D01*
X1657421Y1404317D01*
X1659544Y1410852D01*
X1662664Y1416974D01*
X1666702Y1422533D01*
X1671561Y1427392D01*
X1677120Y1431431D01*
X1683243Y1434551D01*
X1689777Y1436674D01*
X1690001Y1436709D01*
X1690001Y1404094D01*
X1657385Y1404094D01*
G37*
%LPD*%
%LPC*%
G36*
X2400905Y600001D02*
X2400905Y600001D01*
X2433520Y600001D01*
X2433485Y599777D01*
X2431362Y593243D01*
X2428242Y587120D01*
X2424203Y581561D01*
X2419344Y576702D01*
X2413785Y572664D01*
X2407663Y569544D01*
X2401128Y567421D01*
X2400905Y567385D01*
X2400905Y600001D01*
G37*
%LPD*%
%LPC*%
G36*
X2348291Y619999D02*
X2348291Y619999D01*
X2348326Y620223D01*
X2349346Y623361D01*
X2349346Y623362D01*
X2350449Y626757D01*
X2353569Y632880D01*
X2357608Y638438D01*
X2362467Y643298D01*
X2368026Y647336D01*
X2374148Y650456D01*
X2380683Y652579D01*
X2380906Y652615D01*
X2380906Y619999D01*
X2348291Y619999D01*
G37*
%LPD*%
%LPC*%
G36*
X1709999Y1384095D02*
X1709999Y1384095D01*
X1742615Y1384095D01*
X1742579Y1383872D01*
X1741759Y1381348D01*
X1741759Y1381347D01*
X1740456Y1377337D01*
X1737336Y1371215D01*
X1733298Y1365656D01*
X1728439Y1360797D01*
X1722880Y1356758D01*
X1716757Y1353638D01*
X1710223Y1351515D01*
X1709999Y1351480D01*
X1709999Y1384095D01*
G37*
%LPD*%
%LPC*%
G36*
X1848291Y869999D02*
X1848291Y869999D01*
X1848326Y870223D01*
X1849334Y873324D01*
X1849334Y873325D01*
X1849335Y873326D01*
X1850449Y876757D01*
X1853569Y882880D01*
X1857608Y888438D01*
X1862467Y893298D01*
X1868026Y897336D01*
X1874148Y900456D01*
X1880683Y902579D01*
X1880906Y902615D01*
X1880906Y869999D01*
X1848291Y869999D01*
G37*
%LPD*%
%LPC*%
G36*
X1900905Y850001D02*
X1900905Y850001D01*
X1933520Y850001D01*
X1933485Y849777D01*
X1932396Y846427D01*
X1932396Y846426D01*
X1931362Y843243D01*
X1928242Y837120D01*
X1924203Y831561D01*
X1919344Y826702D01*
X1913785Y822664D01*
X1907663Y819544D01*
X1901128Y817421D01*
X1900905Y817385D01*
X1900905Y850001D01*
G37*
%LPD*%
%LPC*%
G36*
X2380683Y567421D02*
X2380683Y567421D01*
X2374148Y569544D01*
X2368026Y572664D01*
X2362467Y576702D01*
X2357608Y581561D01*
X2353569Y587120D01*
X2350449Y593243D01*
X2348326Y599777D01*
X2348291Y600001D01*
X2380906Y600001D01*
X2380906Y567385D01*
X2380683Y567421D01*
G37*
%LPD*%
%LPC*%
G36*
X1880683Y817421D02*
X1880683Y817421D01*
X1874148Y819544D01*
X1868026Y822664D01*
X1862467Y826702D01*
X1857608Y831561D01*
X1853569Y837120D01*
X1850449Y843243D01*
X1848326Y849777D01*
X1848291Y850001D01*
X1880906Y850001D01*
X1880906Y817385D01*
X1880683Y817421D01*
G37*
%LPD*%
%LPC*%
G36*
X1689777Y1351515D02*
X1689777Y1351515D01*
X1683243Y1353638D01*
X1677120Y1356758D01*
X1671561Y1360797D01*
X1666702Y1365656D01*
X1662664Y1371215D01*
X1659544Y1377337D01*
X1657421Y1383872D01*
X1657385Y1384095D01*
X1690001Y1384095D01*
X1690001Y1351480D01*
X1689777Y1351515D01*
G37*
%LPD*%
%LPC*%
G36*
X847999Y1087999D02*
X847999Y1087999D01*
X847999Y1118001D01*
X855740Y1118001D01*
X878001Y1095740D01*
X878001Y1087999D01*
X847999Y1087999D01*
G37*
%LPD*%
%LPC*%
G36*
X2397999Y1512999D02*
X2397999Y1512999D01*
X2397999Y1543000D01*
X2405740Y1543001D01*
X2428001Y1520740D01*
X2428001Y1512999D01*
X2397999Y1512999D01*
G37*
%LPD*%
%LPC*%
G36*
X277999Y2597999D02*
X277999Y2597999D01*
X277999Y2628000D01*
X285740Y2628001D01*
X308001Y2605740D01*
X308001Y2597999D01*
X277999Y2597999D01*
G37*
%LPD*%
%LPC*%
G36*
X957999Y2187999D02*
X957999Y2187999D01*
X957999Y2218000D01*
X965740Y2218001D01*
X988001Y2195740D01*
X988001Y2187999D01*
X957999Y2187999D01*
G37*
%LPD*%
%LPC*%
G36*
X911999Y2187999D02*
X911999Y2187999D01*
X911999Y2195740D01*
X934260Y2218001D01*
X942000Y2218001D01*
X942000Y2187999D01*
X911999Y2187999D01*
G37*
%LPD*%
%LPC*%
G36*
X2351999Y1512999D02*
X2351999Y1512999D01*
X2351999Y1520740D01*
X2374260Y1543001D01*
X2382000Y1543001D01*
X2382000Y1512999D01*
X2351999Y1512999D01*
G37*
%LPD*%
%LPC*%
G36*
X231999Y2597999D02*
X231999Y2597999D01*
X231999Y2605740D01*
X254260Y2628001D01*
X262000Y2628001D01*
X262000Y2597999D01*
X231999Y2597999D01*
G37*
%LPD*%
%LPC*%
G36*
X847999Y1072000D02*
X847999Y1072000D01*
X878000Y1072000D01*
X878001Y1064260D01*
X855740Y1041999D01*
X847999Y1041999D01*
X847999Y1072000D01*
G37*
%LPD*%
%LPC*%
G36*
X2397999Y1466999D02*
X2397999Y1466999D01*
X2397999Y1497000D01*
X2428001Y1497000D01*
X2428001Y1489260D01*
X2405740Y1466999D01*
X2397999Y1466999D01*
G37*
%LPD*%
%LPC*%
G36*
X957999Y2141999D02*
X957999Y2141999D01*
X957999Y2172000D01*
X988001Y2172000D01*
X988001Y2164260D01*
X965740Y2141999D01*
X957999Y2141999D01*
G37*
%LPD*%
%LPC*%
G36*
X801999Y1087999D02*
X801999Y1087999D01*
X801999Y1095740D01*
X824260Y1118001D01*
X832000Y1118001D01*
X832000Y1087999D01*
X801999Y1087999D01*
G37*
%LPD*%
%LPC*%
G36*
X277999Y2551999D02*
X277999Y2551999D01*
X277999Y2582000D01*
X308001Y2582000D01*
X308001Y2574260D01*
X285740Y2551999D01*
X277999Y2551999D01*
G37*
%LPD*%
%LPC*%
G36*
X934260Y2141999D02*
X934260Y2141999D01*
X911999Y2164260D01*
X911999Y2172000D01*
X942000Y2172000D01*
X942000Y2141999D01*
X934260Y2141999D01*
G37*
%LPD*%
%LPC*%
G36*
X254260Y2551999D02*
X254260Y2551999D01*
X231999Y2574260D01*
X231999Y2582000D01*
X262000Y2582000D01*
X262000Y2551999D01*
X254260Y2551999D01*
G37*
%LPD*%
%LPC*%
G36*
X824260Y1041999D02*
X824260Y1041999D01*
X801999Y1064260D01*
X801999Y1072000D01*
X832000Y1072000D01*
X832000Y1041999D01*
X824260Y1041999D01*
G37*
%LPD*%
%LPC*%
G36*
X2374260Y1466999D02*
X2374260Y1466999D01*
X2351999Y1489260D01*
X2351999Y1497000D01*
X2382000Y1497000D01*
X2382000Y1466999D01*
X2374260Y1466999D01*
G37*
%LPD*%
%LPC*%
G36*
X1293858Y2028858D02*
X1293858Y2028858D01*
X1293858Y2058809D01*
X1294301Y2058739D01*
X1300246Y2056807D01*
X1305816Y2053969D01*
X1310873Y2050295D01*
X1315295Y2045873D01*
X1318969Y2040816D01*
X1321807Y2035246D01*
X1323739Y2029301D01*
X1323809Y2028858D01*
X1293858Y2028858D01*
G37*
%LPD*%
%LPC*%
G36*
X1246191Y2028858D02*
X1246191Y2028858D01*
X1246261Y2029301D01*
X1248193Y2035246D01*
X1251031Y2040816D01*
X1254705Y2045873D01*
X1259127Y2050295D01*
X1264183Y2053969D01*
X1269754Y2056807D01*
X1275699Y2058739D01*
X1276142Y2058809D01*
X1276142Y2028858D01*
X1246191Y2028858D01*
G37*
%LPD*%
%LPC*%
G36*
X1293858Y2011142D02*
X1293858Y2011142D01*
X1323809Y2011142D01*
X1323739Y2010699D01*
X1321807Y2004754D01*
X1318969Y1999183D01*
X1315295Y1994127D01*
X1310873Y1989705D01*
X1305816Y1986031D01*
X1300246Y1983193D01*
X1294301Y1981261D01*
X1293858Y1981191D01*
X1293858Y2011142D01*
G37*
%LPD*%
%LPC*%
G36*
X1275699Y1981261D02*
X1275699Y1981261D01*
X1269754Y1983193D01*
X1264183Y1986031D01*
X1259127Y1989705D01*
X1254705Y1994127D01*
X1251031Y1999183D01*
X1248193Y2004754D01*
X1246261Y2010699D01*
X1246191Y2011142D01*
X1276142Y2011142D01*
X1276142Y1981191D01*
X1275699Y1981261D01*
G37*
%LPD*%
%LPC*%
G36*
X2390904Y609999D02*
X2390904Y609999D01*
X2390904Y610001D01*
X2390907Y610001D01*
X2390907Y609999D01*
X2390904Y609999D01*
G37*
%LPD*%
%LPC*%
G36*
X139999Y2659999D02*
X139999Y2659999D01*
X139999Y2660001D01*
X140001Y2660001D01*
X140001Y2659999D01*
X139999Y2659999D01*
G37*
%LPD*%
%LPC*%
G36*
X1890904Y859999D02*
X1890904Y859999D01*
X1890904Y860001D01*
X1890907Y860001D01*
X1890907Y859999D01*
X1890904Y859999D01*
G37*
%LPD*%
%LPC*%
G36*
X1699999Y1394093D02*
X1699999Y1394093D01*
X1699999Y1394096D01*
X1700001Y1394096D01*
X1700001Y1394093D01*
X1699999Y1394093D01*
G37*
%LPD*%
D10*
X690000Y905000D03*
X790000Y905000D03*
X1165000Y915000D03*
X1265000Y915000D03*
D11*
X1700000Y1846850D03*
X1700000Y1512205D03*
X1700000Y1394094D03*
D12*
X143000Y2085000D02*
X87000Y2085000D01*
X87000Y1985000D02*
X143000Y1985000D01*
X143000Y1885000D02*
X87000Y1885000D01*
X87000Y1785000D02*
X143000Y1785000D01*
X143000Y1685000D02*
X87000Y1685000D01*
X87000Y1585000D02*
X143000Y1585000D01*
X143000Y1485000D02*
X87000Y1485000D01*
X87000Y1385000D02*
X143000Y1385000D01*
X387000Y1385000D02*
X443000Y1385000D01*
X443000Y1485000D02*
X387000Y1485000D01*
X387000Y1585000D02*
X443000Y1585000D01*
X443000Y1685000D02*
X387000Y1685000D01*
X387000Y1785000D02*
X443000Y1785000D01*
X443000Y1885000D02*
X387000Y1885000D01*
X387000Y1985000D02*
X443000Y1985000D01*
X443000Y2085000D02*
X387000Y2085000D01*
D13*
X1605000Y585000D03*
X1505000Y585000D03*
X1505000Y285000D03*
X1605000Y285000D03*
X1405000Y585000D03*
X1305000Y585000D03*
X1405000Y285000D03*
X1305000Y285000D03*
D14*
X2395000Y980000D03*
X2395000Y1080000D03*
D15*
X172000Y2460000D02*
X108000Y2460000D01*
X108000Y2560000D02*
X172000Y2560000D01*
X172000Y2660000D02*
X108000Y2660000D01*
X108000Y2760000D02*
X172000Y2760000D01*
D14*
X1160000Y2220000D03*
X795000Y2745000D03*
D16*
X605000Y1260000D03*
X205000Y1260000D03*
D17*
X2000000Y1650000D03*
X2400000Y1650000D03*
X1990000Y1280000D03*
X2390000Y1280000D03*
D18*
X1150000Y2345000D03*
X1150000Y2745000D03*
D19*
X905000Y2745000D03*
X905000Y2345000D03*
D16*
X455000Y775000D03*
X255000Y775000D03*
X355000Y675000D03*
D17*
X100000Y1050000D03*
X500000Y1050000D03*
D16*
X1780000Y1205000D03*
X1380000Y1205000D03*
X2390000Y1505000D03*
X1990000Y1505000D03*
D19*
X1190000Y1470000D03*
X1190000Y1070000D03*
D16*
X670000Y2425000D03*
X270000Y2425000D03*
D17*
X270000Y2590000D03*
X670000Y2590000D03*
X270000Y2765000D03*
X670000Y2765000D03*
D18*
X105000Y500000D03*
X105000Y900000D03*
D17*
X550000Y2180000D03*
X950000Y2180000D03*
D18*
X1350000Y1450000D03*
X1350000Y1850000D03*
X645000Y1560000D03*
X645000Y1960000D03*
D17*
X550000Y650000D03*
X950000Y650000D03*
D18*
X840000Y1080000D03*
X840000Y1480000D03*
X1000000Y990000D03*
X1000000Y1390000D03*
D11*
X1938150Y610000D03*
X2272795Y610000D03*
X2390906Y610000D03*
X1438150Y860000D03*
X1772795Y860000D03*
X1890906Y860000D03*
D20*
X1285000Y2620000D03*
D21*
X1285000Y2520000D03*
X1285000Y2420000D03*
X1285000Y2320000D03*
X1285000Y2220000D03*
X1285000Y2120000D03*
X1285000Y2020000D03*
X1585000Y2020000D03*
X1585000Y2120000D03*
X1585000Y2220000D03*
X1585000Y2320000D03*
X1585000Y2420000D03*
X1585000Y2520000D03*
X1585000Y2620000D03*
D22*
X2035827Y2115157D03*
X2035827Y2089567D03*
X2035827Y2063976D03*
X2035827Y2038386D03*
X2035827Y2012795D03*
X2035827Y1987205D03*
X2035827Y1961614D03*
X2035827Y1936024D03*
X2035827Y1910433D03*
X2035827Y1884843D03*
X2264173Y1884843D03*
X2264173Y1910433D03*
X2264173Y1936024D03*
X2264173Y1961614D03*
X2264173Y1987205D03*
X2264173Y2012795D03*
X2264173Y2038386D03*
X2264173Y2063976D03*
X2264173Y2089567D03*
X2264173Y2115157D03*
D23*
X1171299Y1625000D03*
D24*
X1171299Y1725000D03*
X1171299Y1825000D03*
X1171299Y1925000D03*
X858701Y1925000D03*
X858701Y1825000D03*
X858701Y1725000D03*
X858701Y1625000D03*
D25*
X2370591Y2608425D03*
D26*
X2370591Y2411575D03*
X1799724Y2608425D03*
X1799724Y2510000D03*
X1799724Y2411575D03*
D27*
X272000Y1928000D02*
X115000Y2085000D01*
X272000Y1928000D02*
X272000Y1280000D01*
X496000Y1056000D01*
X500000Y1050000D01*
X104000Y936000D02*
X104000Y904000D01*
X104000Y936000D02*
X40000Y1000000D01*
X40000Y1912000D01*
X112000Y1984000D01*
X104000Y904000D02*
X105000Y900000D01*
X112000Y1984000D02*
X115000Y1985000D01*
X112000Y504000D02*
X184000Y504000D01*
X355000Y675000D01*
X112000Y504000D02*
X105000Y500000D01*
X208000Y1016000D02*
X208000Y1256000D01*
X208000Y1016000D02*
X448000Y776000D01*
X208000Y1256000D02*
X205000Y1260000D01*
X448000Y776000D02*
X455000Y775000D01*
X200000Y1800000D02*
X115000Y1885000D01*
X200000Y1800000D02*
X200000Y1264000D01*
X205000Y1260000D01*
X455000Y775000D02*
X355000Y675000D01*
X416000Y1480000D02*
X448000Y1480000D01*
X648000Y1280000D01*
X648000Y928000D01*
X640000Y920000D01*
X640000Y888000D01*
X1240000Y288000D01*
X1304000Y288000D01*
X416000Y1480000D02*
X415000Y1485000D01*
X1304000Y288000D02*
X1305000Y285000D01*
X2008000Y2088000D02*
X2032000Y2088000D01*
X2008000Y2088000D02*
X1848000Y2248000D01*
X1848000Y2264000D02*
X1848000Y2456000D01*
X1848000Y2264000D02*
X1848000Y2248000D01*
X1848000Y2456000D02*
X1800000Y2504000D01*
X2032000Y2088000D02*
X2035827Y2089567D01*
X1800000Y2504000D02*
X1799724Y2510000D01*
X264000Y2592000D02*
X208000Y2592000D01*
X140000Y2660000D01*
X264000Y2592000D02*
X270000Y2590000D01*
X952000Y2176000D02*
X1128000Y2176000D01*
X1280000Y2024000D01*
X952000Y2176000D02*
X950000Y2180000D01*
X1280000Y2024000D02*
X1285000Y2020000D01*
X448000Y2584000D02*
X272000Y2584000D01*
X448000Y2584000D02*
X848000Y2184000D01*
X944000Y2184000D01*
X272000Y2584000D02*
X270000Y2590000D01*
X944000Y2184000D02*
X950000Y2180000D01*
X1528000Y2264000D02*
X1848000Y2264000D01*
X1528000Y2264000D02*
X1288000Y2024000D01*
X1285000Y2020000D01*
X840000Y1080000D02*
X840000Y1056000D01*
X696000Y912000D01*
X690000Y905000D01*
X840000Y1256000D02*
X416000Y1680000D01*
X840000Y1256000D02*
X840000Y1080000D01*
X416000Y1680000D02*
X415000Y1685000D01*
X2008000Y1912000D02*
X2032000Y1912000D01*
X2008000Y1912000D02*
X1896000Y1800000D01*
X1896000Y1160000D02*
X1896000Y864000D01*
X1896000Y1160000D02*
X1896000Y1800000D01*
X2032000Y1912000D02*
X2035827Y1910433D01*
X1896000Y864000D02*
X1890906Y860000D01*
X1704000Y1224000D02*
X1704000Y1392000D01*
X1704000Y1224000D02*
X1768000Y1160000D01*
X1896000Y1160000D01*
X1704000Y1392000D02*
X1700000Y1394094D01*
X1208000Y920000D02*
X1168000Y920000D01*
X1208000Y920000D02*
X1512000Y1224000D01*
X1704000Y1224000D01*
X1168000Y920000D02*
X1165000Y915000D01*
X416000Y1888000D02*
X544000Y2016000D01*
X544000Y2176000D01*
X416000Y1888000D02*
X415000Y1885000D01*
X544000Y2176000D02*
X550000Y2180000D01*
X776000Y1832000D02*
X856000Y1832000D01*
X776000Y1832000D02*
X648000Y1960000D01*
X856000Y1832000D02*
X858701Y1825000D01*
X648000Y1960000D02*
X645000Y1960000D01*
X1184000Y1416000D02*
X1184000Y1072000D01*
X1184000Y1416000D02*
X904000Y1696000D01*
X904000Y1784000D01*
X864000Y1824000D01*
X1184000Y1072000D02*
X1190000Y1070000D01*
X864000Y1824000D02*
X858701Y1825000D01*
X1352000Y1848000D02*
X1696000Y1848000D01*
X1352000Y1848000D02*
X1350000Y1850000D01*
X1696000Y1848000D02*
X1700000Y1846850D01*
X944000Y752000D02*
X944000Y656000D01*
X944000Y752000D02*
X792000Y904000D01*
X944000Y656000D02*
X950000Y650000D01*
X792000Y904000D02*
X790000Y905000D01*
X536000Y1784000D02*
X416000Y1784000D01*
X536000Y1784000D02*
X840000Y1480000D01*
X416000Y1784000D02*
X415000Y1785000D01*
X1000000Y1320000D02*
X1000000Y990000D01*
X1000000Y1320000D02*
X840000Y1480000D01*
X1448000Y288000D02*
X1504000Y288000D01*
X1448000Y288000D02*
X1408000Y288000D01*
X1405000Y285000D01*
X1504000Y288000D02*
X1505000Y285000D01*
X1440000Y608000D02*
X1440000Y856000D01*
X1440000Y608000D02*
X1448000Y600000D01*
X1448000Y288000D01*
X1440000Y856000D02*
X1438150Y860000D01*
X1512000Y592000D02*
X1600000Y592000D01*
X1512000Y592000D02*
X1505000Y585000D01*
X1600000Y592000D02*
X1605000Y585000D01*
X1624000Y608000D02*
X1936000Y608000D01*
X1624000Y608000D02*
X1608000Y592000D01*
X1936000Y608000D02*
X1938150Y610000D01*
X1608000Y592000D02*
X1605000Y585000D01*
X104000Y960000D02*
X104000Y1048000D01*
X104000Y960000D02*
X248000Y816000D01*
X248000Y776000D01*
X104000Y1048000D02*
X100000Y1050000D01*
X248000Y776000D02*
X255000Y775000D01*
X1176000Y1776000D02*
X1176000Y1824000D01*
X1176000Y1776000D02*
X1304000Y1648000D01*
X1304000Y1280000D01*
X1376000Y1208000D01*
X1176000Y1824000D02*
X1171299Y1825000D01*
X1376000Y1208000D02*
X1380000Y1205000D01*
X1176000Y1696000D02*
X1176000Y1720000D01*
X1176000Y1696000D02*
X1216000Y1656000D01*
X1216000Y1496000D01*
X1190000Y1470000D01*
X1176000Y1720000D02*
X1171299Y1725000D01*
X472000Y2424000D02*
X272000Y2424000D01*
X472000Y2424000D02*
X1168000Y1728000D01*
X272000Y2424000D02*
X270000Y2425000D01*
X1168000Y1728000D02*
X1171299Y1725000D01*
X672000Y2432000D02*
X672000Y2584000D01*
X672000Y2432000D02*
X670000Y2425000D01*
X672000Y2584000D02*
X670000Y2590000D01*
X672000Y2592000D02*
X672000Y2760000D01*
X670000Y2765000D01*
X672000Y2592000D02*
X670000Y2590000D01*
X2008000Y2040000D02*
X2032000Y2040000D01*
X2008000Y2040000D02*
X1816000Y1848000D01*
X1816000Y1240000D01*
X1784000Y1208000D01*
X2035827Y2038386D02*
X2032000Y2040000D01*
X1784000Y1208000D02*
X1780000Y1205000D01*
X2000000Y1552000D02*
X2000000Y1650000D01*
X2000000Y1552000D02*
X2392000Y1160000D01*
X2392000Y1080000D01*
X2395000Y1080000D01*
X2096000Y1280000D02*
X1990000Y1280000D01*
X2096000Y1280000D02*
X2392000Y984000D01*
X2395000Y980000D01*
X2264000Y2064000D02*
X2232000Y2064000D01*
X2216000Y2048000D01*
X2216000Y1448000D01*
X2384000Y1280000D01*
X2264173Y2063976D02*
X2264000Y2064000D01*
X2384000Y1280000D02*
X2390000Y1280000D01*
X2296000Y2088000D02*
X2272000Y2088000D01*
X2296000Y2088000D02*
X2400000Y1984000D01*
X2400000Y1650000D01*
X2272000Y2088000D02*
X2264173Y2089567D01*
X408000Y2088000D02*
X408000Y2192000D01*
X140000Y2460000D01*
X408000Y2088000D02*
X415000Y2085000D01*
X864000Y1720000D02*
X864000Y1680000D01*
X1000000Y1544000D01*
X1000000Y1390000D01*
X864000Y1720000D02*
X858701Y1725000D01*
X600000Y1288000D02*
X600000Y1264000D01*
X600000Y1288000D02*
X448000Y1440000D01*
X368000Y1440000D01*
X288000Y1520000D01*
X288000Y2216000D01*
X64000Y2440000D01*
X64000Y2488000D01*
X136000Y2560000D01*
X600000Y1264000D02*
X605000Y1260000D01*
X140000Y2560000D02*
X136000Y2560000D01*
X1304000Y712000D02*
X1304000Y592000D01*
X1304000Y712000D02*
X1120000Y896000D01*
X1120000Y936000D01*
X1344000Y1160000D01*
X1392000Y1160000D01*
X1424000Y1192000D01*
X1424000Y1672000D01*
X1176000Y1920000D01*
X1304000Y592000D02*
X1305000Y585000D01*
X1176000Y1920000D02*
X1171299Y1925000D01*
X2264000Y2016000D02*
X2264000Y2032000D01*
X2264000Y2016000D02*
X2264173Y2012795D01*
X2264000Y2032000D02*
X2264173Y2038386D01*
X2072000Y2016000D02*
X2040000Y2016000D01*
X2072000Y2016000D02*
X2080000Y2024000D01*
X2080000Y2104000D01*
X2072000Y2112000D01*
X2040000Y2112000D01*
X2040000Y2016000D02*
X2035827Y2012795D01*
X2040000Y2112000D02*
X2035827Y2115157D01*
X2072000Y2112000D02*
X2264000Y2112000D01*
X2264173Y2115157D01*
X2272000Y2016000D02*
X2296000Y2016000D01*
X2360000Y1952000D01*
X2360000Y1632000D01*
X2384000Y1608000D01*
X2416000Y1608000D01*
X2440000Y1632000D01*
X2440000Y1976000D01*
X2304000Y2112000D01*
X2272000Y2112000D01*
X2272000Y2016000D02*
X2264173Y2012795D01*
X2272000Y2112000D02*
X2264173Y2115157D01*
X264000Y2760000D02*
X140000Y2760000D01*
X264000Y2760000D02*
X270000Y2765000D01*
X1360000Y2624000D02*
X1584000Y2624000D01*
X1360000Y2624000D02*
X1240000Y2744000D01*
X1152000Y2744000D01*
X1584000Y2624000D02*
X1585000Y2620000D01*
X1152000Y2744000D02*
X1150000Y2745000D01*
X2032000Y2272000D02*
X2032000Y2120000D01*
X2032000Y2272000D02*
X1864000Y2440000D01*
X1864000Y2616000D01*
X1816000Y2664000D01*
X1632000Y2664000D01*
X1592000Y2624000D01*
X2032000Y2120000D02*
X2035827Y2115157D01*
X1592000Y2624000D02*
X1585000Y2620000D01*
X904000Y2752000D02*
X800000Y2752000D01*
X904000Y2752000D02*
X905000Y2745000D01*
X800000Y2752000D02*
X795000Y2745000D01*
X1032000Y2624000D02*
X1280000Y2624000D01*
X1032000Y2624000D02*
X912000Y2744000D01*
X1280000Y2624000D02*
X1285000Y2620000D01*
X912000Y2744000D02*
X905000Y2745000D01*
X1632000Y2608000D02*
X1792000Y2608000D01*
X1632000Y2608000D02*
X1600000Y2576000D01*
X1328000Y2576000D01*
X1288000Y2616000D01*
X1792000Y2608000D02*
X1799724Y2608425D01*
X1288000Y2616000D02*
X1285000Y2620000D01*
X1152000Y2392000D02*
X1152000Y2352000D01*
X1152000Y2392000D02*
X1280000Y2520000D01*
X1152000Y2352000D02*
X1150000Y2345000D01*
X1280000Y2520000D02*
X1285000Y2520000D01*
X1648000Y2416000D02*
X1792000Y2416000D01*
X1648000Y2416000D02*
X1592000Y2472000D01*
X1336000Y2472000D01*
X1288000Y2520000D01*
X1792000Y2416000D02*
X1799724Y2411575D01*
X1288000Y2520000D02*
X1285000Y2520000D01*
X1280000Y2416000D02*
X1280000Y2376000D01*
X1160000Y2256000D01*
X1160000Y2220000D01*
X1280000Y2416000D02*
X1285000Y2420000D01*
M02*
