G04 EAGLE Gerber X2 export*
%TF.Part,Single*%
%TF.FileFunction,Profile,NP*%
%TF.FilePolarity,Positive*%
%TF.GenerationSoftware,Autodesk,EAGLE,9.2.2*%
%TF.CreationDate,2019-11-14T03:52:34Z*%
G75*
%MOIN*%
%FSLAX36Y36*%
%LPD*%
%INBoard Outline*%
%AMOC8*
5,1,8,0,0,1.08239X$1,22.5*%
G01*
%ADD10C,0.010000*%


D10*
X0Y0D02*
X2500000Y0D01*
X2500000Y3200000D01*
X0Y3200000D01*
X0Y0D01*
X322500Y191870D02*
X322193Y185618D01*
X321579Y179388D01*
X320661Y173196D01*
X319439Y167056D01*
X317918Y160984D01*
X316101Y154993D01*
X313992Y149100D01*
X311597Y143316D01*
X308920Y137657D01*
X305969Y132137D01*
X302751Y126767D01*
X299273Y121562D01*
X295544Y116534D01*
X291573Y111695D01*
X287369Y107057D01*
X282943Y102631D01*
X278305Y98427D01*
X273466Y94456D01*
X268438Y90727D01*
X263233Y87249D01*
X257863Y84031D01*
X252343Y81080D01*
X246684Y78403D01*
X240900Y76008D01*
X235007Y73899D01*
X229016Y72082D01*
X222944Y70561D01*
X216804Y69339D01*
X210612Y68421D01*
X204382Y67807D01*
X198130Y67500D01*
X191870Y67500D01*
X185618Y67807D01*
X179388Y68421D01*
X173196Y69339D01*
X167056Y70561D01*
X160984Y72082D01*
X154993Y73899D01*
X149100Y76008D01*
X143316Y78403D01*
X137657Y81080D01*
X132137Y84031D01*
X126767Y87249D01*
X121562Y90727D01*
X116534Y94456D01*
X111695Y98427D01*
X107057Y102631D01*
X102631Y107057D01*
X98427Y111695D01*
X94456Y116534D01*
X90727Y121562D01*
X87249Y126767D01*
X84031Y132137D01*
X81080Y137657D01*
X78403Y143316D01*
X76008Y149100D01*
X73899Y154993D01*
X72082Y160984D01*
X70561Y167056D01*
X69339Y173196D01*
X68421Y179388D01*
X67807Y185618D01*
X67500Y191870D01*
X67500Y198130D01*
X67807Y204382D01*
X68421Y210612D01*
X69339Y216804D01*
X70561Y222944D01*
X72082Y229016D01*
X73899Y235007D01*
X76008Y240900D01*
X78403Y246684D01*
X81080Y252343D01*
X84031Y257863D01*
X87249Y263233D01*
X90727Y268438D01*
X94456Y273466D01*
X98427Y278305D01*
X102631Y282943D01*
X107057Y287369D01*
X111695Y291573D01*
X116534Y295544D01*
X121562Y299273D01*
X126767Y302751D01*
X132137Y305969D01*
X137657Y308920D01*
X143316Y311597D01*
X149100Y313992D01*
X154993Y316101D01*
X160984Y317918D01*
X167056Y319439D01*
X173196Y320661D01*
X179388Y321579D01*
X185618Y322193D01*
X191870Y322500D01*
X198130Y322500D01*
X204382Y322193D01*
X210612Y321579D01*
X216804Y320661D01*
X222944Y319439D01*
X229016Y317918D01*
X235007Y316101D01*
X240900Y313992D01*
X246684Y311597D01*
X252343Y308920D01*
X257863Y305969D01*
X263233Y302751D01*
X268438Y299273D01*
X273466Y295544D01*
X278305Y291573D01*
X282943Y287369D01*
X287369Y282943D01*
X291573Y278305D01*
X295544Y273466D01*
X299273Y268438D01*
X302751Y263233D01*
X305969Y257863D01*
X308920Y252343D01*
X311597Y246684D01*
X313992Y240900D01*
X316101Y235007D01*
X317918Y229016D01*
X319439Y222944D01*
X320661Y216804D01*
X321579Y210612D01*
X322193Y204382D01*
X322500Y198130D01*
X322500Y191870D01*
X2397500Y191870D02*
X2397193Y185618D01*
X2396579Y179388D01*
X2395661Y173196D01*
X2394439Y167056D01*
X2392918Y160984D01*
X2391101Y154993D01*
X2388992Y149100D01*
X2386597Y143316D01*
X2383920Y137657D01*
X2380969Y132137D01*
X2377751Y126767D01*
X2374273Y121562D01*
X2370544Y116534D01*
X2366573Y111695D01*
X2362369Y107057D01*
X2357943Y102631D01*
X2353305Y98427D01*
X2348466Y94456D01*
X2343438Y90727D01*
X2338233Y87249D01*
X2332863Y84031D01*
X2327343Y81080D01*
X2321684Y78403D01*
X2315900Y76008D01*
X2310007Y73899D01*
X2304016Y72082D01*
X2297944Y70561D01*
X2291804Y69339D01*
X2285612Y68421D01*
X2279382Y67807D01*
X2273130Y67500D01*
X2266870Y67500D01*
X2260618Y67807D01*
X2254388Y68421D01*
X2248196Y69339D01*
X2242056Y70561D01*
X2235984Y72082D01*
X2229993Y73899D01*
X2224100Y76008D01*
X2218316Y78403D01*
X2212657Y81080D01*
X2207137Y84031D01*
X2201767Y87249D01*
X2196562Y90727D01*
X2191534Y94456D01*
X2186695Y98427D01*
X2182057Y102631D01*
X2177631Y107057D01*
X2173427Y111695D01*
X2169456Y116534D01*
X2165727Y121562D01*
X2162249Y126767D01*
X2159031Y132137D01*
X2156080Y137657D01*
X2153403Y143316D01*
X2151008Y149100D01*
X2148899Y154993D01*
X2147082Y160984D01*
X2145561Y167056D01*
X2144339Y173196D01*
X2143421Y179388D01*
X2142807Y185618D01*
X2142500Y191870D01*
X2142500Y198130D01*
X2142807Y204382D01*
X2143421Y210612D01*
X2144339Y216804D01*
X2145561Y222944D01*
X2147082Y229016D01*
X2148899Y235007D01*
X2151008Y240900D01*
X2153403Y246684D01*
X2156080Y252343D01*
X2159031Y257863D01*
X2162249Y263233D01*
X2165727Y268438D01*
X2169456Y273466D01*
X2173427Y278305D01*
X2177631Y282943D01*
X2182057Y287369D01*
X2186695Y291573D01*
X2191534Y295544D01*
X2196562Y299273D01*
X2201767Y302751D01*
X2207137Y305969D01*
X2212657Y308920D01*
X2218316Y311597D01*
X2224100Y313992D01*
X2229993Y316101D01*
X2235984Y317918D01*
X2242056Y319439D01*
X2248196Y320661D01*
X2254388Y321579D01*
X2260618Y322193D01*
X2266870Y322500D01*
X2273130Y322500D01*
X2279382Y322193D01*
X2285612Y321579D01*
X2291804Y320661D01*
X2297944Y319439D01*
X2304016Y317918D01*
X2310007Y316101D01*
X2315900Y313992D01*
X2321684Y311597D01*
X2327343Y308920D01*
X2332863Y305969D01*
X2338233Y302751D01*
X2343438Y299273D01*
X2348466Y295544D01*
X2353305Y291573D01*
X2357943Y287369D01*
X2362369Y282943D01*
X2366573Y278305D01*
X2370544Y273466D01*
X2374273Y268438D01*
X2377751Y263233D01*
X2380969Y257863D01*
X2383920Y252343D01*
X2386597Y246684D01*
X2388992Y240900D01*
X2391101Y235007D01*
X2392918Y229016D01*
X2394439Y222944D01*
X2395661Y216804D01*
X2396579Y210612D01*
X2397193Y204382D01*
X2397500Y198130D01*
X2397500Y191870D01*
X322500Y3011870D02*
X322193Y3005618D01*
X321579Y2999388D01*
X320661Y2993196D01*
X319439Y2987056D01*
X317918Y2980984D01*
X316101Y2974993D01*
X313992Y2969100D01*
X311597Y2963316D01*
X308920Y2957657D01*
X305969Y2952137D01*
X302751Y2946767D01*
X299273Y2941562D01*
X295544Y2936534D01*
X291573Y2931695D01*
X287369Y2927057D01*
X282943Y2922631D01*
X278305Y2918427D01*
X273466Y2914456D01*
X268438Y2910727D01*
X263233Y2907249D01*
X257863Y2904031D01*
X252343Y2901080D01*
X246684Y2898403D01*
X240900Y2896008D01*
X235007Y2893899D01*
X229016Y2892082D01*
X222944Y2890561D01*
X216804Y2889339D01*
X210612Y2888421D01*
X204382Y2887807D01*
X198130Y2887500D01*
X191870Y2887500D01*
X185618Y2887807D01*
X179388Y2888421D01*
X173196Y2889339D01*
X167056Y2890561D01*
X160984Y2892082D01*
X154993Y2893899D01*
X149100Y2896008D01*
X143316Y2898403D01*
X137657Y2901080D01*
X132137Y2904031D01*
X126767Y2907249D01*
X121562Y2910727D01*
X116534Y2914456D01*
X111695Y2918427D01*
X107057Y2922631D01*
X102631Y2927057D01*
X98427Y2931695D01*
X94456Y2936534D01*
X90727Y2941562D01*
X87249Y2946767D01*
X84031Y2952137D01*
X81080Y2957657D01*
X78403Y2963316D01*
X76008Y2969100D01*
X73899Y2974993D01*
X72082Y2980984D01*
X70561Y2987056D01*
X69339Y2993196D01*
X68421Y2999388D01*
X67807Y3005618D01*
X67500Y3011870D01*
X67500Y3018130D01*
X67807Y3024382D01*
X68421Y3030612D01*
X69339Y3036804D01*
X70561Y3042944D01*
X72082Y3049016D01*
X73899Y3055007D01*
X76008Y3060900D01*
X78403Y3066684D01*
X81080Y3072343D01*
X84031Y3077863D01*
X87249Y3083233D01*
X90727Y3088438D01*
X94456Y3093466D01*
X98427Y3098305D01*
X102631Y3102943D01*
X107057Y3107369D01*
X111695Y3111573D01*
X116534Y3115544D01*
X121562Y3119273D01*
X126767Y3122751D01*
X132137Y3125969D01*
X137657Y3128920D01*
X143316Y3131597D01*
X149100Y3133992D01*
X154993Y3136101D01*
X160984Y3137918D01*
X167056Y3139439D01*
X173196Y3140661D01*
X179388Y3141579D01*
X185618Y3142193D01*
X191870Y3142500D01*
X198130Y3142500D01*
X204382Y3142193D01*
X210612Y3141579D01*
X216804Y3140661D01*
X222944Y3139439D01*
X229016Y3137918D01*
X235007Y3136101D01*
X240900Y3133992D01*
X246684Y3131597D01*
X252343Y3128920D01*
X257863Y3125969D01*
X263233Y3122751D01*
X268438Y3119273D01*
X273466Y3115544D01*
X278305Y3111573D01*
X282943Y3107369D01*
X287369Y3102943D01*
X291573Y3098305D01*
X295544Y3093466D01*
X299273Y3088438D01*
X302751Y3083233D01*
X305969Y3077863D01*
X308920Y3072343D01*
X311597Y3066684D01*
X313992Y3060900D01*
X316101Y3055007D01*
X317918Y3049016D01*
X319439Y3042944D01*
X320661Y3036804D01*
X321579Y3030612D01*
X322193Y3024382D01*
X322500Y3018130D01*
X322500Y3011870D01*
X2397500Y3011870D02*
X2397193Y3005618D01*
X2396579Y2999388D01*
X2395661Y2993196D01*
X2394439Y2987056D01*
X2392918Y2980984D01*
X2391101Y2974993D01*
X2388992Y2969100D01*
X2386597Y2963316D01*
X2383920Y2957657D01*
X2380969Y2952137D01*
X2377751Y2946767D01*
X2374273Y2941562D01*
X2370544Y2936534D01*
X2366573Y2931695D01*
X2362369Y2927057D01*
X2357943Y2922631D01*
X2353305Y2918427D01*
X2348466Y2914456D01*
X2343438Y2910727D01*
X2338233Y2907249D01*
X2332863Y2904031D01*
X2327343Y2901080D01*
X2321684Y2898403D01*
X2315900Y2896008D01*
X2310007Y2893899D01*
X2304016Y2892082D01*
X2297944Y2890561D01*
X2291804Y2889339D01*
X2285612Y2888421D01*
X2279382Y2887807D01*
X2273130Y2887500D01*
X2266870Y2887500D01*
X2260618Y2887807D01*
X2254388Y2888421D01*
X2248196Y2889339D01*
X2242056Y2890561D01*
X2235984Y2892082D01*
X2229993Y2893899D01*
X2224100Y2896008D01*
X2218316Y2898403D01*
X2212657Y2901080D01*
X2207137Y2904031D01*
X2201767Y2907249D01*
X2196562Y2910727D01*
X2191534Y2914456D01*
X2186695Y2918427D01*
X2182057Y2922631D01*
X2177631Y2927057D01*
X2173427Y2931695D01*
X2169456Y2936534D01*
X2165727Y2941562D01*
X2162249Y2946767D01*
X2159031Y2952137D01*
X2156080Y2957657D01*
X2153403Y2963316D01*
X2151008Y2969100D01*
X2148899Y2974993D01*
X2147082Y2980984D01*
X2145561Y2987056D01*
X2144339Y2993196D01*
X2143421Y2999388D01*
X2142807Y3005618D01*
X2142500Y3011870D01*
X2142500Y3018130D01*
X2142807Y3024382D01*
X2143421Y3030612D01*
X2144339Y3036804D01*
X2145561Y3042944D01*
X2147082Y3049016D01*
X2148899Y3055007D01*
X2151008Y3060900D01*
X2153403Y3066684D01*
X2156080Y3072343D01*
X2159031Y3077863D01*
X2162249Y3083233D01*
X2165727Y3088438D01*
X2169456Y3093466D01*
X2173427Y3098305D01*
X2177631Y3102943D01*
X2182057Y3107369D01*
X2186695Y3111573D01*
X2191534Y3115544D01*
X2196562Y3119273D01*
X2201767Y3122751D01*
X2207137Y3125969D01*
X2212657Y3128920D01*
X2218316Y3131597D01*
X2224100Y3133992D01*
X2229993Y3136101D01*
X2235984Y3137918D01*
X2242056Y3139439D01*
X2248196Y3140661D01*
X2254388Y3141579D01*
X2260618Y3142193D01*
X2266870Y3142500D01*
X2273130Y3142500D01*
X2279382Y3142193D01*
X2285612Y3141579D01*
X2291804Y3140661D01*
X2297944Y3139439D01*
X2304016Y3137918D01*
X2310007Y3136101D01*
X2315900Y3133992D01*
X2321684Y3131597D01*
X2327343Y3128920D01*
X2332863Y3125969D01*
X2338233Y3122751D01*
X2343438Y3119273D01*
X2348466Y3115544D01*
X2353305Y3111573D01*
X2357943Y3107369D01*
X2362369Y3102943D01*
X2366573Y3098305D01*
X2370544Y3093466D01*
X2374273Y3088438D01*
X2377751Y3083233D01*
X2380969Y3077863D01*
X2383920Y3072343D01*
X2386597Y3066684D01*
X2388992Y3060900D01*
X2391101Y3055007D01*
X2392918Y3049016D01*
X2394439Y3042944D01*
X2395661Y3036804D01*
X2396579Y3030612D01*
X2397193Y3024382D01*
X2397500Y3018130D01*
X2397500Y3011870D01*
X2146181Y2728645D02*
X2145920Y2724998D01*
X2145400Y2721379D01*
X2144623Y2717807D01*
X2143593Y2714299D01*
X2142315Y2710874D01*
X2140797Y2707548D01*
X2139045Y2704340D01*
X2137068Y2701264D01*
X2134877Y2698337D01*
X2132483Y2695574D01*
X2129898Y2692989D01*
X2127135Y2690595D01*
X2124208Y2688404D01*
X2121133Y2686428D01*
X2117924Y2684676D01*
X2114599Y2683157D01*
X2111173Y2681880D01*
X2107665Y2680850D01*
X2104093Y2680072D01*
X2100475Y2679552D01*
X2096828Y2679291D01*
X2093172Y2679291D01*
X2089525Y2679552D01*
X2085907Y2680072D01*
X2082335Y2680850D01*
X2078827Y2681880D01*
X2075401Y2683157D01*
X2072076Y2684676D01*
X2068867Y2686428D01*
X2065792Y2688404D01*
X2062865Y2690595D01*
X2060102Y2692989D01*
X2057517Y2695574D01*
X2055123Y2698337D01*
X2052932Y2701264D01*
X2050955Y2704340D01*
X2049203Y2707548D01*
X2047685Y2710874D01*
X2046407Y2714299D01*
X2045377Y2717807D01*
X2044600Y2721379D01*
X2044080Y2724998D01*
X2043819Y2728645D01*
X2043819Y2732300D01*
X2044080Y2735947D01*
X2044600Y2739566D01*
X2045377Y2743138D01*
X2046407Y2746646D01*
X2047685Y2750071D01*
X2049203Y2753397D01*
X2050955Y2756605D01*
X2052932Y2759681D01*
X2055123Y2762608D01*
X2057517Y2765370D01*
X2060102Y2767955D01*
X2062865Y2770350D01*
X2065792Y2772540D01*
X2068867Y2774517D01*
X2072076Y2776269D01*
X2075401Y2777788D01*
X2078827Y2779065D01*
X2082335Y2780095D01*
X2085907Y2780872D01*
X2089525Y2781393D01*
X2093172Y2781654D01*
X2096828Y2781654D01*
X2100475Y2781393D01*
X2104093Y2780872D01*
X2107665Y2780095D01*
X2111173Y2779065D01*
X2114599Y2777788D01*
X2117924Y2776269D01*
X2121133Y2774517D01*
X2124208Y2772540D01*
X2127135Y2770350D01*
X2129898Y2767955D01*
X2132483Y2765370D01*
X2134877Y2762608D01*
X2137068Y2759681D01*
X2139045Y2756605D01*
X2140797Y2753397D01*
X2142315Y2750071D01*
X2143593Y2746646D01*
X2144623Y2743138D01*
X2145400Y2739566D01*
X2145920Y2735947D01*
X2146181Y2732300D01*
X2146181Y2728645D01*
X2146181Y2287700D02*
X2145920Y2284053D01*
X2145400Y2280434D01*
X2144623Y2276862D01*
X2143593Y2273354D01*
X2142315Y2269929D01*
X2140797Y2266603D01*
X2139045Y2263395D01*
X2137068Y2260319D01*
X2134877Y2257392D01*
X2132483Y2254630D01*
X2129898Y2252045D01*
X2127135Y2249650D01*
X2124208Y2247460D01*
X2121133Y2245483D01*
X2117924Y2243731D01*
X2114599Y2242212D01*
X2111173Y2240935D01*
X2107665Y2239905D01*
X2104093Y2239128D01*
X2100475Y2238607D01*
X2096828Y2238346D01*
X2093172Y2238346D01*
X2089525Y2238607D01*
X2085907Y2239128D01*
X2082335Y2239905D01*
X2078827Y2240935D01*
X2075401Y2242212D01*
X2072076Y2243731D01*
X2068867Y2245483D01*
X2065792Y2247460D01*
X2062865Y2249650D01*
X2060102Y2252045D01*
X2057517Y2254630D01*
X2055123Y2257392D01*
X2052932Y2260319D01*
X2050955Y2263395D01*
X2049203Y2266603D01*
X2047685Y2269929D01*
X2046407Y2273354D01*
X2045377Y2276862D01*
X2044600Y2280434D01*
X2044080Y2284053D01*
X2043819Y2287700D01*
X2043819Y2291355D01*
X2044080Y2295002D01*
X2044600Y2298621D01*
X2045377Y2302193D01*
X2046407Y2305701D01*
X2047685Y2309126D01*
X2049203Y2312452D01*
X2050955Y2315660D01*
X2052932Y2318736D01*
X2055123Y2321663D01*
X2057517Y2324426D01*
X2060102Y2327011D01*
X2062865Y2329405D01*
X2065792Y2331596D01*
X2068867Y2333572D01*
X2072076Y2335324D01*
X2075401Y2336843D01*
X2078827Y2338120D01*
X2082335Y2339150D01*
X2085907Y2339928D01*
X2089525Y2340448D01*
X2093172Y2340709D01*
X2096828Y2340709D01*
X2100475Y2340448D01*
X2104093Y2339928D01*
X2107665Y2339150D01*
X2111173Y2338120D01*
X2114599Y2336843D01*
X2117924Y2335324D01*
X2121133Y2333572D01*
X2124208Y2331596D01*
X2127135Y2329405D01*
X2129898Y2327011D01*
X2132483Y2324426D01*
X2134877Y2321663D01*
X2137068Y2318736D01*
X2139045Y2315660D01*
X2140797Y2312452D01*
X2142315Y2309126D01*
X2143593Y2305701D01*
X2144623Y2302193D01*
X2145400Y2298621D01*
X2145920Y2295002D01*
X2146181Y2291355D01*
X2146181Y2287700D01*
M02*
