G04 EAGLE Gerber X2 export*
%TF.Part,Single*%
%TF.FileFunction,Copper,L2,Bot,Mixed*%
%TF.FilePolarity,Positive*%
%TF.GenerationSoftware,Autodesk,EAGLE,9.2.2*%
%TF.CreationDate,2019-11-14T03:52:34Z*%
G75*
%MOIN*%
%FSLAX36Y36*%
%LPD*%
%INBottom Copper Layer*%
%AMOC8*
5,1,8,0,0,1.08239X$1,22.5*%
G01*
%ADD10P,0.068191X8X22.500000*%
%ADD11C,0.067307*%
%ADD12C,0.056000*%
%ADD13C,0.056000*%
%ADD14C,0.074000*%
%ADD15C,0.064000*%
%ADD16P,0.060614X8X202.500000*%
%ADD17P,0.060614X8X22.500000*%
%ADD18P,0.060614X8X112.500000*%
%ADD19P,0.060614X8X292.500000*%
%ADD20R,0.059433X0.059433*%
%ADD21C,0.059433*%
%ADD22R,0.054709X0.054709*%
%ADD23C,0.054709*%
%ADD24R,0.071244X0.071244*%
%ADD25C,0.071244*%
%ADD26C,0.008000*%

G36*
X2480464Y15059D02*
X2480464Y15059D01*
X2480931Y15088D01*
X2481084Y15137D01*
X2481242Y15157D01*
X2481677Y15329D01*
X2482123Y15474D01*
X2482258Y15559D01*
X2482407Y15618D01*
X2482785Y15892D01*
X2483181Y16143D01*
X2483291Y16260D01*
X2483421Y16354D01*
X2483719Y16714D01*
X2484040Y17055D01*
X2484117Y17195D01*
X2484219Y17318D01*
X2484419Y17742D01*
X2484645Y18151D01*
X2484685Y18306D01*
X2484753Y18451D01*
X2484841Y18910D01*
X2484959Y19364D01*
X2484974Y19602D01*
X2484989Y19681D01*
X2484984Y19762D01*
X2484999Y20000D01*
X2484999Y3180000D01*
X2484941Y3180464D01*
X2484912Y3180931D01*
X2484862Y3181084D01*
X2484842Y3181242D01*
X2484670Y3181677D01*
X2484526Y3182123D01*
X2484440Y3182258D01*
X2484382Y3182407D01*
X2484107Y3182785D01*
X2483857Y3183181D01*
X2483740Y3183291D01*
X2483646Y3183421D01*
X2483286Y3183719D01*
X2482945Y3184040D01*
X2482805Y3184117D01*
X2482681Y3184219D01*
X2482258Y3184419D01*
X2481849Y3184645D01*
X2481694Y3184685D01*
X2481549Y3184753D01*
X2481090Y3184841D01*
X2480636Y3184959D01*
X2480398Y3184974D01*
X2480319Y3184989D01*
X2480238Y3184984D01*
X2480000Y3184999D01*
X20000Y3184999D01*
X19536Y3184941D01*
X19069Y3184912D01*
X18916Y3184862D01*
X18757Y3184842D01*
X18323Y3184670D01*
X17877Y3184526D01*
X17742Y3184440D01*
X17593Y3184382D01*
X17215Y3184107D01*
X16819Y3183857D01*
X16709Y3183740D01*
X16579Y3183646D01*
X16281Y3183286D01*
X15960Y3182945D01*
X15883Y3182805D01*
X15781Y3182681D01*
X15581Y3182258D01*
X15355Y3181849D01*
X15315Y3181694D01*
X15247Y3181549D01*
X15159Y3181090D01*
X15041Y3180636D01*
X15026Y3180398D01*
X15011Y3180319D01*
X15016Y3180238D01*
X15001Y3180000D01*
X15001Y1409698D01*
X15069Y1409155D01*
X15072Y1409128D01*
X15088Y1408863D01*
X15100Y1408826D01*
X15120Y1408611D01*
X15148Y1408535D01*
X15157Y1408456D01*
X15359Y1407947D01*
X15544Y1407432D01*
X15589Y1407366D01*
X15618Y1407291D01*
X15940Y1406848D01*
X16247Y1406396D01*
X16307Y1406343D01*
X16354Y1406278D01*
X16775Y1405929D01*
X17185Y1405567D01*
X17257Y1405530D01*
X17318Y1405479D01*
X17812Y1405246D01*
X18300Y1404997D01*
X18379Y1404979D01*
X18451Y1404945D01*
X18988Y1404842D01*
X19522Y1404722D01*
X19602Y1404724D01*
X19681Y1404709D01*
X20227Y1404743D01*
X20774Y1404759D01*
X20851Y1404781D01*
X20931Y1404786D01*
X21451Y1404955D01*
X21977Y1405107D01*
X22046Y1405147D01*
X22123Y1405172D01*
X22586Y1405465D01*
X23056Y1405742D01*
X23140Y1405815D01*
X23181Y1405842D01*
X23237Y1405901D01*
X23535Y1406163D01*
X62535Y1445163D01*
X62535Y1445164D01*
X62865Y1445494D01*
X63152Y1445863D01*
X63463Y1446215D01*
X63535Y1446357D01*
X63633Y1446483D01*
X63819Y1446912D01*
X64032Y1447330D01*
X64068Y1447486D01*
X64131Y1447632D01*
X64205Y1448095D01*
X64307Y1448552D01*
X64303Y1448711D01*
X64328Y1448869D01*
X64284Y1449335D01*
X64270Y1449803D01*
X64226Y1449957D01*
X64211Y1450116D01*
X64053Y1450556D01*
X63923Y1451007D01*
X63841Y1451144D01*
X63788Y1451294D01*
X63525Y1451682D01*
X63287Y1452086D01*
X63130Y1452264D01*
X63085Y1452331D01*
X63024Y1452385D01*
X62866Y1452564D01*
X53089Y1462342D01*
X46999Y1477043D01*
X46999Y1492957D01*
X53089Y1507658D01*
X64342Y1518911D01*
X79043Y1525001D01*
X150957Y1525001D01*
X165658Y1518911D01*
X176911Y1507658D01*
X183001Y1492957D01*
X183001Y1477043D01*
X181719Y1473949D01*
X181647Y1473684D01*
X181537Y1473432D01*
X181482Y1473083D01*
X181388Y1472741D01*
X181384Y1472466D01*
X181341Y1472196D01*
X181374Y1471844D01*
X181368Y1471489D01*
X181432Y1471222D01*
X181458Y1470949D01*
X181578Y1470616D01*
X181660Y1470271D01*
X181789Y1470029D01*
X181882Y1469770D01*
X182080Y1469477D01*
X182246Y1469164D01*
X182430Y1468961D01*
X182585Y1468734D01*
X182850Y1468500D01*
X183088Y1468237D01*
X183317Y1468086D01*
X183523Y1467905D01*
X183839Y1467743D01*
X184134Y1467549D01*
X184393Y1467460D01*
X184638Y1467335D01*
X184984Y1467257D01*
X185318Y1467142D01*
X185592Y1467120D01*
X185860Y1467060D01*
X186214Y1467070D01*
X186567Y1467042D01*
X186837Y1467089D01*
X187112Y1467097D01*
X187452Y1467195D01*
X187801Y1467256D01*
X188051Y1467368D01*
X188315Y1467445D01*
X188620Y1467624D01*
X188943Y1467769D01*
X189158Y1467941D01*
X189394Y1468080D01*
X189873Y1468501D01*
X366875Y1645504D01*
X367019Y1645689D01*
X367189Y1645849D01*
X367402Y1646182D01*
X367643Y1646493D01*
X367736Y1646708D01*
X367862Y1646905D01*
X367984Y1647281D01*
X368141Y1647643D01*
X368177Y1647873D01*
X368250Y1648096D01*
X368275Y1648490D01*
X368337Y1648879D01*
X368315Y1649112D01*
X368330Y1649346D01*
X368257Y1649733D01*
X368220Y1650126D01*
X368141Y1650346D01*
X368097Y1650576D01*
X367930Y1650933D01*
X367797Y1651305D01*
X367665Y1651499D01*
X367566Y1651710D01*
X367315Y1652015D01*
X367094Y1652341D01*
X366918Y1652496D01*
X366770Y1652677D01*
X366279Y1653083D01*
X362245Y1656014D01*
X358015Y1660244D01*
X354499Y1665083D01*
X351783Y1670413D01*
X349935Y1676101D01*
X349793Y1677000D01*
X411999Y1677000D01*
X412463Y1677059D01*
X412930Y1677088D01*
X413083Y1677137D01*
X413242Y1677157D01*
X413676Y1677329D01*
X414122Y1677474D01*
X414257Y1677559D01*
X414406Y1677618D01*
X414784Y1677892D01*
X415180Y1678143D01*
X415290Y1678260D01*
X415420Y1678354D01*
X415718Y1678714D01*
X416039Y1679055D01*
X416116Y1679195D01*
X416218Y1679318D01*
X416418Y1679741D01*
X416644Y1680151D01*
X416684Y1680306D01*
X416752Y1680451D01*
X416840Y1680910D01*
X416958Y1681364D01*
X416973Y1681602D01*
X416988Y1681681D01*
X416983Y1681762D01*
X416998Y1682000D01*
X416998Y1683001D01*
X418000Y1683001D01*
X418464Y1683060D01*
X418931Y1683089D01*
X419084Y1683138D01*
X419242Y1683158D01*
X419677Y1683330D01*
X420123Y1683475D01*
X420258Y1683560D01*
X420407Y1683619D01*
X420785Y1683893D01*
X421181Y1684144D01*
X421291Y1684261D01*
X421421Y1684355D01*
X421719Y1684715D01*
X422040Y1685056D01*
X422117Y1685196D01*
X422219Y1685319D01*
X422419Y1685742D01*
X422645Y1686152D01*
X422685Y1686307D01*
X422753Y1686452D01*
X422841Y1686911D01*
X422959Y1687365D01*
X422974Y1687603D01*
X422989Y1687682D01*
X422984Y1687763D01*
X422999Y1688001D01*
X422999Y1723000D01*
X445990Y1723001D01*
X451899Y1722065D01*
X457587Y1720217D01*
X462917Y1717501D01*
X464061Y1716669D01*
X464198Y1716594D01*
X464319Y1716494D01*
X464745Y1716293D01*
X465159Y1716066D01*
X465310Y1716027D01*
X465451Y1715960D01*
X465914Y1715872D01*
X466371Y1715754D01*
X466528Y1715754D01*
X466681Y1715725D01*
X467152Y1715754D01*
X467624Y1715753D01*
X467775Y1715792D01*
X467931Y1715802D01*
X468381Y1715947D01*
X468837Y1716064D01*
X468974Y1716139D01*
X469123Y1716187D01*
X469523Y1716440D01*
X469935Y1716667D01*
X470048Y1716773D01*
X470181Y1716857D01*
X470505Y1717201D01*
X470849Y1717523D01*
X470933Y1717655D01*
X471040Y1717769D01*
X471268Y1718181D01*
X471521Y1718580D01*
X471569Y1718728D01*
X471645Y1718865D01*
X471763Y1719322D01*
X471909Y1719770D01*
X471920Y1719926D01*
X471959Y1720077D01*
X471999Y1720714D01*
X471999Y1746234D01*
X471975Y1746427D01*
X471984Y1746622D01*
X471897Y1747046D01*
X471842Y1747476D01*
X471771Y1747657D01*
X471731Y1747848D01*
X471541Y1748238D01*
X471382Y1748641D01*
X471267Y1748798D01*
X471181Y1748974D01*
X470900Y1749304D01*
X470646Y1749654D01*
X470496Y1749778D01*
X470369Y1749927D01*
X470015Y1750177D01*
X469681Y1750453D01*
X469505Y1750536D01*
X469346Y1750648D01*
X468941Y1750802D01*
X468549Y1750987D01*
X468357Y1751023D01*
X468175Y1751093D01*
X467744Y1751141D01*
X467319Y1751223D01*
X467124Y1751211D01*
X466930Y1751232D01*
X466501Y1751172D01*
X466069Y1751145D01*
X465883Y1751085D01*
X465690Y1751058D01*
X465087Y1750852D01*
X450957Y1744999D01*
X379043Y1744999D01*
X364342Y1751089D01*
X353089Y1762342D01*
X346999Y1777043D01*
X346999Y1792957D01*
X353089Y1807658D01*
X364342Y1818911D01*
X379043Y1825001D01*
X450957Y1825001D01*
X465087Y1819148D01*
X465275Y1819096D01*
X465451Y1819013D01*
X465876Y1818932D01*
X466295Y1818817D01*
X466490Y1818814D01*
X466681Y1818777D01*
X467113Y1818804D01*
X467547Y1818797D01*
X467737Y1818843D01*
X467931Y1818855D01*
X468343Y1818988D01*
X468765Y1819089D01*
X468937Y1819180D01*
X469123Y1819240D01*
X469489Y1819472D01*
X469872Y1819674D01*
X470016Y1819805D01*
X470181Y1819910D01*
X470478Y1820225D01*
X470799Y1820516D01*
X470906Y1820680D01*
X471040Y1820821D01*
X471249Y1821201D01*
X471487Y1821563D01*
X471551Y1821747D01*
X471645Y1821918D01*
X471754Y1822338D01*
X471894Y1822747D01*
X471910Y1822941D01*
X471959Y1823130D01*
X471999Y1823766D01*
X471999Y1846234D01*
X471975Y1846427D01*
X471984Y1846622D01*
X471897Y1847046D01*
X471842Y1847476D01*
X471771Y1847657D01*
X471731Y1847848D01*
X471541Y1848238D01*
X471382Y1848641D01*
X471267Y1848798D01*
X471181Y1848974D01*
X470900Y1849304D01*
X470646Y1849654D01*
X470496Y1849778D01*
X470369Y1849927D01*
X470015Y1850177D01*
X469681Y1850453D01*
X469505Y1850536D01*
X469346Y1850648D01*
X468941Y1850802D01*
X468549Y1850987D01*
X468357Y1851023D01*
X468175Y1851093D01*
X467744Y1851141D01*
X467319Y1851223D01*
X467124Y1851211D01*
X466930Y1851232D01*
X466501Y1851172D01*
X466069Y1851145D01*
X465883Y1851085D01*
X465690Y1851058D01*
X465087Y1850852D01*
X450957Y1844999D01*
X379043Y1844999D01*
X364342Y1851089D01*
X353089Y1862342D01*
X346999Y1877043D01*
X346999Y1892957D01*
X353089Y1907658D01*
X364342Y1918911D01*
X379043Y1925001D01*
X440302Y1925001D01*
X440845Y1925069D01*
X441389Y1925120D01*
X441465Y1925147D01*
X441544Y1925157D01*
X442053Y1925359D01*
X442568Y1925544D01*
X442634Y1925589D01*
X442709Y1925618D01*
X443151Y1925940D01*
X443604Y1926247D01*
X443657Y1926307D01*
X443722Y1926354D01*
X444071Y1926776D01*
X444433Y1927185D01*
X444470Y1927257D01*
X444521Y1927318D01*
X444754Y1927813D01*
X445003Y1928300D01*
X445021Y1928379D01*
X445055Y1928451D01*
X445158Y1928988D01*
X445278Y1929522D01*
X445276Y1929602D01*
X445291Y1929681D01*
X445257Y1930227D01*
X445241Y1930774D01*
X445218Y1930851D01*
X445213Y1930931D01*
X445045Y1931451D01*
X444893Y1931977D01*
X444852Y1932047D01*
X444828Y1932123D01*
X444535Y1932585D01*
X444258Y1933056D01*
X444185Y1933140D01*
X444158Y1933181D01*
X444098Y1933237D01*
X443837Y1933535D01*
X433836Y1943535D01*
X433530Y1943773D01*
X433246Y1944040D01*
X433036Y1944156D01*
X432847Y1944303D01*
X432490Y1944457D01*
X432150Y1944645D01*
X431918Y1944705D01*
X431698Y1944800D01*
X431314Y1944861D01*
X430938Y1944959D01*
X430541Y1944984D01*
X430461Y1944997D01*
X430413Y1944992D01*
X430301Y1944999D01*
X379043Y1944999D01*
X364342Y1951089D01*
X353089Y1962342D01*
X346999Y1977043D01*
X346999Y1992957D01*
X353089Y2007658D01*
X364342Y2018911D01*
X379043Y2025001D01*
X450957Y2025001D01*
X465658Y2018911D01*
X476911Y2007658D01*
X483001Y1992957D01*
X483001Y1977043D01*
X476911Y1962341D01*
X472134Y1957564D01*
X471848Y1957195D01*
X471537Y1956844D01*
X471464Y1956701D01*
X471366Y1956575D01*
X471180Y1956146D01*
X470967Y1955729D01*
X470932Y1955573D01*
X470869Y1955426D01*
X470795Y1954964D01*
X470693Y1954507D01*
X470697Y1954347D01*
X470672Y1954189D01*
X470716Y1953724D01*
X470730Y1953255D01*
X470774Y1953101D01*
X470789Y1952942D01*
X470947Y1952502D01*
X471077Y1952052D01*
X471159Y1951914D01*
X471213Y1951763D01*
X471475Y1951376D01*
X471713Y1950973D01*
X471870Y1950794D01*
X471916Y1950727D01*
X471976Y1950674D01*
X472134Y1950494D01*
X504001Y1918628D01*
X504001Y1653000D01*
X504059Y1652536D01*
X504088Y1652069D01*
X504137Y1651916D01*
X504157Y1651757D01*
X504329Y1651323D01*
X504474Y1650877D01*
X504559Y1650742D01*
X504618Y1650593D01*
X504892Y1650215D01*
X505143Y1649819D01*
X505260Y1649709D01*
X505354Y1649579D01*
X505714Y1649281D01*
X506055Y1648960D01*
X506195Y1648883D01*
X506318Y1648781D01*
X506742Y1648581D01*
X507151Y1648355D01*
X507306Y1648315D01*
X507451Y1648247D01*
X507910Y1648159D01*
X508364Y1648041D01*
X508602Y1648026D01*
X508681Y1648011D01*
X508762Y1648016D01*
X509000Y1648001D01*
X574628Y1648001D01*
X621994Y1600634D01*
X622365Y1600346D01*
X622715Y1600037D01*
X622857Y1599964D01*
X622984Y1599866D01*
X623414Y1599680D01*
X623830Y1599467D01*
X623986Y1599432D01*
X624133Y1599368D01*
X624596Y1599295D01*
X625052Y1599192D01*
X625212Y1599197D01*
X625370Y1599172D01*
X625836Y1599216D01*
X626304Y1599230D01*
X626457Y1599274D01*
X626617Y1599289D01*
X627058Y1599448D01*
X627507Y1599577D01*
X627645Y1599658D01*
X627795Y1599713D01*
X628182Y1599975D01*
X628226Y1600001D01*
X661569Y1600001D01*
X684104Y1577465D01*
X684412Y1577226D01*
X684694Y1576960D01*
X684904Y1576844D01*
X685094Y1576697D01*
X685451Y1576543D01*
X685791Y1576355D01*
X686023Y1576295D01*
X686243Y1576200D01*
X686627Y1576139D01*
X687003Y1576041D01*
X687400Y1576016D01*
X687480Y1576003D01*
X687528Y1576008D01*
X687639Y1576001D01*
X849023Y1576001D01*
X849296Y1576035D01*
X849570Y1576031D01*
X849915Y1576113D01*
X850266Y1576157D01*
X850521Y1576258D01*
X850788Y1576322D01*
X851102Y1576488D01*
X851430Y1576618D01*
X851652Y1576779D01*
X851895Y1576908D01*
X852157Y1577146D01*
X852444Y1577354D01*
X852619Y1577566D01*
X852822Y1577750D01*
X853017Y1578046D01*
X853242Y1578318D01*
X853359Y1578567D01*
X853511Y1578796D01*
X853626Y1579131D01*
X853777Y1579451D01*
X853828Y1579721D01*
X853917Y1579981D01*
X853946Y1580333D01*
X854012Y1580681D01*
X853995Y1580955D01*
X854017Y1581229D01*
X853957Y1581578D01*
X853935Y1581931D01*
X853851Y1582193D01*
X853804Y1582463D01*
X853658Y1582786D01*
X853549Y1583123D01*
X853402Y1583355D01*
X853290Y1583605D01*
X853070Y1583881D01*
X852880Y1584181D01*
X852680Y1584370D01*
X852509Y1584584D01*
X852226Y1584797D01*
X851968Y1585040D01*
X851728Y1585172D01*
X851509Y1585338D01*
X850936Y1585619D01*
X836408Y1591636D01*
X825337Y1602707D01*
X819346Y1617172D01*
X819346Y1632828D01*
X825337Y1647293D01*
X836408Y1658364D01*
X850873Y1664355D01*
X866529Y1664355D01*
X880993Y1658364D01*
X892064Y1647293D01*
X898056Y1632828D01*
X898056Y1617172D01*
X892064Y1602707D01*
X880993Y1591636D01*
X866465Y1585619D01*
X866227Y1585483D01*
X865971Y1585382D01*
X865685Y1585173D01*
X865377Y1584998D01*
X865180Y1584807D01*
X864958Y1584646D01*
X864732Y1584373D01*
X864478Y1584127D01*
X864334Y1583893D01*
X864159Y1583681D01*
X864008Y1583362D01*
X863823Y1583059D01*
X863742Y1582797D01*
X863625Y1582549D01*
X863558Y1582201D01*
X863454Y1581863D01*
X863441Y1581588D01*
X863389Y1581319D01*
X863411Y1580965D01*
X863394Y1580612D01*
X863449Y1580343D01*
X863466Y1580069D01*
X863575Y1579732D01*
X863647Y1579385D01*
X863767Y1579139D01*
X863852Y1578877D01*
X864042Y1578577D01*
X864197Y1578260D01*
X864374Y1578052D01*
X864522Y1577819D01*
X864780Y1577576D01*
X865009Y1577307D01*
X865233Y1577148D01*
X865433Y1576960D01*
X865743Y1576789D01*
X866032Y1576585D01*
X866289Y1576488D01*
X866530Y1576355D01*
X866872Y1576266D01*
X867203Y1576141D01*
X867476Y1576110D01*
X867742Y1576041D01*
X868378Y1576001D01*
X1136549Y1576001D01*
X1137093Y1576069D01*
X1137637Y1576120D01*
X1137712Y1576147D01*
X1137792Y1576157D01*
X1138300Y1576359D01*
X1138815Y1576544D01*
X1138882Y1576589D01*
X1138956Y1576618D01*
X1139399Y1576940D01*
X1139852Y1577247D01*
X1139904Y1577307D01*
X1139970Y1577354D01*
X1140319Y1577776D01*
X1140681Y1578185D01*
X1140717Y1578257D01*
X1140768Y1578318D01*
X1141002Y1578813D01*
X1141251Y1579300D01*
X1141268Y1579379D01*
X1141302Y1579451D01*
X1141405Y1579988D01*
X1141525Y1580522D01*
X1141523Y1580602D01*
X1141538Y1580681D01*
X1141504Y1581227D01*
X1141488Y1581774D01*
X1141466Y1581851D01*
X1141461Y1581931D01*
X1141293Y1582451D01*
X1141141Y1582977D01*
X1141100Y1583047D01*
X1141075Y1583123D01*
X1140783Y1583585D01*
X1140505Y1584056D01*
X1140432Y1584140D01*
X1140406Y1584181D01*
X1140346Y1584237D01*
X1140084Y1584535D01*
X1131944Y1592675D01*
X1131944Y1657325D01*
X1138974Y1664355D01*
X1203624Y1664355D01*
X1210654Y1657325D01*
X1210654Y1592675D01*
X1203624Y1585645D01*
X1169053Y1585645D01*
X1168509Y1585576D01*
X1167965Y1585525D01*
X1167890Y1585498D01*
X1167810Y1585488D01*
X1167302Y1585287D01*
X1166787Y1585102D01*
X1166720Y1585057D01*
X1166646Y1585027D01*
X1166203Y1584706D01*
X1165750Y1584399D01*
X1165697Y1584339D01*
X1165632Y1584292D01*
X1165284Y1583871D01*
X1164921Y1583460D01*
X1164884Y1583389D01*
X1164833Y1583327D01*
X1164600Y1582833D01*
X1164351Y1582345D01*
X1164333Y1582267D01*
X1164299Y1582194D01*
X1164196Y1581657D01*
X1164076Y1581123D01*
X1164079Y1581043D01*
X1164063Y1580964D01*
X1164097Y1580419D01*
X1164114Y1579872D01*
X1164136Y1579795D01*
X1164141Y1579714D01*
X1164309Y1579195D01*
X1164461Y1578668D01*
X1164502Y1578599D01*
X1164526Y1578523D01*
X1164819Y1578060D01*
X1165096Y1577589D01*
X1165170Y1577506D01*
X1165196Y1577465D01*
X1165256Y1577408D01*
X1165518Y1577111D01*
X1177464Y1565164D01*
X1177465Y1565163D01*
X1269163Y1473465D01*
X1269471Y1473226D01*
X1269753Y1472960D01*
X1269963Y1472844D01*
X1270153Y1472697D01*
X1270510Y1472543D01*
X1270850Y1472355D01*
X1271082Y1472295D01*
X1271302Y1472200D01*
X1271686Y1472139D01*
X1272062Y1472041D01*
X1272459Y1472016D01*
X1272539Y1472003D01*
X1272587Y1472008D01*
X1272698Y1472001D01*
X1313360Y1472001D01*
X1313746Y1472049D01*
X1314135Y1472061D01*
X1314365Y1472127D01*
X1314603Y1472157D01*
X1314964Y1472300D01*
X1315338Y1472408D01*
X1315545Y1472530D01*
X1315767Y1472618D01*
X1316082Y1472846D01*
X1316417Y1473044D01*
X1316715Y1473306D01*
X1316781Y1473354D01*
X1316812Y1473391D01*
X1316896Y1473465D01*
X1333431Y1490001D01*
X1366569Y1490001D01*
X1390001Y1466569D01*
X1390001Y1433431D01*
X1366569Y1409999D01*
X1333431Y1409999D01*
X1309999Y1433431D01*
X1309999Y1435000D01*
X1309941Y1435464D01*
X1309912Y1435931D01*
X1309862Y1436084D01*
X1309842Y1436242D01*
X1309670Y1436677D01*
X1309526Y1437123D01*
X1309440Y1437258D01*
X1309382Y1437407D01*
X1309107Y1437785D01*
X1308857Y1438181D01*
X1308740Y1438291D01*
X1308646Y1438421D01*
X1308286Y1438719D01*
X1307945Y1439040D01*
X1307805Y1439117D01*
X1307681Y1439219D01*
X1307258Y1439419D01*
X1306849Y1439645D01*
X1306694Y1439685D01*
X1306549Y1439753D01*
X1306090Y1439841D01*
X1305636Y1439959D01*
X1305398Y1439974D01*
X1305319Y1439989D01*
X1305238Y1439984D01*
X1305000Y1439999D01*
X1257372Y1439999D01*
X1238535Y1458837D01*
X1238103Y1459172D01*
X1237681Y1459521D01*
X1237609Y1459555D01*
X1237545Y1459604D01*
X1237043Y1459822D01*
X1236549Y1460055D01*
X1236470Y1460070D01*
X1236396Y1460102D01*
X1235856Y1460188D01*
X1235319Y1460291D01*
X1235239Y1460286D01*
X1235159Y1460298D01*
X1234615Y1460247D01*
X1234069Y1460213D01*
X1233992Y1460189D01*
X1233913Y1460181D01*
X1233399Y1459997D01*
X1232877Y1459828D01*
X1232809Y1459785D01*
X1232734Y1459758D01*
X1232283Y1459452D01*
X1231819Y1459158D01*
X1231764Y1459100D01*
X1231697Y1459055D01*
X1231336Y1458645D01*
X1230960Y1458247D01*
X1230922Y1458177D01*
X1230868Y1458116D01*
X1230619Y1457628D01*
X1230355Y1457150D01*
X1230335Y1457073D01*
X1230298Y1457001D01*
X1230178Y1456465D01*
X1230041Y1455938D01*
X1230034Y1455827D01*
X1230023Y1455779D01*
X1230026Y1455698D01*
X1230001Y1455302D01*
X1230001Y1453431D01*
X1206569Y1429999D01*
X1173431Y1429999D01*
X1149999Y1453431D01*
X1149999Y1486569D01*
X1173431Y1510001D01*
X1175302Y1510001D01*
X1175845Y1510069D01*
X1176389Y1510120D01*
X1176465Y1510147D01*
X1176544Y1510157D01*
X1177053Y1510359D01*
X1177568Y1510544D01*
X1177634Y1510589D01*
X1177709Y1510618D01*
X1178151Y1510940D01*
X1178604Y1511247D01*
X1178657Y1511307D01*
X1178722Y1511354D01*
X1179071Y1511775D01*
X1179433Y1512185D01*
X1179470Y1512257D01*
X1179521Y1512318D01*
X1179753Y1512812D01*
X1180003Y1513300D01*
X1180021Y1513379D01*
X1180055Y1513451D01*
X1180158Y1513988D01*
X1180278Y1514522D01*
X1180276Y1514602D01*
X1180291Y1514681D01*
X1180257Y1515227D01*
X1180241Y1515774D01*
X1180218Y1515851D01*
X1180213Y1515931D01*
X1180045Y1516451D01*
X1179893Y1516977D01*
X1179852Y1517047D01*
X1179828Y1517123D01*
X1179535Y1517585D01*
X1179258Y1518056D01*
X1179185Y1518140D01*
X1179158Y1518181D01*
X1179099Y1518237D01*
X1178837Y1518535D01*
X1154836Y1542535D01*
X1154529Y1542773D01*
X1154246Y1543040D01*
X1154037Y1543156D01*
X1153847Y1543303D01*
X1153490Y1543457D01*
X1153150Y1543645D01*
X1152918Y1543705D01*
X1152698Y1543800D01*
X1152314Y1543861D01*
X1151938Y1543959D01*
X1151541Y1543984D01*
X1151461Y1543997D01*
X1151413Y1543992D01*
X1151301Y1543999D01*
X687639Y1543999D01*
X687254Y1543951D01*
X686865Y1543939D01*
X686635Y1543872D01*
X686397Y1543842D01*
X686036Y1543700D01*
X685662Y1543592D01*
X685455Y1543470D01*
X685232Y1543382D01*
X684918Y1543154D01*
X684583Y1542956D01*
X684284Y1542694D01*
X684219Y1542646D01*
X684188Y1542609D01*
X684104Y1542535D01*
X661569Y1519999D01*
X658698Y1519999D01*
X658155Y1519931D01*
X657611Y1519880D01*
X657535Y1519852D01*
X657456Y1519842D01*
X656947Y1519641D01*
X656432Y1519456D01*
X656366Y1519411D01*
X656291Y1519382D01*
X655848Y1519060D01*
X655396Y1518753D01*
X655343Y1518693D01*
X655278Y1518646D01*
X654929Y1518225D01*
X654567Y1517815D01*
X654530Y1517743D01*
X654479Y1517681D01*
X654246Y1517188D01*
X653997Y1516700D01*
X653979Y1516621D01*
X653945Y1516549D01*
X653842Y1516012D01*
X653722Y1515478D01*
X653724Y1515397D01*
X653709Y1515319D01*
X653743Y1514773D01*
X653759Y1514226D01*
X653781Y1514149D01*
X653786Y1514069D01*
X653955Y1513548D01*
X654107Y1513023D01*
X654147Y1512954D01*
X654172Y1512877D01*
X654465Y1512414D01*
X654742Y1511944D01*
X654815Y1511860D01*
X654842Y1511819D01*
X654901Y1511763D01*
X655163Y1511465D01*
X1224019Y942609D01*
X1224389Y942322D01*
X1224740Y942012D01*
X1224883Y941939D01*
X1225009Y941841D01*
X1225438Y941655D01*
X1225855Y941442D01*
X1226011Y941407D01*
X1226158Y941343D01*
X1226620Y941270D01*
X1227077Y941167D01*
X1227237Y941172D01*
X1227395Y941147D01*
X1227860Y941191D01*
X1228329Y941205D01*
X1228483Y941249D01*
X1228642Y941264D01*
X1229082Y941422D01*
X1229532Y941552D01*
X1229670Y941633D01*
X1229820Y941688D01*
X1230208Y941950D01*
X1230611Y942188D01*
X1230790Y942345D01*
X1230857Y942391D01*
X1230910Y942451D01*
X1231090Y942609D01*
X1246982Y958501D01*
X1283018Y958501D01*
X1308501Y933018D01*
X1308501Y896982D01*
X1283018Y871499D01*
X1246982Y871499D01*
X1221499Y896982D01*
X1221499Y899000D01*
X1221441Y899464D01*
X1221412Y899931D01*
X1221362Y900084D01*
X1221342Y900242D01*
X1221170Y900677D01*
X1221026Y901123D01*
X1220940Y901258D01*
X1220882Y901407D01*
X1220607Y901785D01*
X1220357Y902181D01*
X1220240Y902291D01*
X1220146Y902421D01*
X1219786Y902719D01*
X1219445Y903040D01*
X1219305Y903117D01*
X1219181Y903219D01*
X1218758Y903419D01*
X1218349Y903645D01*
X1218194Y903685D01*
X1218049Y903753D01*
X1217590Y903841D01*
X1217509Y903862D01*
X1215035Y906337D01*
X1214602Y906672D01*
X1214181Y907021D01*
X1214109Y907055D01*
X1214046Y907104D01*
X1213542Y907322D01*
X1213049Y907555D01*
X1212970Y907570D01*
X1212896Y907602D01*
X1212355Y907688D01*
X1211819Y907791D01*
X1211739Y907786D01*
X1211659Y907798D01*
X1211116Y907747D01*
X1210569Y907713D01*
X1210492Y907689D01*
X1210413Y907681D01*
X1209899Y907497D01*
X1209377Y907328D01*
X1209309Y907285D01*
X1209234Y907258D01*
X1208783Y906952D01*
X1208319Y906658D01*
X1208264Y906600D01*
X1208197Y906555D01*
X1207836Y906146D01*
X1207460Y905747D01*
X1207421Y905676D01*
X1207368Y905616D01*
X1207119Y905130D01*
X1206855Y904650D01*
X1206835Y904573D01*
X1206798Y904501D01*
X1206678Y903968D01*
X1206541Y903438D01*
X1206534Y903327D01*
X1206523Y903279D01*
X1206526Y903198D01*
X1206501Y902802D01*
X1206501Y897810D01*
X1182190Y873499D01*
X1172999Y873499D01*
X1172999Y911999D01*
X1172941Y912463D01*
X1172912Y912930D01*
X1172862Y913083D01*
X1172842Y913242D01*
X1172670Y913676D01*
X1172526Y914122D01*
X1172440Y914257D01*
X1172382Y914406D01*
X1172107Y914784D01*
X1171857Y915180D01*
X1171740Y915290D01*
X1171646Y915420D01*
X1171286Y915718D01*
X1170945Y916039D01*
X1170805Y916116D01*
X1170681Y916218D01*
X1170258Y916418D01*
X1169849Y916644D01*
X1169694Y916684D01*
X1169549Y916752D01*
X1169090Y916840D01*
X1168636Y916958D01*
X1168398Y916973D01*
X1168319Y916988D01*
X1168238Y916983D01*
X1168000Y916998D01*
X1166998Y916998D01*
X1166998Y918000D01*
X1166940Y918464D01*
X1166911Y918931D01*
X1166862Y919084D01*
X1166842Y919242D01*
X1166670Y919677D01*
X1166525Y920123D01*
X1166440Y920258D01*
X1166381Y920407D01*
X1166107Y920785D01*
X1165856Y921181D01*
X1165739Y921291D01*
X1165645Y921421D01*
X1165285Y921719D01*
X1164944Y922040D01*
X1164804Y922117D01*
X1164681Y922219D01*
X1164258Y922419D01*
X1163848Y922645D01*
X1163693Y922685D01*
X1163548Y922753D01*
X1163089Y922841D01*
X1162635Y922959D01*
X1162397Y922974D01*
X1162318Y922989D01*
X1162237Y922984D01*
X1161999Y922999D01*
X1123499Y922999D01*
X1123499Y932190D01*
X1147810Y956501D01*
X1152802Y956501D01*
X1153345Y956569D01*
X1153889Y956620D01*
X1153964Y956647D01*
X1154044Y956657D01*
X1154553Y956859D01*
X1155068Y957044D01*
X1155134Y957089D01*
X1155209Y957118D01*
X1155651Y957440D01*
X1156104Y957747D01*
X1156157Y957807D01*
X1156222Y957854D01*
X1156571Y958275D01*
X1156933Y958685D01*
X1156970Y958757D01*
X1157021Y958818D01*
X1157253Y959312D01*
X1157503Y959800D01*
X1157521Y959879D01*
X1157555Y959951D01*
X1157658Y960488D01*
X1157778Y961022D01*
X1157776Y961102D01*
X1157791Y961181D01*
X1157757Y961727D01*
X1157741Y962274D01*
X1157718Y962351D01*
X1157713Y962431D01*
X1157545Y962951D01*
X1157393Y963477D01*
X1157353Y963546D01*
X1157328Y963623D01*
X1157035Y964086D01*
X1156758Y964556D01*
X1156685Y964640D01*
X1156658Y964681D01*
X1156599Y964737D01*
X1156337Y965035D01*
X554836Y1566535D01*
X554529Y1566773D01*
X554246Y1567040D01*
X554037Y1567156D01*
X553847Y1567303D01*
X553490Y1567457D01*
X553150Y1567645D01*
X552918Y1567705D01*
X552698Y1567800D01*
X552314Y1567861D01*
X551938Y1567959D01*
X551541Y1567984D01*
X551461Y1567997D01*
X551413Y1567992D01*
X551301Y1567999D01*
X482595Y1567999D01*
X482480Y1567985D01*
X482366Y1567994D01*
X481861Y1567907D01*
X481352Y1567842D01*
X481245Y1567800D01*
X481132Y1567780D01*
X480664Y1567570D01*
X480188Y1567382D01*
X480095Y1567314D01*
X479990Y1567267D01*
X479589Y1566947D01*
X479174Y1566646D01*
X479101Y1566557D01*
X479011Y1566485D01*
X478702Y1566076D01*
X478376Y1565681D01*
X478327Y1565577D01*
X478257Y1565485D01*
X477976Y1564913D01*
X476911Y1562342D01*
X465658Y1551089D01*
X450957Y1544999D01*
X379043Y1544999D01*
X364342Y1551089D01*
X353089Y1562341D01*
X348888Y1572484D01*
X348791Y1572653D01*
X348725Y1572837D01*
X348483Y1573195D01*
X348268Y1573572D01*
X348132Y1573712D01*
X348022Y1573873D01*
X347698Y1574160D01*
X347396Y1574471D01*
X347230Y1574573D01*
X347084Y1574702D01*
X346698Y1574900D01*
X346329Y1575126D01*
X346142Y1575184D01*
X345969Y1575272D01*
X345546Y1575367D01*
X345132Y1575495D01*
X344937Y1575504D01*
X344747Y1575547D01*
X344313Y1575534D01*
X343881Y1575555D01*
X343690Y1575516D01*
X343495Y1575510D01*
X343078Y1575389D01*
X342655Y1575302D01*
X342480Y1575217D01*
X342292Y1575162D01*
X341919Y1574943D01*
X341529Y1574752D01*
X341381Y1574626D01*
X341213Y1574527D01*
X340734Y1574106D01*
X190628Y1423999D01*
X172639Y1423999D01*
X172096Y1423931D01*
X171552Y1423880D01*
X171477Y1423852D01*
X171397Y1423842D01*
X170888Y1423641D01*
X170373Y1423456D01*
X170307Y1423411D01*
X170232Y1423382D01*
X169790Y1423060D01*
X169337Y1422753D01*
X169284Y1422693D01*
X169219Y1422646D01*
X168870Y1422224D01*
X168508Y1421815D01*
X168471Y1421743D01*
X168420Y1421681D01*
X168187Y1421187D01*
X167938Y1420699D01*
X167920Y1420621D01*
X167886Y1420549D01*
X167783Y1420012D01*
X167663Y1419478D01*
X167665Y1419397D01*
X167650Y1419319D01*
X167684Y1418773D01*
X167700Y1418226D01*
X167723Y1418149D01*
X167728Y1418069D01*
X167896Y1417549D01*
X168048Y1417023D01*
X168089Y1416953D01*
X168113Y1416877D01*
X168406Y1416414D01*
X168683Y1415944D01*
X168757Y1415860D01*
X168783Y1415819D01*
X168843Y1415762D01*
X169104Y1415465D01*
X176911Y1407659D01*
X183001Y1392957D01*
X183001Y1377043D01*
X178805Y1366913D01*
X178753Y1366725D01*
X178670Y1366549D01*
X178588Y1366124D01*
X178474Y1365705D01*
X178471Y1365510D01*
X178434Y1365319D01*
X178461Y1364887D01*
X178454Y1364453D01*
X178499Y1364263D01*
X178511Y1364069D01*
X178645Y1363656D01*
X178746Y1363235D01*
X178837Y1363063D01*
X178897Y1362877D01*
X179129Y1362511D01*
X179331Y1362128D01*
X179462Y1361984D01*
X179567Y1361819D01*
X179882Y1361522D01*
X180173Y1361201D01*
X180336Y1361094D01*
X180478Y1360960D01*
X180857Y1360751D01*
X181219Y1360513D01*
X181404Y1360449D01*
X181575Y1360355D01*
X181995Y1360246D01*
X182404Y1360106D01*
X182598Y1360090D01*
X182787Y1360041D01*
X183423Y1360001D01*
X346577Y1360001D01*
X346770Y1360025D01*
X346965Y1360016D01*
X347389Y1360103D01*
X347819Y1360157D01*
X348000Y1360229D01*
X348191Y1360269D01*
X348581Y1360459D01*
X348984Y1360618D01*
X349141Y1360733D01*
X349317Y1360818D01*
X349647Y1361100D01*
X349997Y1361354D01*
X350121Y1361504D01*
X350270Y1361631D01*
X350520Y1361985D01*
X350796Y1362318D01*
X350879Y1362495D01*
X350991Y1362654D01*
X351145Y1363059D01*
X351330Y1363451D01*
X351367Y1363642D01*
X351436Y1363825D01*
X351484Y1364256D01*
X351566Y1364681D01*
X351554Y1364876D01*
X351575Y1365070D01*
X351515Y1365499D01*
X351488Y1365931D01*
X351428Y1366117D01*
X351401Y1366310D01*
X351195Y1366913D01*
X346999Y1377043D01*
X346999Y1392957D01*
X353089Y1407658D01*
X364342Y1418911D01*
X379043Y1425001D01*
X450957Y1425001D01*
X465658Y1418911D01*
X476911Y1407658D01*
X483001Y1392957D01*
X483001Y1377043D01*
X476911Y1362342D01*
X465658Y1351089D01*
X450957Y1344999D01*
X449698Y1344999D01*
X449155Y1344931D01*
X448611Y1344880D01*
X448535Y1344852D01*
X448456Y1344842D01*
X447947Y1344641D01*
X447432Y1344456D01*
X447366Y1344411D01*
X447291Y1344382D01*
X446848Y1344060D01*
X446396Y1343753D01*
X446343Y1343693D01*
X446278Y1343646D01*
X445929Y1343225D01*
X445567Y1342815D01*
X445530Y1342743D01*
X445479Y1342681D01*
X445245Y1342185D01*
X444997Y1341700D01*
X444979Y1341621D01*
X444945Y1341549D01*
X444842Y1341012D01*
X444722Y1340478D01*
X444724Y1340397D01*
X444709Y1340319D01*
X444743Y1339773D01*
X444759Y1339226D01*
X444781Y1339149D01*
X444786Y1339069D01*
X444955Y1338548D01*
X445107Y1338023D01*
X445147Y1337954D01*
X445172Y1337877D01*
X445465Y1337414D01*
X445742Y1336944D01*
X445815Y1336860D01*
X445842Y1336819D01*
X445901Y1336763D01*
X446163Y1336465D01*
X821163Y961465D01*
X821471Y961226D01*
X821753Y960960D01*
X821963Y960844D01*
X822153Y960697D01*
X822510Y960543D01*
X822850Y960355D01*
X823082Y960295D01*
X823302Y960200D01*
X823686Y960139D01*
X824062Y960041D01*
X824459Y960016D01*
X824539Y960003D01*
X824587Y960008D01*
X824698Y960001D01*
X961361Y960001D01*
X961904Y960069D01*
X962448Y960120D01*
X962524Y960147D01*
X962603Y960157D01*
X963111Y960358D01*
X963627Y960544D01*
X963693Y960589D01*
X963768Y960618D01*
X964210Y960939D01*
X964663Y961247D01*
X964716Y961307D01*
X964781Y961354D01*
X965130Y961776D01*
X965492Y962185D01*
X965529Y962257D01*
X965580Y962318D01*
X965813Y962813D01*
X966062Y963300D01*
X966080Y963379D01*
X966114Y963451D01*
X966217Y963989D01*
X966337Y964522D01*
X966335Y964602D01*
X966350Y964681D01*
X966316Y965227D01*
X966300Y965774D01*
X966277Y965851D01*
X966272Y965931D01*
X966104Y966451D01*
X965952Y966977D01*
X965911Y967047D01*
X965887Y967123D01*
X965594Y967585D01*
X965317Y968056D01*
X965243Y968140D01*
X965217Y968181D01*
X965157Y968237D01*
X964896Y968535D01*
X959999Y973431D01*
X959999Y1006569D01*
X983431Y1030001D01*
X1016569Y1030001D01*
X1040001Y1006569D01*
X1040001Y973431D01*
X1024134Y957564D01*
X1023847Y957195D01*
X1023537Y956844D01*
X1023464Y956701D01*
X1023366Y956575D01*
X1023180Y956146D01*
X1022967Y955729D01*
X1022932Y955572D01*
X1022868Y955426D01*
X1022795Y954964D01*
X1022692Y954507D01*
X1022697Y954347D01*
X1022672Y954189D01*
X1022716Y953724D01*
X1022730Y953255D01*
X1022774Y953101D01*
X1022789Y952942D01*
X1022947Y952502D01*
X1023077Y952052D01*
X1023159Y951914D01*
X1023213Y951763D01*
X1023475Y951376D01*
X1023713Y950973D01*
X1023870Y950794D01*
X1023916Y950727D01*
X1023977Y950673D01*
X1024134Y950494D01*
X1025464Y949164D01*
X1025465Y949163D01*
X1365163Y609465D01*
X1365471Y609226D01*
X1365753Y608960D01*
X1365963Y608844D01*
X1366153Y608697D01*
X1366510Y608543D01*
X1366850Y608355D01*
X1367082Y608295D01*
X1367302Y608200D01*
X1367686Y608139D01*
X1368062Y608041D01*
X1368459Y608016D01*
X1368539Y608003D01*
X1368587Y608008D01*
X1368698Y608001D01*
X1369360Y608001D01*
X1369746Y608049D01*
X1370134Y608061D01*
X1370365Y608127D01*
X1370603Y608157D01*
X1370964Y608300D01*
X1371337Y608408D01*
X1371544Y608530D01*
X1371767Y608618D01*
X1372082Y608846D01*
X1372417Y609044D01*
X1372715Y609306D01*
X1372781Y609354D01*
X1372812Y609391D01*
X1372895Y609465D01*
X1382342Y618911D01*
X1397043Y625001D01*
X1412957Y625001D01*
X1427658Y618911D01*
X1438911Y607658D01*
X1445001Y592957D01*
X1445001Y577043D01*
X1438911Y562342D01*
X1427658Y551089D01*
X1412957Y544999D01*
X1397043Y544999D01*
X1382342Y551089D01*
X1371089Y562342D01*
X1366710Y572913D01*
X1366653Y573013D01*
X1366617Y573123D01*
X1366343Y573557D01*
X1366090Y574001D01*
X1366010Y574083D01*
X1365948Y574181D01*
X1365574Y574533D01*
X1365218Y574901D01*
X1365120Y574961D01*
X1365036Y575040D01*
X1364588Y575287D01*
X1364151Y575555D01*
X1364040Y575589D01*
X1363940Y575645D01*
X1363443Y575773D01*
X1362954Y575924D01*
X1362839Y575930D01*
X1362727Y575959D01*
X1362091Y575999D01*
X1353372Y575999D01*
X1352437Y576934D01*
X1352283Y577054D01*
X1352152Y577198D01*
X1351791Y577436D01*
X1351448Y577702D01*
X1351269Y577780D01*
X1351106Y577887D01*
X1350697Y578027D01*
X1350299Y578200D01*
X1350106Y578230D01*
X1349922Y578293D01*
X1349490Y578328D01*
X1349062Y578396D01*
X1348868Y578378D01*
X1348673Y578393D01*
X1348246Y578319D01*
X1347815Y578279D01*
X1347632Y578213D01*
X1347439Y578180D01*
X1347044Y578002D01*
X1346636Y577856D01*
X1346475Y577746D01*
X1346297Y577666D01*
X1345959Y577396D01*
X1345600Y577153D01*
X1345471Y577006D01*
X1345318Y576885D01*
X1345058Y576539D01*
X1344771Y576214D01*
X1344682Y576040D01*
X1344565Y575885D01*
X1344284Y575312D01*
X1338911Y562341D01*
X1327658Y551089D01*
X1312957Y544999D01*
X1297043Y544999D01*
X1282342Y551089D01*
X1271089Y562342D01*
X1264999Y577043D01*
X1264999Y592957D01*
X1271089Y607658D01*
X1282341Y618911D01*
X1295312Y624284D01*
X1295482Y624380D01*
X1295665Y624446D01*
X1296023Y624689D01*
X1296400Y624904D01*
X1296541Y625040D01*
X1296702Y625149D01*
X1296988Y625473D01*
X1297300Y625775D01*
X1297402Y625942D01*
X1297531Y626088D01*
X1297728Y626473D01*
X1297955Y626843D01*
X1298012Y627029D01*
X1298101Y627203D01*
X1298196Y627626D01*
X1298323Y628040D01*
X1298333Y628234D01*
X1298376Y628425D01*
X1298363Y628858D01*
X1298383Y629290D01*
X1298344Y629481D01*
X1298338Y629676D01*
X1298218Y630093D01*
X1298131Y630517D01*
X1298045Y630692D01*
X1297991Y630880D01*
X1297771Y631253D01*
X1297581Y631642D01*
X1297454Y631791D01*
X1297355Y631959D01*
X1296934Y632437D01*
X1002836Y926535D01*
X1002529Y926773D01*
X1002246Y927040D01*
X1002037Y927156D01*
X1001847Y927303D01*
X1001490Y927457D01*
X1001150Y927645D01*
X1000918Y927705D01*
X1000698Y927800D01*
X1000314Y927861D01*
X999938Y927959D01*
X999541Y927984D01*
X999461Y927997D01*
X999413Y927992D01*
X999301Y927999D01*
X838500Y927999D01*
X838036Y927941D01*
X837569Y927912D01*
X837416Y927862D01*
X837257Y927842D01*
X836823Y927670D01*
X836377Y927526D01*
X836242Y927440D01*
X836093Y927382D01*
X835715Y927107D01*
X835319Y926857D01*
X835209Y926740D01*
X835079Y926646D01*
X834781Y926286D01*
X834460Y925945D01*
X834383Y925805D01*
X834281Y925681D01*
X834081Y925258D01*
X833855Y924849D01*
X833815Y924694D01*
X833747Y924549D01*
X833659Y924090D01*
X833541Y923636D01*
X833526Y923398D01*
X833511Y923319D01*
X833516Y923238D01*
X833501Y923000D01*
X833501Y886982D01*
X808018Y861499D01*
X771982Y861499D01*
X746499Y886982D01*
X746499Y923018D01*
X771982Y948501D01*
X776802Y948501D01*
X777345Y948569D01*
X777889Y948620D01*
X777964Y948647D01*
X778044Y948657D01*
X778553Y948859D01*
X779068Y949044D01*
X779134Y949089D01*
X779209Y949118D01*
X779651Y949440D01*
X780104Y949747D01*
X780157Y949807D01*
X780222Y949854D01*
X780571Y950275D01*
X780933Y950685D01*
X780970Y950757D01*
X781021Y950818D01*
X781253Y951312D01*
X781503Y951800D01*
X781521Y951879D01*
X781555Y951951D01*
X781658Y952488D01*
X781778Y953022D01*
X781776Y953102D01*
X781791Y953181D01*
X781757Y953727D01*
X781741Y954274D01*
X781718Y954351D01*
X781713Y954431D01*
X781545Y954951D01*
X781393Y955477D01*
X781353Y955546D01*
X781328Y955623D01*
X781035Y956086D01*
X780758Y956556D01*
X780685Y956640D01*
X780658Y956681D01*
X780599Y956737D01*
X780337Y957035D01*
X410836Y1326535D01*
X410529Y1326773D01*
X410246Y1327040D01*
X410037Y1327156D01*
X409847Y1327303D01*
X409490Y1327457D01*
X409150Y1327645D01*
X408918Y1327705D01*
X408698Y1327800D01*
X408314Y1327861D01*
X407938Y1327959D01*
X407541Y1327984D01*
X407461Y1327997D01*
X407413Y1327992D01*
X407301Y1327999D01*
X153372Y1327999D01*
X137837Y1343535D01*
X137530Y1343773D01*
X137247Y1344040D01*
X137037Y1344156D01*
X136847Y1344303D01*
X136490Y1344457D01*
X136150Y1344645D01*
X135918Y1344705D01*
X135698Y1344800D01*
X135314Y1344861D01*
X134938Y1344959D01*
X134541Y1344984D01*
X134461Y1344997D01*
X134413Y1344992D01*
X134302Y1344999D01*
X97698Y1344999D01*
X97155Y1344931D01*
X96611Y1344880D01*
X96535Y1344852D01*
X96456Y1344842D01*
X95947Y1344641D01*
X95432Y1344456D01*
X95366Y1344411D01*
X95291Y1344382D01*
X94848Y1344060D01*
X94396Y1343753D01*
X94343Y1343693D01*
X94278Y1343646D01*
X93929Y1343225D01*
X93567Y1342815D01*
X93530Y1342743D01*
X93479Y1342681D01*
X93245Y1342185D01*
X92997Y1341700D01*
X92979Y1341621D01*
X92945Y1341549D01*
X92842Y1341012D01*
X92722Y1340478D01*
X92724Y1340397D01*
X92709Y1340319D01*
X92743Y1339773D01*
X92759Y1339226D01*
X92781Y1339149D01*
X92786Y1339069D01*
X92955Y1338548D01*
X93107Y1338023D01*
X93147Y1337954D01*
X93172Y1337877D01*
X93465Y1337414D01*
X93742Y1336944D01*
X93815Y1336860D01*
X93842Y1336819D01*
X93901Y1336763D01*
X94163Y1336465D01*
X156465Y1274163D01*
X156898Y1273827D01*
X157319Y1273479D01*
X157391Y1273445D01*
X157454Y1273396D01*
X157957Y1273178D01*
X158451Y1272945D01*
X158530Y1272930D01*
X158604Y1272898D01*
X159144Y1272812D01*
X159681Y1272709D01*
X159761Y1272714D01*
X159841Y1272702D01*
X160384Y1272753D01*
X160931Y1272786D01*
X161008Y1272811D01*
X161087Y1272819D01*
X161601Y1273003D01*
X162123Y1273172D01*
X162191Y1273215D01*
X162266Y1273242D01*
X162717Y1273548D01*
X163181Y1273842D01*
X163236Y1273900D01*
X163302Y1273945D01*
X163664Y1274355D01*
X164040Y1274753D01*
X164078Y1274823D01*
X164132Y1274883D01*
X164381Y1275372D01*
X164645Y1275850D01*
X164665Y1275927D01*
X164702Y1275999D01*
X164781Y1276350D01*
X188431Y1300001D01*
X221569Y1300001D01*
X245001Y1276569D01*
X245001Y1243431D01*
X221383Y1219814D01*
X220947Y1219641D01*
X220432Y1219456D01*
X220366Y1219411D01*
X220291Y1219382D01*
X219848Y1219060D01*
X219396Y1218753D01*
X219343Y1218693D01*
X219278Y1218646D01*
X218929Y1218225D01*
X218567Y1217815D01*
X218530Y1217743D01*
X218479Y1217681D01*
X218246Y1217188D01*
X217997Y1216700D01*
X217979Y1216621D01*
X217945Y1216549D01*
X217842Y1216012D01*
X217722Y1215478D01*
X217724Y1215397D01*
X217709Y1215319D01*
X217743Y1214773D01*
X217759Y1214226D01*
X217781Y1214149D01*
X217786Y1214069D01*
X217955Y1213548D01*
X218107Y1213023D01*
X218147Y1212954D01*
X218172Y1212877D01*
X218465Y1212414D01*
X218742Y1211944D01*
X218815Y1211860D01*
X218842Y1211819D01*
X218901Y1211763D01*
X219163Y1211465D01*
X560001Y870628D01*
X560001Y695000D01*
X560059Y694536D01*
X560088Y694069D01*
X560137Y693916D01*
X560157Y693757D01*
X560329Y693323D01*
X560474Y692877D01*
X560559Y692742D01*
X560618Y692593D01*
X560892Y692215D01*
X561143Y691819D01*
X561260Y691709D01*
X561354Y691579D01*
X561714Y691281D01*
X562055Y690960D01*
X562195Y690883D01*
X562318Y690781D01*
X562742Y690581D01*
X563151Y690355D01*
X563306Y690315D01*
X563451Y690247D01*
X563910Y690159D01*
X564364Y690041D01*
X564602Y690026D01*
X564681Y690011D01*
X564762Y690016D01*
X565000Y690001D01*
X566569Y690001D01*
X590001Y666569D01*
X590001Y633431D01*
X566569Y609999D01*
X533431Y609999D01*
X509999Y633431D01*
X509999Y666569D01*
X526535Y683104D01*
X526773Y683411D01*
X527040Y683694D01*
X527156Y683904D01*
X527303Y684094D01*
X527457Y684451D01*
X527645Y684791D01*
X527705Y685023D01*
X527800Y685243D01*
X527861Y685627D01*
X527959Y686003D01*
X527984Y686400D01*
X527997Y686480D01*
X527992Y686528D01*
X527999Y686639D01*
X527999Y855301D01*
X527951Y855687D01*
X527939Y856076D01*
X527872Y856306D01*
X527842Y856544D01*
X527700Y856905D01*
X527592Y857279D01*
X527470Y857485D01*
X527382Y857708D01*
X527154Y858022D01*
X526956Y858358D01*
X526694Y858656D01*
X526646Y858722D01*
X526609Y858753D01*
X526535Y858836D01*
X34836Y1350535D01*
X23535Y1361837D01*
X23103Y1362172D01*
X22681Y1362521D01*
X22609Y1362555D01*
X22545Y1362604D01*
X22043Y1362822D01*
X21549Y1363055D01*
X21470Y1363070D01*
X21396Y1363102D01*
X20856Y1363188D01*
X20319Y1363291D01*
X20239Y1363286D01*
X20159Y1363298D01*
X19615Y1363247D01*
X19069Y1363213D01*
X18992Y1363189D01*
X18913Y1363181D01*
X18399Y1362997D01*
X17877Y1362828D01*
X17809Y1362785D01*
X17734Y1362758D01*
X17283Y1362452D01*
X16819Y1362158D01*
X16764Y1362100D01*
X16697Y1362055D01*
X16336Y1361645D01*
X15960Y1361247D01*
X15922Y1361177D01*
X15868Y1361116D01*
X15619Y1360628D01*
X15355Y1360150D01*
X15335Y1360073D01*
X15298Y1360001D01*
X15178Y1359468D01*
X15041Y1358938D01*
X15034Y1358827D01*
X15023Y1358779D01*
X15026Y1358698D01*
X15001Y1358302D01*
X15001Y20000D01*
X15059Y19536D01*
X15088Y19069D01*
X15137Y18916D01*
X15157Y18757D01*
X15329Y18323D01*
X15474Y17877D01*
X15559Y17742D01*
X15618Y17593D01*
X15892Y17215D01*
X16143Y16819D01*
X16260Y16709D01*
X16354Y16579D01*
X16714Y16281D01*
X17055Y15960D01*
X17195Y15883D01*
X17318Y15781D01*
X17742Y15581D01*
X18151Y15355D01*
X18306Y15315D01*
X18451Y15247D01*
X18910Y15159D01*
X19364Y15041D01*
X19602Y15026D01*
X19681Y15011D01*
X19762Y15016D01*
X20000Y15001D01*
X2480000Y15001D01*
X2480464Y15059D01*
G37*
%LPC*%
G36*
X1597043Y244999D02*
X1597043Y244999D01*
X1582342Y251089D01*
X1571089Y262342D01*
X1564999Y277043D01*
X1564999Y292957D01*
X1571089Y307659D01*
X1582535Y319104D01*
X1582773Y319411D01*
X1583040Y319695D01*
X1583156Y319905D01*
X1583303Y320094D01*
X1583457Y320451D01*
X1583645Y320791D01*
X1583705Y321023D01*
X1583800Y321243D01*
X1583861Y321627D01*
X1583959Y322003D01*
X1583984Y322400D01*
X1583997Y322480D01*
X1583992Y322528D01*
X1583999Y322640D01*
X1583999Y519301D01*
X1583951Y519687D01*
X1583939Y520076D01*
X1583872Y520306D01*
X1583842Y520544D01*
X1583700Y520905D01*
X1583592Y521279D01*
X1583470Y521485D01*
X1583382Y521708D01*
X1583153Y522023D01*
X1582956Y522358D01*
X1582694Y522656D01*
X1582646Y522722D01*
X1582609Y522753D01*
X1582535Y522836D01*
X1544506Y560866D01*
X1544135Y561154D01*
X1543785Y561463D01*
X1543643Y561535D01*
X1543516Y561634D01*
X1543086Y561820D01*
X1542670Y562032D01*
X1542514Y562068D01*
X1542367Y562131D01*
X1541905Y562205D01*
X1541448Y562307D01*
X1541288Y562303D01*
X1541130Y562328D01*
X1540665Y562284D01*
X1540196Y562270D01*
X1540042Y562226D01*
X1539883Y562211D01*
X1539444Y562053D01*
X1538993Y561923D01*
X1538855Y561841D01*
X1538704Y561787D01*
X1538318Y561525D01*
X1537914Y561287D01*
X1537735Y561130D01*
X1537668Y561084D01*
X1537614Y561023D01*
X1537435Y560866D01*
X1527659Y551089D01*
X1512957Y544999D01*
X1497043Y544999D01*
X1482342Y551089D01*
X1471089Y562342D01*
X1464999Y577043D01*
X1464999Y592957D01*
X1471089Y607658D01*
X1482342Y618911D01*
X1497043Y625001D01*
X1512957Y625001D01*
X1527778Y618861D01*
X1527897Y618769D01*
X1528319Y618420D01*
X1528391Y618386D01*
X1528454Y618337D01*
X1528958Y618119D01*
X1529451Y617886D01*
X1529530Y617871D01*
X1529603Y617839D01*
X1530145Y617753D01*
X1530681Y617650D01*
X1530761Y617655D01*
X1530840Y617643D01*
X1531384Y617694D01*
X1531931Y617728D01*
X1532007Y617752D01*
X1532087Y617760D01*
X1532601Y617944D01*
X1533123Y618113D01*
X1533190Y618156D01*
X1533266Y618183D01*
X1533717Y618489D01*
X1534181Y618783D01*
X1534236Y618841D01*
X1534302Y618886D01*
X1534664Y619296D01*
X1535040Y619694D01*
X1535078Y619764D01*
X1535131Y619824D01*
X1535380Y620312D01*
X1535645Y620791D01*
X1535665Y620868D01*
X1535701Y620939D01*
X1535821Y621473D01*
X1535959Y622003D01*
X1535966Y622114D01*
X1535976Y622161D01*
X1535974Y622243D01*
X1535999Y622639D01*
X1535999Y823301D01*
X1535951Y823687D01*
X1535939Y824076D01*
X1535872Y824306D01*
X1535842Y824544D01*
X1535700Y824905D01*
X1535592Y825279D01*
X1535470Y825485D01*
X1535382Y825708D01*
X1535153Y826023D01*
X1534956Y826358D01*
X1534694Y826656D01*
X1534646Y826722D01*
X1534609Y826753D01*
X1534535Y826836D01*
X1492338Y869034D01*
X1491905Y869370D01*
X1491484Y869718D01*
X1491412Y869752D01*
X1491349Y869801D01*
X1490846Y870019D01*
X1490352Y870252D01*
X1490273Y870267D01*
X1490199Y870299D01*
X1489659Y870385D01*
X1489122Y870488D01*
X1489042Y870483D01*
X1488962Y870495D01*
X1488419Y870444D01*
X1487872Y870410D01*
X1487795Y870386D01*
X1487716Y870378D01*
X1487202Y870194D01*
X1486680Y870025D01*
X1486612Y869982D01*
X1486537Y869955D01*
X1486086Y869649D01*
X1485622Y869355D01*
X1485567Y869297D01*
X1485501Y869252D01*
X1485139Y868842D01*
X1484763Y868444D01*
X1484725Y868374D01*
X1484671Y868313D01*
X1484422Y867825D01*
X1484158Y867347D01*
X1484138Y867270D01*
X1484102Y867198D01*
X1483982Y866665D01*
X1483844Y866135D01*
X1483837Y866023D01*
X1483827Y865976D01*
X1483829Y865895D01*
X1483804Y865499D01*
X1483804Y850919D01*
X1476853Y834139D01*
X1464010Y821296D01*
X1447231Y814346D01*
X1429068Y814346D01*
X1412289Y821296D01*
X1399446Y834139D01*
X1392495Y850919D01*
X1392495Y869081D01*
X1399446Y885861D01*
X1412289Y898704D01*
X1429068Y905654D01*
X1443648Y905654D01*
X1444192Y905723D01*
X1444735Y905774D01*
X1444811Y905801D01*
X1444891Y905811D01*
X1445400Y906012D01*
X1445914Y906197D01*
X1445981Y906242D01*
X1446055Y906272D01*
X1446498Y906593D01*
X1446951Y906900D01*
X1447004Y906960D01*
X1447069Y907008D01*
X1447417Y907428D01*
X1447780Y907839D01*
X1447816Y907910D01*
X1447867Y907972D01*
X1448100Y908465D01*
X1448350Y908954D01*
X1448367Y909032D01*
X1448401Y909105D01*
X1448504Y909641D01*
X1448625Y910176D01*
X1448622Y910256D01*
X1448637Y910335D01*
X1448603Y910880D01*
X1448587Y911428D01*
X1448565Y911505D01*
X1448560Y911585D01*
X1448392Y912105D01*
X1448240Y912631D01*
X1448199Y912700D01*
X1448174Y912776D01*
X1447881Y913240D01*
X1447604Y913710D01*
X1447531Y913793D01*
X1447505Y913835D01*
X1447445Y913891D01*
X1447183Y914188D01*
X1012836Y1348535D01*
X1012529Y1348773D01*
X1012246Y1349040D01*
X1012037Y1349156D01*
X1011847Y1349303D01*
X1011490Y1349457D01*
X1011150Y1349645D01*
X1010918Y1349705D01*
X1010698Y1349800D01*
X1010314Y1349861D01*
X1009938Y1349959D01*
X1009541Y1349984D01*
X1009461Y1349997D01*
X1009413Y1349992D01*
X1009301Y1349999D01*
X983431Y1349999D01*
X959999Y1373431D01*
X959999Y1406569D01*
X983431Y1430001D01*
X1016569Y1430001D01*
X1040001Y1406569D01*
X1040001Y1373393D01*
X1039847Y1373195D01*
X1039537Y1372844D01*
X1039464Y1372701D01*
X1039366Y1372575D01*
X1039180Y1372146D01*
X1038967Y1371729D01*
X1038932Y1371573D01*
X1038869Y1371426D01*
X1038795Y1370964D01*
X1038692Y1370507D01*
X1038697Y1370347D01*
X1038672Y1370189D01*
X1038716Y1369723D01*
X1038730Y1369255D01*
X1038774Y1369102D01*
X1038789Y1368942D01*
X1038947Y1368501D01*
X1039077Y1368052D01*
X1039158Y1367914D01*
X1039212Y1367764D01*
X1039475Y1367376D01*
X1039713Y1366973D01*
X1039870Y1366794D01*
X1039915Y1366727D01*
X1039976Y1366674D01*
X1040134Y1366494D01*
X1568001Y838628D01*
X1568001Y616639D01*
X1568069Y616096D01*
X1568120Y615552D01*
X1568147Y615476D01*
X1568157Y615397D01*
X1568358Y614889D01*
X1568544Y614373D01*
X1568589Y614307D01*
X1568618Y614232D01*
X1568939Y613790D01*
X1569247Y613337D01*
X1569307Y613284D01*
X1569354Y613219D01*
X1569776Y612870D01*
X1570185Y612508D01*
X1570257Y612471D01*
X1570318Y612420D01*
X1570813Y612187D01*
X1571300Y611938D01*
X1571379Y611920D01*
X1571451Y611886D01*
X1571989Y611783D01*
X1572522Y611663D01*
X1572602Y611665D01*
X1572681Y611650D01*
X1573227Y611684D01*
X1573774Y611700D01*
X1573851Y611723D01*
X1573931Y611728D01*
X1574451Y611896D01*
X1574977Y612048D01*
X1575047Y612089D01*
X1575123Y612113D01*
X1575585Y612406D01*
X1576056Y612683D01*
X1576140Y612757D01*
X1576181Y612783D01*
X1576237Y612843D01*
X1576535Y613104D01*
X1582341Y618911D01*
X1597043Y625001D01*
X1612957Y625001D01*
X1627658Y618911D01*
X1638911Y607658D01*
X1645001Y592957D01*
X1645001Y577043D01*
X1638911Y562342D01*
X1627658Y551089D01*
X1614688Y545716D01*
X1614518Y545620D01*
X1614335Y545554D01*
X1613976Y545311D01*
X1613600Y545096D01*
X1613460Y544960D01*
X1613298Y544851D01*
X1613012Y544526D01*
X1612700Y544225D01*
X1612598Y544058D01*
X1612469Y543912D01*
X1612272Y543527D01*
X1612045Y543157D01*
X1611988Y542970D01*
X1611899Y542797D01*
X1611804Y542374D01*
X1611676Y541960D01*
X1611667Y541766D01*
X1611624Y541575D01*
X1611637Y541142D01*
X1611617Y540709D01*
X1611656Y540519D01*
X1611662Y540323D01*
X1611782Y539907D01*
X1611869Y539483D01*
X1611955Y539308D01*
X1612009Y539120D01*
X1612229Y538747D01*
X1612419Y538358D01*
X1612546Y538209D01*
X1612645Y538041D01*
X1613066Y537563D01*
X1616001Y534628D01*
X1616001Y327080D01*
X1616015Y326966D01*
X1616006Y326851D01*
X1616093Y326346D01*
X1616157Y325838D01*
X1616200Y325731D01*
X1616219Y325617D01*
X1616430Y325149D01*
X1616618Y324673D01*
X1616686Y324580D01*
X1616733Y324475D01*
X1617053Y324074D01*
X1617354Y323660D01*
X1617443Y323586D01*
X1617515Y323496D01*
X1617923Y323188D01*
X1618318Y322861D01*
X1618423Y322812D01*
X1618515Y322742D01*
X1619087Y322461D01*
X1627658Y318911D01*
X1638911Y307658D01*
X1645001Y292957D01*
X1645001Y277043D01*
X1638911Y262342D01*
X1627658Y251089D01*
X1612957Y244999D01*
X1597043Y244999D01*
G37*
%LPD*%
%LPC*%
G36*
X176634Y2875499D02*
X176634Y2875499D01*
X141155Y2885006D01*
X109345Y2903371D01*
X83371Y2929345D01*
X65006Y2961155D01*
X55499Y2996634D01*
X55499Y3033366D01*
X65006Y3068845D01*
X83371Y3100655D01*
X109345Y3126628D01*
X141155Y3144994D01*
X176634Y3154501D01*
X213366Y3154501D01*
X248845Y3144994D01*
X280655Y3126628D01*
X306628Y3100655D01*
X324994Y3068845D01*
X334501Y3033366D01*
X334501Y2996634D01*
X324994Y2961155D01*
X306628Y2929345D01*
X280655Y2903371D01*
X248845Y2885006D01*
X213366Y2875499D01*
X176634Y2875499D01*
G37*
%LPD*%
%LPC*%
G36*
X2251634Y55499D02*
X2251634Y55499D01*
X2216155Y65006D01*
X2184345Y83371D01*
X2158371Y109345D01*
X2140006Y141155D01*
X2130499Y176634D01*
X2130499Y213366D01*
X2140006Y248845D01*
X2158371Y280655D01*
X2184345Y306628D01*
X2216155Y324994D01*
X2251634Y334501D01*
X2288366Y334501D01*
X2323845Y324994D01*
X2355655Y306628D01*
X2381628Y280655D01*
X2399994Y248845D01*
X2409501Y213366D01*
X2409501Y176634D01*
X2399994Y141155D01*
X2381628Y109345D01*
X2355655Y83371D01*
X2323845Y65006D01*
X2288366Y55499D01*
X2251634Y55499D01*
G37*
%LPD*%
%LPC*%
G36*
X176634Y55499D02*
X176634Y55499D01*
X141155Y65006D01*
X109345Y83371D01*
X83371Y109345D01*
X65006Y141155D01*
X55499Y176634D01*
X55499Y213366D01*
X65006Y248845D01*
X83371Y280655D01*
X109345Y306628D01*
X141155Y324994D01*
X176634Y334501D01*
X213366Y334501D01*
X248845Y324994D01*
X280655Y306628D01*
X306628Y280655D01*
X324994Y248845D01*
X334501Y213366D01*
X334501Y176634D01*
X324994Y141155D01*
X306628Y109345D01*
X280655Y83371D01*
X248845Y65006D01*
X213366Y55499D01*
X176634Y55499D01*
G37*
%LPD*%
%LPC*%
G36*
X2251634Y2875499D02*
X2251634Y2875499D01*
X2216155Y2885006D01*
X2184345Y2903371D01*
X2158371Y2929345D01*
X2140006Y2961155D01*
X2130499Y2996634D01*
X2130499Y3033366D01*
X2140006Y3068845D01*
X2158371Y3100655D01*
X2184345Y3126628D01*
X2216155Y3144994D01*
X2251634Y3154501D01*
X2288366Y3154501D01*
X2323845Y3144994D01*
X2355655Y3126628D01*
X2381628Y3100655D01*
X2399994Y3068845D01*
X2409501Y3033366D01*
X2409501Y2996634D01*
X2399994Y2961155D01*
X2381628Y2929345D01*
X2355655Y2903371D01*
X2323845Y2885006D01*
X2288366Y2875499D01*
X2251634Y2875499D01*
G37*
%LPD*%
%LPC*%
G36*
X850873Y1885645D02*
X850873Y1885645D01*
X836408Y1891636D01*
X825337Y1902707D01*
X819346Y1917172D01*
X819346Y1932828D01*
X825337Y1947293D01*
X836408Y1958364D01*
X845476Y1962120D01*
X845646Y1962216D01*
X845829Y1962282D01*
X846188Y1962526D01*
X846564Y1962740D01*
X846704Y1962876D01*
X846866Y1962985D01*
X847153Y1963310D01*
X847464Y1963611D01*
X847565Y1963777D01*
X847695Y1963924D01*
X847892Y1964310D01*
X848118Y1964679D01*
X848176Y1964865D01*
X848265Y1965039D01*
X848360Y1965462D01*
X848487Y1965876D01*
X848497Y1966070D01*
X848539Y1966261D01*
X848527Y1966694D01*
X848547Y1967127D01*
X848508Y1967317D01*
X848502Y1967513D01*
X848382Y1967929D01*
X848294Y1968353D01*
X848209Y1968528D01*
X848155Y1968716D01*
X847935Y1969089D01*
X847745Y1969478D01*
X847618Y1969627D01*
X847519Y1969795D01*
X847098Y1970273D01*
X290836Y2526535D01*
X290529Y2526773D01*
X290246Y2527040D01*
X290037Y2527156D01*
X289847Y2527303D01*
X289490Y2527457D01*
X289150Y2527645D01*
X288918Y2527705D01*
X288698Y2527800D01*
X288314Y2527861D01*
X287938Y2527959D01*
X287541Y2527984D01*
X287461Y2527997D01*
X287413Y2527992D01*
X287301Y2527999D01*
X204296Y2527999D01*
X203911Y2527951D01*
X203522Y2527939D01*
X203292Y2527872D01*
X203054Y2527842D01*
X202692Y2527699D01*
X202319Y2527592D01*
X202112Y2527470D01*
X201889Y2527382D01*
X201575Y2527153D01*
X201240Y2526956D01*
X200942Y2526694D01*
X200876Y2526646D01*
X200845Y2526608D01*
X200761Y2526535D01*
X196924Y2522698D01*
X180752Y2515999D01*
X99248Y2515999D01*
X83076Y2522698D01*
X70698Y2535076D01*
X63999Y2551248D01*
X63999Y2568752D01*
X70698Y2584924D01*
X83076Y2597302D01*
X99248Y2604001D01*
X180752Y2604001D01*
X196924Y2597302D01*
X209302Y2584924D01*
X216001Y2568752D01*
X216001Y2565000D01*
X216059Y2564536D01*
X216088Y2564069D01*
X216137Y2563916D01*
X216157Y2563757D01*
X216329Y2563323D01*
X216474Y2562877D01*
X216559Y2562742D01*
X216618Y2562593D01*
X216892Y2562215D01*
X217143Y2561819D01*
X217260Y2561709D01*
X217354Y2561579D01*
X217714Y2561281D01*
X218055Y2560960D01*
X218195Y2560883D01*
X218318Y2560781D01*
X218742Y2560581D01*
X219151Y2560355D01*
X219306Y2560315D01*
X219451Y2560247D01*
X219910Y2560159D01*
X220364Y2560041D01*
X220602Y2560026D01*
X220681Y2560011D01*
X220762Y2560016D01*
X221000Y2560001D01*
X234189Y2560001D01*
X234733Y2560069D01*
X235277Y2560120D01*
X235352Y2560147D01*
X235432Y2560157D01*
X235939Y2560358D01*
X236455Y2560544D01*
X236522Y2560589D01*
X236596Y2560618D01*
X237038Y2560939D01*
X237492Y2561247D01*
X237545Y2561307D01*
X237610Y2561354D01*
X237959Y2561776D01*
X238321Y2562185D01*
X238357Y2562257D01*
X238408Y2562318D01*
X238641Y2562812D01*
X238891Y2563300D01*
X238908Y2563379D01*
X238942Y2563451D01*
X239045Y2563989D01*
X239165Y2564522D01*
X239163Y2564602D01*
X239178Y2564681D01*
X239144Y2565227D01*
X239128Y2565774D01*
X239106Y2565851D01*
X239101Y2565931D01*
X238933Y2566451D01*
X238781Y2566977D01*
X238740Y2567047D01*
X238715Y2567123D01*
X238423Y2567585D01*
X238145Y2568056D01*
X238072Y2568140D01*
X238046Y2568181D01*
X237986Y2568237D01*
X237724Y2568535D01*
X231999Y2574260D01*
X231999Y2582000D01*
X266999Y2582000D01*
X267463Y2582059D01*
X267930Y2582088D01*
X268083Y2582137D01*
X268242Y2582157D01*
X268676Y2582329D01*
X269122Y2582474D01*
X269257Y2582559D01*
X269406Y2582618D01*
X269784Y2582892D01*
X269990Y2583022D01*
X270056Y2582960D01*
X270196Y2582883D01*
X270319Y2582781D01*
X270742Y2582581D01*
X271152Y2582355D01*
X271307Y2582315D01*
X271452Y2582246D01*
X271911Y2582158D01*
X272365Y2582041D01*
X272603Y2582026D01*
X272682Y2582011D01*
X272763Y2582016D01*
X273001Y2582000D01*
X308001Y2582000D01*
X308001Y2574260D01*
X301720Y2567979D01*
X301433Y2567609D01*
X301123Y2567258D01*
X301050Y2567116D01*
X300952Y2566989D01*
X300766Y2566560D01*
X300553Y2566143D01*
X300518Y2565987D01*
X300454Y2565840D01*
X300381Y2565378D01*
X300278Y2564921D01*
X300283Y2564761D01*
X300258Y2564603D01*
X300302Y2564138D01*
X300316Y2563670D01*
X300360Y2563516D01*
X300375Y2563356D01*
X300533Y2562917D01*
X300663Y2562466D01*
X300744Y2562328D01*
X300798Y2562178D01*
X301061Y2561791D01*
X301298Y2561387D01*
X301456Y2561208D01*
X301501Y2561141D01*
X301562Y2561087D01*
X301720Y2560909D01*
X313464Y2549164D01*
X313465Y2549163D01*
X917163Y1945465D01*
X917471Y1945226D01*
X917753Y1944960D01*
X917963Y1944844D01*
X918153Y1944697D01*
X918510Y1944543D01*
X918850Y1944355D01*
X919082Y1944295D01*
X919302Y1944200D01*
X919686Y1944139D01*
X920062Y1944041D01*
X920459Y1944016D01*
X920539Y1944003D01*
X920587Y1944008D01*
X920698Y1944001D01*
X1133232Y1944001D01*
X1133346Y1944015D01*
X1133461Y1944006D01*
X1133965Y1944093D01*
X1134474Y1944157D01*
X1134582Y1944200D01*
X1134695Y1944220D01*
X1135162Y1944430D01*
X1135639Y1944618D01*
X1135732Y1944686D01*
X1135837Y1944733D01*
X1136238Y1945054D01*
X1136652Y1945354D01*
X1136726Y1945443D01*
X1136816Y1945515D01*
X1137124Y1945924D01*
X1137451Y1946318D01*
X1137500Y1946423D01*
X1137570Y1946515D01*
X1137851Y1947087D01*
X1137936Y1947293D01*
X1149007Y1958364D01*
X1163471Y1964355D01*
X1179127Y1964355D01*
X1193592Y1958364D01*
X1204663Y1947293D01*
X1210654Y1932828D01*
X1210654Y1917172D01*
X1204663Y1902707D01*
X1193592Y1891636D01*
X1179127Y1885645D01*
X1163471Y1885645D01*
X1149007Y1891636D01*
X1137936Y1902707D01*
X1135365Y1908913D01*
X1135308Y1909013D01*
X1135273Y1909123D01*
X1134998Y1909557D01*
X1134745Y1910001D01*
X1134665Y1910083D01*
X1134603Y1910181D01*
X1134229Y1910533D01*
X1133873Y1910901D01*
X1133775Y1910961D01*
X1133691Y1911040D01*
X1133243Y1911287D01*
X1132806Y1911555D01*
X1132696Y1911589D01*
X1132595Y1911645D01*
X1132098Y1911773D01*
X1131609Y1911924D01*
X1131494Y1911930D01*
X1131383Y1911959D01*
X1130746Y1911999D01*
X905372Y1911999D01*
X903974Y1913397D01*
X903820Y1913517D01*
X903689Y1913661D01*
X903327Y1913899D01*
X902985Y1914165D01*
X902806Y1914243D01*
X902643Y1914350D01*
X902234Y1914490D01*
X901836Y1914663D01*
X901643Y1914693D01*
X901459Y1914757D01*
X901027Y1914791D01*
X900599Y1914859D01*
X900405Y1914841D01*
X900210Y1914856D01*
X899783Y1914782D01*
X899352Y1914742D01*
X899168Y1914676D01*
X898976Y1914643D01*
X898581Y1914465D01*
X898173Y1914319D01*
X898012Y1914209D01*
X897834Y1914129D01*
X897496Y1913859D01*
X897137Y1913616D01*
X897008Y1913469D01*
X896855Y1913348D01*
X896594Y1913001D01*
X896308Y1912677D01*
X896219Y1912504D01*
X896102Y1912348D01*
X895820Y1911775D01*
X892064Y1902707D01*
X880993Y1891636D01*
X866529Y1885645D01*
X850873Y1885645D01*
G37*
%LPD*%
%LPC*%
G36*
X888431Y2304999D02*
X888431Y2304999D01*
X864999Y2328431D01*
X864999Y2361569D01*
X888431Y2385001D01*
X891000Y2385001D01*
X891464Y2385059D01*
X891931Y2385088D01*
X892084Y2385137D01*
X892242Y2385157D01*
X892677Y2385329D01*
X893123Y2385474D01*
X893258Y2385559D01*
X893407Y2385618D01*
X893785Y2385892D01*
X894181Y2386143D01*
X894291Y2386260D01*
X894421Y2386354D01*
X894719Y2386714D01*
X895040Y2387055D01*
X895117Y2387195D01*
X895219Y2387318D01*
X895419Y2387742D01*
X895645Y2388151D01*
X895685Y2388306D01*
X895753Y2388451D01*
X895841Y2388910D01*
X895959Y2389364D01*
X895974Y2389602D01*
X895989Y2389681D01*
X895984Y2389762D01*
X895999Y2390000D01*
X895999Y2491000D01*
X895941Y2491464D01*
X895912Y2491931D01*
X895862Y2492084D01*
X895842Y2492242D01*
X895670Y2492677D01*
X895526Y2493123D01*
X895440Y2493258D01*
X895382Y2493407D01*
X895107Y2493785D01*
X894857Y2494181D01*
X894740Y2494291D01*
X894646Y2494421D01*
X894286Y2494719D01*
X893945Y2495040D01*
X893805Y2495117D01*
X893681Y2495219D01*
X893258Y2495419D01*
X892849Y2495645D01*
X892694Y2495685D01*
X892549Y2495753D01*
X892090Y2495841D01*
X891636Y2495959D01*
X891398Y2495974D01*
X891319Y2495989D01*
X891238Y2495984D01*
X891000Y2495999D01*
X857372Y2495999D01*
X610836Y2742535D01*
X610529Y2742773D01*
X610246Y2743040D01*
X610037Y2743156D01*
X609847Y2743303D01*
X609490Y2743457D01*
X609150Y2743645D01*
X608918Y2743705D01*
X608698Y2743800D01*
X608314Y2743861D01*
X607938Y2743959D01*
X607541Y2743984D01*
X607461Y2743997D01*
X607413Y2743992D01*
X607301Y2743999D01*
X307640Y2743999D01*
X307254Y2743951D01*
X306865Y2743939D01*
X306635Y2743872D01*
X306397Y2743842D01*
X306036Y2743700D01*
X305662Y2743592D01*
X305455Y2743470D01*
X305233Y2743382D01*
X304918Y2743153D01*
X304583Y2742956D01*
X304285Y2742694D01*
X304219Y2742646D01*
X304188Y2742609D01*
X304104Y2742535D01*
X286569Y2724999D01*
X253431Y2724999D01*
X229999Y2748431D01*
X229999Y2781569D01*
X253431Y2805001D01*
X286569Y2805001D01*
X310001Y2781569D01*
X310001Y2781000D01*
X310059Y2780536D01*
X310088Y2780069D01*
X310137Y2779916D01*
X310157Y2779757D01*
X310329Y2779323D01*
X310474Y2778877D01*
X310559Y2778742D01*
X310618Y2778593D01*
X310892Y2778215D01*
X311143Y2777819D01*
X311260Y2777709D01*
X311354Y2777579D01*
X311714Y2777281D01*
X312055Y2776960D01*
X312195Y2776883D01*
X312318Y2776781D01*
X312742Y2776581D01*
X313151Y2776355D01*
X313306Y2776315D01*
X313451Y2776247D01*
X313910Y2776159D01*
X314364Y2776041D01*
X314602Y2776026D01*
X314681Y2776011D01*
X314762Y2776016D01*
X315000Y2776001D01*
X623333Y2776001D01*
X623451Y2775945D01*
X623529Y2775930D01*
X623603Y2775898D01*
X624145Y2775812D01*
X624681Y2775709D01*
X624761Y2775714D01*
X624840Y2775702D01*
X625385Y2775753D01*
X625931Y2775786D01*
X626007Y2775811D01*
X626086Y2775818D01*
X626602Y2776003D01*
X627123Y2776172D01*
X627190Y2776215D01*
X627265Y2776242D01*
X627718Y2776549D01*
X628181Y2776842D01*
X628236Y2776900D01*
X628302Y2776944D01*
X628664Y2777354D01*
X629040Y2777753D01*
X629078Y2777823D01*
X629131Y2777883D01*
X629380Y2778370D01*
X629645Y2778850D01*
X629665Y2778927D01*
X629701Y2778998D01*
X629821Y2779530D01*
X629959Y2780062D01*
X629966Y2780173D01*
X629976Y2780219D01*
X629974Y2780300D01*
X629999Y2780698D01*
X629999Y2781569D01*
X653431Y2805001D01*
X686569Y2805001D01*
X710001Y2781569D01*
X710001Y2748431D01*
X686569Y2724999D01*
X685698Y2724999D01*
X685155Y2724931D01*
X684611Y2724880D01*
X684535Y2724852D01*
X684456Y2724842D01*
X683947Y2724641D01*
X683432Y2724456D01*
X683366Y2724411D01*
X683291Y2724382D01*
X682848Y2724060D01*
X682396Y2723753D01*
X682343Y2723693D01*
X682278Y2723646D01*
X681929Y2723225D01*
X681567Y2722815D01*
X681530Y2722743D01*
X681479Y2722681D01*
X681246Y2722188D01*
X680997Y2721700D01*
X680979Y2721621D01*
X680945Y2721549D01*
X680842Y2721012D01*
X680722Y2720478D01*
X680724Y2720397D01*
X680709Y2720319D01*
X680743Y2719773D01*
X680759Y2719226D01*
X680781Y2719149D01*
X680786Y2719069D01*
X680955Y2718548D01*
X681107Y2718023D01*
X681147Y2717954D01*
X681172Y2717877D01*
X681465Y2717414D01*
X681742Y2716944D01*
X681815Y2716860D01*
X681842Y2716819D01*
X681901Y2716763D01*
X682163Y2716465D01*
X869163Y2529465D01*
X869471Y2529226D01*
X869753Y2528960D01*
X869963Y2528844D01*
X870153Y2528697D01*
X870510Y2528543D01*
X870850Y2528355D01*
X871082Y2528295D01*
X871302Y2528200D01*
X871686Y2528139D01*
X872062Y2528041D01*
X872459Y2528016D01*
X872539Y2528003D01*
X872587Y2528008D01*
X872698Y2528001D01*
X903302Y2528001D01*
X903687Y2528049D01*
X904076Y2528061D01*
X904306Y2528127D01*
X904544Y2528157D01*
X904905Y2528300D01*
X905279Y2528408D01*
X905486Y2528530D01*
X905709Y2528618D01*
X906023Y2528846D01*
X906358Y2529044D01*
X906656Y2529306D01*
X906722Y2529354D01*
X906753Y2529391D01*
X906837Y2529465D01*
X1108535Y2731163D01*
X1108773Y2731471D01*
X1109040Y2731753D01*
X1109156Y2731963D01*
X1109303Y2732153D01*
X1109457Y2732510D01*
X1109645Y2732850D01*
X1109705Y2733082D01*
X1109800Y2733302D01*
X1109861Y2733686D01*
X1109959Y2734062D01*
X1109984Y2734459D01*
X1109997Y2734539D01*
X1109992Y2734587D01*
X1109999Y2734698D01*
X1109999Y2761569D01*
X1133431Y2785001D01*
X1166569Y2785001D01*
X1190001Y2761569D01*
X1190001Y2728431D01*
X1166569Y2704999D01*
X1133273Y2704999D01*
X1133202Y2705035D01*
X1133075Y2705134D01*
X1132646Y2705320D01*
X1132229Y2705533D01*
X1132073Y2705568D01*
X1131926Y2705631D01*
X1131464Y2705705D01*
X1131007Y2705807D01*
X1130847Y2705803D01*
X1130689Y2705828D01*
X1130223Y2705784D01*
X1129755Y2705770D01*
X1129602Y2705726D01*
X1129442Y2705711D01*
X1129002Y2705553D01*
X1128552Y2705423D01*
X1128414Y2705341D01*
X1128264Y2705287D01*
X1127876Y2705025D01*
X1127473Y2704787D01*
X1127294Y2704630D01*
X1127227Y2704585D01*
X1127174Y2704524D01*
X1126994Y2704366D01*
X929465Y2506837D01*
X929226Y2506529D01*
X928960Y2506247D01*
X928844Y2506037D01*
X928697Y2505847D01*
X928543Y2505490D01*
X928355Y2505150D01*
X928295Y2504918D01*
X928200Y2504698D01*
X928139Y2504314D01*
X928041Y2503938D01*
X928016Y2503541D01*
X928003Y2503461D01*
X928008Y2503413D01*
X928001Y2503302D01*
X928001Y2380640D01*
X928049Y2380254D01*
X928061Y2379865D01*
X928127Y2379635D01*
X928157Y2379397D01*
X928300Y2379036D01*
X928408Y2378662D01*
X928530Y2378455D01*
X928618Y2378233D01*
X928846Y2377918D01*
X929044Y2377583D01*
X929306Y2377285D01*
X929354Y2377219D01*
X929391Y2377188D01*
X929465Y2377104D01*
X945001Y2361569D01*
X945001Y2328431D01*
X921569Y2304999D01*
X888431Y2304999D01*
G37*
%LPD*%
%LPC*%
G36*
X1363431Y1164999D02*
X1363431Y1164999D01*
X1339999Y1188431D01*
X1339999Y1221569D01*
X1363431Y1245001D01*
X1396569Y1245001D01*
X1416104Y1225465D01*
X1416411Y1225227D01*
X1416694Y1224960D01*
X1416904Y1224844D01*
X1417094Y1224697D01*
X1417451Y1224543D01*
X1417791Y1224355D01*
X1418023Y1224295D01*
X1418243Y1224200D01*
X1418627Y1224139D01*
X1419003Y1224041D01*
X1419400Y1224016D01*
X1419480Y1224003D01*
X1419528Y1224008D01*
X1419639Y1224001D01*
X1575301Y1224001D01*
X1575687Y1224049D01*
X1576076Y1224061D01*
X1576306Y1224127D01*
X1576544Y1224157D01*
X1576905Y1224300D01*
X1577279Y1224408D01*
X1577485Y1224530D01*
X1577708Y1224618D01*
X1578023Y1224846D01*
X1578358Y1225044D01*
X1578656Y1225306D01*
X1578722Y1225354D01*
X1578753Y1225391D01*
X1578836Y1225465D01*
X1695883Y1342511D01*
X1695979Y1342635D01*
X1696096Y1342738D01*
X1696361Y1343127D01*
X1696651Y1343501D01*
X1696713Y1343644D01*
X1696801Y1343773D01*
X1696961Y1344217D01*
X1697148Y1344650D01*
X1697173Y1344804D01*
X1697226Y1344951D01*
X1697271Y1345421D01*
X1697345Y1345887D01*
X1697330Y1346042D01*
X1697345Y1346198D01*
X1697272Y1346664D01*
X1697228Y1347134D01*
X1697175Y1347281D01*
X1697151Y1347435D01*
X1696964Y1347868D01*
X1696804Y1348312D01*
X1696717Y1348442D01*
X1696655Y1348585D01*
X1696366Y1348958D01*
X1696101Y1349349D01*
X1695984Y1349452D01*
X1695889Y1349576D01*
X1695517Y1349865D01*
X1695163Y1350178D01*
X1695023Y1350249D01*
X1694900Y1350345D01*
X1694468Y1350533D01*
X1694048Y1350748D01*
X1693895Y1350782D01*
X1693752Y1350844D01*
X1693130Y1350984D01*
X1689777Y1351515D01*
X1683243Y1353638D01*
X1677120Y1356758D01*
X1671561Y1360797D01*
X1666702Y1365656D01*
X1662664Y1371215D01*
X1659544Y1377337D01*
X1657421Y1383872D01*
X1657385Y1384095D01*
X1694999Y1384095D01*
X1695464Y1384154D01*
X1695931Y1384183D01*
X1696083Y1384232D01*
X1696242Y1384252D01*
X1696677Y1384424D01*
X1697122Y1384568D01*
X1697258Y1384654D01*
X1697406Y1384713D01*
X1697784Y1384987D01*
X1698180Y1385238D01*
X1698290Y1385355D01*
X1698420Y1385449D01*
X1698718Y1385809D01*
X1699039Y1386149D01*
X1699117Y1386290D01*
X1699219Y1386413D01*
X1699418Y1386836D01*
X1699644Y1387246D01*
X1699684Y1387401D01*
X1699753Y1387546D01*
X1699841Y1388005D01*
X1699958Y1388458D01*
X1699973Y1388696D01*
X1699988Y1388776D01*
X1699983Y1388856D01*
X1699999Y1389094D01*
X1699999Y1394096D01*
X1705000Y1394096D01*
X1705464Y1394154D01*
X1705931Y1394183D01*
X1706083Y1394233D01*
X1706242Y1394253D01*
X1706677Y1394425D01*
X1707123Y1394569D01*
X1707258Y1394655D01*
X1707407Y1394713D01*
X1707785Y1394988D01*
X1708181Y1395238D01*
X1708291Y1395355D01*
X1708420Y1395449D01*
X1708719Y1395809D01*
X1709039Y1396150D01*
X1709117Y1396290D01*
X1709219Y1396414D01*
X1709418Y1396837D01*
X1709645Y1397246D01*
X1709685Y1397401D01*
X1709753Y1397546D01*
X1709841Y1398005D01*
X1709958Y1398459D01*
X1709974Y1398697D01*
X1709989Y1398776D01*
X1709984Y1398857D01*
X1709999Y1399095D01*
X1709999Y1436709D01*
X1710223Y1436674D01*
X1716757Y1434551D01*
X1722880Y1431431D01*
X1728439Y1427392D01*
X1733298Y1422533D01*
X1737336Y1416974D01*
X1740456Y1410852D01*
X1742579Y1404317D01*
X1743110Y1400964D01*
X1743154Y1400814D01*
X1743168Y1400659D01*
X1743328Y1400215D01*
X1743459Y1399762D01*
X1743539Y1399627D01*
X1743592Y1399480D01*
X1743857Y1399090D01*
X1744097Y1398684D01*
X1744207Y1398573D01*
X1744295Y1398444D01*
X1744648Y1398131D01*
X1744982Y1397798D01*
X1745116Y1397718D01*
X1745233Y1397615D01*
X1745654Y1397400D01*
X1746059Y1397160D01*
X1746209Y1397116D01*
X1746348Y1397045D01*
X1746809Y1396941D01*
X1747262Y1396809D01*
X1747418Y1396804D01*
X1747570Y1396770D01*
X1748041Y1396784D01*
X1748513Y1396769D01*
X1748666Y1396803D01*
X1748822Y1396807D01*
X1749275Y1396938D01*
X1749736Y1397041D01*
X1749875Y1397111D01*
X1750025Y1397155D01*
X1750432Y1397394D01*
X1750852Y1397608D01*
X1750970Y1397711D01*
X1751104Y1397790D01*
X1751583Y1398211D01*
X1873372Y1520001D01*
X1946360Y1520001D01*
X1946746Y1520049D01*
X1947134Y1520061D01*
X1947365Y1520127D01*
X1947603Y1520157D01*
X1947964Y1520300D01*
X1948338Y1520408D01*
X1948544Y1520530D01*
X1948767Y1520618D01*
X1949082Y1520846D01*
X1949417Y1521044D01*
X1949715Y1521306D01*
X1949781Y1521354D01*
X1949812Y1521391D01*
X1949895Y1521465D01*
X1973431Y1545001D01*
X2006569Y1545001D01*
X2030001Y1521569D01*
X2030001Y1488431D01*
X2006569Y1464999D01*
X1973431Y1464999D01*
X1951895Y1486535D01*
X1951588Y1486773D01*
X1951305Y1487040D01*
X1951095Y1487156D01*
X1950906Y1487303D01*
X1950549Y1487457D01*
X1950209Y1487645D01*
X1949977Y1487705D01*
X1949757Y1487800D01*
X1949373Y1487861D01*
X1948997Y1487959D01*
X1948600Y1487984D01*
X1948520Y1487997D01*
X1948472Y1487992D01*
X1948360Y1487999D01*
X1888698Y1487999D01*
X1888313Y1487951D01*
X1887924Y1487939D01*
X1887694Y1487872D01*
X1887456Y1487842D01*
X1887095Y1487700D01*
X1886721Y1487592D01*
X1886514Y1487470D01*
X1886291Y1487382D01*
X1885977Y1487153D01*
X1885642Y1486956D01*
X1885344Y1486694D01*
X1885278Y1486646D01*
X1885247Y1486609D01*
X1885163Y1486535D01*
X1590628Y1191999D01*
X1425000Y1191999D01*
X1424536Y1191941D01*
X1424069Y1191912D01*
X1423916Y1191862D01*
X1423757Y1191842D01*
X1423323Y1191670D01*
X1422877Y1191526D01*
X1422742Y1191440D01*
X1422593Y1191382D01*
X1422215Y1191107D01*
X1421819Y1190857D01*
X1421709Y1190740D01*
X1421579Y1190646D01*
X1421281Y1190286D01*
X1420960Y1189945D01*
X1420883Y1189805D01*
X1420781Y1189681D01*
X1420581Y1189258D01*
X1420355Y1188849D01*
X1420333Y1188764D01*
X1396569Y1164999D01*
X1363431Y1164999D01*
G37*
%LPD*%
%LPC*%
G36*
X850873Y1685645D02*
X850873Y1685645D01*
X836408Y1691636D01*
X825337Y1702707D01*
X822767Y1708913D01*
X822710Y1709013D01*
X822674Y1709123D01*
X822399Y1709557D01*
X822146Y1710001D01*
X822066Y1710083D01*
X822005Y1710181D01*
X821630Y1710533D01*
X821275Y1710901D01*
X821177Y1710961D01*
X821093Y1711040D01*
X820644Y1711287D01*
X820207Y1711555D01*
X820097Y1711589D01*
X819996Y1711645D01*
X819499Y1711773D01*
X819011Y1711924D01*
X818896Y1711930D01*
X818784Y1711959D01*
X818148Y1711999D01*
X809372Y1711999D01*
X471290Y2050081D01*
X471199Y2050152D01*
X471125Y2050240D01*
X470706Y2050534D01*
X470301Y2050849D01*
X470195Y2050895D01*
X470101Y2050961D01*
X469622Y2051143D01*
X469151Y2051347D01*
X469038Y2051365D01*
X468930Y2051406D01*
X468420Y2051463D01*
X467915Y2051543D01*
X467800Y2051532D01*
X467686Y2051545D01*
X467177Y2051474D01*
X466668Y2051426D01*
X466560Y2051387D01*
X466445Y2051371D01*
X465842Y2051165D01*
X450957Y2044999D01*
X379043Y2044999D01*
X364342Y2051089D01*
X353089Y2062342D01*
X346999Y2077043D01*
X346999Y2092957D01*
X353089Y2107658D01*
X364342Y2118911D01*
X379043Y2125001D01*
X450957Y2125001D01*
X465658Y2118911D01*
X476911Y2107658D01*
X483001Y2092957D01*
X483001Y2085698D01*
X483049Y2085313D01*
X483061Y2084924D01*
X483127Y2084694D01*
X483157Y2084456D01*
X483300Y2084095D01*
X483408Y2083721D01*
X483530Y2083514D01*
X483618Y2083291D01*
X483846Y2082977D01*
X484044Y2082642D01*
X484306Y2082344D01*
X484354Y2082278D01*
X484391Y2082247D01*
X484465Y2082163D01*
X596465Y1970163D01*
X596898Y1969827D01*
X597319Y1969479D01*
X597391Y1969445D01*
X597454Y1969396D01*
X597957Y1969178D01*
X598451Y1968945D01*
X598530Y1968930D01*
X598604Y1968898D01*
X599144Y1968812D01*
X599681Y1968709D01*
X599761Y1968714D01*
X599841Y1968702D01*
X600384Y1968753D01*
X600931Y1968786D01*
X601008Y1968811D01*
X601087Y1968819D01*
X601601Y1969003D01*
X602123Y1969172D01*
X602191Y1969215D01*
X602266Y1969242D01*
X602717Y1969548D01*
X603181Y1969842D01*
X603236Y1969900D01*
X603302Y1969945D01*
X603664Y1970355D01*
X604040Y1970753D01*
X604078Y1970823D01*
X604132Y1970883D01*
X604381Y1971372D01*
X604645Y1971850D01*
X604665Y1971927D01*
X604702Y1971999D01*
X604821Y1972530D01*
X604959Y1973062D01*
X604966Y1973173D01*
X604976Y1973220D01*
X604974Y1973302D01*
X604999Y1973698D01*
X604999Y1976569D01*
X628431Y2000001D01*
X661569Y2000001D01*
X685001Y1976569D01*
X685001Y1943431D01*
X661569Y1919999D01*
X658698Y1919999D01*
X658155Y1919931D01*
X657611Y1919880D01*
X657535Y1919852D01*
X657456Y1919842D01*
X656947Y1919641D01*
X656432Y1919456D01*
X656366Y1919411D01*
X656291Y1919382D01*
X655848Y1919060D01*
X655396Y1918753D01*
X655343Y1918693D01*
X655278Y1918646D01*
X654929Y1918225D01*
X654567Y1917815D01*
X654530Y1917743D01*
X654479Y1917681D01*
X654246Y1917188D01*
X653997Y1916700D01*
X653979Y1916621D01*
X653945Y1916549D01*
X653842Y1916012D01*
X653722Y1915478D01*
X653724Y1915397D01*
X653709Y1915319D01*
X653743Y1914773D01*
X653759Y1914226D01*
X653781Y1914149D01*
X653786Y1914069D01*
X653955Y1913548D01*
X654107Y1913023D01*
X654147Y1912954D01*
X654172Y1912877D01*
X654465Y1912414D01*
X654742Y1911944D01*
X654815Y1911860D01*
X654842Y1911819D01*
X654901Y1911763D01*
X655163Y1911465D01*
X818801Y1747827D01*
X819171Y1747540D01*
X819522Y1747230D01*
X819664Y1747157D01*
X819791Y1747059D01*
X820220Y1746873D01*
X820637Y1746660D01*
X820793Y1746625D01*
X820940Y1746562D01*
X821402Y1746488D01*
X821859Y1746385D01*
X822019Y1746390D01*
X822177Y1746365D01*
X822642Y1746409D01*
X823110Y1746423D01*
X823265Y1746467D01*
X823424Y1746482D01*
X823863Y1746640D01*
X824314Y1746770D01*
X824452Y1746852D01*
X824602Y1746906D01*
X824989Y1747168D01*
X825393Y1747406D01*
X825572Y1747563D01*
X825639Y1747609D01*
X825693Y1747669D01*
X825871Y1747827D01*
X836408Y1758363D01*
X850873Y1764355D01*
X866529Y1764355D01*
X880993Y1758364D01*
X892064Y1747293D01*
X898056Y1732828D01*
X898056Y1717172D01*
X892064Y1702707D01*
X880993Y1691636D01*
X866529Y1685645D01*
X850873Y1685645D01*
G37*
%LPD*%
%LPC*%
G36*
X1790252Y2363952D02*
X1790252Y2363952D01*
X1772748Y2371202D01*
X1759352Y2384599D01*
X1752102Y2402102D01*
X1752102Y2421047D01*
X1759352Y2438551D01*
X1772748Y2451947D01*
X1785728Y2457324D01*
X1785829Y2457382D01*
X1785941Y2457418D01*
X1786372Y2457691D01*
X1786815Y2457944D01*
X1786899Y2458025D01*
X1786999Y2458088D01*
X1787349Y2458460D01*
X1787715Y2458815D01*
X1787776Y2458915D01*
X1787857Y2459001D01*
X1788102Y2459447D01*
X1788370Y2459883D01*
X1788404Y2459995D01*
X1788461Y2460097D01*
X1788589Y2460592D01*
X1788739Y2461080D01*
X1788744Y2461196D01*
X1788774Y2461310D01*
X1788774Y2461822D01*
X1788799Y2462330D01*
X1788775Y2462445D01*
X1788775Y2462563D01*
X1788649Y2463057D01*
X1788546Y2463557D01*
X1788494Y2463662D01*
X1788465Y2463776D01*
X1788220Y2464223D01*
X1787996Y2464682D01*
X1787920Y2464772D01*
X1787864Y2464874D01*
X1787515Y2465247D01*
X1787184Y2465636D01*
X1787088Y2465703D01*
X1787008Y2465789D01*
X1786577Y2466063D01*
X1786160Y2466357D01*
X1786051Y2466399D01*
X1785952Y2466462D01*
X1785359Y2466697D01*
X1782211Y2467720D01*
X1775813Y2470980D01*
X1770003Y2475201D01*
X1764925Y2480279D01*
X1760704Y2486089D01*
X1757444Y2492487D01*
X1755225Y2499316D01*
X1755117Y2500001D01*
X1794724Y2500001D01*
X1795188Y2500059D01*
X1795655Y2500088D01*
X1795807Y2500138D01*
X1795966Y2500158D01*
X1796401Y2500330D01*
X1796847Y2500474D01*
X1796982Y2500560D01*
X1797131Y2500618D01*
X1797509Y2500893D01*
X1797905Y2501143D01*
X1798015Y2501260D01*
X1798144Y2501354D01*
X1798443Y2501714D01*
X1798764Y2502055D01*
X1798841Y2502195D01*
X1798943Y2502319D01*
X1799142Y2502742D01*
X1799369Y2503151D01*
X1799409Y2503306D01*
X1799477Y2503451D01*
X1799565Y2503910D01*
X1799682Y2504364D01*
X1799698Y2504602D01*
X1799713Y2504681D01*
X1799708Y2504762D01*
X1799723Y2505000D01*
X1799723Y2515000D01*
X1799664Y2515464D01*
X1799636Y2515931D01*
X1799586Y2516083D01*
X1799566Y2516242D01*
X1799394Y2516677D01*
X1799250Y2517123D01*
X1799164Y2517258D01*
X1799105Y2517407D01*
X1798831Y2517785D01*
X1798580Y2518181D01*
X1798464Y2518291D01*
X1798370Y2518420D01*
X1798010Y2518719D01*
X1797669Y2519039D01*
X1797529Y2519117D01*
X1797405Y2519219D01*
X1796982Y2519418D01*
X1796572Y2519645D01*
X1796417Y2519685D01*
X1796273Y2519753D01*
X1795814Y2519841D01*
X1795360Y2519958D01*
X1795122Y2519974D01*
X1795043Y2519989D01*
X1794962Y2519984D01*
X1794724Y2519999D01*
X1755117Y2519999D01*
X1755225Y2520684D01*
X1757444Y2527513D01*
X1760704Y2533911D01*
X1764925Y2539721D01*
X1770003Y2544799D01*
X1775813Y2549020D01*
X1782211Y2552280D01*
X1785359Y2553303D01*
X1785465Y2553353D01*
X1785579Y2553380D01*
X1786032Y2553619D01*
X1786492Y2553836D01*
X1786583Y2553911D01*
X1786686Y2553966D01*
X1787064Y2554309D01*
X1787458Y2554634D01*
X1787527Y2554729D01*
X1787613Y2554808D01*
X1787894Y2555234D01*
X1788194Y2555647D01*
X1788237Y2555756D01*
X1788302Y2555854D01*
X1788468Y2556336D01*
X1788656Y2556811D01*
X1788671Y2556928D01*
X1788709Y2557038D01*
X1788749Y2557546D01*
X1788814Y2558054D01*
X1788799Y2558170D01*
X1788808Y2558287D01*
X1788721Y2558790D01*
X1788658Y2559296D01*
X1788615Y2559405D01*
X1788595Y2559521D01*
X1788385Y2559986D01*
X1788198Y2560461D01*
X1788129Y2560556D01*
X1788081Y2560663D01*
X1787763Y2561061D01*
X1787463Y2561475D01*
X1787373Y2561550D01*
X1787300Y2561641D01*
X1786893Y2561948D01*
X1786499Y2562275D01*
X1786393Y2562325D01*
X1786300Y2562395D01*
X1785728Y2562676D01*
X1772748Y2568052D01*
X1759352Y2581449D01*
X1752102Y2598952D01*
X1752102Y2617898D01*
X1759352Y2635401D01*
X1772748Y2648798D01*
X1790252Y2656048D01*
X1809197Y2656048D01*
X1826700Y2648798D01*
X1840097Y2635401D01*
X1847347Y2617898D01*
X1847347Y2598952D01*
X1840097Y2581449D01*
X1826700Y2568052D01*
X1813721Y2562676D01*
X1813619Y2562618D01*
X1813508Y2562582D01*
X1813076Y2562309D01*
X1812633Y2562056D01*
X1812549Y2561975D01*
X1812450Y2561912D01*
X1812100Y2561539D01*
X1811734Y2561185D01*
X1811672Y2561084D01*
X1811592Y2560999D01*
X1811346Y2560553D01*
X1811079Y2560117D01*
X1811044Y2560005D01*
X1810988Y2559902D01*
X1810860Y2559407D01*
X1810710Y2558920D01*
X1810704Y2558804D01*
X1810675Y2558690D01*
X1810674Y2558178D01*
X1810650Y2557669D01*
X1810674Y2557555D01*
X1810674Y2557437D01*
X1810800Y2556943D01*
X1810903Y2556443D01*
X1810954Y2556337D01*
X1810983Y2556224D01*
X1811229Y2555776D01*
X1811453Y2555318D01*
X1811529Y2555228D01*
X1811585Y2555126D01*
X1811934Y2554753D01*
X1812265Y2554364D01*
X1812361Y2554297D01*
X1812441Y2554211D01*
X1812871Y2553937D01*
X1813289Y2553643D01*
X1813398Y2553601D01*
X1813497Y2553538D01*
X1814089Y2553303D01*
X1817237Y2552280D01*
X1823635Y2549020D01*
X1829445Y2544799D01*
X1834523Y2539721D01*
X1838745Y2533911D01*
X1842005Y2527513D01*
X1844224Y2520684D01*
X1844332Y2519999D01*
X1804725Y2519999D01*
X1804261Y2519940D01*
X1803794Y2519912D01*
X1803641Y2519862D01*
X1803482Y2519842D01*
X1803048Y2519670D01*
X1802602Y2519526D01*
X1802467Y2519440D01*
X1802318Y2519381D01*
X1801940Y2519107D01*
X1801544Y2518856D01*
X1801434Y2518740D01*
X1801304Y2518646D01*
X1801006Y2518286D01*
X1800685Y2517945D01*
X1800608Y2517805D01*
X1800506Y2517681D01*
X1800306Y2517258D01*
X1800080Y2516848D01*
X1800040Y2516693D01*
X1799972Y2516548D01*
X1799884Y2516090D01*
X1799766Y2515636D01*
X1799751Y2515398D01*
X1799736Y2515319D01*
X1799741Y2515238D01*
X1799726Y2515000D01*
X1799726Y2505000D01*
X1799784Y2504536D01*
X1799813Y2504069D01*
X1799862Y2503916D01*
X1799883Y2503758D01*
X1800055Y2503323D01*
X1800199Y2502877D01*
X1800284Y2502742D01*
X1800343Y2502593D01*
X1800617Y2502215D01*
X1800868Y2501819D01*
X1800985Y2501709D01*
X1801079Y2501579D01*
X1801439Y2501281D01*
X1801780Y2500960D01*
X1801920Y2500883D01*
X1802043Y2500781D01*
X1802467Y2500581D01*
X1802876Y2500355D01*
X1803031Y2500315D01*
X1803176Y2500247D01*
X1803635Y2500159D01*
X1804089Y2500041D01*
X1804327Y2500026D01*
X1804406Y2500011D01*
X1804487Y2500016D01*
X1804725Y2500001D01*
X1844332Y2500001D01*
X1844224Y2499316D01*
X1842005Y2492487D01*
X1838745Y2486089D01*
X1834523Y2480279D01*
X1829445Y2475201D01*
X1823635Y2470980D01*
X1817237Y2467720D01*
X1814089Y2466697D01*
X1813984Y2466647D01*
X1813869Y2466620D01*
X1813417Y2466381D01*
X1812956Y2466164D01*
X1812866Y2466089D01*
X1812762Y2466034D01*
X1812385Y2465691D01*
X1811991Y2465366D01*
X1811922Y2465271D01*
X1811835Y2465192D01*
X1811555Y2464766D01*
X1811255Y2464353D01*
X1811211Y2464244D01*
X1811147Y2464146D01*
X1810981Y2463664D01*
X1810793Y2463189D01*
X1810778Y2463072D01*
X1810740Y2462962D01*
X1810699Y2462454D01*
X1810635Y2461946D01*
X1810650Y2461830D01*
X1810640Y2461713D01*
X1810727Y2461210D01*
X1810791Y2460704D01*
X1810834Y2460595D01*
X1810854Y2460479D01*
X1811063Y2460014D01*
X1811251Y2459539D01*
X1811320Y2459444D01*
X1811367Y2459337D01*
X1811686Y2458939D01*
X1811985Y2458525D01*
X1812076Y2458450D01*
X1812149Y2458358D01*
X1812556Y2458052D01*
X1812949Y2457725D01*
X1813055Y2457675D01*
X1813149Y2457605D01*
X1813721Y2457324D01*
X1826700Y2451947D01*
X1840097Y2438551D01*
X1847347Y2421047D01*
X1847347Y2402102D01*
X1840097Y2384599D01*
X1826700Y2371202D01*
X1809197Y2363952D01*
X1790252Y2363952D01*
G37*
%LPD*%
%LPC*%
G36*
X2385253Y930999D02*
X2385253Y930999D01*
X2367243Y938459D01*
X2353459Y952243D01*
X2345999Y970253D01*
X2345999Y989747D01*
X2353459Y1007756D01*
X2367243Y1021541D01*
X2376515Y1025381D01*
X2376991Y1025652D01*
X2377474Y1025908D01*
X2377533Y1025962D01*
X2377603Y1026001D01*
X2377997Y1026383D01*
X2378401Y1026750D01*
X2378445Y1026817D01*
X2378503Y1026873D01*
X2378789Y1027340D01*
X2379089Y1027796D01*
X2379115Y1027872D01*
X2379157Y1027940D01*
X2379319Y1028464D01*
X2379496Y1028981D01*
X2379503Y1029061D01*
X2379526Y1029137D01*
X2379552Y1029684D01*
X2379596Y1030229D01*
X2379582Y1030308D01*
X2379586Y1030388D01*
X2379476Y1030923D01*
X2379382Y1031463D01*
X2379349Y1031536D01*
X2379333Y1031615D01*
X2379093Y1032107D01*
X2378869Y1032605D01*
X2378819Y1032667D01*
X2378784Y1032740D01*
X2378429Y1033157D01*
X2378087Y1033584D01*
X2378023Y1033632D01*
X2377971Y1033693D01*
X2377525Y1034008D01*
X2377087Y1034338D01*
X2376987Y1034387D01*
X2376948Y1034415D01*
X2376872Y1034443D01*
X2376515Y1034619D01*
X2367243Y1038459D01*
X2353459Y1052243D01*
X2345999Y1070253D01*
X2345999Y1089747D01*
X2353459Y1107756D01*
X2367243Y1121541D01*
X2385253Y1129001D01*
X2404747Y1129001D01*
X2422756Y1121541D01*
X2436541Y1107756D01*
X2444001Y1089747D01*
X2444001Y1070253D01*
X2436541Y1052243D01*
X2422756Y1038459D01*
X2413485Y1034619D01*
X2413011Y1034349D01*
X2412526Y1034092D01*
X2412466Y1034038D01*
X2412397Y1033998D01*
X2412005Y1033618D01*
X2411599Y1033250D01*
X2411555Y1033183D01*
X2411497Y1033127D01*
X2411211Y1032660D01*
X2410911Y1032204D01*
X2410884Y1032128D01*
X2410843Y1032059D01*
X2410681Y1031536D01*
X2410504Y1031019D01*
X2410497Y1030939D01*
X2410474Y1030863D01*
X2410447Y1030316D01*
X2410404Y1029771D01*
X2410418Y1029692D01*
X2410414Y1029612D01*
X2410524Y1029076D01*
X2410617Y1028537D01*
X2410650Y1028464D01*
X2410667Y1028385D01*
X2410907Y1027894D01*
X2411131Y1027395D01*
X2411181Y1027332D01*
X2411216Y1027260D01*
X2411572Y1026843D01*
X2411913Y1026416D01*
X2411976Y1026368D01*
X2412029Y1026307D01*
X2412476Y1025991D01*
X2412913Y1025662D01*
X2413013Y1025613D01*
X2413052Y1025585D01*
X2413128Y1025556D01*
X2413485Y1025381D01*
X2422757Y1021541D01*
X2436541Y1007756D01*
X2444001Y989747D01*
X2444001Y970253D01*
X2436541Y952243D01*
X2422756Y938459D01*
X2404747Y930999D01*
X2385253Y930999D01*
G37*
%LPD*%
%LPC*%
G36*
X2082432Y2667291D02*
X2082432Y2667291D01*
X2059211Y2676909D01*
X2041437Y2694683D01*
X2031818Y2717905D01*
X2031818Y2743040D01*
X2041437Y2766262D01*
X2059211Y2784035D01*
X2082432Y2793654D01*
X2107568Y2793654D01*
X2130789Y2784035D01*
X2148563Y2766262D01*
X2158182Y2743040D01*
X2158182Y2717905D01*
X2148563Y2694683D01*
X2130789Y2676909D01*
X2107568Y2667291D01*
X2082432Y2667291D01*
G37*
%LPD*%
%LPC*%
G36*
X2082432Y2226346D02*
X2082432Y2226346D01*
X2059211Y2235964D01*
X2041437Y2253738D01*
X2031818Y2276960D01*
X2031818Y2302095D01*
X2041437Y2325317D01*
X2059211Y2343091D01*
X2082432Y2352709D01*
X2107568Y2352709D01*
X2130789Y2343091D01*
X2148563Y2325317D01*
X2158182Y2302095D01*
X2158182Y2276960D01*
X2148563Y2253738D01*
X2130789Y2235964D01*
X2107568Y2226346D01*
X2082432Y2226346D01*
G37*
%LPD*%
%LPC*%
G36*
X99248Y2715999D02*
X99248Y2715999D01*
X83076Y2722698D01*
X70698Y2735076D01*
X63999Y2751248D01*
X63999Y2768752D01*
X70698Y2784924D01*
X83076Y2797302D01*
X99248Y2804001D01*
X180752Y2804001D01*
X196924Y2797302D01*
X209302Y2784924D01*
X216001Y2768752D01*
X216001Y2751248D01*
X209302Y2735076D01*
X196924Y2722698D01*
X180752Y2715999D01*
X99248Y2715999D01*
G37*
%LPD*%
%LPC*%
G36*
X99248Y2415999D02*
X99248Y2415999D01*
X83076Y2422698D01*
X70698Y2435076D01*
X63999Y2451248D01*
X63999Y2468752D01*
X70698Y2484924D01*
X83076Y2497302D01*
X99248Y2504001D01*
X180752Y2504001D01*
X196924Y2497302D01*
X209302Y2484924D01*
X216001Y2468752D01*
X216001Y2451248D01*
X209302Y2435076D01*
X196924Y2422698D01*
X180752Y2415999D01*
X99248Y2415999D01*
G37*
%LPD*%
%LPC*%
G36*
X379043Y1444999D02*
X379043Y1444999D01*
X364342Y1451089D01*
X353089Y1462342D01*
X346999Y1477043D01*
X346999Y1492957D01*
X353089Y1507658D01*
X364342Y1518911D01*
X379043Y1525001D01*
X450957Y1525001D01*
X465658Y1518911D01*
X476911Y1507658D01*
X483001Y1492957D01*
X483001Y1477043D01*
X476911Y1462342D01*
X465658Y1451089D01*
X450957Y1444999D01*
X379043Y1444999D01*
G37*
%LPD*%
%LPC*%
G36*
X79043Y1844999D02*
X79043Y1844999D01*
X64342Y1851089D01*
X53089Y1862342D01*
X46999Y1877043D01*
X46999Y1892957D01*
X53089Y1907658D01*
X64342Y1918911D01*
X79043Y1925001D01*
X150957Y1925001D01*
X165658Y1918911D01*
X176911Y1907658D01*
X183001Y1892957D01*
X183001Y1877043D01*
X176911Y1862342D01*
X165658Y1851089D01*
X150957Y1844999D01*
X79043Y1844999D01*
G37*
%LPD*%
%LPC*%
G36*
X79043Y2044999D02*
X79043Y2044999D01*
X64342Y2051089D01*
X53089Y2062342D01*
X46999Y2077043D01*
X46999Y2092957D01*
X53089Y2107658D01*
X64342Y2118911D01*
X79043Y2125001D01*
X150957Y2125001D01*
X165658Y2118911D01*
X176911Y2107658D01*
X183001Y2092957D01*
X183001Y2077043D01*
X176911Y2062342D01*
X165658Y2051089D01*
X150957Y2044999D01*
X79043Y2044999D01*
G37*
%LPD*%
%LPC*%
G36*
X79043Y1544999D02*
X79043Y1544999D01*
X64342Y1551089D01*
X53089Y1562342D01*
X46999Y1577043D01*
X46999Y1592957D01*
X53089Y1607658D01*
X64342Y1618911D01*
X79043Y1625001D01*
X150957Y1625001D01*
X165658Y1618911D01*
X176911Y1607658D01*
X183001Y1592957D01*
X183001Y1577043D01*
X176911Y1562342D01*
X165658Y1551089D01*
X150957Y1544999D01*
X79043Y1544999D01*
G37*
%LPD*%
%LPC*%
G36*
X79043Y1944999D02*
X79043Y1944999D01*
X64342Y1951089D01*
X53089Y1962342D01*
X46999Y1977043D01*
X46999Y1992957D01*
X53089Y2007658D01*
X64342Y2018911D01*
X79043Y2025001D01*
X150957Y2025001D01*
X165658Y2018911D01*
X176911Y2007658D01*
X183001Y1992957D01*
X183001Y1977043D01*
X176911Y1962342D01*
X165658Y1951089D01*
X150957Y1944999D01*
X79043Y1944999D01*
G37*
%LPD*%
%LPC*%
G36*
X79043Y1644999D02*
X79043Y1644999D01*
X64342Y1651089D01*
X53089Y1662342D01*
X46999Y1677043D01*
X46999Y1692957D01*
X53089Y1707658D01*
X64342Y1718911D01*
X79043Y1725001D01*
X150957Y1725001D01*
X165658Y1718911D01*
X176911Y1707658D01*
X183001Y1692957D01*
X183001Y1677043D01*
X176911Y1662342D01*
X165658Y1651089D01*
X150957Y1644999D01*
X79043Y1644999D01*
G37*
%LPD*%
%LPC*%
G36*
X79043Y1744999D02*
X79043Y1744999D01*
X64342Y1751089D01*
X53089Y1762342D01*
X46999Y1777043D01*
X46999Y1792957D01*
X53089Y1807658D01*
X64342Y1818911D01*
X79043Y1825001D01*
X150957Y1825001D01*
X165658Y1818911D01*
X176911Y1807658D01*
X183001Y1792957D01*
X183001Y1777043D01*
X176911Y1762342D01*
X165658Y1751089D01*
X150957Y1744999D01*
X79043Y1744999D01*
G37*
%LPD*%
%LPC*%
G36*
X2329998Y2560802D02*
X2329998Y2560802D01*
X2322968Y2567832D01*
X2322968Y2649018D01*
X2329998Y2656048D01*
X2411183Y2656048D01*
X2418213Y2649018D01*
X2418213Y2567832D01*
X2411183Y2560802D01*
X2329998Y2560802D01*
G37*
%LPD*%
%LPC*%
G36*
X785253Y2695999D02*
X785253Y2695999D01*
X767243Y2703459D01*
X753459Y2717243D01*
X745999Y2735253D01*
X745999Y2754747D01*
X753459Y2772756D01*
X767243Y2786541D01*
X785253Y2794001D01*
X804747Y2794001D01*
X822756Y2786541D01*
X836541Y2772756D01*
X844001Y2754747D01*
X844001Y2735253D01*
X836541Y2717243D01*
X822756Y2703459D01*
X804747Y2695999D01*
X785253Y2695999D01*
G37*
%LPD*%
%LPC*%
G36*
X1150253Y2170999D02*
X1150253Y2170999D01*
X1132243Y2178459D01*
X1118459Y2192243D01*
X1110999Y2210253D01*
X1110999Y2229747D01*
X1118459Y2247756D01*
X1132243Y2261541D01*
X1150253Y2269001D01*
X1169747Y2269001D01*
X1187756Y2261541D01*
X1201541Y2247756D01*
X1209001Y2229747D01*
X1209001Y2210253D01*
X1201541Y2192243D01*
X1187756Y2178459D01*
X1169747Y2170999D01*
X1150253Y2170999D01*
G37*
%LPD*%
%LPC*%
G36*
X2361118Y2363952D02*
X2361118Y2363952D01*
X2343615Y2371202D01*
X2330218Y2384599D01*
X2322968Y2402102D01*
X2322968Y2421047D01*
X2330218Y2438551D01*
X2343615Y2451947D01*
X2361118Y2459197D01*
X2380063Y2459197D01*
X2397566Y2451947D01*
X2410963Y2438551D01*
X2418213Y2421047D01*
X2418213Y2402102D01*
X2410963Y2384599D01*
X2397566Y2371202D01*
X2380063Y2363952D01*
X2361118Y2363952D01*
G37*
%LPD*%
%LPC*%
G36*
X1250313Y2578283D02*
X1250313Y2578283D01*
X1243283Y2585313D01*
X1243283Y2654687D01*
X1250313Y2661717D01*
X1319687Y2661717D01*
X1326717Y2654687D01*
X1326717Y2585313D01*
X1319687Y2578283D01*
X1250313Y2578283D01*
G37*
%LPD*%
%LPC*%
G36*
X2263714Y564346D02*
X2263714Y564346D01*
X2246934Y571296D01*
X2234091Y584139D01*
X2227141Y600919D01*
X2227141Y619081D01*
X2234091Y635861D01*
X2246934Y648704D01*
X2263714Y655654D01*
X2281876Y655654D01*
X2298656Y648704D01*
X2311499Y635861D01*
X2318449Y619081D01*
X2318449Y600919D01*
X2311499Y584139D01*
X2298656Y571296D01*
X2281876Y564346D01*
X2263714Y564346D01*
G37*
%LPD*%
%LPC*%
G36*
X1690919Y1466550D02*
X1690919Y1466550D01*
X1674139Y1473501D01*
X1661296Y1486344D01*
X1654346Y1503124D01*
X1654346Y1521286D01*
X1661296Y1538066D01*
X1674139Y1550909D01*
X1690919Y1557859D01*
X1709081Y1557859D01*
X1725861Y1550909D01*
X1738704Y1538066D01*
X1745654Y1521286D01*
X1745654Y1503124D01*
X1738704Y1486344D01*
X1725861Y1473501D01*
X1709081Y1466550D01*
X1690919Y1466550D01*
G37*
%LPD*%
%LPC*%
G36*
X1763714Y814346D02*
X1763714Y814346D01*
X1746934Y821296D01*
X1734091Y834139D01*
X1727141Y850919D01*
X1727141Y869081D01*
X1734091Y885861D01*
X1746934Y898704D01*
X1763714Y905654D01*
X1781876Y905654D01*
X1798656Y898704D01*
X1811499Y885861D01*
X1818449Y869081D01*
X1818449Y850919D01*
X1811499Y834139D01*
X1798656Y821296D01*
X1781876Y814346D01*
X1763714Y814346D01*
G37*
%LPD*%
%LPC*%
G36*
X1929068Y564346D02*
X1929068Y564346D01*
X1912289Y571296D01*
X1899446Y584139D01*
X1892495Y600919D01*
X1892495Y619081D01*
X1899446Y635861D01*
X1912289Y648704D01*
X1929068Y655654D01*
X1947231Y655654D01*
X1964010Y648704D01*
X1976853Y635861D01*
X1983804Y619081D01*
X1983804Y600919D01*
X1976853Y584139D01*
X1964010Y571296D01*
X1947231Y564346D01*
X1929068Y564346D01*
G37*
%LPD*%
%LPC*%
G36*
X1690919Y1801196D02*
X1690919Y1801196D01*
X1674139Y1808146D01*
X1661296Y1820989D01*
X1654346Y1837769D01*
X1654346Y1855931D01*
X1661296Y1872711D01*
X1674139Y1885554D01*
X1690919Y1892505D01*
X1709081Y1892505D01*
X1725861Y1885554D01*
X1738704Y1872711D01*
X1745654Y1855931D01*
X1745654Y1837769D01*
X1738704Y1820989D01*
X1725861Y1808146D01*
X1709081Y1801196D01*
X1690919Y1801196D01*
G37*
%LPD*%
%LPC*%
G36*
X1576702Y2178283D02*
X1576702Y2178283D01*
X1561369Y2184634D01*
X1549634Y2196369D01*
X1543283Y2211702D01*
X1543283Y2228298D01*
X1549634Y2243631D01*
X1561369Y2255366D01*
X1576702Y2261717D01*
X1593298Y2261717D01*
X1608631Y2255366D01*
X1620366Y2243631D01*
X1626717Y2228298D01*
X1626717Y2211702D01*
X1620366Y2196369D01*
X1608631Y2184634D01*
X1593298Y2178283D01*
X1576702Y2178283D01*
G37*
%LPD*%
%LPC*%
G36*
X1276702Y2278283D02*
X1276702Y2278283D01*
X1261369Y2284634D01*
X1249634Y2296369D01*
X1243283Y2311702D01*
X1243283Y2328298D01*
X1249634Y2343631D01*
X1261369Y2355366D01*
X1276702Y2361717D01*
X1293298Y2361717D01*
X1308631Y2355366D01*
X1320366Y2343631D01*
X1326717Y2328298D01*
X1326717Y2311702D01*
X1320366Y2296369D01*
X1308631Y2284634D01*
X1293298Y2278283D01*
X1276702Y2278283D01*
G37*
%LPD*%
%LPC*%
G36*
X1276702Y2178283D02*
X1276702Y2178283D01*
X1261369Y2184634D01*
X1249634Y2196369D01*
X1243283Y2211702D01*
X1243283Y2228298D01*
X1249634Y2243631D01*
X1261369Y2255366D01*
X1276702Y2261717D01*
X1293298Y2261717D01*
X1308631Y2255366D01*
X1320366Y2243631D01*
X1326717Y2228298D01*
X1326717Y2211702D01*
X1320366Y2196369D01*
X1308631Y2184634D01*
X1293298Y2178283D01*
X1276702Y2178283D01*
G37*
%LPD*%
%LPC*%
G36*
X1576702Y2078283D02*
X1576702Y2078283D01*
X1561369Y2084634D01*
X1549634Y2096369D01*
X1543283Y2111702D01*
X1543283Y2128298D01*
X1549634Y2143631D01*
X1561369Y2155366D01*
X1576702Y2161717D01*
X1593298Y2161717D01*
X1608631Y2155366D01*
X1620366Y2143631D01*
X1626717Y2128298D01*
X1626717Y2111702D01*
X1620366Y2096369D01*
X1608631Y2084634D01*
X1593298Y2078283D01*
X1576702Y2078283D01*
G37*
%LPD*%
%LPC*%
G36*
X1576702Y2478283D02*
X1576702Y2478283D01*
X1561369Y2484634D01*
X1549634Y2496369D01*
X1543283Y2511702D01*
X1543283Y2528298D01*
X1549634Y2543631D01*
X1561369Y2555366D01*
X1576702Y2561717D01*
X1593298Y2561717D01*
X1608631Y2555366D01*
X1620366Y2543631D01*
X1626717Y2528298D01*
X1626717Y2511702D01*
X1620366Y2496369D01*
X1608631Y2484634D01*
X1593298Y2478283D01*
X1576702Y2478283D01*
G37*
%LPD*%
%LPC*%
G36*
X1276702Y2478283D02*
X1276702Y2478283D01*
X1261369Y2484634D01*
X1249634Y2496369D01*
X1243283Y2511702D01*
X1243283Y2528298D01*
X1249634Y2543631D01*
X1261369Y2555366D01*
X1276702Y2561717D01*
X1293298Y2561717D01*
X1308631Y2555366D01*
X1320366Y2543631D01*
X1326717Y2528298D01*
X1326717Y2511702D01*
X1320366Y2496369D01*
X1308631Y2484634D01*
X1293298Y2478283D01*
X1276702Y2478283D01*
G37*
%LPD*%
%LPC*%
G36*
X1576702Y2278283D02*
X1576702Y2278283D01*
X1561369Y2284634D01*
X1549634Y2296369D01*
X1543283Y2311702D01*
X1543283Y2328298D01*
X1549634Y2343631D01*
X1561369Y2355366D01*
X1576702Y2361717D01*
X1593298Y2361717D01*
X1608631Y2355366D01*
X1620366Y2343631D01*
X1626717Y2328298D01*
X1626717Y2311702D01*
X1620366Y2296369D01*
X1608631Y2284634D01*
X1593298Y2278283D01*
X1576702Y2278283D01*
G37*
%LPD*%
%LPC*%
G36*
X1576702Y2578283D02*
X1576702Y2578283D01*
X1561369Y2584634D01*
X1549634Y2596369D01*
X1543283Y2611702D01*
X1543283Y2628298D01*
X1549634Y2643631D01*
X1561369Y2655366D01*
X1576702Y2661717D01*
X1593298Y2661717D01*
X1608631Y2655366D01*
X1620366Y2643631D01*
X1626717Y2628298D01*
X1626717Y2611702D01*
X1620366Y2596369D01*
X1608631Y2584634D01*
X1593298Y2578283D01*
X1576702Y2578283D01*
G37*
%LPD*%
%LPC*%
G36*
X1276702Y2078283D02*
X1276702Y2078283D01*
X1261369Y2084634D01*
X1249634Y2096369D01*
X1243283Y2111702D01*
X1243283Y2128298D01*
X1249634Y2143631D01*
X1261369Y2155366D01*
X1276702Y2161717D01*
X1293298Y2161717D01*
X1308631Y2155366D01*
X1320366Y2143631D01*
X1326717Y2128298D01*
X1326717Y2111702D01*
X1320366Y2096369D01*
X1308631Y2084634D01*
X1293298Y2078283D01*
X1276702Y2078283D01*
G37*
%LPD*%
%LPC*%
G36*
X1276702Y2378283D02*
X1276702Y2378283D01*
X1261369Y2384634D01*
X1249634Y2396369D01*
X1243283Y2411702D01*
X1243283Y2428298D01*
X1249634Y2443631D01*
X1261369Y2455366D01*
X1276702Y2461717D01*
X1293298Y2461717D01*
X1308631Y2455366D01*
X1320366Y2443631D01*
X1326717Y2428298D01*
X1326717Y2411702D01*
X1320366Y2396369D01*
X1308631Y2384634D01*
X1293298Y2378283D01*
X1276702Y2378283D01*
G37*
%LPD*%
%LPC*%
G36*
X1576702Y1978283D02*
X1576702Y1978283D01*
X1561369Y1984634D01*
X1549634Y1996369D01*
X1543283Y2011702D01*
X1543283Y2028298D01*
X1549634Y2043631D01*
X1561369Y2055366D01*
X1576702Y2061717D01*
X1593298Y2061717D01*
X1608631Y2055366D01*
X1620366Y2043631D01*
X1626717Y2028298D01*
X1626717Y2011702D01*
X1620366Y1996369D01*
X1608631Y1984634D01*
X1593298Y1978283D01*
X1576702Y1978283D01*
G37*
%LPD*%
%LPC*%
G36*
X1576702Y2378283D02*
X1576702Y2378283D01*
X1561369Y2384634D01*
X1549634Y2396369D01*
X1543283Y2411702D01*
X1543283Y2428298D01*
X1549634Y2443631D01*
X1561369Y2455366D01*
X1576702Y2461717D01*
X1593298Y2461717D01*
X1608631Y2455366D01*
X1620366Y2443631D01*
X1626717Y2428298D01*
X1626717Y2411702D01*
X1620366Y2396369D01*
X1608631Y2384634D01*
X1593298Y2378283D01*
X1576702Y2378283D01*
G37*
%LPD*%
%LPC*%
G36*
X1133431Y2304999D02*
X1133431Y2304999D01*
X1109999Y2328431D01*
X1109999Y2361569D01*
X1133431Y2385001D01*
X1166569Y2385001D01*
X1190001Y2361569D01*
X1190001Y2328431D01*
X1166569Y2304999D01*
X1133431Y2304999D01*
G37*
%LPD*%
%LPC*%
G36*
X83431Y1009999D02*
X83431Y1009999D01*
X59999Y1033431D01*
X59999Y1066569D01*
X83431Y1090001D01*
X116569Y1090001D01*
X140001Y1066569D01*
X140001Y1033431D01*
X116569Y1009999D01*
X83431Y1009999D01*
G37*
%LPD*%
%LPC*%
G36*
X483431Y1009999D02*
X483431Y1009999D01*
X459999Y1033431D01*
X459999Y1066569D01*
X483431Y1090001D01*
X516569Y1090001D01*
X540001Y1066569D01*
X540001Y1033431D01*
X516569Y1009999D01*
X483431Y1009999D01*
G37*
%LPD*%
%LPC*%
G36*
X88431Y459999D02*
X88431Y459999D01*
X64999Y483431D01*
X64999Y516569D01*
X88431Y540001D01*
X121569Y540001D01*
X145001Y516569D01*
X145001Y483431D01*
X121569Y459999D01*
X88431Y459999D01*
G37*
%LPD*%
%LPC*%
G36*
X1173431Y1029999D02*
X1173431Y1029999D01*
X1149999Y1053431D01*
X1149999Y1086569D01*
X1173431Y1110001D01*
X1206569Y1110001D01*
X1230001Y1086569D01*
X1230001Y1053431D01*
X1206569Y1029999D01*
X1173431Y1029999D01*
G37*
%LPD*%
%LPC*%
G36*
X88431Y859999D02*
X88431Y859999D01*
X64999Y883431D01*
X64999Y916569D01*
X88431Y940001D01*
X121569Y940001D01*
X145001Y916569D01*
X145001Y883431D01*
X121569Y859999D01*
X88431Y859999D01*
G37*
%LPD*%
%LPC*%
G36*
X653431Y2384999D02*
X653431Y2384999D01*
X629999Y2408431D01*
X629999Y2441569D01*
X653431Y2465001D01*
X686569Y2465001D01*
X710001Y2441569D01*
X710001Y2408431D01*
X686569Y2384999D01*
X653431Y2384999D01*
G37*
%LPD*%
%LPC*%
G36*
X253431Y2384999D02*
X253431Y2384999D01*
X229999Y2408431D01*
X229999Y2441569D01*
X253431Y2465001D01*
X286569Y2465001D01*
X310001Y2441569D01*
X310001Y2408431D01*
X286569Y2384999D01*
X253431Y2384999D01*
G37*
%LPD*%
%LPC*%
G36*
X1333431Y1809999D02*
X1333431Y1809999D01*
X1309999Y1833431D01*
X1309999Y1866569D01*
X1333431Y1890001D01*
X1366569Y1890001D01*
X1390001Y1866569D01*
X1390001Y1833431D01*
X1366569Y1809999D01*
X1333431Y1809999D01*
G37*
%LPD*%
%LPC*%
G36*
X1763431Y1164999D02*
X1763431Y1164999D01*
X1739999Y1188431D01*
X1739999Y1221569D01*
X1763431Y1245001D01*
X1796569Y1245001D01*
X1820001Y1221569D01*
X1820001Y1188431D01*
X1796569Y1164999D01*
X1763431Y1164999D01*
G37*
%LPD*%
%LPC*%
G36*
X588431Y1219999D02*
X588431Y1219999D01*
X564999Y1243431D01*
X564999Y1276569D01*
X588431Y1300001D01*
X621569Y1300001D01*
X645001Y1276569D01*
X645001Y1243431D01*
X621569Y1219999D01*
X588431Y1219999D01*
G37*
%LPD*%
%LPC*%
G36*
X438431Y734999D02*
X438431Y734999D01*
X414999Y758431D01*
X414999Y791569D01*
X438431Y815001D01*
X471569Y815001D01*
X495001Y791569D01*
X495001Y758431D01*
X471569Y734999D01*
X438431Y734999D01*
G37*
%LPD*%
%LPC*%
G36*
X1973431Y1239999D02*
X1973431Y1239999D01*
X1949999Y1263431D01*
X1949999Y1296569D01*
X1973431Y1320001D01*
X2006569Y1320001D01*
X2030001Y1296569D01*
X2030001Y1263431D01*
X2006569Y1239999D01*
X1973431Y1239999D01*
G37*
%LPD*%
%LPC*%
G36*
X238431Y734999D02*
X238431Y734999D01*
X214999Y758431D01*
X214999Y791569D01*
X238431Y815001D01*
X271569Y815001D01*
X295001Y791569D01*
X295001Y758431D01*
X271569Y734999D01*
X238431Y734999D01*
G37*
%LPD*%
%LPC*%
G36*
X2373431Y1239999D02*
X2373431Y1239999D01*
X2349999Y1263431D01*
X2349999Y1296569D01*
X2373431Y1320001D01*
X2406569Y1320001D01*
X2430001Y1296569D01*
X2430001Y1263431D01*
X2406569Y1239999D01*
X2373431Y1239999D01*
G37*
%LPD*%
%LPC*%
G36*
X1983431Y1609999D02*
X1983431Y1609999D01*
X1959999Y1633431D01*
X1959999Y1666569D01*
X1983431Y1690001D01*
X2016569Y1690001D01*
X2040001Y1666569D01*
X2040001Y1633431D01*
X2016569Y1609999D01*
X1983431Y1609999D01*
G37*
%LPD*%
%LPC*%
G36*
X2383431Y1609999D02*
X2383431Y1609999D01*
X2359999Y1633431D01*
X2359999Y1666569D01*
X2383431Y1690001D01*
X2416569Y1690001D01*
X2440001Y1666569D01*
X2440001Y1633431D01*
X2416569Y1609999D01*
X2383431Y1609999D01*
G37*
%LPD*%
%LPC*%
G36*
X338431Y634999D02*
X338431Y634999D01*
X314999Y658431D01*
X314999Y691569D01*
X338431Y715001D01*
X371569Y715001D01*
X395001Y691569D01*
X395001Y658431D01*
X371569Y634999D01*
X338431Y634999D01*
G37*
%LPD*%
%LPC*%
G36*
X933431Y609999D02*
X933431Y609999D01*
X909999Y633431D01*
X909999Y666569D01*
X933431Y690001D01*
X966569Y690001D01*
X990001Y666569D01*
X990001Y633431D01*
X966569Y609999D01*
X933431Y609999D01*
G37*
%LPD*%
%LPC*%
G36*
X888431Y2704999D02*
X888431Y2704999D01*
X864999Y2728431D01*
X864999Y2761569D01*
X888431Y2785001D01*
X921569Y2785001D01*
X945001Y2761569D01*
X945001Y2728431D01*
X921569Y2704999D01*
X888431Y2704999D01*
G37*
%LPD*%
%LPC*%
G36*
X533431Y2139999D02*
X533431Y2139999D01*
X509999Y2163431D01*
X509999Y2196569D01*
X533431Y2220001D01*
X566569Y2220001D01*
X590001Y2196569D01*
X590001Y2163431D01*
X566569Y2139999D01*
X533431Y2139999D01*
G37*
%LPD*%
%LPC*%
G36*
X823431Y1439999D02*
X823431Y1439999D01*
X799999Y1463431D01*
X799999Y1496569D01*
X823431Y1520001D01*
X856569Y1520001D01*
X880001Y1496569D01*
X880001Y1463431D01*
X856569Y1439999D01*
X823431Y1439999D01*
G37*
%LPD*%
%LPC*%
G36*
X653431Y2549999D02*
X653431Y2549999D01*
X629999Y2573431D01*
X629999Y2606569D01*
X653431Y2630001D01*
X686569Y2630001D01*
X710001Y2606569D01*
X710001Y2573431D01*
X686569Y2549999D01*
X653431Y2549999D01*
G37*
%LPD*%
%LPC*%
G36*
X1297043Y244999D02*
X1297043Y244999D01*
X1282342Y251089D01*
X1271089Y262342D01*
X1264999Y277043D01*
X1264999Y292957D01*
X1271089Y307658D01*
X1282342Y318911D01*
X1297043Y325001D01*
X1312957Y325001D01*
X1327658Y318911D01*
X1338911Y307658D01*
X1345001Y292957D01*
X1345001Y277043D01*
X1338911Y262342D01*
X1327658Y251089D01*
X1312957Y244999D01*
X1297043Y244999D01*
G37*
%LPD*%
%LPC*%
G36*
X1497043Y244999D02*
X1497043Y244999D01*
X1482342Y251089D01*
X1471089Y262342D01*
X1464999Y277043D01*
X1464999Y292957D01*
X1471089Y307658D01*
X1482342Y318911D01*
X1497043Y325001D01*
X1512957Y325001D01*
X1527658Y318911D01*
X1538911Y307658D01*
X1545001Y292957D01*
X1545001Y277043D01*
X1538911Y262342D01*
X1527658Y251089D01*
X1512957Y244999D01*
X1497043Y244999D01*
G37*
%LPD*%
%LPC*%
G36*
X1397043Y244999D02*
X1397043Y244999D01*
X1382342Y251089D01*
X1371089Y262342D01*
X1364999Y277043D01*
X1364999Y292957D01*
X1371089Y307658D01*
X1382342Y318911D01*
X1397043Y325001D01*
X1412957Y325001D01*
X1427658Y318911D01*
X1438911Y307658D01*
X1445001Y292957D01*
X1445001Y277043D01*
X1438911Y262342D01*
X1427658Y251089D01*
X1412957Y244999D01*
X1397043Y244999D01*
G37*
%LPD*%
%LPC*%
G36*
X1163471Y1685645D02*
X1163471Y1685645D01*
X1149007Y1691636D01*
X1137936Y1702707D01*
X1131944Y1717172D01*
X1131944Y1732828D01*
X1137936Y1747293D01*
X1149007Y1758364D01*
X1163471Y1764355D01*
X1179127Y1764355D01*
X1193592Y1758364D01*
X1204663Y1747293D01*
X1210654Y1732828D01*
X1210654Y1717172D01*
X1204663Y1702707D01*
X1193592Y1691636D01*
X1179127Y1685645D01*
X1163471Y1685645D01*
G37*
%LPD*%
%LPC*%
G36*
X1163471Y1785645D02*
X1163471Y1785645D01*
X1149007Y1791636D01*
X1137936Y1802707D01*
X1131944Y1817172D01*
X1131944Y1832828D01*
X1137936Y1847293D01*
X1149007Y1858364D01*
X1163471Y1864355D01*
X1179127Y1864355D01*
X1193592Y1858364D01*
X1204663Y1847293D01*
X1210654Y1832828D01*
X1210654Y1817172D01*
X1204663Y1802707D01*
X1193592Y1791636D01*
X1179127Y1785645D01*
X1163471Y1785645D01*
G37*
%LPD*%
%LPC*%
G36*
X850873Y1785645D02*
X850873Y1785645D01*
X836408Y1791636D01*
X825337Y1802707D01*
X819346Y1817172D01*
X819346Y1832828D01*
X825337Y1847293D01*
X836408Y1858364D01*
X850873Y1864355D01*
X866529Y1864355D01*
X880993Y1858364D01*
X892064Y1847293D01*
X898056Y1832828D01*
X898056Y1817172D01*
X892064Y1802707D01*
X880993Y1791636D01*
X866529Y1785645D01*
X850873Y1785645D01*
G37*
%LPD*%
%LPC*%
G36*
X149999Y2669999D02*
X149999Y2669999D01*
X149999Y2702001D01*
X175305Y2702001D01*
X181835Y2700966D01*
X188123Y2698923D01*
X194013Y2695922D01*
X199361Y2692036D01*
X204036Y2687361D01*
X207922Y2682013D01*
X210923Y2676123D01*
X212913Y2669999D01*
X149999Y2669999D01*
G37*
%LPD*%
%LPC*%
G36*
X67087Y2669999D02*
X67087Y2669999D01*
X68081Y2673058D01*
X68081Y2673059D01*
X69076Y2676123D01*
X72077Y2682013D01*
X75963Y2687361D01*
X80639Y2692036D01*
X85987Y2695922D01*
X91877Y2698923D01*
X98164Y2700966D01*
X104695Y2702001D01*
X130001Y2702001D01*
X130001Y2669999D01*
X67087Y2669999D01*
G37*
%LPD*%
%LPC*%
G36*
X149999Y2617999D02*
X149999Y2617999D01*
X149999Y2650001D01*
X212913Y2650001D01*
X211666Y2646162D01*
X211665Y2646161D01*
X211665Y2646160D01*
X210923Y2643877D01*
X207922Y2637987D01*
X204036Y2632639D01*
X199361Y2627963D01*
X194013Y2624077D01*
X188123Y2621076D01*
X181835Y2619033D01*
X175305Y2617999D01*
X149999Y2617999D01*
G37*
%LPD*%
%LPC*%
G36*
X104695Y2617999D02*
X104695Y2617999D01*
X98164Y2619033D01*
X91877Y2621076D01*
X85987Y2624077D01*
X80639Y2627963D01*
X75963Y2632639D01*
X72077Y2637987D01*
X69076Y2643877D01*
X67087Y2650001D01*
X130001Y2650001D01*
X130001Y2617999D01*
X104695Y2617999D01*
G37*
%LPD*%
%LPC*%
G36*
X349793Y1692999D02*
X349793Y1692999D01*
X349935Y1693899D01*
X351783Y1699587D01*
X354499Y1704916D01*
X358015Y1709756D01*
X362244Y1713985D01*
X367083Y1717501D01*
X372413Y1720217D01*
X378101Y1722065D01*
X384009Y1723001D01*
X407000Y1723001D01*
X407000Y1692999D01*
X349793Y1692999D01*
G37*
%LPD*%
%LPC*%
G36*
X697999Y912999D02*
X697999Y912999D01*
X697999Y946501D01*
X707190Y946501D01*
X731501Y922190D01*
X731501Y912999D01*
X697999Y912999D01*
G37*
%LPD*%
%LPC*%
G36*
X697999Y863499D02*
X697999Y863499D01*
X697999Y897000D01*
X731501Y897000D01*
X731501Y887810D01*
X707190Y863499D01*
X697999Y863499D01*
G37*
%LPD*%
%LPC*%
G36*
X648499Y912999D02*
X648499Y912999D01*
X648499Y922190D01*
X672810Y946501D01*
X682000Y946501D01*
X682000Y912999D01*
X648499Y912999D01*
G37*
%LPD*%
%LPC*%
G36*
X1147810Y873499D02*
X1147810Y873499D01*
X1123499Y897810D01*
X1123499Y907000D01*
X1157000Y907000D01*
X1157000Y873499D01*
X1147810Y873499D01*
G37*
%LPD*%
%LPC*%
G36*
X672810Y863499D02*
X672810Y863499D01*
X648499Y887810D01*
X648499Y897000D01*
X682000Y897000D01*
X682000Y863499D01*
X672810Y863499D01*
G37*
%LPD*%
%LPC*%
G36*
X1900905Y869999D02*
X1900905Y869999D01*
X1900905Y902615D01*
X1901128Y902579D01*
X1907663Y900456D01*
X1913785Y897336D01*
X1919344Y893298D01*
X1924203Y888438D01*
X1928242Y882880D01*
X1931362Y876757D01*
X1933485Y870223D01*
X1933520Y869999D01*
X1900905Y869999D01*
G37*
%LPD*%
%LPC*%
G36*
X2400905Y619999D02*
X2400905Y619999D01*
X2400905Y652615D01*
X2401128Y652579D01*
X2407663Y650456D01*
X2413785Y647336D01*
X2419344Y643298D01*
X2424203Y638438D01*
X2428242Y632880D01*
X2431362Y626757D01*
X2433485Y620223D01*
X2433520Y619999D01*
X2400905Y619999D01*
G37*
%LPD*%
%LPC*%
G36*
X1657385Y1404094D02*
X1657385Y1404094D01*
X1657421Y1404317D01*
X1659544Y1410852D01*
X1662664Y1416974D01*
X1666702Y1422533D01*
X1671561Y1427392D01*
X1677120Y1431431D01*
X1683243Y1434551D01*
X1689777Y1436674D01*
X1690001Y1436709D01*
X1690001Y1404094D01*
X1657385Y1404094D01*
G37*
%LPD*%
%LPC*%
G36*
X2400905Y600001D02*
X2400905Y600001D01*
X2433520Y600001D01*
X2433485Y599777D01*
X2431362Y593243D01*
X2428242Y587120D01*
X2424203Y581561D01*
X2419344Y576702D01*
X2413785Y572664D01*
X2407663Y569544D01*
X2401128Y567421D01*
X2400905Y567385D01*
X2400905Y600001D01*
G37*
%LPD*%
%LPC*%
G36*
X2348291Y619999D02*
X2348291Y619999D01*
X2348326Y620223D01*
X2349346Y623361D01*
X2349346Y623362D01*
X2350449Y626757D01*
X2353569Y632880D01*
X2357608Y638438D01*
X2362467Y643298D01*
X2368026Y647336D01*
X2374148Y650456D01*
X2380683Y652579D01*
X2380906Y652615D01*
X2380906Y619999D01*
X2348291Y619999D01*
G37*
%LPD*%
%LPC*%
G36*
X1848291Y869999D02*
X1848291Y869999D01*
X1848326Y870223D01*
X1849334Y873324D01*
X1849334Y873325D01*
X1849335Y873326D01*
X1850449Y876757D01*
X1853569Y882880D01*
X1857608Y888438D01*
X1862467Y893298D01*
X1868026Y897336D01*
X1874148Y900456D01*
X1880683Y902579D01*
X1880906Y902615D01*
X1880906Y869999D01*
X1848291Y869999D01*
G37*
%LPD*%
%LPC*%
G36*
X1900905Y850001D02*
X1900905Y850001D01*
X1933520Y850001D01*
X1933485Y849777D01*
X1932396Y846427D01*
X1932396Y846426D01*
X1931362Y843243D01*
X1928242Y837120D01*
X1924203Y831561D01*
X1919344Y826702D01*
X1913785Y822664D01*
X1907663Y819544D01*
X1901128Y817421D01*
X1900905Y817385D01*
X1900905Y850001D01*
G37*
%LPD*%
%LPC*%
G36*
X2380683Y567421D02*
X2380683Y567421D01*
X2374148Y569544D01*
X2368026Y572664D01*
X2362467Y576702D01*
X2357608Y581561D01*
X2353569Y587120D01*
X2350449Y593243D01*
X2348326Y599777D01*
X2348291Y600001D01*
X2380906Y600001D01*
X2380906Y567385D01*
X2380683Y567421D01*
G37*
%LPD*%
%LPC*%
G36*
X1880683Y817421D02*
X1880683Y817421D01*
X1874148Y819544D01*
X1868026Y822664D01*
X1862467Y826702D01*
X1857608Y831561D01*
X1853569Y837120D01*
X1850449Y843243D01*
X1848326Y849777D01*
X1848291Y850001D01*
X1880906Y850001D01*
X1880906Y817385D01*
X1880683Y817421D01*
G37*
%LPD*%
%LPC*%
G36*
X847999Y1087999D02*
X847999Y1087999D01*
X847999Y1118001D01*
X855740Y1118001D01*
X878001Y1095740D01*
X878001Y1087999D01*
X847999Y1087999D01*
G37*
%LPD*%
%LPC*%
G36*
X277999Y2597999D02*
X277999Y2597999D01*
X277999Y2628000D01*
X285740Y2628001D01*
X308001Y2605740D01*
X308001Y2597999D01*
X277999Y2597999D01*
G37*
%LPD*%
%LPC*%
G36*
X2397999Y1512999D02*
X2397999Y1512999D01*
X2397999Y1543000D01*
X2405740Y1543001D01*
X2428001Y1520740D01*
X2428001Y1512999D01*
X2397999Y1512999D01*
G37*
%LPD*%
%LPC*%
G36*
X957999Y2187999D02*
X957999Y2187999D01*
X957999Y2218000D01*
X965740Y2218001D01*
X988001Y2195740D01*
X988001Y2187999D01*
X957999Y2187999D01*
G37*
%LPD*%
%LPC*%
G36*
X2351999Y1512999D02*
X2351999Y1512999D01*
X2351999Y1520740D01*
X2374260Y1543001D01*
X2382000Y1543001D01*
X2382000Y1512999D01*
X2351999Y1512999D01*
G37*
%LPD*%
%LPC*%
G36*
X911999Y2187999D02*
X911999Y2187999D01*
X911999Y2195740D01*
X934260Y2218001D01*
X942000Y2218001D01*
X942000Y2187999D01*
X911999Y2187999D01*
G37*
%LPD*%
%LPC*%
G36*
X231999Y2597999D02*
X231999Y2597999D01*
X231999Y2605740D01*
X254260Y2628001D01*
X262000Y2628001D01*
X262000Y2597999D01*
X231999Y2597999D01*
G37*
%LPD*%
%LPC*%
G36*
X847999Y1072000D02*
X847999Y1072000D01*
X878000Y1072000D01*
X878001Y1064260D01*
X855740Y1041999D01*
X847999Y1041999D01*
X847999Y1072000D01*
G37*
%LPD*%
%LPC*%
G36*
X801999Y1087999D02*
X801999Y1087999D01*
X801999Y1095740D01*
X824260Y1118001D01*
X832000Y1118001D01*
X832000Y1087999D01*
X801999Y1087999D01*
G37*
%LPD*%
%LPC*%
G36*
X2397999Y1466999D02*
X2397999Y1466999D01*
X2397999Y1497000D01*
X2428001Y1497000D01*
X2428001Y1489260D01*
X2405740Y1466999D01*
X2397999Y1466999D01*
G37*
%LPD*%
%LPC*%
G36*
X957999Y2141999D02*
X957999Y2141999D01*
X957999Y2172000D01*
X988001Y2172000D01*
X988001Y2164260D01*
X965740Y2141999D01*
X957999Y2141999D01*
G37*
%LPD*%
%LPC*%
G36*
X934260Y2141999D02*
X934260Y2141999D01*
X911999Y2164260D01*
X911999Y2172000D01*
X942000Y2172000D01*
X942000Y2141999D01*
X934260Y2141999D01*
G37*
%LPD*%
%LPC*%
G36*
X824260Y1041999D02*
X824260Y1041999D01*
X801999Y1064260D01*
X801999Y1072000D01*
X832000Y1072000D01*
X832000Y1041999D01*
X824260Y1041999D01*
G37*
%LPD*%
%LPC*%
G36*
X2374260Y1466999D02*
X2374260Y1466999D01*
X2351999Y1489260D01*
X2351999Y1497000D01*
X2382000Y1497000D01*
X2382000Y1466999D01*
X2374260Y1466999D01*
G37*
%LPD*%
%LPC*%
G36*
X1293858Y2028858D02*
X1293858Y2028858D01*
X1293858Y2058809D01*
X1294301Y2058739D01*
X1300246Y2056807D01*
X1305816Y2053969D01*
X1310873Y2050295D01*
X1315295Y2045873D01*
X1318969Y2040816D01*
X1321807Y2035246D01*
X1323739Y2029301D01*
X1323809Y2028858D01*
X1293858Y2028858D01*
G37*
%LPD*%
%LPC*%
G36*
X1246191Y2028858D02*
X1246191Y2028858D01*
X1246261Y2029301D01*
X1248193Y2035246D01*
X1251031Y2040816D01*
X1254705Y2045873D01*
X1259127Y2050295D01*
X1264183Y2053969D01*
X1269754Y2056807D01*
X1275699Y2058739D01*
X1276142Y2058809D01*
X1276142Y2028858D01*
X1246191Y2028858D01*
G37*
%LPD*%
%LPC*%
G36*
X1293858Y2011142D02*
X1293858Y2011142D01*
X1323809Y2011142D01*
X1323739Y2010699D01*
X1321807Y2004754D01*
X1318969Y1999183D01*
X1315295Y1994127D01*
X1310873Y1989705D01*
X1305816Y1986031D01*
X1300246Y1983193D01*
X1294301Y1981261D01*
X1293858Y1981191D01*
X1293858Y2011142D01*
G37*
%LPD*%
%LPC*%
G36*
X1275699Y1981261D02*
X1275699Y1981261D01*
X1269754Y1983193D01*
X1264183Y1986031D01*
X1259127Y1989705D01*
X1254705Y1994127D01*
X1251031Y1999183D01*
X1248193Y2004754D01*
X1246261Y2010699D01*
X1246191Y2011142D01*
X1276142Y2011142D01*
X1276142Y1981191D01*
X1275699Y1981261D01*
G37*
%LPD*%
%LPC*%
G36*
X139999Y2659999D02*
X139999Y2659999D01*
X139999Y2660001D01*
X140001Y2660001D01*
X140001Y2659999D01*
X139999Y2659999D01*
G37*
%LPD*%
%LPC*%
G36*
X1890904Y859999D02*
X1890904Y859999D01*
X1890904Y860001D01*
X1890907Y860001D01*
X1890907Y859999D01*
X1890904Y859999D01*
G37*
%LPD*%
%LPC*%
G36*
X2390904Y609999D02*
X2390904Y609999D01*
X2390904Y610001D01*
X2390907Y610001D01*
X2390907Y609999D01*
X2390904Y609999D01*
G37*
%LPD*%
D10*
X690000Y905000D03*
X790000Y905000D03*
X1165000Y915000D03*
X1265000Y915000D03*
D11*
X1700000Y1846850D03*
X1700000Y1512205D03*
X1700000Y1394094D03*
D12*
X143000Y2085000D02*
X87000Y2085000D01*
X87000Y1985000D02*
X143000Y1985000D01*
X143000Y1885000D02*
X87000Y1885000D01*
X87000Y1785000D02*
X143000Y1785000D01*
X143000Y1685000D02*
X87000Y1685000D01*
X87000Y1585000D02*
X143000Y1585000D01*
X143000Y1485000D02*
X87000Y1485000D01*
X87000Y1385000D02*
X143000Y1385000D01*
X387000Y1385000D02*
X443000Y1385000D01*
X443000Y1485000D02*
X387000Y1485000D01*
X387000Y1585000D02*
X443000Y1585000D01*
X443000Y1685000D02*
X387000Y1685000D01*
X387000Y1785000D02*
X443000Y1785000D01*
X443000Y1885000D02*
X387000Y1885000D01*
X387000Y1985000D02*
X443000Y1985000D01*
X443000Y2085000D02*
X387000Y2085000D01*
D13*
X1605000Y585000D03*
X1505000Y585000D03*
X1505000Y285000D03*
X1605000Y285000D03*
X1405000Y585000D03*
X1305000Y585000D03*
X1405000Y285000D03*
X1305000Y285000D03*
D14*
X2395000Y980000D03*
X2395000Y1080000D03*
D15*
X172000Y2460000D02*
X108000Y2460000D01*
X108000Y2560000D02*
X172000Y2560000D01*
X172000Y2660000D02*
X108000Y2660000D01*
X108000Y2760000D02*
X172000Y2760000D01*
D14*
X1160000Y2220000D03*
X795000Y2745000D03*
D16*
X605000Y1260000D03*
X205000Y1260000D03*
D17*
X2000000Y1650000D03*
X2400000Y1650000D03*
X1990000Y1280000D03*
X2390000Y1280000D03*
D18*
X1150000Y2345000D03*
X1150000Y2745000D03*
D19*
X905000Y2745000D03*
X905000Y2345000D03*
D16*
X455000Y775000D03*
X255000Y775000D03*
X355000Y675000D03*
D17*
X100000Y1050000D03*
X500000Y1050000D03*
D16*
X1780000Y1205000D03*
X1380000Y1205000D03*
X2390000Y1505000D03*
X1990000Y1505000D03*
D19*
X1190000Y1470000D03*
X1190000Y1070000D03*
D16*
X670000Y2425000D03*
X270000Y2425000D03*
D17*
X270000Y2590000D03*
X670000Y2590000D03*
X270000Y2765000D03*
X670000Y2765000D03*
D18*
X105000Y500000D03*
X105000Y900000D03*
D17*
X550000Y2180000D03*
X950000Y2180000D03*
D18*
X1350000Y1450000D03*
X1350000Y1850000D03*
X645000Y1560000D03*
X645000Y1960000D03*
D17*
X550000Y650000D03*
X950000Y650000D03*
D18*
X840000Y1080000D03*
X840000Y1480000D03*
X1000000Y990000D03*
X1000000Y1390000D03*
D11*
X1938150Y610000D03*
X2272795Y610000D03*
X2390906Y610000D03*
X1438150Y860000D03*
X1772795Y860000D03*
X1890906Y860000D03*
D20*
X1285000Y2620000D03*
D21*
X1285000Y2520000D03*
X1285000Y2420000D03*
X1285000Y2320000D03*
X1285000Y2220000D03*
X1285000Y2120000D03*
X1285000Y2020000D03*
X1585000Y2020000D03*
X1585000Y2120000D03*
X1585000Y2220000D03*
X1585000Y2320000D03*
X1585000Y2420000D03*
X1585000Y2520000D03*
X1585000Y2620000D03*
D22*
X1171299Y1625000D03*
D23*
X1171299Y1725000D03*
X1171299Y1825000D03*
X1171299Y1925000D03*
X858701Y1925000D03*
X858701Y1825000D03*
X858701Y1725000D03*
X858701Y1625000D03*
D24*
X2370591Y2608425D03*
D25*
X2370591Y2411575D03*
X1799724Y2608425D03*
X1799724Y2510000D03*
X1799724Y2411575D03*
D26*
X1160000Y920000D02*
X1128000Y920000D01*
X968000Y1080000D01*
X840000Y1080000D01*
X1160000Y920000D02*
X1165000Y915000D01*
X2040000Y1512000D02*
X2384000Y1512000D01*
X2040000Y1512000D02*
X2000000Y1552000D01*
X1856000Y1552000D01*
X1808000Y1504000D02*
X1704000Y1400000D01*
X1808000Y1504000D02*
X1856000Y1552000D01*
X2384000Y1512000D02*
X2390000Y1505000D01*
X1704000Y1400000D02*
X1700000Y1394094D01*
X2336000Y616000D02*
X2384000Y616000D01*
X2336000Y616000D02*
X2096000Y856000D01*
X1896000Y856000D01*
X2384000Y616000D02*
X2390906Y610000D01*
X1896000Y856000D02*
X1890906Y860000D01*
X1800000Y1504000D02*
X1288000Y2016000D01*
X1800000Y1504000D02*
X1808000Y1504000D01*
X1288000Y2016000D02*
X1285000Y2020000D01*
X544000Y864000D02*
X544000Y656000D01*
X544000Y864000D02*
X40000Y1368000D01*
X40000Y1400000D01*
X80000Y1440000D01*
X184000Y1440000D01*
X376000Y1632000D01*
X488000Y1632000D02*
X568000Y1632000D01*
X488000Y1632000D02*
X376000Y1632000D01*
X568000Y1632000D02*
X640000Y1560000D01*
X544000Y656000D02*
X550000Y650000D01*
X640000Y1560000D02*
X645000Y1560000D01*
X1264000Y1456000D02*
X1344000Y1456000D01*
X1264000Y1456000D02*
X1160000Y1560000D01*
X645000Y1560000D01*
X1344000Y1456000D02*
X1350000Y1450000D01*
X488000Y1912000D02*
X415000Y1985000D01*
X488000Y1912000D02*
X488000Y1632000D01*
X560000Y1584000D02*
X416000Y1584000D01*
X560000Y1584000D02*
X1224000Y920000D01*
X1264000Y920000D01*
X416000Y1584000D02*
X415000Y1585000D01*
X1264000Y920000D02*
X1265000Y915000D01*
X1880000Y1504000D02*
X1984000Y1504000D01*
X1880000Y1504000D02*
X1584000Y1208000D01*
X1384000Y1208000D01*
X1984000Y1504000D02*
X1990000Y1505000D01*
X1384000Y1208000D02*
X1380000Y1205000D01*
X1600000Y528000D02*
X1600000Y288000D01*
X1600000Y528000D02*
X1552000Y576000D01*
X1552000Y832000D01*
X1000000Y1384000D01*
X1600000Y288000D02*
X1605000Y285000D01*
X1000000Y1384000D02*
X1000000Y1390000D01*
X464000Y2080000D02*
X416000Y2080000D01*
X464000Y2080000D02*
X816000Y1728000D01*
X856000Y1728000D01*
X416000Y2080000D02*
X415000Y2085000D01*
X856000Y1728000D02*
X858701Y1725000D01*
X912000Y1928000D02*
X1168000Y1928000D01*
X912000Y1928000D02*
X296000Y2544000D01*
X160000Y2544000D01*
X144000Y2560000D01*
X1168000Y1928000D02*
X1171299Y1925000D01*
X144000Y2560000D02*
X140000Y2560000D01*
X912000Y2512000D02*
X912000Y2352000D01*
X912000Y2512000D02*
X1144000Y2744000D01*
X912000Y2352000D02*
X905000Y2345000D01*
X1144000Y2744000D02*
X1150000Y2745000D01*
X616000Y2760000D02*
X272000Y2760000D01*
X616000Y2760000D02*
X864000Y2512000D01*
X912000Y2512000D01*
X272000Y2760000D02*
X270000Y2765000D01*
X1360000Y592000D02*
X1400000Y592000D01*
X1360000Y592000D02*
X1008000Y944000D01*
X816000Y944000D01*
X416000Y1344000D01*
X160000Y1344000D01*
X120000Y1384000D01*
X1400000Y592000D02*
X1405000Y585000D01*
X120000Y1384000D02*
X115000Y1385000D01*
M02*
