M48
;GenerationSoftware,Autodesk,EAGLE,9.2.2*%
;CreationDate,2019-11-14T03:52:33Z*%
FMAT,2
ICI,OFF
INCH,TZ,00.0000
T8C0.0307
T7C0.0320
T6C0.0354
T5C0.0400
T4C0.0433
T3C0.0472
T2C0.1024
T1C0.2550
%
G90
M72
T1
X1950Y1950
X22700Y1950
X1950Y30150
X22700Y30150
T2
X20950Y27305
X20950Y22895
T3
X17997Y24116
X17997Y25100
X17997Y26084
X23706Y24116
X23706Y26084
T4
X17000Y18469
X17000Y15122
X17000Y13941
X19381Y6100
X22728Y6100
X23909Y6100
X14381Y8600
X17728Y8600
X18909Y8600
T5
X1400Y26600
X7950Y27450
X11600Y22200
X1400Y27600
X23950Y9800
X23950Y10800
X1400Y24600
X1400Y25600
T6
X12850Y20200
X12850Y21200
X12850Y22200
X15850Y20200
X12850Y24200
X12850Y25200
X12850Y26200
X15850Y21200
X15850Y22200
X15850Y23200
X15850Y24200
X15850Y25200
X15850Y26200
X12850Y23200
T7
X13050Y2850
X14050Y2850
X13050Y5850
X6050Y12600
X2050Y12600
X20000Y16500
X24000Y16500
X19900Y12800
X23900Y12800
X11500Y23450
X11500Y27450
X9050Y27450
X9050Y23450
X4550Y7750
X2550Y7750
X3550Y6750
X1000Y10500
X6900Y9050
X17800Y12050
X13800Y12050
X23900Y15050
X19900Y15050
X11900Y14700
X11900Y10700
X6700Y24250
X2700Y24250
X2700Y25900
X6700Y25900
X2700Y27650
X6700Y27650
X1050Y5000
X1050Y9000
X5500Y21800
X9500Y21800
X13500Y14500
X13500Y18500
X6450Y15600
X6450Y19600
X5500Y6500
X9500Y6500
X8400Y10800
X8400Y14800
X10000Y9900
X10000Y13900
X14050Y5850
X16050Y2850
X15050Y2850
X15050Y5850
X16050Y5850
X4150Y20850
X4150Y19850
X4150Y18850
X4150Y17850
X4150Y16850
X4150Y15850
X4150Y14850
X4150Y13850
X1150Y13850
X1150Y14850
X1150Y15850
X1150Y16850
X1150Y17850
X1150Y18850
X1150Y19850
X5000Y10500
X7900Y9050
X11650Y9150
X12650Y9150
X1150Y20850
T8
X8587Y18250
X8587Y17250
X8587Y16250
X8587Y19250
X11713Y19250
X11713Y18250
X11713Y17250
X11713Y16250
M30